<svg width="14" height="14" viewBox="0 0 14 14" fill="none" xmlns="http://www.w3.org/2000/svg">
<g clip-path="url(#clip0_11_1711)">
<path d="M6.9999 0.714233C5.10058 0.714233 3.57132 2.24349 3.57132 4.14281V4.71423C2.94275 4.71423 2.42847 5.22852 2.42847 5.85709V11.5714C2.42847 12.1999 2.94275 12.7142 3.57132 12.7142H10.4285C11.057 12.7142 11.5713 12.1999 11.5713 11.5714V5.85709C11.5713 5.22852 11.057 4.71423 10.4285 4.71423V4.14281C10.4285 2.24349 8.89922 0.714233 6.9999 0.714233ZM6.9999 1.85709C8.30058 1.85709 9.28561 2.84212 9.28561 4.14281V4.71423H4.71418V4.14281C4.71418 2.84212 5.69922 1.85709 6.9999 1.85709ZM6.9999 7.57138C7.62847 7.57138 8.14275 8.08566 8.14275 8.71423C8.14275 9.3428 7.62847 9.85709 6.9999 9.85709C6.37132 9.85709 5.85704 9.3428 5.85704 8.71423C5.85704 8.08566 6.37132 7.57138 6.9999 7.57138Z" fill="#A9A9CD"/>
</g>
<defs>
<clipPath id="clip0_11_1711">
<rect width="13.7143" height="13.7143" fill="white" transform="translate(0.142822 0.142822)"/>
</clipPath>
</defs>
</svg>
