<svg width="15" height="15" viewBox="0 0 15 15" fill="none" xmlns="http://www.w3.org/2000/svg">
<g clip-path="url(#clip0_11_1719)">
<path d="M7.72642 0.913574C9.36769 0.913574 10.7442 2.0828 11.0847 3.64907L9.96749 3.89237C9.73656 2.83006 8.82801 2.05643 7.72642 2.05643C6.42574 2.05643 5.44071 3.04147 5.44071 4.34215V4.91357H11.155C11.7836 4.91357 12.2979 5.42786 12.2979 6.05643V11.7707C12.2979 12.3993 11.7836 12.9136 11.155 12.9136H4.29785C3.66928 12.9136 3.15499 12.3993 3.15499 11.7707V6.05643C3.15499 5.42786 3.66928 4.91357 4.29785 4.91357V4.34215C4.29785 2.44283 5.8271 0.913574 7.72642 0.913574ZM7.72642 7.77072C7.09785 7.77072 6.58357 8.285 6.58357 8.91357C6.58357 9.54215 7.09785 10.0564 7.72642 10.0564C8.35499 10.0564 8.86928 9.54215 8.86928 8.91357C8.86928 8.285 8.35499 7.77072 7.72642 7.77072Z" fill="#A9A9CD"/>
</g>
<defs>
<clipPath id="clip0_11_1719">
<rect width="13.7143" height="13.7143" fill="white" transform="matrix(-1 0 0 1 14.584 0.342163)"/>
</clipPath>
</defs>
</svg>
