<svg width="22" height="22" viewBox="0 0 22 22" fill="none" xmlns="http://www.w3.org/2000/svg">
<g clip-path="url(#clip0_0_761)">
<path d="M5.72925 2.29167C4.59212 2.29167 3.66675 3.21705 3.66675 4.35417V15.125H2.97925C2.59975 15.125 2.29175 15.4325 2.29175 15.8125V16.7292C2.29175 18.3718 3.62825 19.7083 5.27092 19.7083H11.6759C11.4518 19.2784 11.2803 18.8169 11.1657 18.3333H5.27092C4.38633 18.3333 3.66675 17.6138 3.66675 16.7292V16.5H11.0234C11.0596 16.0238 11.1494 15.5632 11.291 15.125H5.04175V4.35417C5.04175 3.97513 5.35021 3.66667 5.72925 3.66667H16.2709C16.65 3.66667 16.9584 3.97513 16.9584 4.35417V11C17.4323 11 17.8911 11.0611 18.3334 11.1656V4.35417C18.3334 3.21705 17.408 2.29167 16.2709 2.29167H5.72925ZM7.56258 5.95834C7.38025 5.95834 7.20538 6.03077 7.07645 6.1597C6.94751 6.28863 6.87508 6.4635 6.87508 6.64584C6.87508 6.82818 6.94751 7.00304 7.07645 7.13197C7.20538 7.26091 7.38025 7.33334 7.56258 7.33334C7.74492 7.33334 7.91979 7.26091 8.04872 7.13197C8.17765 7.00304 8.25008 6.82818 8.25008 6.64584C8.25008 6.4635 8.17765 6.28863 8.04872 6.1597C7.91979 6.03077 7.74492 5.95834 7.56258 5.95834ZM9.85425 5.95834C9.76315 5.95705 9.6727 5.97388 9.58816 6.00785C9.50362 6.04182 9.42667 6.09226 9.36179 6.15623C9.29691 6.2202 9.24539 6.29642 9.21023 6.38047C9.17507 6.46453 9.15696 6.55473 9.15696 6.64584C9.15696 6.73695 9.17507 6.82715 9.21023 6.9112C9.24539 6.99526 9.29691 7.07148 9.36179 7.13545C9.42667 7.19942 9.50362 7.24985 9.58816 7.28382C9.6727 7.3178 9.76315 7.33463 9.85425 7.33334H14.4376C14.5287 7.33463 14.6191 7.3178 14.7037 7.28382C14.7882 7.24985 14.8652 7.19942 14.93 7.13545C14.9949 7.07148 15.0464 6.99526 15.0816 6.9112C15.1168 6.82715 15.1349 6.73695 15.1349 6.64584C15.1349 6.55473 15.1168 6.46453 15.0816 6.38047C15.0464 6.29642 14.9949 6.2202 14.93 6.15623C14.8652 6.09226 14.7882 6.04182 14.7037 6.00785C14.6191 5.97388 14.5287 5.95705 14.4376 5.95834H9.85425ZM7.56258 8.70834C7.38025 8.70834 7.20538 8.78077 7.07645 8.9097C6.94751 9.03863 6.87508 9.2135 6.87508 9.39584C6.87508 9.57818 6.94751 9.75304 7.07645 9.88197C7.20538 10.0109 7.38025 10.0833 7.56258 10.0833C7.74492 10.0833 7.91979 10.0109 8.04872 9.88197C8.17765 9.75304 8.25008 9.57818 8.25008 9.39584C8.25008 9.2135 8.17765 9.03863 8.04872 8.9097C7.91979 8.78077 7.74492 8.70834 7.56258 8.70834ZM9.85425 8.70834C9.76315 8.70705 9.6727 8.72388 9.58816 8.75785C9.50362 8.79183 9.42667 8.84226 9.36179 8.90623C9.29691 8.9702 9.24539 9.04642 9.21023 9.13047C9.17507 9.21453 9.15696 9.30473 9.15696 9.39584C9.15696 9.48695 9.17507 9.57715 9.21023 9.6612C9.24539 9.74526 9.29691 9.82148 9.36179 9.88545C9.42667 9.94942 9.50362 9.99985 9.58816 10.0338C9.6727 10.0678 9.76315 10.0846 9.85425 10.0833H14.4376C14.5287 10.0846 14.6191 10.0678 14.7037 10.0338C14.7882 9.99985 14.8652 9.94942 14.93 9.88545C14.9949 9.82148 15.0464 9.74526 15.0816 9.6612C15.1168 9.57715 15.1349 9.48695 15.1349 9.39584C15.1349 9.30473 15.1168 9.21453 15.0816 9.13047C15.0464 9.04642 14.9949 8.9702 14.93 8.90623C14.8652 8.84226 14.7882 8.79183 14.7037 8.75785C14.6191 8.72388 14.5287 8.70705 14.4376 8.70834H9.85425ZM7.56258 11.4583C7.38025 11.4583 7.20538 11.5308 7.07645 11.6597C6.94751 11.7886 6.87508 11.9635 6.87508 12.1458C6.87508 12.3282 6.94751 12.503 7.07645 12.632C7.20538 12.7609 7.38025 12.8333 7.56258 12.8333C7.74492 12.8333 7.91979 12.7609 8.04872 12.632C8.17765 12.503 8.25008 12.3282 8.25008 12.1458C8.25008 11.9635 8.17765 11.7886 8.04872 11.6597C7.91979 11.5308 7.74492 11.4583 7.56258 11.4583ZM9.85425 11.4583C9.47475 11.4583 9.16675 11.7659 9.16675 12.1458C9.16675 12.5258 9.47475 12.8333 9.85425 12.8333H12.6651C13.2133 12.2627 13.872 11.7992 14.6095 11.4825C14.554 11.4683 14.4972 11.4583 14.4376 11.4583H9.85425ZM16.9584 11.9167C14.174 11.9167 11.9167 14.174 11.9167 16.9583C11.9167 19.7427 14.174 22 16.9584 22C19.7428 22 22.0001 19.7427 22.0001 16.9583C22.0001 14.174 19.7428 11.9167 16.9584 11.9167ZM15.1251 13.75H18.7917C19.0452 13.75 19.2501 13.9553 19.2501 14.2083C19.2501 14.4613 19.0452 14.6667 18.7917 14.6667V15.5833C18.7917 16.1333 18.543 16.6219 18.158 16.9583C18.543 17.2948 18.7917 17.7833 18.7917 18.3333V19.25C19.0452 19.25 19.2501 19.4553 19.2501 19.7083C19.2501 19.9613 19.0452 20.1667 18.7917 20.1667H18.3334H15.5834H15.1251C14.8716 20.1667 14.6667 19.9613 14.6667 19.7083C14.6667 19.4553 14.8716 19.25 15.1251 19.25V18.3333C15.1251 17.7833 15.3739 17.2948 15.7589 16.9583C15.3739 16.6219 15.1251 16.1333 15.1251 15.5833V14.6667C14.8716 14.6667 14.6667 14.4613 14.6667 14.2083C14.6667 13.9553 14.8716 13.75 15.1251 13.75ZM16.0417 14.6667V15.5833H17.8751V14.6667H16.0417ZM16.9584 17.4167C16.4529 17.4167 16.0417 17.8278 16.0417 18.3333V19.0719L16.8134 18.8149C16.9074 18.7838 17.0095 18.7838 17.1034 18.8149L17.8751 19.0719V18.3333C17.8751 17.8278 17.464 17.4167 16.9584 17.4167Z" fill="white"/>
</g>
<defs>
<clipPath id="clip0_0_761">
<rect width="22" height="22" fill="white"/>
</clipPath>
</defs>
</svg>
