<svg width="17" height="16" viewBox="0 0 17 16" fill="none" xmlns="http://www.w3.org/2000/svg">
<path d="M3.09229 8.89844C3.46059 8.53261 4.08813 8.79421 4.08838 9.31348V10.2734H14.9263C15.811 10.2734 16.5278 10.99 16.5278 11.875C16.5277 12.7599 15.8109 13.4766 14.9263 13.4766H4.08838V14.4355C4.08838 14.9542 3.46244 15.2162 3.09326 14.8506L0.679199 12.46C0.353912 12.1378 0.354066 11.6123 0.679199 11.29L3.09229 8.89844ZM12.8755 1.53906C12.8755 1.02032 13.5022 0.758086 13.8716 1.12305L16.2847 3.51367C16.5898 3.81633 16.6089 4.2976 16.3413 4.62207L16.2837 4.68555L13.8706 7.07617C13.502 7.44185 12.8756 7.18045 12.8755 6.66113V5.70117H2.03662C1.15184 5.70092 0.435059 4.98445 0.435059 4.09961C0.435252 3.21494 1.15196 2.49829 2.03662 2.49805H12.8755V1.53906Z" fill="url(#paint0_linear_462_118)" stroke="url(#paint1_linear_462_118)" stroke-width="0.0932978"/>
<defs>
<linearGradient id="paint0_linear_462_118" x1="1.49304" y1="0.989978" x2="14.788" y2="14.9846" gradientUnits="userSpaceOnUse">
<stop stop-color="#1BB71F"/>
<stop offset="1" stop-color="#009900"/>
</linearGradient>
<linearGradient id="paint1_linear_462_118" x1="1.49304" y1="0.989978" x2="14.788" y2="14.9846" gradientUnits="userSpaceOnUse">
<stop stop-color="#141414"/>
<stop offset="0.355769" stop-color="#009900"/>
<stop offset="0.783654" stop-color="#1BB71F"/>
<stop offset="1" stop-color="#F5F5F5"/>
</linearGradient>
</defs>
</svg>
