<svg width="88" height="88" viewBox="0 0 88 88" fill="none" xmlns="http://www.w3.org/2000/svg">
<g clip-path="url(#clip0_288_334)">
<path d="M44 0.6875C20.1165 0.6875 0.6875 20.1165 0.6875 44C0.6875 58.9809 8.27059 72.696 20.9616 80.6846C21.3053 80.8976 21.684 81.0015 22.0546 81.0015C22.7421 81.0015 23.409 80.6577 23.8011 80.0383C24.4054 79.0759 24.1171 77.8039 23.1548 77.1925C18.439 74.2285 14.5064 70.3855 11.5085 65.9579C16.2252 62.8991 21.2856 60.5483 26.6138 58.9397C26.8608 59.902 27.1142 60.8643 27.4105 61.8204C27.6853 62.7066 28.4972 63.2769 29.3835 63.2769C29.5831 63.2769 29.789 63.25 29.9886 63.1882C31.0745 62.8516 31.6868 61.696 31.3493 60.6101C31.0745 59.7096 30.8274 58.8009 30.5938 57.887C31.4603 57.6873 32.334 57.5092 33.2068 57.3445C34.3276 57.1386 35.0697 56.0653 34.8638 54.9454C34.6579 53.8246 33.5846 53.0816 32.4638 53.2884C31.5426 53.4531 30.6287 53.6456 29.7209 53.8515C29.1713 50.6136 28.875 47.3202 28.875 44C28.875 40.6654 29.1776 37.3721 29.7415 34.1548C34.3822 35.2066 39.1535 35.75 44 35.75C44.5362 35.75 45.0724 35.7437 45.6015 35.7294C46.7428 35.7026 47.6434 34.7537 47.6094 33.6195C47.5816 32.4987 46.6605 31.6044 45.5469 31.6044H45.4923C45.0035 31.6187 44.5022 31.625 44 31.625C39.4417 31.625 34.9524 31.1165 30.5938 30.1202C32.8899 21.0243 37.4491 12.6355 43.9731 5.6298C49.8921 12.0035 54.2991 19.7039 56.7537 28.0022C57.0222 28.9028 57.8395 29.4801 58.7329 29.4801C58.9254 29.4801 59.1241 29.4524 59.3175 29.3978C60.4105 29.0746 61.0362 27.9261 60.714 26.8331C58.3757 18.9125 54.3743 11.5022 49.0524 5.14998C60.4311 6.62077 70.304 12.9801 76.4638 22.0618C73.054 24.2684 69.4303 26.1259 65.6562 27.5895C64.5973 28.0022 64.0673 29.1982 64.48 30.2572C64.796 31.0745 65.5802 31.5767 66.4055 31.5767C66.6526 31.5767 66.9077 31.5292 67.1485 31.4397C71.1428 29.8857 74.9787 27.927 78.5952 25.5959C81.5305 31.0888 83.2009 37.3515 83.2009 44C83.2009 47.5199 82.7336 51.0057 81.8197 54.3671C81.5171 55.4673 82.1625 56.6015 83.2627 56.9041C84.3629 57.2066 85.498 56.5603 85.8005 55.461C86.7978 51.7415 87.3125 47.8842 87.3125 44C87.3125 20.1165 67.8835 0.6875 44 0.6875ZM38.8858 5.15625C32.9937 12.1619 28.8276 20.309 26.6138 29.054C21.3134 27.4517 16.2529 25.1072 11.5505 22.0618C17.6897 13.0007 27.5349 6.64852 38.8858 5.15625ZM9.41821 25.5959C14.5127 28.8822 20.0055 31.3914 25.7392 33.0967C25.0938 36.6649 24.75 40.3011 24.75 44C24.75 47.6711 25.0866 51.3145 25.7329 54.8962C19.9644 56.6015 14.493 59.1259 9.39136 62.4255C6.4283 56.8566 4.8125 50.5653 4.8125 44C4.8125 37.3515 6.48291 31.0888 9.41821 25.5959ZM58.4375 35.0625C55.2059 35.0625 52.3118 36.7329 50.696 39.5312L30.848 73.9062C29.2322 76.7046 29.2322 80.0454 30.848 82.8438C32.4629 85.6421 35.3588 87.3125 38.5895 87.3125H78.2783C81.5099 87.3125 84.4041 85.6421 86.019 82.8438C87.6348 80.0454 87.6348 76.7046 86.019 73.9062L66.1719 39.5312C64.5632 36.7329 61.6691 35.0625 58.4375 35.0625ZM58.4375 39.1875C60.1768 39.1875 61.738 40.0881 62.6046 41.5938L82.4517 75.9688C83.3182 77.4744 83.3245 79.2756 82.4517 80.7812C81.5789 82.2869 80.0248 83.1875 78.2846 83.1875H38.5895C36.8502 83.1875 35.2899 82.2869 34.4233 80.7812C33.5505 79.2756 33.5568 77.4744 34.4233 75.9688L54.2704 41.5938C55.137 40.0881 56.6982 39.1875 58.4375 39.1875ZM58.4375 49.5C57.2961 49.5 56.375 50.4211 56.375 51.5625V65.3125C56.375 66.4539 57.2961 67.375 58.4375 67.375C59.5789 67.375 60.5 66.4539 60.5 65.3125V51.5625C60.5 50.4211 59.5789 49.5 58.4375 49.5ZM58.4375 71.5C57.2961 71.5 56.375 72.4211 56.375 73.5625V75.625C56.375 76.7664 57.2961 77.6875 58.4375 77.6875C59.5789 77.6875 60.5 76.7664 60.5 75.625V73.5625C60.5 72.4211 59.5789 71.5 58.4375 71.5Z" fill="#65656E"/>
</g>
<defs>
<clipPath id="clip0_288_334">
<rect width="88" height="88" fill="white"/>
</clipPath>
</defs>
</svg>
