<svg width="88" height="80" viewBox="0 0 88 80" fill="none" xmlns="http://www.w3.org/2000/svg">
<path d="M14.4948 0C9.95696 0 6.30208 3.65488 6.30208 8.19271V56.0885C6.30208 57.1602 7.12103 57.9792 8.19271 57.9792C9.26439 57.9792 10.0833 57.1602 10.0833 56.0885V8.19271C10.0833 5.73506 12.0371 3.78125 14.4948 3.78125H64.2812C63.4623 5.04167 63.0208 6.554 63.0208 8.19271V42.224C63.0208 43.2956 63.8398 44.1146 64.9115 44.1146C65.9831 44.1146 66.8021 43.2956 66.8021 42.224V8.19271C66.8021 5.73506 68.7559 3.78125 71.2135 3.78125C73.6712 3.78125 75.625 5.73506 75.625 8.19271V12.6042H71.2135C70.1419 12.6042 69.3229 13.4231 69.3229 14.4948C69.3229 15.5665 70.1419 16.3854 71.2135 16.3854H77.5156C78.5873 16.3854 79.4062 15.5665 79.4062 14.4948V8.19271C79.4062 3.65488 75.7514 0 71.2135 0H14.4948ZM21.4271 25.2083C20.3833 25.2083 19.5365 26.0552 19.5365 27.099C19.5365 28.1427 20.3833 28.9896 21.4271 28.9896C22.4709 28.9896 23.3177 28.1427 23.3177 27.099C23.3177 26.0552 22.4709 25.2083 21.4271 25.2083ZM30.8802 25.2083C29.8085 25.2083 28.9896 26.0273 28.9896 27.099C28.9896 28.1706 29.8085 28.9896 30.8802 28.9896H52.3073C53.379 28.9896 54.1979 28.1706 54.1979 27.099C54.1979 26.0273 53.379 25.2083 52.3073 25.2083H30.8802ZM21.4271 34.6615C20.3833 34.6615 19.5365 35.5083 19.5365 36.5521C19.5365 37.5959 20.3833 38.4427 21.4271 38.4427C22.4709 38.4427 23.3177 37.5959 23.3177 36.5521C23.3177 35.5083 22.4709 34.6615 21.4271 34.6615ZM30.8802 34.6615C29.8085 34.6615 28.9896 35.4804 28.9896 36.5521C28.9896 37.6238 29.8085 38.4427 30.8802 38.4427H52.3073C53.379 38.4427 54.1979 37.6238 54.1979 36.5521C54.1979 35.4804 53.379 34.6615 52.3073 34.6615H30.8802ZM21.4271 44.1146C20.3833 44.1146 19.5365 44.9614 19.5365 46.0052C19.5365 47.049 20.3833 47.8958 21.4271 47.8958C22.4709 47.8958 23.3177 47.049 23.3177 46.0052C23.3177 44.9614 22.4709 44.1146 21.4271 44.1146ZM30.8802 44.1146C29.8085 44.1146 28.9896 44.9335 28.9896 46.0052C28.9896 47.0769 29.8085 47.8958 30.8802 47.8958H52.3073C53.379 47.8958 54.1979 47.0769 54.1979 46.0052C54.1979 44.9335 53.379 44.1146 52.3073 44.1146H30.8802ZM1.89062 63.0208C0.818943 63.0208 0 63.8398 0 64.9115V71.2135C0 75.7514 3.65488 79.4062 8.19271 79.4062H58.6094C59.6811 79.4062 60.5 78.5873 60.5 77.5156C60.5 76.4439 59.6811 75.625 58.6094 75.625C56.1517 75.625 54.1979 73.6712 54.1979 71.2135V64.9115C54.1979 63.8398 53.379 63.0208 52.3073 63.0208H1.89062ZM3.78125 66.8021H50.4167V71.2135C50.4167 72.8522 50.9205 74.3646 51.6771 75.625H8.19271C5.73506 75.625 3.78125 73.6712 3.78125 71.2135V66.8021Z" fill="#65656E"/>
<path d="M84.3333 62.3333C84.3333 56.7644 79.8189 52.2499 74.25 52.2499C68.6811 52.2499 64.1667 56.7644 64.1667 62.3333C64.1667 67.9021 68.6811 72.4166 74.25 72.4166V76.0833C66.6561 76.0833 60.5 69.9272 60.5 62.3333C60.5 54.7393 66.6561 48.5833 74.25 48.5833C81.8439 48.5833 88 54.7393 88 62.3333C88 69.9272 81.8439 76.0833 74.25 76.0833V72.4166C79.8189 72.4166 84.3333 67.9021 84.3333 62.3333Z" fill="#65656E"/>
<path d="M77.5076 57.1412C78.0476 56.7011 78.8439 56.7328 79.3472 57.2361C79.8504 57.7394 79.8822 58.5356 79.4421 59.0757L79.3472 59.1804L76.1943 62.3332L79.3472 65.4861C79.8841 66.0231 79.8841 66.8934 79.3472 67.4304C78.8102 67.9674 77.9398 67.9674 77.4028 67.4304L74.25 64.2776L71.0972 67.4304C70.5602 67.9674 69.6898 67.9674 69.1528 67.4304C68.6159 66.8934 68.6159 66.0231 69.1528 65.4861L72.3057 62.3332L69.1528 59.1804L69.0579 59.0757C68.6178 58.5356 68.6495 57.7394 69.1528 57.2361C69.6561 56.7328 70.4524 56.701 70.9924 57.1412L71.0972 57.2361L74.25 60.3889L77.4028 57.2361L77.5076 57.1412Z" fill="#65656E"/>
</svg>
