<svg width="18" height="18" viewBox="0 0 18 18" fill="none" xmlns="http://www.w3.org/2000/svg">
<path d="M6.33341 4.19994V5.79994C6.33341 6.09449 6.09463 6.33328 5.80008 6.33328H4.20008C3.90553 6.33328 3.66675 6.09449 3.66675 5.79994V4.19994C3.66675 3.90539 3.90553 3.66661 4.20008 3.66661H5.80008C6.09463 3.66661 6.33341 3.90539 6.33341 4.19994Z" stroke="white" stroke-width="1.13462" stroke-linecap="round" stroke-linejoin="round"/>
<path d="M3.66675 8.99998H6.33341" stroke="white" stroke-width="1.13462" stroke-linecap="round" stroke-linejoin="round"/>
<path d="M11.6662 8.99998V11.6666" stroke="white" stroke-width="1.13462" stroke-linecap="round" stroke-linejoin="round"/>
<path d="M9.00043 14.3334H11.6671" stroke="white" stroke-width="1.13462" stroke-linecap="round" stroke-linejoin="round"/>
<path d="M9.00043 9.00884L9.0084 8.99998" stroke="white" stroke-width="1.13462" stroke-linecap="round" stroke-linejoin="round"/>
<path d="M14.3319 9.00884L14.3399 8.99998" stroke="white" stroke-width="1.13462" stroke-linecap="round" stroke-linejoin="round"/>
<path d="M9.00043 11.6755L9.0084 11.6666" stroke="white" stroke-width="1.13462" stroke-linecap="round" stroke-linejoin="round"/>
<path d="M14.3319 11.6755L14.3399 11.6666" stroke="white" stroke-width="1.13462" stroke-linecap="round" stroke-linejoin="round"/>
<path d="M14.3319 14.3422L14.3399 14.3334" stroke="white" stroke-width="1.13462" stroke-linecap="round" stroke-linejoin="round"/>
<path d="M9.00043 6.34223L9.0084 6.33337" stroke="white" stroke-width="1.13462" stroke-linecap="round" stroke-linejoin="round"/>
<path d="M9.00043 3.67547L9.0084 3.66661" stroke="white" stroke-width="1.13462" stroke-linecap="round" stroke-linejoin="round"/>
<path d="M6.33341 12.1999V13.7999C6.33341 14.0945 6.09463 14.3333 5.80008 14.3333H4.20008C3.90553 14.3333 3.66675 14.0945 3.66675 13.7999V12.1999C3.66675 11.9054 3.90553 11.6666 4.20008 11.6666H5.80008C6.09463 11.6666 6.33341 11.9054 6.33341 12.1999Z" stroke="white" stroke-width="1.13462" stroke-linecap="round" stroke-linejoin="round"/>
<path d="M14.3328 4.19994V5.79994C14.3328 6.09449 14.0941 6.33328 13.7995 6.33328H12.1995C11.9049 6.33328 11.6662 6.09449 11.6662 5.79994V4.19994C11.6662 3.90539 11.9049 3.66661 12.1995 3.66661H13.7995C14.0941 3.66661 14.3328 3.90539 14.3328 4.19994Z" stroke="white" stroke-width="1.13462" stroke-linecap="round" stroke-linejoin="round"/>
<path d="M14.3319 1H16.9985V3.66666" stroke="white" stroke-width="1.13462" stroke-linecap="round" stroke-linejoin="round"/>
<path d="M14.3319 17H16.9985V14.3334" stroke="white" stroke-width="1.13462" stroke-linecap="round" stroke-linejoin="round"/>
<path d="M3.66666 1H1V3.66666" stroke="white" stroke-width="1.13462" stroke-linecap="round" stroke-linejoin="round"/>
<path d="M3.66666 17H1V14.3334" stroke="white" stroke-width="1.13462" stroke-linecap="round" stroke-linejoin="round"/>
</svg>
