<svg width="12" height="12" viewBox="0 0 12 12" fill="none" xmlns="http://www.w3.org/2000/svg">
<path d="M6 1C3.24457 1 1 3.24457 1 6C1 8.75543 3.24457 11 6 11C8.75543 11 11 8.75543 11 6C11 3.24457 8.75543 1 6 1ZM6 2C8.21506 2 10 3.78494 10 6C10 8.21506 8.21506 10 6 10C3.78494 10 2 8.21506 2 6C2 3.78494 3.78494 2 6 2ZM7.99023 4.49523C7.86024 4.49891 7.73698 4.55339 7.64648 4.64648L5.5 6.79297L4.35352 5.64648C4.22808 5.51584 4.04188 5.46332 3.86675 5.5089C3.69141 5.55469 3.55469 5.69141 3.5089 5.86675C3.46332 6.04188 3.51584 6.22808 3.64648 6.35352L5.14648 7.85352C5.3418 8.04861 5.6582 8.04861 5.85352 7.85352L8.35352 5.35352C8.5013 5.20985 8.54579 4.99002 8.46549 4.80013C8.3852 4.61024 8.1964 4.48893 7.99023 4.49523Z" fill="#20D030"/>
</svg>
