<svg width="15" height="15" viewBox="0 0 15 15" fill="none" xmlns="http://www.w3.org/2000/svg">
<path d="M13.4848 7.42235C13.4831 7.3046 13.4355 7.19216 13.3523 7.1089L11.5423 5.29892C11.5006 5.2555 11.4506 5.22083 11.3954 5.19694C11.3401 5.17306 11.2806 5.16044 11.2204 5.15983C11.1602 5.15922 11.1005 5.17062 11.0448 5.19338C10.9891 5.21614 10.9384 5.24978 10.8958 5.29235C10.8533 5.33492 10.8196 5.38556 10.7969 5.44129C10.7741 5.49703 10.7627 5.55675 10.7633 5.61695C10.7639 5.67715 10.7766 5.73662 10.8004 5.79188C10.8243 5.84714 10.859 5.89709 10.9024 5.93878L11.9394 6.97575L5.793 6.97044C5.73304 6.96952 5.6735 6.98052 5.61783 7.00281C5.56216 7.0251 5.51148 7.05823 5.46872 7.10028C5.42597 7.14232 5.392 7.19245 5.36878 7.24774C5.34557 7.30303 5.33358 7.36238 5.3335 7.42234C5.33342 7.48231 5.34526 7.54169 5.36833 7.59704C5.3914 7.65239 5.42524 7.7026 5.46788 7.74476C5.51053 7.78691 5.56113 7.82018 5.61674 7.84261C5.67235 7.86504 5.73186 7.8762 5.79182 7.87543L11.9406 7.88074L10.9024 8.91888C10.859 8.96058 10.8243 9.01052 10.8004 9.06578C10.7766 9.12104 10.7639 9.18052 10.7633 9.24072C10.7627 9.30091 10.7741 9.36063 10.7969 9.41637C10.8196 9.4721 10.8533 9.52274 10.8958 9.56531C10.9384 9.60788 10.9891 9.64153 11.0448 9.66428C11.1005 9.68704 11.1602 9.69844 11.2204 9.69783C11.2806 9.69722 11.3401 9.6846 11.3954 9.66072C11.4506 9.63684 11.5006 9.60216 11.5423 9.55874L13.3523 7.74876C13.395 7.70598 13.4288 7.65505 13.4516 7.59898C13.4744 7.54292 13.4857 7.48286 13.4848 7.42235ZM12.2823 3.96795C12.2809 3.86584 12.2449 3.7672 12.1804 3.68809C11.0762 2.29359 9.3668 1.39557 7.45156 1.39557C4.1249 1.39557 1.41829 4.10218 1.41829 7.42883C1.41829 10.7555 4.1249 13.4621 7.45156 13.4621C9.3668 13.4621 11.0762 12.5641 12.1804 11.1696C12.2175 11.123 12.2452 11.0696 12.2616 11.0123C12.2781 10.9551 12.2831 10.8951 12.2764 10.8359C12.2697 10.7768 12.2513 10.7195 12.2224 10.6674C12.1934 10.6153 12.1545 10.5695 12.1078 10.5325C12.0611 10.4955 12.0076 10.468 11.9503 10.4518C11.8929 10.4355 11.833 10.4308 11.7738 10.4377C11.7146 10.4447 11.6574 10.4633 11.6055 10.4924C11.5535 10.5215 11.5078 10.5607 11.471 10.6075C10.531 11.7946 9.08447 12.5571 7.45156 12.5571C4.61403 12.5571 2.32328 10.2664 2.32328 7.42883C2.32328 4.5913 4.61403 2.30056 7.45156 2.30056C9.08448 2.30056 10.531 3.06304 11.471 4.25017C11.5289 4.32556 11.6091 4.38078 11.7002 4.40801C11.7913 4.43523 11.8887 4.43307 11.9785 4.40183C12.0683 4.37059 12.146 4.31187 12.2005 4.23398C12.255 4.1561 12.2836 4.06302 12.2823 3.96795Z" fill="#AFAFBE"/>
</svg>
