<svg width="17" height="17" viewBox="0 0 17 17" fill="none" xmlns="http://www.w3.org/2000/svg">
<path d="M8.5 0C3.80545 0 0 3.80545 0 8.5C0 13.1945 3.80545 17 8.5 17C13.1945 17 17 13.1945 17 8.5C17 3.80545 13.1946 0 8.5 0ZM11.9 9.35H7.1519L8.5 10.6981C8.8315 11.0296 8.8315 11.5685 8.5 11.9C8.1685 12.2315 7.6296 12.2315 7.2981 11.9L4.49905 9.10095C4.1667 8.7686 4.1667 8.23055 4.49905 7.89905L7.2981 5.1C7.6296 4.7685 8.1685 4.7685 8.5 5.1C8.8315 5.4315 8.8315 5.9704 8.5 6.3019L7.1519 7.65H11.9C12.3692 7.65 12.75 8.0308 12.75 8.5C12.75 8.9692 12.3692 9.35 11.9 9.35Z" fill="white"/>
</svg>
