<svg width="23" height="23" viewBox="0 0 23 23" fill="none" xmlns="http://www.w3.org/2000/svg">
<path d="M2.88447 19.0919C2.88447 19.0919 4.11553 18.5853 5.35133 18.5853C6.59186 18.5853 9.67424 21.3125 10.8485 21.3125C11.7244 21.3125 17.6903 18.9925 20.4081 17.7993C21.303 17.4015 21.7434 16.3978 21.4356 15.4697C21.142 14.589 20.2519 14.054 19.3333 14.2055L13.9119 15.0909C13.6042 14.6175 9.79262 12.2216 7.42046 12.2216C4.88258 12.2216 1 13.7557 1 13.7557" stroke="#AFAFBE" stroke-width="1.5" stroke-miterlimit="10"/>
<path d="M8.10693 15.6639L12.1458 17.5862C12.8181 17.823 13.5662 17.5815 13.9734 16.9991C14.48 16.2794 14.3048 15.2851 13.5804 14.7784L13.3105 14.5891" stroke="#AFAFBE" stroke-width="1.5" stroke-miterlimit="10"/>
<path d="M11.7008 6.64867C10.5597 6.3267 9.71692 5.28504 9.71692 4.03977C9.71692 2.53409 10.9385 1.3125 12.4442 1.3125C13.9499 1.3125 15.1715 2.53409 15.1715 4.03977" stroke="#AFAFBE" stroke-width="1.5" stroke-miterlimit="10"/>
<path d="M18.8078 7.67616C18.8078 9.68373 17.179 11.3125 15.1715 11.3125C13.1639 11.3125 11.5351 9.68373 11.5351 7.67616C11.5351 5.66858 13.1639 4.03979 15.1715 4.03979C17.179 4.03979 18.8078 5.66858 18.8078 7.67616Z" stroke="#AFAFBE" stroke-width="1.5" stroke-miterlimit="10"/>
</svg>
