<svg width="9" height="9" viewBox="0 0 9 9" fill="none" xmlns="http://www.w3.org/2000/svg">
<path d="M5.96443 0.633301C5.7911 0.633301 5.6361 0.731668 5.56944 0.881562C5.50444 1.03302 5.54277 1.20477 5.66777 1.31875L6.6461 2.23529H0.422793V3.03473H6.6461L5.66777 3.95127C5.5561 4.0512 5.5111 4.20109 5.5511 4.34006C5.58944 4.48058 5.7061 4.58988 5.8561 4.62579C6.00443 4.66326 6.16443 4.62111 6.2711 4.51649L7.97776 2.91762C8.14442 2.76148 8.14442 2.50854 7.97776 2.3524L6.2711 0.753528C6.1911 0.675458 6.0811 0.633301 5.96443 0.633301ZM2.42284 4.62579C2.31118 4.62891 2.20618 4.67263 2.12951 4.74758L0.422851 6.34645C0.256185 6.50259 0.256185 6.75553 0.422851 6.91167L2.12951 8.51054C2.23618 8.61516 2.39618 8.65732 2.54451 8.61984C2.69451 8.58393 2.81117 8.47463 2.84951 8.33411C2.88951 8.19514 2.84451 8.04525 2.73284 7.94532L1.75451 7.02878H7.97782V6.22934H1.75451L2.73284 5.3128C2.85951 5.19726 2.89617 5.02239 2.82784 4.87093C2.75951 4.71791 2.59951 4.62111 2.42284 4.62579Z" fill="#20D030"/>
</svg>
