<svg width="18" height="18" viewBox="0 0 18 18" fill="none" xmlns="http://www.w3.org/2000/svg">
<path d="M9.13758 0.00102135C6.53431 -0.0379329 4.18401 1.04005 2.51732 2.78024L0.768204 1.03114C0.592695 0.855634 0.307352 0.855634 0.131843 1.03114C0.0436382 1.11845 0 1.23411 0 1.34932V5.39948C0 5.63819 0.094826 5.86712 0.263618 6.03591C0.432409 6.2047 0.661339 6.29952 0.900047 6.29952H4.95026C5.06546 6.29952 5.18023 6.25498 5.26844 6.16768C5.44395 5.99217 5.44395 5.70683 5.26844 5.53133L3.79531 4.05822C5.42554 2.34042 7.8771 1.41148 10.5228 1.95755C13.2905 2.52907 15.5095 4.76933 16.0567 7.54235C16.9657 12.1487 13.4476 16.1999 9.00047 16.1999C5.29317 16.1999 2.232 13.383 1.84228 9.77837C1.79368 9.33106 1.40632 8.99963 0.9563 8.99963C0.416272 8.99963 -0.00405021 9.47224 0.0562529 10.0087C0.559379 14.498 4.37963 18 9.00047 18C14.5232 18 18.9003 12.9991 17.841 7.28745C17.1704 3.6666 14.2361 0.77352 10.6089 0.139894C10.1118 0.0531532 9.62042 0.0082463 9.13758 0.00102135ZM9.00047 3.59941C8.50364 3.59941 8.10042 4.00263 8.10042 4.49945V8.99963C8.10042 9.23814 8.1949 9.46768 8.36411 9.63599L10.4279 11.6997C10.7789 12.0508 11.3496 12.0508 11.7006 11.6997C12.0516 11.3487 12.0516 10.778 11.7006 10.427L9.90051 8.62696V4.49945C9.90051 4.00263 9.49729 3.59941 9.00047 3.59941Z" fill="#AFAFBE"/>
</svg>
