<svg width="12" height="12" viewBox="0 0 12 12" fill="none" xmlns="http://www.w3.org/2000/svg">
<path d="M7.59835 4.21975e-05C7.32608 -0.00209717 7.05011 0.0770594 6.80692 0.249278L6.27401 0.627411C6.10853 0.744541 5.8923 0.745076 5.72629 0.627411L5.19391 0.249278C4.99936 0.111289 4.78312 0.0337371 4.56531 0.00913449C3.91133 -0.0646736 3.23726 0.340736 3.05328 1.03763L2.88463 1.67356C2.83282 1.87092 2.66734 2.01158 2.46591 2.02923L1.81828 2.08646C0.871409 2.16989 0.27717 3.21016 0.679497 4.08141V4.08195L0.95494 4.6783C1.04006 4.86335 1.00252 5.07836 0.859778 5.22276L0.399296 5.68808C-0.272659 6.36786 -0.0670015 7.55146 0.79475 7.95741L1.38476 8.23552C1.56768 8.32163 1.67606 8.51097 1.65862 8.71474L1.60152 9.37045C1.51851 10.3284 2.42838 11.1007 3.3467 10.8514L3.97477 10.6808C4.16932 10.6279 4.37234 10.7022 4.48865 10.8696L4.86137 11.4087C5.40644 12.1971 6.59439 12.1971 7.13946 11.4087L7.51218 10.8696C7.62796 10.7022 7.83097 10.6279 8.02606 10.6808L8.65413 10.8514C9.57245 11.1007 10.4823 10.3284 10.3993 9.37045L10.3422 8.71474C10.3242 8.51097 10.4326 8.32163 10.6155 8.23552L11.205 7.95741C12.0668 7.55146 12.273 6.36786 11.6005 5.68808L11.1405 5.22276C10.9973 5.07836 10.9602 4.86335 11.0459 4.6783L11.3203 4.08195V4.08141C11.7226 3.21016 11.1294 2.16989 10.182 2.08646H10.1815L9.53386 2.02923C9.33296 2.01158 9.16748 1.87092 9.11514 1.67356L8.94649 1.03763C8.77784 0.398499 8.19735 0.00485573 7.59835 4.21975e-05ZM4.33692 0.91462C4.44635 0.902854 4.56319 0.9312 4.66946 1.00608L5.20237 1.38421C5.6803 1.72223 6.32106 1.72276 6.79846 1.38421L7.33084 1.00608C7.61369 0.805513 7.97531 0.938688 8.06465 1.27617L8.23224 1.9121C8.38292 2.48224 8.87354 2.89835 9.45456 2.94969L10.1022 3.00692C10.4464 3.0374 10.6393 3.37435 10.4934 3.69098L10.218 4.28733C9.97108 4.82163 10.0821 5.4597 10.495 5.87687L10.9544 6.34219C11.1987 6.58875 11.1321 6.97223 10.8191 7.11984L10.2296 7.39796V7.39743C9.70092 7.64613 9.38107 8.20771 9.43182 8.79497L9.48892 9.45122C9.51958 9.79886 9.22405 10.0492 8.89098 9.95878L8.26291 9.78817C7.69933 9.6352 7.09769 9.85662 6.76357 10.3396L6.39032 10.8787C6.39032 10.8792 6.39032 10.8792 6.39032 10.8792C6.19259 11.1659 5.80771 11.1659 5.60945 10.8792C5.60945 10.8792 5.60945 10.8792 5.60945 10.8787L5.23673 10.3396C4.90208 9.85662 4.30097 9.6352 3.73792 9.78817L3.10932 9.95878C2.77572 10.0492 2.48124 9.79886 2.51138 9.45122L2.56848 8.7955C2.61976 8.20825 2.29938 7.64666 1.77017 7.39743V7.39796L1.18069 7.11984C0.867708 6.97223 0.801094 6.58928 1.04534 6.34219L1.50583 5.87687C1.9182 5.4597 2.02922 4.82163 1.78286 4.28733L1.50741 3.69098C1.3615 3.37435 1.55341 3.0374 1.89758 3.00692L2.54574 2.94969C3.12676 2.89835 3.61685 2.48224 3.76753 1.9121L3.93565 1.27617C3.98059 1.1077 4.09319 0.990033 4.23012 0.939223C4.26449 0.926921 4.30044 0.918899 4.33692 0.91462ZM8.19312 3.99477C8.0747 3.99851 7.96209 4.04825 7.87908 4.13436L5.1569 6.88826L3.95732 5.6747C3.8426 5.55383 3.67236 5.50569 3.5127 5.54741C3.35251 5.58966 3.22721 5.71642 3.18545 5.87848C3.14421 6.04 3.19179 6.21222 3.31127 6.32828L4.83388 7.86862C5.01257 8.04886 5.30123 8.04886 5.47993 7.86862L8.52513 4.78794C8.65995 4.65476 8.70066 4.45206 8.62717 4.27663C8.55368 4.1012 8.38133 3.98942 8.19312 3.99477Z" fill="#20D030"/>
</svg>
