<svg width="18" height="18" viewBox="0 0 18 18" fill="none" xmlns="http://www.w3.org/2000/svg">
<path d="M9.00374 1.125C8.2853 1.125 7.66393 1.49556 7.29511 2.09962L0.286413 13.8539C-0.0824126 14.4775 -0.101625 15.2374 0.2672 15.8613C0.616561 16.4852 1.25739 16.875 1.97583 16.875H16.0124C16.7306 16.875 17.3909 16.5044 17.7403 15.8613C18.0896 15.2374 18.0899 14.4775 17.7208 13.8539L10.7124 2.09962C10.3435 1.49556 9.72217 1.125 9.00374 1.125ZM9.00374 2.29454C9.29495 2.29454 9.54724 2.43109 9.70246 2.70393L16.7309 14.458C16.8861 14.7113 16.8861 15.0235 16.7501 15.2963C16.5949 15.5496 16.3423 15.7057 16.0316 15.7057H1.97583C1.68461 15.7057 1.41261 15.5496 1.25714 15.2963C1.10192 15.043 1.12139 14.7113 1.2766 14.458L8.30501 2.70393C8.46023 2.45063 8.71252 2.29454 9.00374 2.29454ZM9.00374 6.1349C8.67359 6.1349 8.4213 6.3882 8.4213 6.71967V10.8131C8.4213 11.1445 8.67359 11.3978 9.00374 11.3978C9.33388 11.3978 9.58617 11.1445 9.58617 10.8131V6.71967C9.58617 6.3882 9.33388 6.1349 9.00374 6.1349ZM9.00374 12.2164C8.68218 12.2164 8.4213 12.4783 8.4213 12.8011C8.4213 13.124 8.68218 13.3859 9.00374 13.3859C9.32529 13.3859 9.58617 13.124 9.58617 12.8011C9.58617 12.4783 9.32529 12.2164 9.00374 12.2164Z" fill="#FC2727"/>
</svg>
