<svg width="10" height="10" viewBox="0 0 10 10" fill="none" xmlns="http://www.w3.org/2000/svg">
<g clip-path="url(#clip0_0_1716)">
<path d="M3.84615 0L0 0.769231L1.16587 1.9351C0.489784 2.77795 0.0721154 3.83564 0.0721154 5C0.0721154 7.72085 2.27764 9.92789 5 9.92789C7.72236 9.92789 9.92789 7.72085 9.92789 5C9.92789 2.95974 8.68991 1.20493 6.92308 0.456731V1.64663C8.08744 2.3152 8.87019 3.5622 8.87019 5C8.87019 7.13942 7.13942 8.87019 5 8.87019C2.86058 8.87019 1.12981 7.13942 1.12981 5C1.12981 4.1256 1.42127 3.32783 1.91106 2.68029L3.07692 3.84615L3.84615 0Z" fill="white"/>
</g>
<defs>
<clipPath id="clip0_0_1716">
<rect width="10" height="10" fill="white"/>
</clipPath>
</defs>
</svg>
