<svg width="21" height="21" viewBox="0 0 21 21" fill="none" xmlns="http://www.w3.org/2000/svg">
<g clip-path="url(#clip0_12_1949)">
<path d="M13.798 6.62647C14.7908 6.62647 15.598 7.43376 15.598 8.42647V14.4265C15.598 15.4192 14.7908 16.2265 13.798 16.2265H4.79805C3.80534 16.2265 2.99805 15.4192 2.99805 14.4265V6.02647C2.99805 5.03376 3.80534 4.22647 4.79805 4.22647H13.498C13.8293 4.22647 14.098 4.49522 14.098 4.82647C14.098 5.15772 13.8293 5.42647 13.498 5.42647H4.79805C4.46721 5.42647 4.19805 5.69564 4.19805 6.02647C4.19805 6.3573 4.46721 6.62647 4.79805 6.62647H13.798ZM12.298 12.3265C12.7951 12.3265 13.198 11.9236 13.198 11.4265C13.198 10.9294 12.7951 10.5265 12.298 10.5265C11.801 10.5265 11.398 10.9294 11.398 11.4265C11.398 11.9236 11.801 12.3265 12.298 12.3265Z" fill="white"/>
<mask id="path-2-outside-1_12_1949" maskUnits="userSpaceOnUse" x="8.42376" y="7.09881" width="16.2635" height="16.2634" fill="black">
<rect fill="white" x="8.42376" y="7.09881" width="16.2635" height="16.2634"/>
<path d="M16.4799 11.7774C16.3208 11.8896 16.275 12.1337 16.4346 12.2933L17.4383 13.297L12.9953 17.74C12.929 17.8045 12.8761 17.8815 12.8398 17.9666C12.8035 18.0517 12.7845 18.1432 12.7838 18.2357C12.7832 18.3282 12.8009 18.42 12.836 18.5056C12.8711 18.5912 12.9229 18.6689 12.9883 18.7344C13.0537 18.7998 13.1315 18.8516 13.2171 18.8867C13.3027 18.9218 13.3944 18.9395 13.487 18.9388C13.5795 18.9382 13.6709 18.9192 13.756 18.8828C13.8411 18.8465 13.9182 18.7937 13.9827 18.7273L18.4257 14.2843L19.4294 15.288C19.6422 15.5008 20.0055 15.3505 20.005 15.0499L20.005 12.0551C20.005 11.8685 19.8542 11.7176 19.6676 11.7176L16.6728 11.7176C16.5977 11.7176 16.533 11.74 16.4799 11.7774Z"/>
</mask>
<path d="M16.4799 11.7774C16.3208 11.8896 16.275 12.1337 16.4346 12.2933L17.4383 13.297L12.9953 17.74C12.929 17.8045 12.8761 17.8815 12.8398 17.9666C12.8035 18.0517 12.7845 18.1432 12.7838 18.2357C12.7832 18.3282 12.8009 18.42 12.836 18.5056C12.8711 18.5912 12.9229 18.6689 12.9883 18.7344C13.0537 18.7998 13.1315 18.8516 13.2171 18.8867C13.3027 18.9218 13.3944 18.9395 13.487 18.9388C13.5795 18.9382 13.6709 18.9192 13.756 18.8828C13.8411 18.8465 13.9182 18.7937 13.9827 18.7273L18.4257 14.2843L19.4294 15.288C19.6422 15.5008 20.0055 15.3505 20.005 15.0499L20.005 12.0551C20.005 11.8685 19.8542 11.7176 19.6676 11.7176L16.6728 11.7176C16.5977 11.7176 16.533 11.74 16.4799 11.7774Z" fill="#20D030"/>
<path d="M16.4799 11.7774L17.5425 13.2851L17.5425 13.285L16.4799 11.7774ZM17.4383 13.297L18.7426 14.6012L20.0468 13.297L18.7426 11.9927L17.4383 13.297ZM12.9953 17.74L14.281 19.0625L14.2904 19.0535L14.2996 19.0442L12.9953 17.74ZM12.9883 18.7344L14.2925 17.4301L12.9883 18.7344ZM13.9827 18.7273L12.6784 17.4231L12.6692 17.4323L12.6601 17.4417L13.9827 18.7273ZM18.4257 14.2843L19.7299 12.9801L18.4257 11.6758L17.1214 12.9801L18.4257 14.2843ZM20.005 15.0499L18.1606 15.0499L18.1606 15.0529L20.005 15.0499ZM20.005 12.0551L18.1606 12.0551L18.1606 12.0551L20.005 12.0551ZM19.6676 11.7176L19.6676 9.87316L19.6676 11.7176ZM16.6728 11.7176L16.6728 13.5621L16.6728 11.7176ZM15.4173 10.2698C14.4289 10.9665 14.0722 12.5394 15.1304 13.5975L17.7388 10.989C18.4778 11.728 18.2127 12.8127 17.5425 13.2851L15.4173 10.2698ZM15.1304 13.5975L16.1341 14.6012L18.7426 11.9927L17.7388 10.989L15.1304 13.5975ZM16.1341 11.9928L11.6911 16.4358L14.2996 19.0442L18.7426 14.6012L16.1341 11.9928ZM11.7096 16.4175C11.4681 16.6523 11.2755 16.9328 11.1433 17.2428L14.5363 18.6905C14.4767 18.8302 14.3899 18.9567 14.281 19.0625L11.7096 16.4175ZM11.1433 17.2428C11.0111 17.5527 10.9418 17.8858 10.9394 18.2227L14.6282 18.2487C14.6272 18.4006 14.5959 18.5508 14.5363 18.6905L11.1433 17.2428ZM10.9394 18.2227C10.937 18.5596 11.0016 18.8936 11.1294 19.2054L14.5426 17.8057C14.6002 17.9463 14.6293 18.0969 14.6282 18.2487L10.9394 18.2227ZM11.1294 19.2054C11.2573 19.5171 11.4458 19.8004 11.6841 20.0386L14.2925 17.4301C14.3999 17.5375 14.4849 17.6652 14.5426 17.8057L11.1294 19.2054ZM11.6841 20.0386C11.9223 20.2769 12.2055 20.4654 12.5173 20.5932L13.9169 17.1801C14.0575 17.2377 14.1851 17.3227 14.2925 17.4301L11.6841 20.0386ZM12.5173 20.5932C12.829 20.721 13.1631 20.7857 13.5 20.7833L13.4739 17.0944C13.6258 17.0934 13.7764 17.1225 13.9169 17.1801L12.5173 20.5932ZM13.5 20.7833C13.8369 20.7809 14.17 20.7116 14.4799 20.5793L13.0322 17.1864C13.1719 17.1268 13.322 17.0955 13.4739 17.0944L13.5 20.7833ZM14.4799 20.5793C14.7899 20.4471 15.0704 20.2546 15.3052 20.013L12.6601 17.4417C12.766 17.3328 12.8924 17.246 13.0322 17.1864L14.4799 20.5793ZM15.2869 20.0316L19.7299 15.5885L17.1214 12.9801L12.6784 17.4231L15.2869 20.0316ZM17.1214 15.5886L18.1252 16.5923L20.7337 13.9838L19.7299 12.9801L17.1214 15.5886ZM18.1252 16.5923C19.4952 17.9622 21.8527 17.0004 21.8495 15.0468L18.1606 15.0529C18.1583 13.7007 19.7892 13.0394 20.7337 13.9838L18.1252 16.5923ZM21.8495 15.0499L21.8495 12.0551L18.1606 12.0551L18.1606 15.0499L21.8495 15.0499ZM21.8495 12.0551C21.8495 10.8498 20.8728 9.87316 19.6676 9.87316L19.6676 13.5621C18.8355 13.5621 18.1606 12.8872 18.1606 12.0551L21.8495 12.0551ZM19.6676 9.87316L16.6727 9.87318L16.6728 13.5621L19.6676 13.5621L19.6676 9.87316ZM16.6727 9.87318C16.2126 9.87318 15.7775 10.0159 15.4173 10.2698L17.5425 13.285C17.2884 13.4641 16.9829 13.5621 16.6728 13.5621L16.6727 9.87318Z" fill="#24242F" mask="url(#path-2-outside-1_12_1949)"/>
</g>
<defs>
<clipPath id="clip0_12_1949">
<rect width="20.2892" height="20.2892" fill="white" transform="translate(0.510864 0.422241)"/>
</clipPath>
</defs>
</svg>
