<svg width="15" height="15" viewBox="0 0 15 15" fill="none" xmlns="http://www.w3.org/2000/svg">
<path d="M3.4529 2.27577C2.76592 2.27577 2.2006 2.81752 2.15008 3.49257C2.14335 3.52401 2.1401 3.55611 2.1404 3.58827V4.46327V4.90077V11.4633C2.1404 12.183 2.73321 12.7758 3.4529 12.7758H11.3279C12.0476 12.7758 12.6404 12.183 12.6404 11.4633V5.33827C12.6404 4.61858 12.0476 4.02577 11.3279 4.02577H3.4529C3.206 4.02577 3.0154 3.83517 3.0154 3.58827C3.0154 3.34137 3.206 3.15077 3.4529 3.15077H10.7446C10.8025 3.15159 10.8601 3.14088 10.9139 3.11926C10.9677 3.09764 11.0167 3.06555 11.0579 3.02484C11.0992 2.98413 11.132 2.93563 11.1544 2.88214C11.1768 2.82865 11.1883 2.77125 11.1883 2.71327C11.1883 2.65529 11.1768 2.59789 11.1544 2.5444C11.132 2.49091 11.0992 2.44241 11.0579 2.4017C11.0167 2.36099 10.9677 2.3289 10.9139 2.30728C10.8601 2.28566 10.8025 2.27495 10.7446 2.27577H3.4529ZM3.0154 4.90077H3.4529H11.3279C11.5748 4.90077 11.7654 5.09137 11.7654 5.33827V11.4633C11.7654 11.7102 11.5748 11.9008 11.3279 11.9008H3.4529C3.206 11.9008 3.0154 11.7102 3.0154 11.4633V4.90077ZM10.1612 7.52577C9.96784 7.52577 9.78238 7.60259 9.64563 7.73934C9.50889 7.87608 9.43207 8.06155 9.43207 8.25494C9.43207 8.44832 9.50889 8.63379 9.64563 8.77053C9.78238 8.90728 9.96784 8.9841 10.1612 8.9841C10.3546 8.9841 10.5401 8.90728 10.6768 8.77053C10.8136 8.63379 10.8904 8.44832 10.8904 8.25494C10.8904 8.06155 10.8136 7.87608 10.6768 7.73934C10.5401 7.60259 10.3546 7.52577 10.1612 7.52577Z" fill="#AFAFBE"/>
</svg>
