<svg width="14" height="14" viewBox="0 0 14 14" fill="none" xmlns="http://www.w3.org/2000/svg">
<path d="M8.66667 2C8.40377 2 8.19048 2.21329 8.19048 2.47619C8.19048 2.73909 8.40377 2.95238 8.66667 2.95238H10.3743L6.42526 6.90145C6.23925 7.0873 6.23925 7.38889 6.42526 7.57474C6.51835 7.66782 6.64005 7.71429 6.7619 7.71429C6.88376 7.71429 7.00546 7.66782 7.09854 7.57474L11.0476 3.62566V5.33333C11.0476 5.59623 11.2609 5.80952 11.5238 5.80952C11.7867 5.80952 12 5.59623 12 5.33333V2.47619C12 2.21329 11.7867 2 11.5238 2H8.66667ZM3.42857 2.47619C2.64071 2.47619 2 3.1169 2 3.90476V10.5714C2 11.3593 2.64071 12 3.42857 12H10.0952C10.8831 12 11.5238 11.3593 11.5238 10.5714V7.71429C11.5238 7.45139 11.3105 7.2381 11.0476 7.2381C10.7847 7.2381 10.5714 7.45139 10.5714 7.71429V10.5714C10.5714 10.834 10.3578 11.0476 10.0952 11.0476H3.42857C3.16601 11.0476 2.95238 10.834 2.95238 10.5714V3.90476C2.95238 3.6422 3.16601 3.42857 3.42857 3.42857H6.28571C6.54861 3.42857 6.7619 3.21528 6.7619 2.95238C6.7619 2.68948 6.54861 2.47619 6.28571 2.47619H3.42857Z" fill="#20D030"/>
</svg>
