<svg width="20" height="20" viewBox="0 0 20 20" fill="none" xmlns="http://www.w3.org/2000/svg">
<path d="M10 2.5C9.38639 2.5 8.88896 2.99744 8.88896 3.61104V10.0999L8.01005 9.21651C7.5769 8.78092 6.87358 8.77889 6.4388 9.21224C6.00362 9.64478 6.00159 10.3487 6.43453 10.7835L9.21224 13.5752C9.42078 13.785 9.70439 13.903 10 13.903C10.2956 13.903 10.5792 13.785 10.7878 13.5752L13.5655 10.7835C13.998 10.3487 13.9962 9.64498 13.5612 9.21224C13.1268 8.77909 12.4237 8.78215 11.9899 9.21651L11.111 10.0999V3.61104C11.111 2.99744 10.6136 2.5 10 2.5ZM3.33333 11.389C2.71973 11.389 2.22229 11.8864 2.22229 12.5V14.4444C2.22229 15.823 3.34371 16.9444 4.72229 16.9444H15.2777C16.6563 16.9444 17.7777 15.823 17.7777 14.4444V12.5C17.7777 11.8864 17.2803 11.389 16.6667 11.389C16.0531 11.389 15.5556 11.8864 15.5556 12.5V14.4444C15.5556 14.5978 15.4311 14.7223 15.2777 14.7223H4.72229C4.56889 14.7223 4.44438 14.5978 4.44438 14.4444V12.5C4.44438 11.8864 3.94694 11.389 3.33333 11.389Z" fill="white"/>
</svg>
