<svg width="22" height="22" viewBox="0 0 22 22" fill="none" xmlns="http://www.w3.org/2000/svg">
<path d="M4.125 1.375V2.75H5.5V5.5C5.5 7.58398 6.68164 9.37793 8.39502 10.3125C6.68164 11.2471 5.5 13.041 5.5 15.125V17.875H4.125V19.25H17.875V17.875H16.5V15.125C16.5 13.041 15.3184 11.2471 13.605 10.3125C15.3184 9.37793 16.5 7.58398 16.5 5.5V2.75H17.875V1.375L4.125 1.375ZM6.875 2.75L15.125 2.75V5.5C15.125 7.78809 13.2881 9.625 11 9.625C8.71191 9.625 6.875 7.78809 6.875 5.5V2.75ZM8.25 4.125V5.5C8.25 7.01465 9.48535 8.25 11 8.25C12.5146 8.25 13.75 7.01465 13.75 5.5V4.125H8.25ZM11 11C13.2881 11 15.125 12.8369 15.125 15.125L15.125 17.875H6.875V15.125C6.875 12.8369 8.71191 11 11 11Z" fill="#AFAFBE"/>
</svg>
