<svg width="12" height="12" viewBox="0 0 12 12" fill="none" xmlns="http://www.w3.org/2000/svg">
<mask id="path-1-inside-1_0_1930" fill="white">
<path d="M12 6C12 4.74895 11.6089 3.52919 10.8815 2.51135C10.1541 1.49351 9.12673 0.728502 7.9431 0.323349C6.75947 -0.081804 5.4788 -0.106839 4.28024 0.251747C3.08168 0.610333 2.02518 1.3346 1.25854 2.32324C0.491907 3.31187 0.0534762 4.51542 0.00458374 5.76551C-0.0443087 7.01561 0.298783 8.24972 0.985863 9.29521C1.67294 10.3407 2.66964 11.1453 3.83654 11.5964C5.00343 12.0475 6.28214 12.1225 7.4938 11.8111L7.16668 10.5385C6.22036 10.7818 5.22167 10.7232 4.31031 10.3708C3.39895 10.0185 2.62051 9.39014 2.0839 8.5736C1.54728 7.75706 1.27932 6.7932 1.3175 5.81686C1.35569 4.84052 1.69811 3.90054 2.29686 3.1284C2.89562 2.35627 3.72075 1.7906 4.65684 1.51054C5.59293 1.23048 6.59315 1.25003 7.51758 1.56646C8.44201 1.88289 9.24441 2.48037 9.81253 3.27532C10.3807 4.07026 10.6861 5.02291 10.6861 6H12Z"/>
</mask>
<path d="M12 6C12 4.74895 11.6089 3.52919 10.8815 2.51135C10.1541 1.49351 9.12673 0.728502 7.9431 0.323349C6.75947 -0.081804 5.4788 -0.106839 4.28024 0.251747C3.08168 0.610333 2.02518 1.3346 1.25854 2.32324C0.491907 3.31187 0.0534762 4.51542 0.00458374 5.76551C-0.0443087 7.01561 0.298783 8.24972 0.985863 9.29521C1.67294 10.3407 2.66964 11.1453 3.83654 11.5964C5.00343 12.0475 6.28214 12.1225 7.4938 11.8111L7.16668 10.5385C6.22036 10.7818 5.22167 10.7232 4.31031 10.3708C3.39895 10.0185 2.62051 9.39014 2.0839 8.5736C1.54728 7.75706 1.27932 6.7932 1.3175 5.81686C1.35569 4.84052 1.69811 3.90054 2.29686 3.1284C2.89562 2.35627 3.72075 1.7906 4.65684 1.51054C5.59293 1.23048 6.59315 1.25003 7.51758 1.56646C8.44201 1.88289 9.24441 2.48037 9.81253 3.27532C10.3807 4.07026 10.6861 5.02291 10.6861 6H12Z" stroke="#20D030" stroke-width="4" stroke-linejoin="round" mask="url(#path-1-inside-1_0_1930)"/>
</svg>
