<svg width="16" height="16" viewBox="0 0 16 16" fill="none" xmlns="http://www.w3.org/2000/svg">
<path d="M8.12366 2.05377C5.54169 2.05377 3.33218 3.6795 2.47337 5.96714C2.45167 6.02295 2.44125 6.0825 2.44273 6.14236C2.44421 6.20221 2.45755 6.26118 2.48198 6.31584C2.50642 6.37051 2.54145 6.41978 2.58506 6.4608C2.62867 6.50183 2.67999 6.53379 2.73604 6.55484C2.7921 6.57589 2.85177 6.5856 2.9116 6.58342C2.97144 6.58125 3.03024 6.56721 3.08462 6.54214C3.13899 6.51707 3.18785 6.48146 3.22836 6.43738C3.26887 6.39329 3.30023 6.3416 3.32062 6.2853C4.04977 4.34303 5.92126 2.95876 8.12366 2.95876C10.9612 2.95876 13.2519 5.2495 13.2519 8.08703C13.2519 10.9246 10.9612 13.2153 8.12366 13.2153C5.92126 13.2153 4.04977 11.831 3.32062 9.88876C3.30023 9.83247 3.26887 9.78078 3.22836 9.73669C3.18785 9.6926 3.13899 9.65699 3.08462 9.63192C3.03024 9.60685 2.97144 9.59282 2.9116 9.59064C2.85177 9.58846 2.7921 9.59818 2.73604 9.61923C2.67999 9.64028 2.62867 9.67224 2.58506 9.71327C2.54145 9.75429 2.50642 9.80356 2.48198 9.85823C2.45755 9.91289 2.44421 9.97186 2.44273 10.0317C2.44125 10.0916 2.45167 10.1511 2.47337 10.2069C3.33218 12.4946 5.54169 14.1203 8.12366 14.1203C11.4503 14.1203 14.1569 11.4137 14.1569 8.08703C14.1569 4.76038 11.4503 2.05377 8.12366 2.05377ZM7.96812 5.81985C7.87807 5.81987 7.79007 5.84676 7.71538 5.89707C7.6407 5.94739 7.58272 6.01884 7.54887 6.10229C7.51503 6.18574 7.50684 6.27739 7.52538 6.36552C7.54391 6.45364 7.58831 6.53424 7.65291 6.59698L8.68987 7.63395L2.54349 7.62865C2.48353 7.62773 2.42399 7.63873 2.36832 7.66102C2.31265 7.68331 2.26196 7.71643 2.21921 7.75848C2.17646 7.80053 2.14249 7.85065 2.11927 7.90594C2.09606 7.96123 2.08406 8.02058 2.08398 8.08054C2.08391 8.14051 2.09575 8.19989 2.11882 8.25524C2.14189 8.31059 2.17573 8.3608 2.21837 8.40296C2.26102 8.44512 2.31161 8.47838 2.36722 8.50081C2.42283 8.52324 2.48235 8.5344 2.54231 8.53364L8.69105 8.53894L7.65291 9.57708C7.60948 9.61878 7.57481 9.66872 7.55092 9.72398C7.52704 9.77925 7.51442 9.83872 7.51381 9.89892C7.5132 9.95912 7.5246 10.0188 7.54736 10.0746C7.57012 10.1303 7.60376 10.1809 7.64633 10.2235C7.6889 10.2661 7.73954 10.2997 7.79528 10.3225C7.85101 10.3452 7.91073 10.3566 7.97093 10.356C8.03113 10.3554 8.0906 10.3428 8.14586 10.3189C8.20112 10.295 8.25107 10.2604 8.29276 10.2169L10.1027 8.40696C10.1876 8.3221 10.2352 8.20702 10.2352 8.08703C10.2352 7.96705 10.1876 7.85197 10.1027 7.76711L8.29276 5.95713C8.25058 5.91369 8.20012 5.87916 8.14436 5.85558C8.08859 5.832 8.02866 5.81985 7.96812 5.81985Z" fill="#AFAFBE"/>
</svg>
