<svg width="20" height="20" viewBox="0 0 20 20" fill="none" xmlns="http://www.w3.org/2000/svg">
<path d="M10.0006 1.66667C5.40557 1.66667 1.66724 5.40501 1.66724 10C1.66724 14.595 5.40557 18.3333 10.0006 18.3333C14.5956 18.3333 18.3339 14.595 18.3339 10C18.3339 9.06167 18.1706 8.16184 17.8831 7.31934L16.5338 8.66863C16.6213 9.09863 16.6672 9.54417 16.6672 10C16.6672 13.6758 13.6764 16.6667 10.0006 16.6667C6.32474 16.6667 3.3339 13.6758 3.3339 10C3.3339 6.32417 6.32474 3.33334 10.0006 3.33334C11.3614 3.33334 12.6272 3.74491 13.6838 4.44825L14.8769 3.25521C13.5035 2.26021 11.8214 1.66667 10.0006 1.66667ZM17.7447 2.74415L9.16724 11.3216L6.4231 8.57748L5.24471 9.75587L9.16724 13.6784L18.9231 3.92253L17.7447 2.74415Z" fill="#159B24"/>
</svg>
