<svg width="112" height="112" viewBox="0 0 112 112" fill="none" xmlns="http://www.w3.org/2000/svg">
<path d="M75.25 8.75V13.6719C72.3242 14.1914 69.6035 15.2988 67.2656 16.9531L63.6562 13.5625L58.8438 18.7031L62.3438 21.9844C60.7715 24.2812 59.6777 26.9062 59.1719 29.75H54.25V36.75H59.1719C59.6777 39.6484 60.8262 42.3008 62.4531 44.625L58.7344 48.2344L63.7656 53.2656L67.375 49.5469C69.6992 51.1738 72.3516 52.3223 75.25 52.8281V57.75H82.25V52.8281C85.0938 52.3223 87.7188 51.2285 90.0156 49.6562L93.2969 53.1562L98.4375 48.3438L95.0469 44.7344C96.7012 42.3965 97.8086 39.6758 98.3281 36.75H103.25V29.75H98.3281C97.8223 26.8516 96.6738 24.1992 95.0469 21.875L98.3281 18.5938L93.4062 13.6719L90.125 16.9531C87.8008 15.3262 85.1484 14.1777 82.25 13.6719V8.75H75.25ZM78.75 20.3438C85.9414 20.3438 91.6562 26.0586 91.6562 33.25C91.6562 40.4414 85.9414 46.1562 78.75 46.1562C71.5586 46.1562 65.8438 40.4414 65.8438 33.25C65.8438 26.0586 71.5586 20.3438 78.75 20.3438ZM33.3594 41.0156L26.9062 43.6406L29.4219 49.9844C26.0859 51.9805 23.2422 54.7695 21.2188 58.0781L14.9844 55.5625L12.3594 62.0156L18.5938 64.5312C18.1289 66.377 17.8281 68.332 17.8281 70.3281C17.8281 72.3242 18.1289 74.2656 18.5938 76.125L12.3594 78.6406L14.9844 85.0938L21.2188 82.5781C23.2422 85.9414 26.0586 88.7578 29.4219 90.7812L26.9062 97.0156L33.3594 99.6406L35.875 93.4062C37.7344 93.8711 39.6621 94.1719 41.6719 94.1719C43.668 94.1719 45.623 93.8711 47.4688 93.4062L49.9844 99.6406L56.4375 97.0156L53.9219 90.7812C57.2305 88.7578 60.0195 85.9141 62.0156 82.5781L68.3594 85.0938L70.9844 78.6406L64.6406 76.125C65.1055 74.2656 65.4062 72.3242 65.4062 70.3281C65.4062 68.332 65.1055 66.377 64.6406 64.5312L70.9844 62.0156L68.3594 55.5625L62.0156 58.0781C60.0195 54.7832 57.2305 51.9805 53.9219 49.9844L56.4375 43.6406L49.9844 41.0156L47.4688 47.3594C45.6094 46.8945 43.668 46.5938 41.6719 46.5938C39.6758 46.5938 37.7344 46.8945 35.875 47.3594L33.3594 41.0156ZM41.6719 53.5938C50.9961 53.5938 58.4062 61.0039 58.4062 70.3281C58.4062 79.6523 50.9961 87.1719 41.6719 87.1719C32.3477 87.1719 24.8281 79.6523 24.8281 70.3281C24.8281 61.0039 32.3477 53.5938 41.6719 53.5938Z" fill="#65656E"/>
</svg>
