<?xml version="1.0" encoding="iso-8859-1"?>
<!-- Generator: Adobe Illustrator 19.0.0, SVG Export Plug-In . SVG Version: 6.00 Build 0)  -->
<svg version="1.1" id="Capa_1" xmlns="http://www.w3.org/2000/svg" xmlns:xlink="http://www.w3.org/1999/xlink" x="0px" y="0px"
	 viewBox="0 0 512 512" style="enable-background:new 0 0 512 512;" xml:space="preserve">
<g>
	<g>
		<path d="M497,482h-96.4h-24.1C318.327,482,271,434.673,271,376.5c0-58.173,47.327-105.5,105.5-105.5
			c58.173,0,105.5,47.327,105.5,105.5c0,13.877-11.289,25.166-25.166,25.166s-25.166-11.289-25.166-25.166
			c0-30.419-24.748-55.167-55.168-55.167c-30.419,0-55.166,24.748-55.166,55.167s24.747,55.166,55.166,55.166
			c15.822,0,30.099-6.704,40.168-17.409c10.068,10.705,24.345,17.409,40.166,17.409c30.419,0,55.166-24.747,55.166-55.166
			c0-74.715-60.785-135.5-135.5-135.5c-11.794,0-23.239,1.519-34.155,4.363C358.2,220.577,367.4,191.143,367.4,159.6
			C367.4,71.596,295.805,0,207.801,0s-159.6,71.596-159.6,159.6c0,62.141,35.7,116.094,87.665,142.442
			C56.631,331.371,0,407.693,0,497c0,8.284,6.716,15,15,15h361.5h24.1H497c8.284,0,15-6.716,15-15S505.284,482,497,482z
			 M376.5,401.666c-13.877,0-25.166-11.289-25.166-25.166c0-13.877,11.289-25.167,25.166-25.167
			c13.878,0,25.168,11.29,25.168,25.167C401.668,390.377,390.378,401.666,376.5,401.666z M78.201,159.6
			c0-71.462,58.138-129.6,129.6-129.6s129.6,58.138,129.6,129.6s-58.138,129.6-129.6,129.6S78.201,231.061,78.201,159.6z
			 M30.627,482c7.64-91.049,84.185-162.801,177.174-162.801c14.805,0,29.39,1.812,43.549,5.379c-6.662,16-10.35,33.537-10.35,51.922
			c0,42.588,19.755,80.642,50.576,105.5H30.627z"/>
	</g>
</g>
<g>
</g>
<g>
</g>
<g>
</g>
<g>
</g>
<g>
</g>
<g>
</g>
<g>
</g>
<g>
</g>
<g>
</g>
<g>
</g>
<g>
</g>
<g>
</g>
<g>
</g>
<g>
</g>
<g>
</g>
</svg>
