<svg version="1.2" baseProfile="tiny-ps" xmlns="http://www.w3.org/2000/svg" viewBox="0 0 1198.61 1200" width="1198.61" height="1200">
    <title>New Project</title>
            <path id="Shape 1" fill="#37b03d"
                d="M579,1200c-7.5-.42-15-.7-22.48-1.28-8.28-.66-16.54-1.58-24.81-2.41-14-1.4-27.88-3.58-41.7-6.15A600.69,600.69,0,0,1,59.51,861.46,589.89,589.89,0,0,1,13.79,729Q8,702.5,4.64,675.61c-1.5-11.89-2.55-23.84-3.35-35.81a621.51,621.51,0,0,1-.62-69.06c.62-13.9,1.86-27.75,3.47-41.58a585.92,585.92,0,0,1,19.42-96.22A601.68,601.68,0,0,1,305.69,77.13,596.35,596.35,0,0,1,516.45,6c14.09-2,28.22-3.49,42.43-4.27,9.25-.51,18.5-1.16,27.74-1.74h24.94c4.78.3,9.56.61,14.34.89,7.18.43,14.37.67,21.53,1.29,17,1.45,34,3.46,50.86,6.27a581.62,581.62,0,0,1,76.87,18.06q146,45.18,253,154.49a595.07,595.07,0,0,1,127.65,195.45,587.53,587.53,0,0,1,31.46,105.47c3.28,16.47,5.92,33,7.76,49.72,1.34,12.08,2.65,24.15,2.73,36.32,0,4.32.19,8.64.28,12.95a14.85,14.85,0,0,0,.59,4.69v29.76c-1,2.95-.63,6-.73,9-.21,6.56-.05,13.14-.53,19.67q-1.21,16.5-3.33,32.93-3.66,28.82-10.11,57.11A601.59,601.59,0,0,1,780,1172.77a583.21,583.21,0,0,1-82.89,19.72c-10.57,1.72-21.17,3.2-31.81,4.34-9.21,1-18.44,2-27.71,2.25l-15.63.27a4.78,4.78,0,0,0-2.72.65ZM599.86,33.43C287.62,33.19,33.17,286.27,33,599.52,32.84,912,284.59,1167.14,599.76,1167.21c313.07.08,566.35-253.9,566.09-567.85C1165.59,285.13,910,33,599.86,33.43Z" />
            <path id="Shape 2"  fill="#448ebe" d="M637.59,1199.08l.83.92H619.24a4.78,4.78,0,0,1,2.72-.65Z" />
            <path id="Shape 3" fill="#37b03d"
                d="M748.24,848.74c-.08,1.6-.21,3.19-.23,4.78-.19,16.64-.25,33.28-.57,49.92-.36,19.35-.93,38.7-1.45,58a40.47,40.47,0,0,1-.59,5.72,41.65,41.65,0,0,0-.58,6.68,53.21,53.21,0,0,1-6.44,25.31c-9,16.77-22,29.23-39.61,36.8a80.74,80.74,0,0,1-33.06,6.8c-14.55-.14-29.1,0-43.64,0q-57.32,0-114.62-.08-51.56,0-103.1-.12-42.69,0-85.36.05a70.45,70.45,0,0,1-28-5.7c-11-4.68-21-10.78-29.39-19.43-10.71-11.08-17.44-24.34-21.27-39.16a36.52,36.52,0,0,1-1-9q0-30-.18-60c-.86-187.66-.26-375.32-.43-563a2.57,2.57,0,0,1,0-.48c.36-1.77-.84-3.8.91-5.33,2,.74,2.54,2.77,3.5,4.34C265.9,382,288,419.43,310.33,456.74q21.8,36.42,43.8,72.72c3,5,1.75,4.13,7.49,4.14,23.17,0,46.35,0,69.53,0,1.73,0,3.53-.43,5.18.47-.05,1.6-.13,3.19-.13,4.79q.09,51.81.19,103.63c0,2.08-.12,4.15-.18,6.23-18.22,0-36.44.15-54.66.07a22.77,22.77,0,0,0-14.69,4.92c-8.42,6.68-13.42,15-13.42,26.26q0,108.19-.18,216.39c0,3.2.06,6.41.36,9.58a28.66,28.66,0,0,0,20.32,24.81A36.22,36.22,0,0,0,384.36,932q106,0,211.91,0a51.49,51.49,0,0,0,9.53-.85c13.54-2.53,23.69-11.63,26.09-25.87a127,127,0,0,0,1.67-19.57c.13-11.83.16-23.67.21-35.5a19.05,19.05,0,0,0-.25-2.37c0-7,.1-14,.09-21q0-45.66-.13-91.31c.07-1.59.21-3.18.22-4.77q0-21.78,0-43.57c0-2.07,0-4.15-.14-6.22a43.94,43.94,0,0,0-3.89-16.17,25,25,0,0,0-14.49-13.14,31,31,0,0,0-10.75-2c-15.79,0-31.57-.05-47.36-.07a14.29,14.29,0,0,0-4.74.35,23.8,23.8,0,0,1-.36-6.19q0-52.59,0-105.19c0-1.75.08-3.51.12-5.26,1.43.06,2.87.17,4.3.18,15.5.05,31,.06,46.49.12q33.55.14,67.1.3a71.16,71.16,0,0,1,13.81,1.31c9.9,2,18.65,6.47,26.66,12.51,9.38,7.08,17.27,15.65,24.37,25A77,77,0,0,1,748.74,604c2.07,9.77,2.31,19.66,2.08,29.59q-1.14,48.9-1.15,97.84c0,1.59.12,3.18.19,4.78-.42,7.64-.41,15.3-.71,22.95-.57,14-.23,28.12-.4,42.18s-.51,28.41-.75,42.61C748,845.56,748.16,847.15,748.24,848.74Z" />
            <path id="Shape 4" fill="#448ebe"
                d="M436.21,648.74c.06-2.08.18-4.15.18-6.23q-.09-51.81-.19-103.63c0-1.6.08-3.19.13-4.79.81-2,.54-4.1.54-6.16q0-52.78,0-105.57A75.64,75.64,0,0,1,439.48,402a82.43,82.43,0,0,1,16.78-31.5c11.72-13.9,26.16-23.81,43.71-29a74.4,74.4,0,0,1,22.2-3.2c65.84.92,131.69.15,197.53,1.08,37.07.52,74.15.48,111.22.55,5.6,0,4.48.64,7.56-4.19q18.51-29.14,36.1-58.86,16.6-28.06,33.23-56.11,16.08-27,33.22-53.32c.77-1.19,1.14-3.54,3.28-2.69,1.6.64.85,2.56.85,3.91q.11,81.09.15,162.19.11,213.3.25,426.6a109,109,0,0,1-8.79,42.42c-9.37,22.45-26,37.1-48.91,44.89-8.29,2.82-16.87,3.56-25.51,3.66-17.1.18-34.2.18-51.3.22q-31.41.08-62.81.1c-.08-1.59-.26-3.18-.24-4.77.24-14.2.57-28.41.75-42.61s-.17-28.14.4-42.18c.3-7.65.29-15.31.71-22.95,13.59,0,27.17-.07,40.76,0a52.19,52.19,0,0,0,23.54-5.66c10.69-5.24,16.52-13.88,17-25.82.39-10.38.51-20.78.62-31.17.17-16.15.16-32.3-.2-48.46-.24-10.87.07-21.74.16-32.62.26-31.51.19-63,.29-94.53a73.23,73.23,0,0,0-.87-11,37.65,37.65,0,0,0-7-17.15c-6-8.05-14.19-12.23-24.09-13-4.61-.37-9.26-.27-13.9-.38-19-.49-38-1.18-57-1.41-39.63-.47-79.26-.7-118.9-1-6.87,0-13.74-.09-20.61,0-10.14.06-19.05,3.55-27,9.75a26.47,26.47,0,0,0-4.73,4.73,26.9,26.9,0,0,0-5.74,16.93q0,24,0,48c0,1.75-.12,3.51-.12,5.26q0,52.59,0,105.19a23.8,23.8,0,0,0,.36,6.19c0,1.76.06,3.52.07,5.28q.09,21.33.16,42.67c0,3.68,0,7.42,1,10.95,3.54,12.5,11.45,20.83,24.11,24.27a59.33,59.33,0,0,0,15.13,2.17q20.36.09,40.72.22.06,45.66.13,91.31c0,7-.06,14-.09,21-33.54.05-67.08.29-100.62-.38-9.72-.2-19.45-.67-29.08-2.46-30.38-5.67-50.75-23.35-62.11-51.77a83,83,0,0,1-5.55-31c0-11.82.32-23.65.35-35.47q.09-37.65,0-75.29A27.65,27.65,0,0,0,436.21,648.74Z" />
</svg>