<svg id="Capa_1" enable-background="new 0 0 512 512" height="512" viewBox="0 0 512 512" width="512" xmlns="http://www.w3.org/2000/svg"><g><path d="m38.088 312.261c-5.518-21.436-8.088-39.314-8.088-56.261 0-124.617 101.383-226 226-226 56.548 0 111.173 22.004 152.993 61h-32.993c-8.284 0-15 6.716-15 15s6.716 15 15 15h60c8.284 0 15-6.716 15-15v-60c0-8.284-6.716-15-15-15s-15 6.716-15 15v15.519c-46.146-39.431-104.579-61.519-165-61.519-140.959 0-256 115.049-256 256 0 19.54 2.871 39.793 9.035 63.739 2.065 8.024 10.244 12.852 18.266 10.787s12.852-10.243 10.787-18.265z"/><path d="m492.459 160.372c-3.108-7.68-11.857-11.384-19.532-8.276-7.68 3.108-11.385 11.854-8.276 19.532 11.512 28.441 17.349 56.828 17.349 84.372 0 124.617-101.383 226-226 226-70.789 0-137.603-34.296-180.043-91h30.043c8.284 0 15-6.716 15-15s-6.716-15-15-15h-60c-8.284 0-15 6.716-15 15v60c0 8.284 6.716 15 15 15s15-6.716 15-15v-15.649c50.142 59.71 121.87 91.649 195 91.649 140.959 0 256-115.049 256-256 0-31.42-6.574-63.594-19.541-95.628z"/><circle cx="256" cy="76" r="15"/><circle cx="256" cy="436" r="15"/><circle cx="76" cy="256" r="15"/><circle cx="436" cy="256" r="15"/><path d="m298.42 271h47.58c8.284 0 15-6.716 15-15s-6.716-15-15-15h-47.58c-4.527-12.764-14.656-22.893-27.42-27.42v-77.58c0-8.284-6.716-15-15-15s-15 6.716-15 15v77.58c-17.459 6.192-30 22.865-30 42.42 0 6.939 1.581 13.515 4.398 19.39l-60.004 60.004c-5.858 5.857-5.858 15.355 0 21.213 5.857 5.858 15.355 5.858 21.213 0l60.004-60.004c5.875 2.816 12.45 4.397 19.389 4.397 19.555 0 36.228-12.542 42.42-30zm-42.42 0c-8.271 0-15-6.729-15-15s6.729-15 15-15 15 6.729 15 15-6.729 15-15 15z"/></g></svg>