<?xml version="1.0" encoding="utf-8"?>
<svg xmlns="http://www.w3.org/2000/svg" viewBox="0 0 128 128" fill="#ffffff"><path d="M114 1H99c-1.7 0-3 1.3-3 3s1.3 3 3 3h15c3.9 0 7 3.1 7 7v15c0 1.7 1.3 3 3 3s3-1.3 3-3V14C127 6.8 121.2 1 114 1zM29 1H14C6.8 1 1 6.8 1 14v15c0 1.7 1.3 3 3 3s3-1.3 3-3V14c0-3.9 3.1-7 7-7h15c1.7 0 3-1.3 3-3S30.7 1 29 1zM4 96c-1.7 0-3 1.3-3 3v15c0 7.2 5.8 13 13 13h15c1.7 0 3-1.3 3-3s-1.3-3-3-3H14c-3.9 0-7-3.1-7-7V99C7 97.3 5.7 96 4 96zM124 96c-1.7 0-3 1.3-3 3v15c0 3.9-3.1 7-7 7H99c-1.7 0-3 1.3-3 3s1.3 3 3 3h15c7.2 0 13-5.8 13-13V99C127 97.3 125.7 96 124 96zM56 77c.5 0 .9-.1 1.3-.3l8-4c1-.5 1.7-1.5 1.7-2.7V45c0-1.7-1.3-3-3-3s-3 1.3-3 3v23.1l-6.3 3.2c-1.5.7-2.1 2.5-1.3 4C53.8 76.4 54.9 77 56 77zM39 42c-1.7 0-3 1.3-3 3v10c0 1.7 1.3 3 3 3s3-1.3 3-3V45C42 43.3 40.7 42 39 42zM89 42c-1.7 0-3 1.3-3 3v10c0 1.7 1.3 3 3 3s3-1.3 3-3V45C92 43.3 90.7 42 89 42zM39.8 87c-1.1 1.2-1 3.1.2 4.2 6.8 6.2 15.4 9.3 24 9.3 8.6 0 17.2-3.1 24-9.3 1.2-1.1 1.3-3 .2-4.2-1.1-1.2-3-1.3-4.2-.2-11.4 10.4-28.6 10.4-40 0C42.8 85.7 40.9 85.8 39.8 87z" fill="#ffffff"/></svg>
