<?xml version="1.0" encoding="utf-8"?>
<svg xmlns="http://www.w3.org/2000/svg" viewBox="0 0 26 26" fill="#ffffff"><path d="M 2 0 C 0.894531 0 0 0.894531 0 2 L 9 12 L 9 21.40625 C 9 22.511719 9.894531 23.777344 11 24.21875 L 15 25.8125 C 15.261719 25.917969 15.519531 25.96875 15.75 25.96875 C 16.488281 25.96875 17 25.464844 17 24.625 L 17 12 L 26 2 C 26 0.894531 25.105469 0 24 0 Z M 2.6875 2 L 23.3125 2 L 16.125 10 L 9.90625 10 Z M 11 12 L 15 12 L 15 23.65625 L 11.75 22.34375 C 11.367188 22.191406 11 21.648438 11 21.40625 Z" fill="#ffffff"/></svg>
