<?xml version="1.0" encoding="iso-8859-1"?>
<!-- Generator: Adobe Illustrator 19.0.0, SVG Export Plug-In . SVG Version: 6.00 Build 0)  -->
<svg version="1.1" id="Capa_1" xmlns="http://www.w3.org/2000/svg" xmlns:xlink="http://www.w3.org/1999/xlink" x="0px" y="0px"
	 viewBox="0 0 512 512" style="enable-background:new 0 0 512 512;" xml:space="preserve">
<g>
	<g>
		<path d="M136,266.01c-5.53,0-9.99,4.452-9.99,9.99c0,5.535,4.454,9.987,9.99,9.987c5.535,0,9.99-4.452,9.99-9.987
			C145.99,270.47,141.538,266.01,136,266.01z"/>
	</g>
</g>
<g>
	<g>
		<path d="M90,0H10C4.478,0,0,4.477,0,10v80c0,5.523,4.478,10,10,10s10-4.477,10-10V20h70c5.522,0,10-4.477,10-10S95.522,0,90,0z"/>
	</g>
</g>
<g>
	<g>
		<path d="M502,0h-80c-5.522,0-10,4.477-10,10s4.478,10,10,10h70v70c0,5.523,4.478,10,10,10c5.522,0,10-4.477,10-10V10
			C512,4.477,507.522,0,502,0z"/>
	</g>
</g>
<g>
	<g>
		<path d="M90,492H20v-70c0-5.523-4.478-10-10-10s-10,4.477-10,10v80c0,5.522,4.478,10,10,10h80c5.522,0,10-4.478,10-10
			C100,496.478,95.522,492,90,492z"/>
	</g>
</g>
<g>
	<g>
		<path d="M502,412c-5.522,0-10,4.477-10,10v70h-70c-5.522,0-10,4.478-10,10c0,5.522,4.478,10,10,10h80c5.522,0,10-4.478,10-10v-80
			C512,416.477,507.522,412,502,412z"/>
	</g>
</g>
<g>
	<g>
		<path d="M273.378,26.882c-11.443-1.17-23.313-1.17-34.756,0c-5.494,0.562-9.492,5.472-8.931,10.966
			c0.561,5.494,5.47,9.495,10.966,8.93c10.096-1.033,20.59-1.033,30.686,0c0.346,0.035,0.689,0.053,1.029,0.053
			c5.065,0,9.41-3.835,9.937-8.983C282.871,32.354,278.872,27.444,273.378,26.882z"/>
	</g>
</g>
<g>
	<g>
		<path d="M327.491,459.537c-2.15-5.087-8.018-7.467-13.105-5.316C295.896,462.037,276.253,466,256,466
			c-61.45,0-116.05-36.8-139.101-93.751c-2.071-5.12-7.899-7.59-13.021-5.518c-5.119,2.072-7.59,7.902-5.518,13.021
			C123.797,442.596,185.19,486,256,486c22.943,0,45.207-4.495,66.175-13.359C327.262,470.491,329.642,464.623,327.491,459.537z"/>
	</g>
</g>
<g>
	<g>
		<path d="M96,266c-5.522,0-10,4.477-10,10v40c0,5.523,4.478,10,10,10c5.522,0,10-4.477,10-10v-40C106,270.477,101.522,266,96,266z"
			/>
	</g>
</g>
<g>
	<g>
		<path d="M202.929,44.673c-2.152-5.085-8.018-7.465-13.106-5.313C126.753,66.045,86,127.53,86,196v40c0,5.523,4.478,10,10,10
			c5.522,0,10-4.477,10-10v-40c0-60.418,35.962-114.673,91.616-138.221C202.702,55.627,205.081,49.759,202.929,44.673z"/>
	</g>
</g>
<g>
	<g>
		<path d="M416,291c-5.522,0-10,4.477-10,10v15c0,44.937-19.898,87.125-54.594,115.746c-4.261,3.514-4.865,9.817-1.351,14.078
			c3.515,4.259,9.816,4.865,14.078,1.35C403.45,414.74,426,366.929,426,316v-15C426,295.477,421.522,291,416,291z"/>
	</g>
</g>
<g>
	<g>
		<path d="M322.176,39.36c-5.088-2.153-10.954,0.228-13.105,5.314s0.228,10.954,5.314,13.105
			c82.408,34.857,91.486,112.102,91.564,143.694c0.003,1.023,0.005,1.814,0.051,2.521V248.5v0.08c0,5.523,4.478,9.96,10,9.96
			c5.522,0,10-4.517,10-10.04v-45C426,130.685,391.884,68.845,322.176,39.36z"/>
	</g>
</g>
<g>
	<g>
		<path d="M383.355,169.837c-3.428-16.685-10.019-32.326-19.59-46.487c-3.093-4.575-9.308-5.778-13.885-2.686
			c-4.575,3.092-5.778,9.309-2.686,13.885c8.098,11.981,13.672,25.207,16.57,39.313c0.973,4.731,5.137,7.99,9.785,7.99
			c0.667,0,1.345-0.067,2.023-0.207C380.981,180.534,384.467,175.247,383.355,169.837z"/>
	</g>
</g>
<g>
	<g>
		<path d="M328.651,88.235c-51.395-34.748-120.592-28.068-164.53,15.882c-36.835,36.825-37.467,71.722-37.975,99.762
			c-0.322,18.091,0-9.3-0.146,32.121c0,5.523,4.478,10,10,10c5.522,0,10-4.477,10-10v-24.867
			c0.801-30.606-1.067-59.552,32.263-92.873c37.177-37.188,95.714-42.847,139.187-13.456c4.573,3.093,10.791,1.893,13.885-2.684
			C334.429,97.545,333.227,91.328,328.651,88.235z"/>
	</g>
</g>
<g>
	<g>
		<path d="M331.334,409.879c-3.093-4.576-9.31-5.776-13.886-2.683c-18.472,12.489-39.35,18.833-60.448,18.922
			C200.381,426.357,146,381.583,146,316c0-5.523-4.478-10-10-10c-5.522,0-10,4.477-10,10c0,75.87,62.125,130.009,130.689,130.009
			c25.723,0,50.639-7.829,71.962-22.245C333.227,420.671,334.428,414.454,331.334,409.879z"/>
	</g>
</g>
<g>
	<g>
		<path d="M376,201c-5.522,0-10,4.477-10,10v105c0,21.996-6.503,43.246-18.805,61.451c-3.092,4.576-1.889,10.792,2.687,13.884
			c4.555,3.079,10.779,1.909,13.884-2.687C378.312,367.124,386,342.002,386,316V211C386,205.477,381.522,201,376,201z"/>
	</g>
</g>
<g>
	<g>
		<path d="M256,386c-38.595,0-70-31.361-70-70V196c0-9.439,1.853-18.592,5.506-27.205c2.156-5.084-0.217-10.955-5.301-13.111
			c-5.086-2.157-10.955,0.218-13.111,5.301C168.387,172.082,166,183.862,166,196v120c0,49.646,40.306,90,90,90
			c5.522,0,10-4.477,10-10S261.522,386,256,386z"/>
	</g>
</g>
<g>
	<g>
		<path d="M336.38,322.304c-5.4-1.109-10.695,2.375-11.806,7.786c-2.748,13.395-9.354,25.628-19.105,35.378
			c-3.905,3.905-3.905,10.237,0,14.143c3.906,3.905,10.236,3.905,14.143,0c12.526-12.527,21.018-28.261,24.555-45.501
			C345.276,328.7,341.79,323.414,336.38,322.304z"/>
	</g>
</g>
<g>
	<g>
		<path d="M256,106c-12.123,0-23.903,2.386-35.011,7.092c-5.086,2.154-7.462,8.023-5.308,13.109
			c2.155,5.085,8.024,7.463,13.108,5.307C237.417,127.853,246.571,126,256,126c38.598,0,70,31.402,70,70v90v0.1
			c0,5.523,4.478,10,10,10c5.522,0,10-4.477,10-10V286v-90C346,146.374,305.626,106,256,106z"/>
	</g>
</g>
<g>
	<g>
		<path d="M256,146c-27.57,0-50,22.43-50,50v90c0,5.523,4.478,10,10,10c5.522,0,10-4.477,10-10v-90c0-16.542,13.458-30,30-30
			s30,13.458,30,30c0,5.523,4.478,10,10,10c5.522,0,10-4.477,10-10C306,168.43,283.57,146,256,146z"/>
	</g>
</g>
<g>
	<g>
		<path d="M305.973,305.856c-0.074-4.302-0.106,2.045,0.027-49.855c0-5.523-4.478-10-10-10c-5.522,0-9.9,4.477-9.9,10
			c-0.128,49.972-0.177,41.298-0.024,50.198c0.186,10.846,0.162,15.336-2.435,21.464C278.925,338.802,268.075,346,256,346
			c-12.07,0-22.921-7.199-27.642-18.341c-2.155-5.085-8.021-7.461-13.109-5.306c-5.085,2.155-7.461,8.024-5.307,13.109
			C217.804,354.013,235.882,366,256,366c20.125,0,38.204-11.988,46.057-30.538C306.308,325.432,306.174,317.644,305.973,305.856z"/>
	</g>
</g>
<g>
	<g>
		<path d="M256,186c-5.522,0-10,4.477-10,10v120c0,5.523,4.478,10,10,10c5.522,0,10-4.477,10-10V196
			C266,190.477,261.522,186,256,186z"/>
	</g>
</g>
<g>
</g>
<g>
</g>
<g>
</g>
<g>
</g>
<g>
</g>
<g>
</g>
<g>
</g>
<g>
</g>
<g>
</g>
<g>
</g>
<g>
</g>
<g>
</g>
<g>
</g>
<g>
</g>
<g>
</g>
</svg>
