<svg height="512pt" viewBox="0 0 512 512" width="512pt" xmlns="http://www.w3.org/2000/svg"><path d="m97.152344 480.09375c-6.699219 0-57.652344 0-65.246094 0 0-7.59375 0-58.546875 0-65.246094 0-8.804687-7.148438-15.953125-15.953125-15.953125s-15.953125 7.148438-15.953125 15.953125v81.199219c0 8.804687 7.148438 15.953125 15.953125 15.953125h81.199219c8.804687 0 15.953125-7.148438 15.953125-15.953125s-7.148438-15.953125-15.953125-15.953125zm0 0"/><path d="m496.046875 0h-81.199219c-8.804687 0-15.953125 7.148438-15.953125 15.953125s7.148438 15.953125 15.953125 15.953125h65.246094v65.246094c0 8.804687 7.148438 15.953125 15.953125 15.953125s15.953125-7.148438 15.953125-15.953125v-81.199219c0-8.804687-7.148438-15.953125-15.953125-15.953125zm0 0"/><path d="m496.046875 398.894531c-8.804687 0-15.953125 7.148438-15.953125 15.953125v65.246094c-7.589844 0-58.546875 0-65.246094 0-8.804687 0-15.953125 7.148438-15.953125 15.953125s7.148438 15.953125 15.953125 15.953125h81.199219c8.804687 0 15.953125-7.148438 15.953125-15.953125v-81.199219c0-8.804687-7.148438-15.953125-15.953125-15.953125zm0 0"/><path d="m15.953125 113.105469c8.804687 0 15.953125-7.148438 15.953125-15.953125 0-6.699219 0-57.652344 0-65.246094h65.246094c8.804687 0 15.953125-7.148438 15.953125-15.953125s-7.148438-15.953125-15.953125-15.953125h-81.199219c-8.804687 0-15.953125 7.148438-15.953125 15.953125v81.199219c0 8.804687 7.148438 15.953125 15.953125 15.953125zm0 0"/><path d="m53.964844 69.914062v88.0625c0 8.804688 7.144531 15.953126 15.949218 15.953126h88.0625c8.804688 0 15.953126-7.148438 15.953126-15.953126v-88.0625c0-8.804687-7.148438-15.949218-15.953126-15.949218h-88.0625c-8.804687 0-15.949218 7.144531-15.949218 15.949218zm88.058594 72.109376h-56.15625v-56.15625h56.15625zm0 0"/><path d="m157.976562 335.03125h-88.0625c-8.804687 0-15.949218 7.136719-15.949218 15.953125v88.046875c0 8.816406 7.144531 15.953125 15.949218 15.953125h88.0625c8.804688 0 15.953126-7.136719 15.953126-15.953125v-88.046875c0-8.816406-7.148438-15.953125-15.953126-15.953125zm-15.953124 88.046875h-56.15625v-56.140625h56.15625zm0 0"/><path d="m348.960938 173.929688h88.0625c8.804687 0 15.953124-7.148438 15.953124-15.953126v-88.0625c0-8.804687-7.148437-15.949218-15.953124-15.949218h-88.0625c-8.816407 0-15.953126 7.144531-15.953126 15.949218v88.0625c0 8.804688 7.136719 15.953126 15.953126 15.953126zm15.953124-88.0625h56.15625v56.15625h-56.15625zm0 0"/><path d="m56.839844 215.144531c0 8.808594 7.144531 15.953125 15.953125 15.953125h149.007812c8.808594 0 15.953125-7.144531 15.953125-15.953125v-90.816406c0-8.8125-7.144531-15.953125-15.953125-15.953125-8.8125 0-15.953125 7.140625-15.953125 15.953125v74.863281h-133.054687c-8.808594 0-15.953125 7.144532-15.953125 15.953125zm0 0"/><path d="m270.539062 216.566406c.351563 16.207032.351563 31.105469.351563 46.878906 0 8.808594 7.140625 15.953126 15.953125 15.953126h99.96875c8.8125 0 15.953125-7.144532 15.953125-15.953126 0-8.8125-7.140625-15.953124-15.953125-15.953124h-84.03125c-.027344-10.34375-.109375-20.652344-.34375-31.617188-.191406-8.808594-7.53125-15.804688-16.292969-15.601562-8.808593.191406-15.796875 7.484374-15.605469 16.292968zm0 0"/><path d="m221.800781 85.871094h.023438c16.121093-.027344 32.75-.03125 49.054687-.035156-.023437 11.21875-.101562 22.308593-.339844 33.925781-.179687 8.808593 6.8125 16.097656 15.621094 16.277343.109375.003907.222656.003907.332032.003907 8.660156 0 15.765624-6.929688 15.945312-15.625.355469-17.402344.355469-33.496094.355469-50.535157 0-8.808593-7.140625-15.953124-15.953125-15.953124-21.277344 0-43.621094 0-65.066406.035156-8.808594.011718-15.941407 7.167968-15.929688 15.976562.015625 8.800782 7.15625 15.929688 15.957031 15.929688zm0 0"/><path d="m348.960938 223.398438h88.058593c8.808594 0 15.953125-7.140626 15.953125-15.953126 0-8.808593-7.144531-15.949218-15.953125-15.949218h-88.058593c-8.808594 0-15.953126 7.140625-15.953126 15.949218 0 8.8125 7.144532 15.953126 15.953126 15.953126zm0 0"/><path d="m379.875 366.558594c-21.203125.035156-42.402344.066406-63.605469.09375-8.808593.011718-15.941406 7.164062-15.929687 15.976562.011718 8.800782 7.152344 15.929688 15.953125 15.929688 1.0625 0 35.691406-.046875 63.636719-.09375 8.808593-.015625 15.9375-7.167969 15.925781-15.980469-.015625-8.800781-7.15625-15.925781-15.953125-15.925781-.011719 0-.019532 0-.027344 0zm0 0"/><path d="m221.960938 271.953125-29.601563.011719c-8.808594.003906-15.945313 7.152344-15.941406 15.960937.003906 8.785157 7.117187 15.945313 15.960937 15.945313l13.636719-.007813v135.171875c0 8.8125 7.140625 15.953125 15.953125 15.953125 8.808594 0 15.953125-7.140625 15.953125-15.953125v-151.128906c0-8.792969-7.132813-15.953125-15.960937-15.953125zm0 0"/><path d="m72.792969 272.316406c-8.808594 0-15.953125 7.140625-15.953125 15.953125 0 8.808594 7.144531 15.953125 15.953125 15.953125h27.933593c8.808594 0 15.953126-7.144531 15.953126-15.953125 0-8.8125-7.144532-15.953125-15.953126-15.953125zm0 0"/><path d="m455.160156 324.246094c0-8.808594-7.144531-15.953125-15.953125-15.953125h-152.71875c-8.808593 0-15.953125 7.144531-15.953125 15.953125s7.144532 15.953125 15.953125 15.953125h152.71875c8.808594 0 15.953125-7.140625 15.953125-15.953125zm0 0"/><path d="m162.5 287.90625c0 8.808594-7.140625 15.953125-15.953125 15.953125-8.808594 0-15.953125-7.144531-15.953125-15.953125 0-8.8125 7.144531-15.953125 15.953125-15.953125 8.8125 0 15.953125 7.140625 15.953125 15.953125zm0 0"/><path d="m113.945312 129.898438c8.804688 0 15.953126-7.148438 15.953126-15.953126 0-8.804687-7.148438-15.953124-15.953126-15.953124-8.804687 0-15.953124 7.148437-15.953124 15.953124 0 8.804688 7.148437 15.953126 15.953124 15.953126zm0 0"/><path d="m392.992188 97.992188c-8.816407 0-15.953126 7.148437-15.953126 15.953124 0 8.804688 7.136719 15.953126 15.953126 15.953126 8.804687 0 15.953124-7.148438 15.953124-15.953126 0-8.804687-7.148437-15.953124-15.953124-15.953124zm0 0"/><path d="m113.945312 410.953125c8.804688 0 15.953126-7.132813 15.953126-15.949219 0-8.808594-7.148438-15.953125-15.953126-15.953125-8.804687 0-15.953124 7.144531-15.953124 15.953125 0 8.816406 7.148437 15.949219 15.953124 15.949219zm0 0"/><path d="m452.972656 263.445312c0 8.808594-7.144531 15.953126-15.953125 15.953126-8.8125 0-15.953125-7.144532-15.953125-15.953126 0-8.8125 7.140625-15.953124 15.953125-15.953124 8.808594 0 15.953125 7.140624 15.953125 15.953124zm0 0"/><path d="m301.332031 165.824219c0 8.808593-7.140625 15.953125-15.953125 15.953125-8.808594 0-15.949218-7.144532-15.949218-15.953125 0-8.8125 7.140624-15.953125 15.949218-15.953125 8.8125 0 15.953125 7.140625 15.953125 15.953125zm0 0"/><path d="m288.269531 382.558594c0 8.8125-7.140625 15.953125-15.953125 15.953125-8.808594 0-15.953125-7.140625-15.953125-15.953125 0-8.808594 7.144531-15.953125 15.953125-15.953125 8.8125 0 15.953125 7.144531 15.953125 15.953125zm0 0"/><path d="m455.160156 439.035156v-49.078125c0-8.808593-7.144531-15.953125-15.953125-15.953125-8.8125 0-15.953125 7.144532-15.953125 15.953125v33.125h-106.964844c-8.808593 0-15.949218 7.144531-15.949218 15.953125 0 8.8125 7.140625 15.953125 15.949218 15.953125h122.917969c8.808594 0 15.953125-7.140625 15.953125-15.953125zm0 0"/></svg>