<svg id="Capa_1" enable-background="new 0 0 512 512" height="512" viewBox="0 0 512 512" width="512" xmlns="http://www.w3.org/2000/svg"><g><path d="m228.078 284.012c4.143 0 7.5-3.357 7.5-7.5v-5.91c13.061-3.19 21.437-14.29 23.277-25.236 2.385-14.188-5.027-26.521-18.883-31.418-1.446-.511-2.92-1.042-4.395-1.592v-26.653c6.812.867 12.021 3.37 12.147 3.432 3.698 1.841 8.189.342 10.043-3.353 1.857-3.702.361-8.21-3.341-10.067-.487-.243-8.396-4.131-18.85-5.081v-4.124c0-4.143-3.357-7.5-7.5-7.5s-7.5 3.357-7.5 7.5v5.172c-.573.144-1.146.301-1.72.474-9.186 2.767-16.046 10.612-17.903 20.474-1.703 9.038 1.224 17.778 7.64 22.809 3.098 2.43 6.886 4.657 11.983 6.979v33.805c-3.792-.479-6.595-1.687-11.008-4.574-3.467-2.268-8.115-1.295-10.382 2.171-2.268 3.466-1.296 8.114 2.171 10.382 7.513 4.914 12.782 6.587 19.219 7.103v5.208c.002 4.142 3.36 7.499 7.502 7.499zm15.984-41.133c-.76 4.525-3.638 9.299-8.484 11.821v-26.38c9.501 3.709 8.906 12.049 8.484 14.559zm-26.211-39.244c-1.961-1.538-2.808-4.769-2.155-8.229.504-2.673 2.042-5.785 4.883-7.661v17.763c-.992-.611-1.914-1.234-2.728-1.873z"/><path d="m333.376 229.011c4.143 0 7.5-3.357 7.5-7.5s-3.357-7.5-7.5-7.5h-20.777c-4.143 0-7.5 3.357-7.5 7.5s3.357 7.5 7.5 7.5z"/><path d="m123.865 214.011c-4.143 0-7.5 3.357-7.5 7.5s3.357 7.5 7.5 7.5h20.777c4.143 0 7.5-3.357 7.5-7.5s-3.357-7.5-7.5-7.5z"/><path d="m422.451 139.249v-2.001c0-4.143-3.357-7.5-7.5-7.5s-7.5 3.357-7.5 7.5v2.001c0 4.143 3.357 7.5 7.5 7.5s7.5-3.358 7.5-7.5z"/><path d="m34.79 137.248v2.001c0 4.143 3.357 7.5 7.5 7.5s7.5-3.357 7.5-7.5v-2.001c0-4.143-3.357-7.5-7.5-7.5s-7.5 3.357-7.5 7.5z"/><path d="m49.79 305.776v-2.001c0-4.143-3.357-7.5-7.5-7.5s-7.5 3.357-7.5 7.5v2.001c0 4.143 3.357 7.5 7.5 7.5s7.5-3.358 7.5-7.5z"/><path d="m395.634 276.851c0-4.143-3.357-7.5-7.5-7.5s-7.5 3.357-7.5 7.5v10.845c0 4.143 3.357 7.5 7.5 7.5s7.5-3.357 7.5-7.5z"/><path d="m395.634 320.446c0-4.143-3.357-7.5-7.5-7.5s-7.5 3.357-7.5 7.5v10.846c0 4.143 3.357 7.5 7.5 7.5s7.5-3.357 7.5-7.5z"/><path d="m388.134 356.542c-4.143 0-7.5 3.357-7.5 7.5v10.845c0 4.143 3.357 7.5 7.5 7.5s7.5-3.357 7.5-7.5v-10.845c0-4.143-3.358-7.5-7.5-7.5z"/><path d="m457.242 276.851c0-4.143-3.357-7.5-7.5-7.5s-7.5 3.357-7.5 7.5v10.845c0 4.143 3.357 7.5 7.5 7.5s7.5-3.357 7.5-7.5z"/><path d="m457.242 320.446c0-4.143-3.357-7.5-7.5-7.5s-7.5 3.357-7.5 7.5v10.846c0 4.143 3.357 7.5 7.5 7.5s7.5-3.357 7.5-7.5z"/><path d="m449.742 356.542c-4.143 0-7.5 3.357-7.5 7.5v10.845c0 4.143 3.357 7.5 7.5 7.5s7.5-3.357 7.5-7.5v-10.845c0-4.143-3.357-7.5-7.5-7.5z"/><path d="m504.5 334.959c4.143 0 7.5-3.357 7.5-7.5v-76.727c0-9.885-8.042-17.927-17.927-17.927h-36.831v-122.02c0-9.768-7.947-17.715-17.715-17.715h-348.133c-4.143 0-7.5 3.357-7.5 7.5s3.357 7.5 7.5 7.5h348.134c1.497 0 2.715 1.218 2.715 2.715v122.021h-15v-57.854c0-4.143-3.357-7.5-7.5-7.5-20.337 0-36.882-16.545-36.882-36.882 0-4.143-3.357-7.5-7.5-7.5h-293.48c-4.143 0-7.5 3.357-7.5 7.5 0 20.337-16.545 36.882-36.881 36.882-4.143 0-7.5 3.357-7.5 7.5v93.121c0 4.143 3.357 7.5 7.5 7.5 20.336 0 36.881 16.545 36.881 36.881 0 4.143 3.357 7.5 7.5 7.5h153.17c4.143 0 7.5-3.357 7.5-7.5s-3.357-7.5-7.5-7.5h-146.211c-3.288-22.618-21.221-40.552-43.84-43.84v-79.203c22.619-3.288 40.552-21.222 43.84-43.841h279.562c3.288 22.619 21.222 40.553 43.841 43.841v50.896h-68.44c-9.885 0-17.926 8.042-17.926 17.927v54.221h-60.838c-4.143 0-7.5 3.357-7.5 7.5s3.357 7.5 7.5 7.5h60.838v14.999h-308.162c-1.497 0-2.715-1.218-2.715-2.714v-221.455c0-1.497 1.218-2.715 2.715-2.715h43.692c4.143 0 7.5-3.357 7.5-7.5s-3.357-7.5-7.5-7.5h-43.692c-9.768 0-17.715 7.947-17.715 17.715v221.454c0 9.768 7.947 17.714 17.715 17.714h308.161v51.052c0 9.885 8.041 17.926 17.926 17.926h150.271c9.885 0 17.927-8.041 17.927-17.926v-43.558c0-4.143-3.357-7.5-7.5-7.5s-7.5 3.357-7.5 7.5v43.558c0 1.613-1.312 2.926-2.927 2.926h-150.271c-1.613 0-2.926-1.312-2.926-2.926v-150.272c0-1.614 1.312-2.927 2.926-2.927h150.271c1.614 0 2.927 1.312 2.927 2.927v76.727c0 4.142 3.357 7.499 7.5 7.499z"/></g></svg>