<svg id="Layer_1" data-name="Layer 1" xmlns="http://www.w3.org/2000/svg" xmlns:xlink="http://www.w3.org/1999/xlink" viewBox="0 0 2890.52 481.38">
    <defs>
        <style>.cls-1{fill:url(#linear-gradient);}.cls-2{fill:#0a0a0a;}.cls-3{fill:#0076c6;}.cls-4{fill:url(#linear-gradient-2);}.cls-5{fill:#2fd333;}.cls-6{fill:url(#linear-gradient-3);}.cls-7{fill:url(#linear-gradient-4);}.cls-8{fill:#1574ad;}.cls-9{fill:url(#linear-gradient-5);}.cls-10{fill:#34af3a;}.cls-11{font-size:430px;fill:#35af3b;font-family:RechargeRg-Bold, Recharge;font-weight:700;}
        </style>
        <linearGradient id="linear-gradient" x1="208.65" y1="249.13" x2="160.78" y2="249.13" gradientTransform="matrix(1, 0, 0, -1, 0, 478.38)" gradientUnits="userSpaceOnUse">
            <stop offset="0" stop-color="#3ec745"/>
            <stop offset="0.06" stop-color="#3ab940" stop-opacity="0.92"/>
            <stop offset="0.16" stop-color="#2f9534" stop-opacity="0.78"/>
            <stop offset="0.3" stop-color="#1c5b20" stop-opacity="0.58"/>
            <stop offset="0.48" stop-color="#040b04" stop-opacity="0.33"/>
            <stop offset="0.5" stop-opacity="0.3"/>
            <stop offset="0.61" stop-color="#123914" stop-opacity="0.46"/>
            <stop offset="0.75" stop-color="#257529" stop-opacity="0.65"/>
            <stop offset="0.86" stop-color="#32a238" stop-opacity="0.8"/>
            <stop offset="0.95" stop-color="#3bbd41" stop-opacity="0.93"/>
            <stop offset="1" stop-color="#3ec745"/>
        </linearGradient>
        <linearGradient id="linear-gradient-2" x1="316.67" y1="180.76" x2="214.99" y2="180.76" gradientTransform="matrix(1, 0, 0, -1, 0, 483.38)" gradientUnits="userSpaceOnUse">
            <stop offset="0" stop-opacity="0.2"/>
            <stop offset="1" stop-color="#007eaf" stop-opacity="0.2"/>
        </linearGradient>
        <linearGradient id="linear-gradient-3" x1="117.68" y1="118.66" x2="117.68" y2="177.9" gradientTransform="matrix(1, 0, 0, -1, 0, 483.38)" gradientUnits="userSpaceOnUse">
            <stop offset="0" stop-opacity="0.3"/>
            <stop offset="0.1" stop-color="#0a2e0b" stop-opacity="0.45"/>
            <stop offset="0.2" stop-color="#145916" stop-opacity="0.6"/>
            <stop offset="0.31" stop-color="#1c7f1f" stop-opacity="0.72"/>
            <stop offset="0.43" stop-color="#239d26" stop-opacity="0.82"/>
            <stop offset="0.55" stop-color="#28b52c" stop-opacity="0.9"/>
            <stop offset="0.68" stop-color="#2cc630" stop-opacity="0.96"/>
            <stop offset="0.82" stop-color="#2ed032" stop-opacity="0.99"/>
            <stop offset="1" stop-color="#2fd333"/>
        </linearGradient>
        <linearGradient id="linear-gradient-4" x1="245.37" y1="76.84" x2="245.37" y2="177.9" gradientTransform="matrix(1, 0, 0, -1, 0, 483.38)" gradientUnits="userSpaceOnUse">
            <stop offset="0" stop-opacity="0.2"/>
            <stop offset="0.06" stop-color="#061b06" stop-opacity="0.3"/>
            <stop offset="0.19" stop-color="#114b12" stop-opacity="0.49"/>
            <stop offset="0.31" stop-color="#1a751c" stop-opacity="0.64"/>
            <stop offset="0.44" stop-color="#229724" stop-opacity="0.77"/>
            <stop offset="0.58" stop-color="#28b12b" stop-opacity="0.87"/>
            <stop offset="0.71" stop-color="#2cc42f" stop-opacity="0.94"/>
            <stop offset="0.85" stop-color="#2ecf32" stop-opacity="0.99"/>
            <stop offset="1" stop-color="#2fd333"/>
        </linearGradient>
        <linearGradient id="linear-gradient-5" x1="192.67" y1="290.05" x2="192.67" y2="198.35" gradientUnits="userSpaceOnUse">
            <stop offset="0" stop-opacity="0.2"/>
            <stop offset="0.04" stop-color="#00111d" stop-opacity="0.32"/>
            <stop offset="0.1" stop-color="#002944" stop-opacity="0.48"/>
            <stop offset="0.18" stop-color="#003e67" stop-opacity="0.62"/>
            <stop offset="0.25" stop-color="#004f85" stop-opacity="0.74"/>
            <stop offset="0.34" stop-color="#005e9d" stop-opacity="0.83"/>
            <stop offset="0.43" stop-color="#0069af" stop-opacity="0.91"/>
            <stop offset="0.54" stop-color="#0070bc" stop-opacity="0.96"/>
            <stop offset="0.69" stop-color="#0075c4" stop-opacity="0.99"/>
            <stop offset="1" stop-color="#0076c6"/>
        </linearGradient>
    </defs>
    <rect class="cls-1" fill="#0a0a0a" x="160.78" y="208.3" width="47.87" height="41.88"/>
    <path class="cls-2" d="M88,244.79v3.78l.14-7.09C88,242.58,88,243.61,88,244.79Z" transform="translate(0 -5)"/>
    <path class="cls-3" d="M359,166.8l.14,7.1V300.45a31.48,31.48,0,0,1-31.49,31.48H284V290.05h15.77a16.77,16.77,0,0,0,16.81-16.74V197.25a16.79,16.79,0,0,0-16.81-16.81h-77.5a16.79,16.79,0,0,0-16.81,16.81v76.06a16.77,16.77,0,0,0,16.81,16.74h19.36v41.88H194.53a31.47,31.47,0,0,1-31.48-31.48V170.11a31.47,31.47,0,0,1,31.48-31.48H311.16l48.22-70.75Z" transform="translate(0 -5)"/>
    <path class="cls-4" d="M299.93,290.05H215v41.88h76.95a24.75,24.75,0,0,0,24.73-24.73V273.31A16.76,16.76,0,0,1,299.93,290.05Z" transform="translate(0 -5)"/>
    <path class="cls-5" d="M252.6,213.3H205.48v41.89h19.36a16.77,16.77,0,0,1,16.81,16.74v76a16.79,16.79,0,0,1-16.81,16.81H147.2a16.79,16.79,0,0,1-16.81-16.81v-76a16.77,16.77,0,0,1,16.81-16.74H163V213.3H136L87.75,142.55l.35,98.93L88,248.57V375.12a31.48,31.48,0,0,0,31.48,31.49H252.67a31.48,31.48,0,0,0,31.48-31.49V244.79A31.53,31.53,0,0,0,252.6,213.3Z" transform="translate(0 -5)"/>
    <path class="cls-6" d="M130.39,347.91V305.48H88.17v26.59a32.63,32.63,0,0,0,32.65,32.65H147.2A16.83,16.83,0,0,1,130.39,347.91Z" transform="translate(0 -5)"/>
    <path class="cls-7" d="M284.09,375.12V305.48H241.65v39.13s5.37,61.93-35,61.93h46A31.41,31.41,0,0,0,284.09,375.12Z" transform="translate(0 -5)"/>
    <rect class="cls-8" x="163.05" y="208.3" width="42.44" height="41.88"/>
    <path class="cls-9" d="M205.48,273.24V198.35H163.05v62.83a28.91,28.91,0,0,0,28.86,28.87h30.38A16.79,16.79,0,0,1,205.48,273.24Z" transform="translate(0 -5)"/>
    <path class="cls-10" d="M232.24,469.48A232.24,232.24,0,0,1,68,73,232.24,232.24,0,0,1,396.46,401.46,230.68,230.68,0,0,1,232.24,469.48Zm0-448.48C113,21,16,118,16,237.24s97,216.24,216.24,216.24,216.24-97,216.24-216.24S351.48,21,232.24,21Z" transform="translate(0 -5)"/>
    <text class="cls-11" transform="translate(490.28 384.63)">BELDEX</text>
</svg>