<?xml version="1.0" encoding="utf-8"?>
<!-- Generator: Adobe Illustrator 24.3.0, SVG Export Plug-In . SVG Version: 6.00 Build 0)  -->
<svg version="1.1" id="Layer_1" xmlns="http://www.w3.org/2000/svg" xmlns:xlink="http://www.w3.org/1999/xlink" x="0px" y="0px"
	 viewBox="0 0 2890.5 481.4" style="enable-background:new 0 0 2890.5 481.4;" xml:space="preserve">
<linearGradient id="SVGID_1_" gradientUnits="userSpaceOnUse" x1="208.65" y1="250.86" x2="160.78" y2="250.86" gradientTransform="matrix(1 0 0 1 0 -21.62)">
	<stop  offset="0" style="stop-color:#3EC745"/>
	<stop  offset="6.000000e-02" style="stop-color:#3AB940;stop-opacity:0.92"/>
	<stop  offset="0.16" style="stop-color:#2F9534;stop-opacity:0.78"/>
	<stop  offset="0.3" style="stop-color:#1C5B20;stop-opacity:0.58"/>
	<stop  offset="0.48" style="stop-color:#040B04;stop-opacity:0.33"/>
	<stop  offset="0.5" style="stop-color:#000000;stop-opacity:0.3"/>
	<stop  offset="0.61" style="stop-color:#123914;stop-opacity:0.46"/>
	<stop  offset="0.75" style="stop-color:#257529;stop-opacity:0.65"/>
	<stop  offset="0.86" style="stop-color:#32A238;stop-opacity:0.8"/>
	<stop  offset="0.95" style="stop-color:#3BBD41;stop-opacity:0.93"/>
	<stop  offset="1" style="stop-color:#3EC745"/>
</linearGradient>
<rect x="160.8" y="208.3" style="fill:url(#SVGID_1_);" width="47.9" height="41.9"/>
<path style="fill:#0A0A0A;" d="M88,239.8v3.8l0.1-7.1C88,237.6,88,238.6,88,239.8z"/>
<path style="fill:#0076C6;" d="M359,161.8l0.1,7.1v126.6c0,17.4-14.1,31.5-31.5,31.5c0,0,0,0,0,0H284V285h15.8
	c9.3,0,16.8-7.5,16.8-16.7c0,0,0,0,0,0v-76.1c0-9.3-7.5-16.8-16.8-16.8c0,0,0,0,0,0h-77.5c-9.3,0-16.8,7.5-16.8,16.8c0,0,0,0,0,0
	v76.1c0,9.3,7.5,16.8,16.8,16.7c0,0,0,0,0,0h19.4v41.9h-47.1c-17.4,0-31.5-14.1-31.5-31.5c0,0,0,0,0,0V165.1
	c0-17.4,14.1-31.5,31.5-31.5c0,0,0,0,0,0h116.6l48.2-70.8L359,161.8z"/>
<linearGradient id="SVGID_2_" gradientUnits="userSpaceOnUse" x1="316.68" y1="319.24" x2="215" y2="319.24" gradientTransform="matrix(1 0 0 1 0 -21.62)">
	<stop  offset="0" style="stop-color:#000000;stop-opacity:0.2"/>
	<stop  offset="1" style="stop-color:#007EAF;stop-opacity:0.2"/>
</linearGradient>
<path style="fill:url(#SVGID_2_);" d="M299.9,285H215v41.9h77c13.7,0,24.7-11.1,24.7-24.7v-33.9C316.7,277.6,309.2,285,299.9,285z"
	/>
<path style="fill:#2FD333;" d="M252.6,208.3h-47.1v41.9h19.4c9.3,0,16.8,7.5,16.8,16.7c0,0,0,0,0,0v76c0,9.3-7.5,16.8-16.8,16.8
	c0,0,0,0,0,0h-77.6c-9.3,0-16.8-7.5-16.8-16.8c0,0,0,0,0,0v-76c0-9.3,7.5-16.8,16.8-16.7c0,0,0,0,0,0H163v-41.9h-27l-48.2-70.8
	l0.3,98.9l-0.1,7.1v126.5c0,17.4,14.1,31.5,31.5,31.5c0,0,0,0,0,0h133.2c17.4,0,31.5-14.1,31.5-31.5c0,0,0,0,0,0V239.8
	C284.1,222.4,270,208.3,252.6,208.3z"/>
<linearGradient id="SVGID_3_" gradientUnits="userSpaceOnUse" x1="117.685" y1="381.34" x2="117.685" y2="322.1" gradientTransform="matrix(1 0 0 1 0 -21.62)">
	<stop  offset="0" style="stop-color:#000000;stop-opacity:0.3"/>
	<stop  offset="0.1" style="stop-color:#0A2E0B;stop-opacity:0.45"/>
	<stop  offset="0.2" style="stop-color:#145916;stop-opacity:0.6"/>
	<stop  offset="0.31" style="stop-color:#1C7F1F;stop-opacity:0.72"/>
	<stop  offset="0.43" style="stop-color:#239D26;stop-opacity:0.82"/>
	<stop  offset="0.55" style="stop-color:#28B52C;stop-opacity:0.9"/>
	<stop  offset="0.68" style="stop-color:#2CC630;stop-opacity:0.96"/>
	<stop  offset="0.82" style="stop-color:#2ED032;stop-opacity:0.99"/>
	<stop  offset="1" style="stop-color:#2FD333"/>
</linearGradient>
<path style="fill:url(#SVGID_3_);" d="M130.4,342.9v-42.4H88.2v26.6c0,18,14.6,32.6,32.6,32.6c0,0,0,0,0,0h26.4
	C137.9,359.7,130.4,352.2,130.4,342.9z"/>
<linearGradient id="SVGID_4_" gradientUnits="userSpaceOnUse" x1="245.37" y1="423.16" x2="245.37" y2="322.1" gradientTransform="matrix(1 0 0 1 0 -21.62)">
	<stop  offset="0" style="stop-color:#000000;stop-opacity:0.2"/>
	<stop  offset="6.000000e-02" style="stop-color:#061B06;stop-opacity:0.3"/>
	<stop  offset="0.19" style="stop-color:#114B12;stop-opacity:0.49"/>
	<stop  offset="0.31" style="stop-color:#1A751C;stop-opacity:0.64"/>
	<stop  offset="0.44" style="stop-color:#229724;stop-opacity:0.77"/>
	<stop  offset="0.58" style="stop-color:#28B12B;stop-opacity:0.87"/>
	<stop  offset="0.71" style="stop-color:#2CC42F;stop-opacity:0.94"/>
	<stop  offset="0.85" style="stop-color:#2ECF32;stop-opacity:0.99"/>
	<stop  offset="1" style="stop-color:#2FD333"/>
</linearGradient>
<path style="fill:url(#SVGID_4_);" d="M284.1,370.1v-69.6h-42.4v39.1c0,0,5.4,61.9-35,61.9h46C270,401.6,284.1,387.5,284.1,370.1
	C284.1,370.1,284.1,370.1,284.1,370.1z"/>
<rect x="163.1" y="208.3" style="fill:#1574AD;" width="42.4" height="41.9"/>
<linearGradient id="SVGID_5_" gradientUnits="userSpaceOnUse" x1="192.67" y1="193.95" x2="192.67" y2="285.65" gradientTransform="matrix(1 0 0 -1 0 479)">
	<stop  offset="0" style="stop-color:#000000;stop-opacity:0.2"/>
	<stop  offset="4.000000e-02" style="stop-color:#00111D;stop-opacity:0.32"/>
	<stop  offset="0.1" style="stop-color:#002944;stop-opacity:0.48"/>
	<stop  offset="0.18" style="stop-color:#003E67;stop-opacity:0.62"/>
	<stop  offset="0.25" style="stop-color:#004F85;stop-opacity:0.74"/>
	<stop  offset="0.34" style="stop-color:#005E9D;stop-opacity:0.83"/>
	<stop  offset="0.43" style="stop-color:#0069AF;stop-opacity:0.91"/>
	<stop  offset="0.54" style="stop-color:#0070BC;stop-opacity:0.96"/>
	<stop  offset="0.69" style="stop-color:#0075C4;stop-opacity:0.99"/>
	<stop  offset="1" style="stop-color:#0076C6"/>
</linearGradient>
<path style="fill:url(#SVGID_5_);" d="M205.5,268.2v-74.9h-42.4v62.8c0,15.9,12.9,28.8,28.9,28.9h30.4
	C213,285.1,205.5,277.6,205.5,268.2C205.5,268.3,205.5,268.3,205.5,268.2z"/>
<path style="fill:#34AF3A;" d="M232.2,464.5C104,464.5,0,360.5,0,232.3c0-61.6,24.5-120.7,68-164.3c90.7-90.7,237.8-90.7,328.5,0
	s90.7,237.8,0,328.5C353,440.2,293.9,464.7,232.2,464.5z M232.2,16C113,16,16,113,16,232.2s97,216.2,216.2,216.2
	s216.2-97,216.2-216.2S351.5,16,232.2,16z"/>
<text transform="matrix(1 0 0 1 490.28 384.63)" style="fill:#35AF3B; font-family:'RechargeRg-Bold'; font-size:430px;">BELDEX</text>
</svg>
