<svg width="18" height="18" viewBox="0 0 18 18" fill="none" xmlns="http://www.w3.org/2000/svg">
<path d="M8.97808 0.000160417C8.58145 0.005973 8.20336 0.169007 7.92687 0.45344C7.65039 0.737873 7.49813 1.12044 7.50355 1.51707V7.50286H1.51776C1.31946 7.50005 1.12259 7.53669 0.938571 7.61063C0.754556 7.68458 0.587072 7.79436 0.445852 7.9336C0.304633 8.07283 0.192495 8.23875 0.115955 8.4217C0.0394154 8.60465 0 8.80099 0 8.99931C0 9.19762 0.0394154 9.39396 0.115955 9.57691C0.192495 9.75987 0.304633 9.92578 0.445852 10.065C0.587072 10.2043 0.754556 10.314 0.938571 10.388C1.12259 10.4619 1.31946 10.4986 1.51776 10.4958H7.50355V16.4815C7.50075 16.6798 7.53738 16.8767 7.61133 17.0607C7.68527 17.2448 7.79505 17.4122 7.93429 17.5535C8.07353 17.6947 8.23944 17.8068 8.42239 17.8834C8.60534 17.9599 8.80168 17.9993 9 17.9993C9.19832 17.9993 9.39466 17.9599 9.57761 17.8834C9.76056 17.8068 9.92648 17.6947 10.0657 17.5535C10.2049 17.4122 10.3147 17.2448 10.3887 17.0607C10.4626 16.8767 10.4993 16.6798 10.4964 16.4815V10.4958H16.4822C16.6805 10.4986 16.8774 10.4619 17.0614 10.388C17.2454 10.314 17.4129 10.2043 17.5541 10.065C17.6954 9.92578 17.8075 9.75987 17.884 9.57691C17.9606 9.39396 18 9.19762 18 8.99931C18 8.80099 17.9606 8.60465 17.884 8.4217C17.8075 8.23875 17.6954 8.07283 17.5541 7.9336C17.4129 7.79436 17.2454 7.68458 17.0614 7.61063C16.8774 7.53669 16.6805 7.50005 16.4822 7.50286H10.4964V1.51707C10.4992 1.31698 10.4618 1.11838 10.3864 0.93301C10.3111 0.747638 10.1993 0.57926 10.0577 0.437834C9.91617 0.296408 9.74769 0.184807 9.56224 0.109631C9.3768 0.0344547 9.17816 -0.00276921 8.97808 0.000160417Z" fill="#0BA70F"/>
</svg>
