<svg width="277" height="203" viewBox="0 0 277 203" fill="none" xmlns="http://www.w3.org/2000/svg">
<path d="M241.802 26H29.1976C27.4316 26 26 27.5531 26 29.469V169.531C26 171.447 27.4316 173 29.1976 173H241.802C243.568 173 245 171.447 245 169.531V29.469C245 27.5531 243.568 26 241.802 26Z" stroke="#67678E" stroke-miterlimit="10" stroke-dasharray="10.03 10.03"/>
<path d="M40.1427 37.2101C40.1427 37.6074 40.0251 37.9958 39.8046 38.3261C39.5842 38.6565 39.2709 38.914 38.9043 39.066C38.5377 39.2181 38.1343 39.2579 37.7452 39.1803C37.356 39.1028 36.9985 38.9115 36.718 38.6306C36.4374 38.3496 36.2463 37.9917 36.1689 37.602C36.0915 37.2123 36.1312 36.8084 36.2831 36.4413C36.4349 36.0742 36.6921 35.7605 37.022 35.5397C37.3519 35.319 37.7398 35.2012 38.1366 35.2012C38.6686 35.2012 39.1789 35.4128 39.5551 35.7896C39.9314 36.1663 40.1427 36.6773 40.1427 37.2101Z" fill="#8686A5"/>
<path d="M47.9401 37.2101C47.9401 37.6074 47.8225 37.9958 47.602 38.3261C47.3816 38.6565 47.0682 38.914 46.7017 39.066C46.3351 39.2181 45.9317 39.2579 45.5425 39.1803C45.1534 39.1028 44.7959 38.9115 44.5153 38.6306C44.2348 38.3496 44.0437 37.9917 43.9663 37.602C43.8889 37.2123 43.9286 36.8084 44.0804 36.4413C44.2323 36.0742 44.4894 35.7605 44.8193 35.5397C45.1493 35.319 45.5371 35.2012 45.9339 35.2012C46.466 35.2012 46.9763 35.4128 47.3525 35.7896C47.7287 36.1663 47.9401 36.6773 47.9401 37.2101Z" fill="#63637F"/>
<path d="M55.7375 37.2101C55.7375 37.6074 55.6198 37.9958 55.3994 38.3261C55.1789 38.6565 54.8656 38.914 54.499 39.066C54.1324 39.2181 53.7291 39.2579 53.3399 39.1803C52.9507 39.1028 52.5933 38.9115 52.3127 38.6306C52.0321 38.3496 51.8411 37.9917 51.7636 37.602C51.6862 37.2123 51.726 36.8084 51.8778 36.4413C52.0297 36.0742 52.2868 35.7605 52.6167 35.5397C52.9466 35.319 53.3345 35.2012 53.7313 35.2012C53.9947 35.2012 54.2556 35.2531 54.499 35.3541C54.7424 35.455 54.9636 35.603 55.1499 35.7896C55.3362 35.9761 55.4839 36.1976 55.5848 36.4413C55.6856 36.685 55.7375 36.9462 55.7375 37.2101Z" fill="#363647"/>
<path d="M49.741 13.3253H5.20369C4.76181 13.3253 4.33804 13.1495 4.02558 12.8367C3.71313 12.5238 3.5376 12.0995 3.5376 11.657C3.5376 11.2145 3.71313 10.7902 4.02558 10.4773C4.33804 10.1644 4.76181 9.98865 5.20369 9.98865H49.741C50.1829 9.98865 50.6067 10.1644 50.9191 10.4773C51.2316 10.7902 51.4071 11.2145 51.4071 11.657C51.4071 12.0995 51.2316 12.5238 50.9191 12.8367C50.6067 13.1495 50.1829 13.3253 49.741 13.3253Z" fill="#363647"/>
<path d="M275.334 133.262H253.717C253.275 133.262 252.852 133.086 252.539 132.773C252.227 132.46 252.051 132.036 252.051 131.594C252.051 131.151 252.227 130.727 252.539 130.414C252.852 130.101 253.275 129.925 253.717 129.925H275.334C275.776 129.925 276.2 130.101 276.512 130.414C276.825 130.727 277 131.151 277 131.594C277 132.036 276.825 132.46 276.512 132.773C276.2 133.086 275.776 133.262 275.334 133.262Z" fill="#363647"/>
<path d="M260.194 152.56H257.553C257.219 152.56 256.9 152.427 256.664 152.191C256.428 151.955 256.296 151.635 256.296 151.302V148.818C256.296 148.484 256.428 148.164 256.664 147.928C256.9 147.692 257.219 147.56 257.553 147.56H260.194C260.528 147.56 260.847 147.692 261.083 147.928C261.319 148.164 261.451 148.484 261.451 148.818V151.302C261.451 151.635 261.319 151.955 261.083 152.191C260.847 152.427 260.528 152.56 260.194 152.56Z" fill="#63637F"/>
<path d="M9.81201 164.118H7.17081C6.8375 164.118 6.51784 163.985 6.28216 163.749C6.04647 163.513 5.91406 163.193 5.91406 162.859V160.376C5.91406 160.042 6.04647 159.722 6.28216 159.486C6.51784 159.25 6.8375 159.117 7.17081 159.117H9.8125C10.1458 159.117 10.4655 159.25 10.7012 159.486C10.9368 159.722 11.0692 160.042 11.0692 160.376V162.859C11.0692 163.193 10.9368 163.513 10.7012 163.749C10.4655 163.985 10.1453 164.118 9.81201 164.118Z" fill="#63637F"/>
<path d="M271.36 97.998H219.64C218.94 97.998 218.268 97.7099 217.773 97.1972C217.278 96.6845 217 95.9891 217 95.2641V45.7339C217 45.0088 217.278 44.3134 217.773 43.8007C218.268 43.288 218.94 43 219.64 43H271.36C272.06 43 272.732 43.288 273.227 43.8007C273.722 44.3134 274 45.0088 274 45.7339V95.2661C274 95.9912 273.722 96.6866 273.227 97.1993C272.732 97.712 272.06 98 271.36 98" fill="#22222D"/>
<path d="M232.638 85H259.362C260.061 85 260.732 84.6932 261.227 84.147C261.722 83.6008 262 82.8601 262 82.0877V57.9118C262 57.1395 261.722 56.3989 261.227 55.8528C260.732 55.3068 260.061 55 259.362 55H232.638C232.292 54.9999 231.949 55.0752 231.629 55.2215C231.309 55.3678 231.018 55.5823 230.773 55.8527C230.528 56.123 230.333 56.4441 230.201 56.7974C230.068 57.1507 230 57.5294 230 57.9118V82.0877C230 82.8601 230.278 83.6008 230.773 84.147C231.268 84.6932 231.939 85 232.638 85Z" fill="#494962"/>
<path d="M246.494 62C245.012 62 243.563 62.4401 242.331 63.2647C241.098 64.0893 240.138 65.2614 239.57 66.6326C239.003 68.0039 238.855 69.5128 239.144 70.9685C239.433 72.4242 240.147 73.7613 241.195 74.8109C242.243 75.8604 243.579 76.5751 245.032 76.8647C246.486 77.1542 247.993 77.0056 249.362 76.4376C250.732 75.8696 251.902 74.9078 252.726 73.6737C253.549 72.4396 253.989 70.9887 253.989 69.5044C253.987 67.5148 253.196 65.6072 251.791 64.2003C250.386 62.7934 248.481 62.0021 246.494 62ZM246.494 63.2511C247.729 63.2512 248.937 63.618 249.964 64.3051C250.99 64.9922 251.791 65.9688 252.263 67.1114C252.736 68.2539 252.86 69.5112 252.619 70.7242C252.378 71.9371 251.783 73.0513 250.91 73.9259C250.037 74.8004 248.924 75.3961 247.713 75.6375C246.502 75.8789 245.246 75.7552 244.105 75.2822C242.964 74.8091 241.988 74.0078 241.302 72.9796C240.616 71.9515 240.249 70.7426 240.249 69.5059C240.248 68.6844 240.409 67.8707 240.722 67.1115C241.036 66.3523 241.496 65.6625 242.076 65.0816C242.656 64.5007 243.345 64.0402 244.103 63.7263C244.861 63.4124 245.674 63.2514 246.494 63.2525M243.684 67.0048C243.499 67.0048 243.318 67.0597 243.164 67.1628C243.01 67.2658 242.89 67.4122 242.819 67.5836C242.748 67.7549 242.73 67.9434 242.766 68.1253C242.802 68.3072 242.891 68.4743 243.022 68.6055C243.153 68.7367 243.32 68.8261 243.501 68.8623C243.683 68.8985 243.871 68.88 244.042 68.8091C244.213 68.7382 244.36 68.6181 244.463 68.4639C244.566 68.3098 244.621 68.1285 244.621 67.9431C244.621 67.6943 244.522 67.4557 244.346 67.2797C244.171 67.1038 243.933 67.0049 243.684 67.0048ZM249.304 67.0048C249.119 67.0049 248.938 67.0599 248.784 67.163C248.63 67.2661 248.51 67.4126 248.44 67.5839C248.369 67.7553 248.35 67.9438 248.386 68.1256C248.423 68.3075 248.512 68.4746 248.643 68.6057C248.774 68.7368 248.941 68.8261 249.122 68.8623C249.304 68.8985 249.492 68.88 249.663 68.8091C249.834 68.7382 249.981 68.618 250.083 68.4639C250.186 68.3097 250.241 68.1285 250.242 67.9431C250.242 67.8198 250.217 67.6978 250.17 67.5839C250.123 67.47 250.054 67.3666 249.967 67.2794C249.88 67.1923 249.777 67.1232 249.663 67.0761C249.549 67.0289 249.428 67.0047 249.304 67.0048ZM246.494 70.757C245.704 70.7597 244.925 70.9508 244.222 71.3144C243.52 71.678 242.914 72.2036 242.454 72.848L243.47 73.5709C243.813 73.0876 244.266 72.6935 244.793 72.4215C245.319 72.1496 245.902 72.0077 246.495 72.0077C247.087 72.0077 247.67 72.1496 248.197 72.4215C248.723 72.6935 249.176 73.0876 249.52 73.5709L250.535 72.848C250.075 72.2036 249.469 71.678 248.767 71.3144C248.064 70.9508 247.285 70.7597 246.494 70.757Z" fill="#B6B6D0"/>
<path d="M202.284 13.3968H158.326C158.152 13.3973 157.98 13.3634 157.819 13.2971C157.658 13.2307 157.512 13.1333 157.389 13.0103C157.266 12.8874 157.168 12.7413 157.101 12.5804C157.034 12.4196 157 12.2472 157 12.073V1.32484C157 1.15059 157.034 0.978043 157.101 0.817086C157.168 0.656128 157.265 0.509922 157.388 0.386849C157.512 0.263775 157.658 0.166253 157.819 0.0998711C157.98 0.0334889 158.152 -0.000448461 158.326 4.47459e-06H202.286C202.637 0.000134869 202.973 0.139772 203.221 0.388212C203.47 0.636652 203.609 0.973554 203.609 1.32484V12.073C203.609 12.4243 203.47 12.7612 203.221 13.0096C202.973 13.2581 202.637 13.3977 202.286 13.3978" fill="#494962"/>
<path d="M163.35 4.77356H194.613" stroke="#8686A5" stroke-miterlimit="10"/>
<path d="M163.35 7.98633H176.084" stroke="#8686A5" stroke-miterlimit="10"/>
<path d="M162.078 11.8811V17.1022L168.635 11.8811H162.078Z" fill="#63637F"/>
<path d="M104.022 35.3988H82.7423C82.2508 35.3988 81.7642 35.3018 81.3102 35.1135C80.8561 34.9252 80.4436 34.6492 80.0961 34.3012C79.7486 33.9532 79.4729 33.5401 79.2849 33.0855C79.0968 32.6309 79 32.1436 79 31.6515V11.8415C78.9999 11.4683 79.0733 11.0989 79.2158 10.7541C79.3584 10.4094 79.5673 10.0961 79.8308 9.83227C80.0943 9.56841 80.4071 9.3591 80.7513 9.2163C81.0956 9.0735 81.4645 9 81.8371 9H104.022C104.395 8.99994 104.764 9.07339 105.108 9.21616C105.452 9.35893 105.765 9.56823 106.029 9.8321C106.292 10.096 106.501 10.4092 106.644 10.754C106.786 11.0988 106.86 11.4683 106.86 11.8415V32.5558C106.86 32.929 106.786 33.2985 106.644 33.6433C106.501 33.9881 106.292 34.3013 106.029 34.5652C105.765 34.8291 105.452 35.0384 105.108 35.1811C104.764 35.3239 104.395 35.3974 104.022 35.3973" fill="#363647"/>
<path d="M89.7288 16.6825C89.5632 16.6824 89.3993 16.715 89.2463 16.7785C89.0933 16.8419 88.9543 16.9349 88.8372 17.0521C88.7202 17.1693 88.6273 17.3085 88.564 17.4617C88.5006 17.6149 88.4681 17.7791 88.4681 17.9449V26.78C88.4681 26.9458 88.5006 27.11 88.564 27.2632C88.6273 27.4164 88.7202 27.5556 88.8372 27.6728C88.9543 27.79 89.0933 27.883 89.2463 27.9464C89.3993 28.0099 89.5632 28.0425 89.7288 28.0424H96.0312C96.1968 28.0425 96.3608 28.0099 96.5138 27.9464C96.6667 27.883 96.8057 27.79 96.9228 27.6728C97.0399 27.5556 97.1328 27.4164 97.1961 27.2632C97.2594 27.11 97.292 26.9458 97.2919 26.78V17.9449C97.292 17.7791 97.2594 17.6149 97.1961 17.4617C97.1328 17.3085 97.0399 17.1693 96.9228 17.0521C96.8057 16.9349 96.6667 16.8419 96.5138 16.7785C96.3608 16.715 96.1968 16.6824 96.0312 16.6825H89.7288ZM89.7288 17.9449H96.0312V26.78H89.7288V17.9449ZM85.9473 18.5758V26.1491H87.2079V18.5758H85.9473ZM98.5521 18.5758V26.1491H99.8128V18.5758H98.5521ZM92.8798 19.8382C92.6304 19.8382 92.3867 19.9122 92.1794 20.0509C91.9721 20.1897 91.8105 20.3868 91.7151 20.6175C91.6196 20.8481 91.5947 21.102 91.6433 21.3468C91.692 21.5917 91.812 21.8167 91.9883 21.9932C92.1647 22.1697 92.3893 22.29 92.6338 22.3387C92.8784 22.3874 93.1319 22.3624 93.3622 22.2669C93.5926 22.1713 93.7895 22.0095 93.928 21.8019C94.0665 21.5943 94.1405 21.3502 94.1405 21.1006C94.1405 20.9348 94.108 20.7706 94.0446 20.6174C93.9813 20.4642 93.8884 20.325 93.7714 20.2078C93.6543 20.0906 93.5153 19.9976 93.3623 19.9342C93.2093 19.8707 93.0454 19.8381 92.8798 19.8382ZM92.8798 23.6248C92.0385 23.6248 90.3589 24.0478 90.3589 24.8872V25.5181H95.4011V24.8867C95.4011 24.0473 93.7215 23.6243 92.8798 23.6243V23.6248Z" fill="#69697B"/>
<path d="M51.5006 121.998H2.50082C1.83794 121.998 1.20222 121.711 0.73331 121.2C0.264398 120.69 0.000648599 119.997 0 119.275L0 72.7248C0.000129776 72.0022 0.26365 71.3092 0.732618 70.7982C1.20159 70.2873 1.8376 70.0001 2.50082 70H51.4992C52.1624 70.0001 52.7984 70.2873 53.2674 70.7982C53.7363 71.3092 53.9999 72.0022 54 72.7248V119.275C53.9999 119.998 53.7363 120.691 53.2674 121.202C52.7984 121.713 52.1624 122 51.4992 122" fill="#22222D"/>
<path d="M39.7106 111.708H14.2141C13.4406 111.708 12.6989 111.4 12.152 110.853C11.6051 110.305 11.2979 109.562 11.2979 108.788V84.1313C11.2978 83.7478 11.3732 83.3681 11.5197 83.0138C11.6662 82.6594 11.881 82.3375 12.1518 82.0663C12.4227 81.7952 12.7442 81.5801 13.098 81.4333C13.4518 81.2866 13.8311 81.2111 14.2141 81.2112H39.7106C40.0935 81.2111 40.4728 81.2866 40.8266 81.4333C41.1805 81.5801 41.502 81.7952 41.7728 82.0663C42.0436 82.3375 42.2584 82.6594 42.4049 83.0138C42.5514 83.3681 42.6268 83.7478 42.6268 84.1313V108.788C42.6268 109.563 42.3195 110.305 41.7726 110.853C41.2257 111.401 40.484 111.708 39.7106 111.708" fill="#494962"/>
<path d="M17.1792 96.3568L18.2729 96.9877L23.3456 99.9973L26.6822 104.866L27.384 105.917L27.8378 104.74L33.3799 90.1545L33.9526 88.6404L32.4822 89.3136L18.3186 95.8247L17.1792 96.3568ZM20.0109 96.5087L30.005 91.9077L23.6786 98.6794L20.0109 96.5087ZM24.6382 99.5769L30.9647 92.8047L27.0446 103.096L24.6382 99.5769Z" fill="#B6B6D0"/>
<path d="M216.999 121.796H199.899" stroke="#67678E" stroke-linecap="round"/>
<path d="M210.942 117.644H193.841" stroke="#67678E" stroke-linecap="round"/>
<path d="M202.341 103.117C202.341 103.117 202.449 103.144 202.49 103.172L202.898 103.584C202.98 103.666 202.98 103.789 202.898 103.872L201.402 105.382L202.898 106.891C202.98 106.974 202.98 107.097 202.898 107.18L202.49 107.591C202.409 107.674 202.286 107.674 202.204 107.591L200.708 106.082L199.211 107.591C199.129 107.674 199.007 107.674 198.925 107.591L198.517 107.18C198.435 107.097 198.435 106.974 198.517 106.891L200.014 105.382L198.517 103.872C198.435 103.789 198.435 103.666 198.517 103.584L198.925 103.172C199.007 103.089 199.129 103.089 199.211 103.172L200.708 104.682L202.204 103.172C202.204 103.172 202.3 103.117 202.354 103.103L202.341 103.117Z" fill="#67678E"/>
<path d="M158.674 148.188C166.279 142.942 174 142.048 174 138.857C174 135.666 163.445 137.092 157.291 139.364C148.971 142.459 143.394 148.309 147.243 151.983C149.962 154.594 153.465 151.765 158.674 148.164V148.188Z" fill="#171720" stroke="#67678E" stroke-width="0.64" stroke-miterlimit="10"/>
<path d="M181.531 131.268C183.576 130.417 185.493 130.004 186.132 131.345C186.822 132.815 185.263 134.104 183.192 134.877C181.122 135.651 179.256 135.78 178.745 134.413C178.234 133.047 179.435 132.144 181.531 131.268Z" fill="#171720" stroke="#67678E" stroke-width="0.69" stroke-miterlimit="10"/>
<path d="M108.382 148.704C100.795 143.132 93 142.271 93 138.928C93 135.586 102.669 137.029 109.7 139.916C117.264 143.006 123.694 148.856 119.855 152.705C117.125 155.44 115.182 153.718 108.382 148.704Z" fill="#171720" stroke="#67678E" stroke-width="0.64" stroke-miterlimit="10"/>
<path d="M85.2931 131.268C83.2482 130.417 81.3311 130.004 80.6921 131.345C80.0019 132.815 81.5612 134.104 83.6316 134.877C85.7021 135.651 87.5681 135.78 88.0793 134.413C88.5905 133.047 87.3891 132.144 85.2931 131.268Z" fill="#171720" stroke="#67678E" stroke-width="0.69" stroke-miterlimit="10"/>
<path d="M82.8251 143.896L87.1317 143.143C89.1068 142.797 90.4303 140.902 90.0877 138.91L89.7295 136.827C89.3869 134.834 87.508 133.499 85.5329 133.845L81.2262 134.598C79.2511 134.944 77.9277 136.839 78.2702 138.831L78.6285 140.914C78.971 142.907 80.8499 144.242 82.8251 143.896Z" fill="#22222D" stroke="#67678E" stroke-width="0.62" stroke-miterlimit="10"/>
<path d="M185.583 134.614L181.276 133.86C179.301 133.515 177.422 134.85 177.079 136.842L176.721 138.925C176.379 140.917 177.702 142.812 179.677 143.158L183.984 143.911C185.959 144.257 187.838 142.922 188.18 140.93L188.539 138.847C188.881 136.854 187.558 134.959 185.583 134.614Z" fill="#22222D" stroke="#67678E" stroke-width="0.62" stroke-miterlimit="10"/>
<path d="M134.115 193.455C147.765 193.455 156.685 180.744 155.203 166.822C153.439 150.089 143.24 138.822 134.013 138.822C124.785 138.822 114.152 152.487 112.822 166.822C111.519 180.77 120.158 193.455 134.14 193.455H134.115Z" fill="#22222D" stroke="#67678E" stroke-width="0.74" stroke-miterlimit="10" stroke-linecap="round"/>
<path d="M134.012 135.444C168.597 135.96 180.84 119.949 182.681 91.8461C184.547 63.4596 169.67 42.5499 167.498 49.9753C165.325 57.4007 165.529 72.0967 134.933 71.6326C98.8146 71.0912 103.492 56.9108 101.55 49.4596C99.607 41.9827 84.0147 61.7321 85.395 89.0358C86.8264 117.165 99.6837 134.955 133.987 135.47L134.012 135.444Z" fill="#22222D" stroke="#67678E" stroke-miterlimit="10"/>
<path d="M134.932 81.5073C125.679 81.1979 120.184 80.5276 116.682 80.244C110.726 79.7283 100.629 77.7173 100.323 98.7558C100.144 110.41 106.559 117.19 113.614 120.181C118.241 122.141 125.858 123.172 133.118 123.378H135.214C142.473 123.404 150.116 122.63 154.793 120.8C161.925 118.015 168.545 111.415 168.699 99.7871C169.005 78.7486 158.858 80.476 152.902 80.8112C149.374 81.0174 143.879 81.5073 134.626 81.5331H134.907L134.932 81.5073Z" fill="#171720" stroke="#67678E" stroke-miterlimit="10"/>
<path d="M129.258 113.194C129.258 113.194 130.919 110.281 134.523 110.332C138.128 110.384 139.687 113.349 139.687 113.349" stroke="#44445D" stroke-width="3" stroke-miterlimit="10" stroke-linecap="round"/>
<path d="M114.126 104.763L122.765 104.892C123.609 104.892 124.299 104.222 124.299 103.371L124.453 93.29L121.513 95.1979C121.257 95.3526 120.951 95.4557 120.669 95.4557L114.1 95.3526C113.359 95.3526 112.745 95.9456 112.72 96.6933L112.618 103.19C112.618 104.041 113.282 104.737 114.126 104.737V104.763Z" stroke="#44445D" stroke-width="3" stroke-miterlimit="10"/>
<path d="M155.1 105.382L146.461 105.253C145.617 105.253 144.953 104.557 144.953 103.706L145.106 93.6251L147.969 95.6362C148.224 95.8166 148.506 95.894 148.812 95.9198L155.382 96.0229C156.123 96.0229 156.736 96.6417 156.711 97.4152L156.609 103.912C156.609 104.763 155.918 105.434 155.075 105.434L155.1 105.382Z" stroke="#44445D" stroke-width="3" stroke-miterlimit="10"/>
<path d="M132.045 202.479H120.491C117.296 202.479 120.056 195.208 126.268 195.208C132.99 195.208 135.24 202.479 132.045 202.479Z" fill="#22222D" stroke="#67678E" stroke-width="0.96" stroke-miterlimit="10"/>
<path d="M149.656 202.479H138.103C134.908 202.479 137.668 195.208 143.88 195.208C150.602 195.208 152.852 202.479 149.656 202.479Z" fill="#22222D" stroke="#67678E" stroke-width="0.96" stroke-miterlimit="10"/>
<path d="M44.3159 153.611H61.4164" stroke="#67678E" stroke-linecap="round"/>
<path d="M48.8149 149.331H65.9154" stroke="#67678E" stroke-linecap="round"/>
<path d="M56.6191 131.014C56.6191 131.014 56.5103 131.041 56.4695 131.069L56.0612 131.48C55.9796 131.563 55.9796 131.686 56.0612 131.769L57.5581 133.278L56.0612 134.788C55.9796 134.871 55.9796 134.994 56.0612 135.076L56.4695 135.488C56.5511 135.571 56.6736 135.571 56.7552 135.488L58.2521 133.978L59.7489 135.488C59.8306 135.571 59.953 135.571 60.0347 135.488L60.4429 135.076C60.5246 134.994 60.5246 134.871 60.4429 134.788L58.9461 133.278L60.4429 131.769C60.5246 131.686 60.5246 131.563 60.4429 131.48L60.0347 131.069C59.953 130.986 59.8306 130.986 59.7489 131.069L58.2521 132.578L56.7552 131.069C56.7552 131.069 56.66 131.014 56.6055 131L56.6191 131.014Z" fill="#67678E"/>
<g opacity="0.5">
<path d="M128.012 171.61V171.794L128.019 171.449C128.012 171.502 128.012 171.552 128.012 171.61Z" fill="#67678E"/>
<path d="M141.201 167.814L141.207 168.16V174.319C141.207 174.52 141.168 174.719 141.091 174.905C141.014 175.091 140.901 175.26 140.758 175.402C140.616 175.544 140.447 175.657 140.261 175.734C140.075 175.811 139.876 175.851 139.675 175.851H137.55V173.813H138.318C138.425 173.813 138.531 173.792 138.631 173.751C138.73 173.71 138.82 173.65 138.896 173.575C138.972 173.499 139.032 173.409 139.073 173.31C139.115 173.211 139.136 173.105 139.136 172.998V169.296C139.136 169.189 139.115 169.082 139.074 168.983C139.033 168.884 138.973 168.793 138.897 168.717C138.821 168.641 138.731 168.581 138.631 168.54C138.532 168.499 138.425 168.478 138.318 168.478H134.546C134.439 168.478 134.332 168.499 134.233 168.54C134.134 168.581 134.043 168.641 133.967 168.717C133.891 168.793 133.831 168.884 133.79 168.983C133.749 169.082 133.728 169.189 133.728 169.296V172.998C133.728 173.105 133.75 173.211 133.791 173.31C133.832 173.409 133.892 173.499 133.968 173.575C134.044 173.65 134.134 173.71 134.234 173.751C134.333 173.792 134.439 173.813 134.546 173.813H135.488V175.851H133.196C132.995 175.851 132.796 175.811 132.61 175.734C132.424 175.657 132.255 175.544 132.113 175.402C131.97 175.26 131.858 175.091 131.781 174.905C131.704 174.719 131.664 174.52 131.664 174.319V167.975C131.664 167.774 131.704 167.575 131.781 167.389C131.858 167.203 131.97 167.034 132.113 166.892C132.255 166.75 132.424 166.637 132.61 166.56C132.796 166.483 132.995 166.443 133.196 166.443H138.872L141.219 163L141.201 167.814Z" fill="#67678E"/>
<path d="M136.023 170.077H133.73V172.116H134.672C134.779 172.116 134.885 172.137 134.985 172.177C135.084 172.218 135.174 172.278 135.25 172.354C135.326 172.429 135.386 172.519 135.427 172.618C135.469 172.717 135.49 172.823 135.49 172.931V176.629C135.49 176.737 135.469 176.843 135.428 176.943C135.387 177.042 135.327 177.132 135.251 177.208C135.175 177.284 135.084 177.344 134.985 177.385C134.886 177.427 134.779 177.448 134.672 177.447H130.893C130.786 177.448 130.679 177.427 130.58 177.385C130.481 177.344 130.391 177.284 130.315 177.208C130.239 177.132 130.178 177.042 130.137 176.943C130.096 176.843 130.075 176.737 130.075 176.629V172.931C130.075 172.823 130.097 172.717 130.138 172.618C130.179 172.519 130.239 172.429 130.315 172.354C130.391 172.278 130.482 172.218 130.581 172.177C130.68 172.137 130.786 172.116 130.893 172.116H131.662V170.077H130.348L128 166.634L128.017 171.449L128.012 171.794V177.953C128.012 178.154 128.052 178.353 128.129 178.539C128.206 178.725 128.318 178.894 128.461 179.036C128.603 179.179 128.772 179.292 128.958 179.369C129.144 179.446 129.343 179.485 129.544 179.485H136.026C136.228 179.485 136.427 179.446 136.613 179.369C136.799 179.292 136.968 179.179 137.11 179.036C137.252 178.894 137.365 178.725 137.442 178.539C137.519 178.353 137.558 178.154 137.558 177.953V171.61C137.558 171.203 137.396 170.813 137.108 170.526C136.82 170.238 136.43 170.077 136.023 170.077Z" fill="#67678E"/>
<path d="M133.73 170.077H131.664V172.115H133.73V170.077Z" fill="#67678E"/>
</g>
</svg>
