<svg width="16" height="16" viewBox="0 0 16 16" fill="none" xmlns="http://www.w3.org/2000/svg">
<path d="M4.32496 0C3.0758 0 2.04983 1.01629 2.04983 2.25366V2.45854H1.42934C1.34712 2.45739 1.26549 2.47244 1.18919 2.50281C1.11289 2.53318 1.04344 2.57827 0.984887 2.63546C0.926332 2.69265 0.879835 2.76079 0.848098 2.83594C0.816362 2.91108 0.800018 2.99172 0.800018 3.07318C0.800018 3.15463 0.816362 3.23527 0.848098 3.31042C0.879835 3.38556 0.926332 3.45371 0.984887 3.51089C1.04344 3.56808 1.11289 3.61317 1.18919 3.64354C1.26549 3.67392 1.34712 3.68896 1.42934 3.68781H3.9113C3.99352 3.68896 4.07516 3.67392 4.15146 3.64354C4.22776 3.61317 4.2972 3.56808 4.35576 3.51089C4.41431 3.45371 4.46081 3.38556 4.49255 3.31042C4.52428 3.23527 4.54063 3.15463 4.54063 3.07318C4.54063 2.99172 4.52428 2.91108 4.49255 2.83594C4.46081 2.76079 4.41431 2.69265 4.35576 2.63546C4.2972 2.57827 4.22776 2.53318 4.15146 2.50281C4.07516 2.47244 3.99352 2.45739 3.9113 2.45854H3.29081V2.25366C3.29081 1.68073 3.74657 1.22927 4.32496 1.22927H13.4255C14.0039 1.22927 14.4596 1.68073 14.4596 2.25366V12.9073C14.4596 13.4803 14.0039 13.9317 13.4255 13.9317H4.32496C3.74657 13.9317 3.29081 13.4803 3.29081 12.9073V12.2927H3.9113C3.99352 12.2939 4.07516 12.2788 4.15146 12.2484C4.22776 12.2181 4.2972 12.173 4.35576 12.1158C4.41431 12.0586 4.46081 11.9905 4.49255 11.9153C4.52428 11.8402 4.54063 11.7595 4.54063 11.6781C4.54063 11.5966 4.52428 11.516 4.49255 11.4408C4.46081 11.3657 4.41431 11.2975 4.35576 11.2403C4.2972 11.1832 4.22776 11.1381 4.15146 11.1077C4.07516 11.0773 3.99352 11.0623 3.9113 11.0634H3.29081V10.2439H2.04983V11.0634H1.42934C1.34712 11.0623 1.26549 11.0773 1.18919 11.1077C1.11289 11.1381 1.04344 11.1832 0.984887 11.2403C0.926332 11.2975 0.879835 11.3657 0.848098 11.4408C0.816362 11.516 0.800018 11.5966 0.800018 11.6781C0.800018 11.7595 0.816362 11.8402 0.848098 11.9153C0.879835 11.9905 0.926332 12.0586 0.984887 12.1158C1.04344 12.173 1.11289 12.2181 1.18919 12.2484C1.26549 12.2788 1.34712 12.2939 1.42934 12.2927H2.04983V12.9073C2.04983 14.1447 3.0758 15.161 4.32496 15.161H13.4255C14.6746 15.161 15.7006 14.1447 15.7006 12.9073V2.25366C15.7006 1.01629 14.6746 0 13.4255 0H4.32496ZM6.39326 2.45854C6.2287 2.45856 6.07088 2.52332 5.95452 2.63858C5.83816 2.75384 5.77278 2.91017 5.77277 3.07318V5.94147C5.77278 6.10448 5.83816 6.2608 5.95452 6.37607C6.07088 6.49133 6.2287 6.55609 6.39326 6.55611H11.7708C11.9354 6.55609 12.0932 6.49133 12.2096 6.37607C12.3259 6.2608 12.3913 6.10448 12.3913 5.94147V3.07318C12.3913 2.91017 12.3259 2.75384 12.2096 2.63858C12.0932 2.52332 11.9354 2.45856 11.7708 2.45854H6.39326ZM7.01375 3.68781H11.1503V5.32684H7.01375V3.68781ZM2.04983 4.50732V5.32684H1.42934C1.34712 5.32569 1.26549 5.34073 1.18919 5.37111C1.11289 5.40148 1.04344 5.44657 0.984887 5.50376C0.926332 5.56094 0.879835 5.62909 0.848098 5.70423C0.816362 5.77938 0.800018 5.86002 0.800018 5.94147C0.800018 6.02293 0.816362 6.10357 0.848098 6.17871C0.879835 6.25386 0.926332 6.322 0.984887 6.37919C1.04344 6.43638 1.11289 6.48147 1.18919 6.51184C1.26549 6.54221 1.34712 6.55726 1.42934 6.55611H3.9113C3.99352 6.55726 4.07516 6.54221 4.15146 6.51184C4.22776 6.48147 4.2972 6.43638 4.35576 6.37919C4.41431 6.322 4.46081 6.25386 4.49255 6.17871C4.52428 6.10357 4.54063 6.02293 4.54063 5.94147C4.54063 5.86002 4.52428 5.77938 4.49255 5.70423C4.46081 5.62909 4.41431 5.56094 4.35576 5.50376C4.2972 5.44657 4.22776 5.40148 4.15146 5.37111C4.07516 5.34073 3.99352 5.32569 3.9113 5.32684H3.29081V4.50732H2.04983ZM2.04983 7.37562V8.19514H1.42934C1.34712 8.19398 1.26549 8.20903 1.18919 8.2394C1.11289 8.26977 1.04344 8.31486 0.984887 8.37205C0.926332 8.42924 0.879835 8.49739 0.848098 8.57253C0.816362 8.64767 0.800018 8.72832 0.800018 8.80977C0.800018 8.89123 0.816362 8.97187 0.848098 9.04701C0.879835 9.12216 0.926332 9.1903 0.984887 9.24749C1.04344 9.30468 1.11289 9.34977 1.18919 9.38014C1.26549 9.41051 1.34712 9.42556 1.42934 9.42441H3.9113C3.99352 9.42556 4.07516 9.41051 4.15146 9.38014C4.22776 9.34977 4.2972 9.30468 4.35576 9.24749C4.41431 9.1903 4.46081 9.12216 4.49255 9.04701C4.52428 8.97187 4.54063 8.89123 4.54063 8.80977C4.54063 8.72832 4.52428 8.64767 4.49255 8.57253C4.46081 8.49739 4.41431 8.42924 4.35576 8.37205C4.2972 8.31486 4.22776 8.26977 4.15146 8.2394C4.07516 8.20903 3.99352 8.19398 3.9113 8.19514H3.29081V7.37562H2.04983ZM6.39326 8.19514C6.31103 8.19398 6.2294 8.20903 6.1531 8.2394C6.0768 8.26977 6.00735 8.31486 5.9488 8.37205C5.89024 8.42924 5.84375 8.49739 5.81201 8.57253C5.78027 8.64767 5.76393 8.72832 5.76393 8.80977C5.76393 8.89123 5.78027 8.97187 5.81201 9.04701C5.84375 9.12216 5.89024 9.1903 5.9488 9.24749C6.00735 9.30468 6.0768 9.34977 6.1531 9.38014C6.2294 9.41051 6.31103 9.42556 6.39326 9.42441H11.7708C11.853 9.42556 11.9347 9.41051 12.011 9.38014C12.0873 9.34977 12.1567 9.30468 12.2153 9.24749C12.2738 9.1903 12.3203 9.12216 12.3521 9.04701C12.3838 8.97187 12.4002 8.89123 12.4002 8.80977C12.4002 8.72832 12.3838 8.64767 12.3521 8.57253C12.3203 8.49739 12.2738 8.42924 12.2153 8.37205C12.1567 8.31486 12.0873 8.26977 12.011 8.2394C11.9347 8.20903 11.853 8.19398 11.7708 8.19514H6.39326ZM6.39326 11.0634C6.31103 11.0623 6.2294 11.0773 6.1531 11.1077C6.0768 11.1381 6.00735 11.1832 5.9488 11.2403C5.89024 11.2975 5.84375 11.3657 5.81201 11.4408C5.78027 11.516 5.76393 11.5966 5.76393 11.6781C5.76393 11.7595 5.78027 11.8402 5.81201 11.9153C5.84375 11.9905 5.89024 12.0586 5.9488 12.1158C6.00735 12.173 6.0768 12.2181 6.1531 12.2484C6.2294 12.2788 6.31103 12.2939 6.39326 12.2927H11.7708C11.853 12.2939 11.9347 12.2788 12.011 12.2484C12.0873 12.2181 12.1567 12.173 12.2153 12.1158C12.2738 12.0586 12.3203 11.9905 12.3521 11.9153C12.3838 11.8402 12.4002 11.7595 12.4002 11.6781C12.4002 11.5966 12.3838 11.516 12.3521 11.4408C12.3203 11.3657 12.2738 11.2975 12.2153 11.2403C12.1567 11.1832 12.0873 11.1381 12.011 11.1077C11.9347 11.0773 11.853 11.0623 11.7708 11.0634H6.39326Z" fill="white"/>
</svg>
