<svg width="292" height="217" viewBox="0 0 292 217" fill="none" xmlns="http://www.w3.org/2000/svg">
<path d="M31.7758 56.1129H258.891" stroke="#DFE0E6" stroke-width="1.968" stroke-miterlimit="10"/>
<path d="M255.575 41.224H35.0919C33.2604 41.224 31.7758 42.7087 31.7758 44.5401V178.43C31.7758 180.261 33.2604 181.746 35.0919 181.746H255.575C257.407 181.746 258.891 180.261 258.891 178.43V44.5401C258.891 42.7087 257.407 41.224 255.575 41.224Z" stroke="#AEB0CB" stroke-miterlimit="10" stroke-dasharray="10.03 10.03"/>
<path d="M46.7436 48.8195C46.7436 49.2303 46.6218 49.632 46.3936 49.9736C46.1653 50.3152 45.8409 50.5815 45.4613 50.7387C45.0817 50.8959 44.664 50.9371 44.2611 50.8569C43.8581 50.7768 43.4879 50.5789 43.1974 50.2884C42.9069 49.9979 42.7091 49.6277 42.6289 49.2247C42.5488 48.8218 42.5899 48.4041 42.7471 48.0245C42.9043 47.6449 43.1706 47.3205 43.5122 47.0922C43.8538 46.8639 44.2555 46.7421 44.6663 46.7421C45.2173 46.7421 45.7456 46.961 46.1352 47.3505C46.5248 47.7401 46.7436 48.2685 46.7436 48.8195Z" fill="#DFE0E6"/>
<path d="M54.8175 48.8195C54.8175 49.2303 54.6957 49.632 54.4674 49.9736C54.2391 50.3152 53.9147 50.5815 53.5351 50.7387C53.1555 50.8959 52.7379 50.9371 52.3349 50.8569C51.9319 50.7768 51.5618 50.5789 51.2713 50.2884C50.9808 49.9979 50.7829 49.6277 50.7028 49.2247C50.6226 48.8218 50.6637 48.4041 50.821 48.0245C50.9782 47.6449 51.2445 47.3205 51.5861 47.0922C51.9277 46.8639 52.3293 46.7421 52.7402 46.7421C53.2911 46.7421 53.8195 46.961 54.2091 47.3505C54.5986 47.7401 54.8175 48.2685 54.8175 48.8195Z" fill="#DFE0E6"/>
<path d="M62.8914 48.8195C62.8914 49.2303 62.7695 49.632 62.5413 49.9736C62.313 50.3152 61.9886 50.5815 61.609 50.7387C61.2294 50.8959 60.8117 50.9371 60.4088 50.8569C60.0058 50.7768 59.6357 50.5789 59.3451 50.2884C59.0546 49.9979 58.8568 49.6277 58.7766 49.2247C58.6965 48.8218 58.7376 48.4041 58.8948 48.0245C59.052 47.6449 59.3183 47.3205 59.6599 47.0922C60.0015 46.8639 60.4032 46.7421 60.814 46.7421C61.0868 46.7421 61.3569 46.7958 61.609 46.9002C61.861 47.0046 62.09 47.1576 62.2829 47.3505C62.4758 47.5434 62.6288 47.7725 62.7332 48.0245C62.8376 48.2765 62.8914 48.5467 62.8914 48.8195Z" fill="#F1F1F3"/>
<path d="M285.58 105.772H232.203C231.48 105.772 230.787 105.485 230.276 104.974C229.765 104.463 229.478 103.77 229.478 103.047V53.6831C229.478 52.9605 229.765 52.2674 230.276 51.7564C230.787 51.2454 231.48 50.9584 232.203 50.9584H285.58C286.302 50.9584 286.996 51.2454 287.506 51.7564C288.017 52.2674 288.305 52.9605 288.305 53.6831V103.049C288.305 103.772 288.017 104.465 287.506 104.976C286.996 105.487 286.302 105.774 285.58 105.774" fill="#DFE0E6"/>
<path d="M245.02 92.0003H272.763C273.489 92.0003 274.186 91.7117 274.699 91.1981C275.213 90.6844 275.501 89.9877 275.501 89.2613V66.5247C275.501 65.7983 275.213 65.1018 274.699 64.5882C274.185 64.0747 273.489 63.7862 272.763 63.7862H245.02C244.661 63.7861 244.305 63.8569 243.972 63.9945C243.64 64.1321 243.338 64.3338 243.084 64.5881C242.829 64.8424 242.628 65.1443 242.49 65.4766C242.352 65.8089 242.281 66.165 242.281 66.5247V89.2613C242.281 89.9877 242.57 90.6844 243.084 91.1981C243.597 91.7117 244.294 92.0003 245.02 92.0003Z" fill="#F1F1F3"/>
<path d="M53.503 147.597H2.59806C1.9094 147.597 1.24896 147.323 0.761821 146.837C0.274678 146.35 0.000673817 145.69 0 145.001L0 100.615C0.000134822 99.9264 0.273901 99.2656 0.761102 98.7784C1.2483 98.2912 1.90905 98.0174 2.59806 98.0173H53.5015C54.1905 98.0174 54.8512 98.2912 55.3384 98.7784C55.8256 99.2656 56.0994 99.9264 56.0995 100.615V145.001C56.0994 145.69 55.8256 146.351 55.3384 146.838C54.8512 147.325 54.1905 147.599 53.5015 147.599" fill="#DFE0E6"/>
<path d="M41.1189 138.045H14.7182C13.9174 138.045 13.1493 137.727 12.583 137.16C12.0167 136.594 11.6986 135.826 11.6986 135.025V109.528C11.6985 109.131 11.7766 108.739 11.9283 108.372C12.0801 108.006 12.3025 107.673 12.5829 107.393C12.8633 107.112 13.1962 106.89 13.5626 106.738C13.929 106.586 14.3217 106.508 14.7182 106.508H41.1189C41.5154 106.508 41.9081 106.586 42.2745 106.738C42.6409 106.89 42.9738 107.112 43.2542 107.393C43.5346 107.673 43.757 108.006 43.9088 108.372C44.0605 108.739 44.1385 109.131 44.1385 109.528V135.025C44.1385 135.826 43.8203 136.594 43.2541 137.161C42.6878 137.727 41.9197 138.045 41.1189 138.045" fill="#F1F1F3"/>
<path d="M50.4696 28.2568H4.35298C3.89544 28.2568 3.45663 28.0751 3.1331 27.7515C2.80957 27.428 2.62781 26.9892 2.62781 26.5316C2.62781 26.0741 2.80957 25.6352 3.1331 25.3117C3.45663 24.9882 3.89544 24.8064 4.35298 24.8064H50.4696C50.9272 24.8064 51.366 24.9882 51.6895 25.3117C52.0131 25.6352 52.1948 26.0741 52.1948 26.5316C52.1948 26.9892 52.0131 27.428 51.6895 27.7515C51.366 28.0751 50.9272 28.2568 50.4696 28.2568Z" fill="#C7C8CD"/>
<path d="M290.275 140.907H267.892C267.434 140.907 266.995 140.725 266.672 140.402C266.348 140.078 266.167 139.64 266.167 139.182C266.167 138.724 266.348 138.286 266.672 137.962C266.995 137.639 267.434 137.457 267.892 137.457H290.275C290.733 137.457 291.171 137.639 291.495 137.962C291.818 138.286 292 138.724 292 139.182C292 139.64 291.818 140.078 291.495 140.402C291.171 140.725 290.733 140.907 290.275 140.907Z" fill="#C7C8CD"/>
<path d="M274.598 160.863H271.863C271.518 160.863 271.187 160.726 270.943 160.482C270.699 160.238 270.562 159.907 270.562 159.562V156.994C270.562 156.649 270.699 156.318 270.943 156.074C271.187 155.829 271.518 155.692 271.863 155.692H274.598C274.943 155.692 275.274 155.829 275.518 156.074C275.762 156.318 275.9 156.649 275.9 156.994V159.562C275.9 159.907 275.762 160.238 275.518 160.482C275.274 160.726 274.943 160.863 274.598 160.863Z" fill="#DFE0E6"/>
<path d="M15.3372 172.815H12.6023C12.2572 172.815 11.9262 172.678 11.6822 172.434C11.4381 172.19 11.301 171.859 11.301 171.513V168.945C11.301 168.6 11.4381 168.269 11.6822 168.025C11.9262 167.781 12.2572 167.644 12.6023 167.644H15.3377C15.6828 167.644 16.0138 167.781 16.2579 168.025C16.5019 168.269 16.639 168.6 16.639 168.945V171.513C16.639 171.859 16.5019 172.19 16.2579 172.434C16.0138 172.678 15.6823 172.815 15.3372 172.815Z" fill="#DFE0E6"/>
<path d="M224.673 26.4749H179.156C178.976 26.4754 178.798 26.4403 178.631 26.3717C178.465 26.3031 178.313 26.2024 178.186 26.0752C178.058 25.948 177.957 25.797 177.888 25.6307C177.819 25.4643 177.783 25.286 177.783 25.1059V13.9913C177.783 13.8112 177.819 13.6327 177.888 13.4663C177.957 13.2998 178.058 13.1486 178.185 13.0214C178.313 12.8941 178.464 12.7933 178.631 12.7246C178.797 12.656 178.976 12.6209 179.156 12.6213H224.675C225.039 12.6215 225.387 12.7659 225.644 13.0228C225.9 13.2797 226.045 13.6281 226.045 13.9913V25.1059C226.045 25.4692 225.9 25.8175 225.644 26.0745C225.387 26.3314 225.039 26.4758 224.675 26.4759" fill="#DFE0E6"/>
<path d="M184.358 17.5577H216.73" stroke="#F5F5F5" stroke-miterlimit="10"/>
<path d="M184.358 20.88H197.543" stroke="#F5F5F5" stroke-miterlimit="10"/>
<path d="M183.041 24.9076V30.3067L189.831 24.9076H183.041Z" fill="#DFE0E6"/>
<path d="M112.839 27.2987H90.8049C90.296 27.2987 89.7922 27.1985 89.322 27.0038C88.8519 26.809 88.4247 26.5236 88.0649 26.1638C87.7051 25.8039 87.4196 25.3767 87.2249 24.9066C87.0302 24.4365 86.9299 23.9326 86.9299 23.4237V2.93832C86.9299 2.55248 87.0058 2.1704 87.1534 1.81391C87.301 1.45742 87.5174 1.1335 87.7902 0.860645C88.063 0.58779 88.3869 0.371347 88.7433 0.223676C89.0998 0.0760057 89.4819 3.82449e-08 89.8677 4.40255e-08H112.839C113.225 -6.67585e-05 113.607 0.0758896 113.964 0.22353C114.32 0.371171 114.644 0.587604 114.917 0.860466C115.19 1.13333 115.406 1.45727 115.554 1.8138C115.702 2.17032 115.778 2.55244 115.778 2.93832V24.3589C115.778 24.7448 115.702 25.1269 115.554 25.4834C115.406 25.8399 115.19 26.1639 114.917 26.4367C114.644 26.7096 114.32 26.926 113.964 27.0737C113.607 27.2213 113.225 27.2973 112.839 27.2972" fill="#DFE0E6"/>
<path d="M17.7882 122.17L18.9207 122.823L24.1733 125.935L27.6282 130.969L28.3549 132.056L28.8247 130.84L34.5635 115.757L35.1564 114.191L33.6339 114.887L18.968 121.62L17.7882 122.17ZM20.7204 122.327L31.0689 117.57L24.518 124.572L20.7204 122.327ZM25.5117 125.5L32.0625 118.497L28.0035 129.14L25.5117 125.5Z" fill="white"/>
<path d="M258.892 70.1495C257.357 70.1495 255.857 70.6047 254.581 71.4574C253.305 72.3101 252.31 73.5221 251.723 74.9401C251.135 76.3581 250.982 77.9184 251.281 79.4237C251.58 80.9291 252.319 82.3118 253.405 83.3971C254.49 84.4824 255.873 85.2215 257.378 85.521C258.883 85.8204 260.444 85.6667 261.862 85.0793C263.28 84.492 264.492 83.4973 265.344 82.2212C266.197 80.945 266.652 79.4446 266.652 77.9098C266.65 75.8523 265.832 73.8797 264.377 72.4248C262.922 70.97 260.949 70.1517 258.892 70.1495ZM258.892 71.4433C260.171 71.4434 261.421 71.8227 262.484 72.5332C263.547 73.2438 264.376 74.2536 264.866 75.4352C265.355 76.6167 265.483 77.9168 265.234 79.1711C264.984 80.4254 264.368 81.5776 263.464 82.482C262.56 83.3864 261.408 84.0023 260.154 84.2519C258.899 84.5016 257.599 84.3737 256.418 83.8845C255.236 83.3953 254.226 82.5667 253.516 81.5035C252.805 80.4403 252.425 79.1902 252.425 77.9113C252.424 77.0618 252.59 76.2204 252.915 75.4353C253.24 74.6502 253.716 73.9369 254.317 73.3362C254.918 72.7355 255.631 72.2593 256.416 71.9347C257.201 71.6101 258.042 71.4436 258.892 71.4448M255.982 75.3249C255.79 75.3249 255.603 75.3818 255.443 75.4883C255.284 75.5949 255.16 75.7463 255.086 75.9234C255.013 76.1006 254.994 76.2956 255.031 76.4837C255.068 76.6718 255.161 76.8446 255.296 76.9802C255.432 77.1159 255.605 77.2083 255.793 77.2458C255.981 77.2832 256.176 77.2641 256.353 77.1908C256.53 77.1175 256.682 76.9932 256.788 76.8338C256.895 76.6744 256.952 76.487 256.952 76.2952C256.952 76.038 256.85 75.7912 256.668 75.6093C256.486 75.4273 256.239 75.325 255.982 75.3249ZM261.802 75.3249C261.61 75.325 261.423 75.382 261.263 75.4886C261.104 75.5952 260.98 75.7466 260.906 75.9238C260.833 76.101 260.814 76.2959 260.851 76.484C260.889 76.6721 260.981 76.8448 261.117 76.9804C261.252 77.116 261.425 77.2084 261.613 77.2458C261.801 77.2832 261.996 77.2641 262.173 77.1907C262.35 77.1174 262.502 76.9932 262.608 76.8338C262.715 76.6744 262.772 76.487 262.772 76.2952C262.772 76.1678 262.747 76.0416 262.698 75.9238C262.65 75.8061 262.578 75.6991 262.488 75.609C262.398 75.5188 262.291 75.4474 262.173 75.3986C262.055 75.3499 261.929 75.3248 261.802 75.3249ZM258.892 79.205C258.073 79.2079 257.267 79.4055 256.539 79.7815C255.812 80.1574 255.185 80.701 254.709 81.3673L255.76 82.1149C256.115 81.6151 256.585 81.2075 257.13 80.9263C257.675 80.6451 258.279 80.4984 258.892 80.4984C259.505 80.4984 260.11 80.6451 260.655 80.9263C261.2 81.2075 261.669 81.6151 262.024 82.1149L263.076 81.3673C262.6 80.701 261.972 80.1574 261.245 79.7815C260.518 79.4055 259.711 79.2079 258.892 79.205Z" fill="white"/>
<path d="M98.0387 7.94437C97.8672 7.9443 97.6975 7.97802 97.5391 8.0436C97.3807 8.10918 97.2367 8.20533 97.1155 8.32656C96.9943 8.4478 96.8981 8.59173 96.8325 8.75014C96.767 8.90855 96.7332 9.07833 96.7333 9.24978V18.3861C96.7332 18.5576 96.767 18.7274 96.8325 18.8858C96.8981 19.0442 96.9943 19.1881 97.1155 19.3094C97.2367 19.4306 97.3807 19.5267 97.5391 19.5923C97.6975 19.6579 97.8672 19.6916 98.0387 19.6916H104.565C104.736 19.6916 104.906 19.6579 105.064 19.5923C105.223 19.5267 105.367 19.4306 105.488 19.3094C105.609 19.1881 105.705 19.0442 105.771 18.8858C105.836 18.7274 105.87 18.5576 105.87 18.3861V9.24978C105.87 9.07833 105.836 8.90855 105.771 8.75014C105.705 8.59173 105.609 8.4478 105.488 8.32656C105.367 8.20533 105.223 8.10918 105.064 8.0436C104.906 7.97802 104.736 7.9443 104.565 7.94437H98.0387ZM98.0387 9.24978H104.565V18.3861H98.0387V9.24978ZM94.123 9.90223V17.7337H95.4284V9.90223H94.123ZM107.175 9.90223V17.7337H108.48V9.90223H107.175ZM101.301 11.2076C101.043 11.2076 100.791 11.2842 100.576 11.4276C100.361 11.5711 100.194 11.775 100.095 12.0135C99.9966 12.252 99.9707 12.5145 100.021 12.7677C100.071 13.021 100.196 13.2536 100.378 13.4361C100.561 13.6187 100.794 13.743 101.047 13.7934C101.3 13.8438 101.562 13.8179 101.801 13.7191C102.039 13.6203 102.243 13.453 102.387 13.2383C102.53 13.0236 102.607 12.7712 102.607 12.5131C102.607 12.3416 102.573 12.1718 102.508 12.0134C102.442 11.855 102.346 11.7111 102.225 11.5898C102.103 11.4686 101.959 11.3725 101.801 11.3069C101.643 11.2413 101.473 11.2076 101.301 11.2076ZM101.301 15.1234C100.43 15.1234 98.6911 15.5607 98.6911 16.4288V17.0812H103.912V16.4283C103.912 15.5602 102.173 15.1229 101.301 15.1229V15.1234Z" fill="white"/>
<path d="M228.684 135.931H211.583" stroke="#A3A3B2" stroke-linecap="round"/>
<path d="M222.626 131.78H205.525" stroke="#A3A3B2" stroke-linecap="round"/>
<path d="M214.025 117.252C214.025 117.252 214.133 117.28 214.174 117.307L214.582 117.719C214.664 117.801 214.664 117.925 214.582 118.007L213.086 119.517L214.582 121.027C214.664 121.109 214.664 121.233 214.582 121.315L214.174 121.727C214.093 121.809 213.97 121.809 213.888 121.727L212.392 120.217L210.895 121.727C210.813 121.809 210.691 121.809 210.609 121.727L210.201 121.315C210.119 121.233 210.119 121.109 210.201 121.027L211.698 119.517L210.201 118.007C210.119 117.925 210.119 117.801 210.201 117.719L210.609 117.307C210.691 117.225 210.813 117.225 210.895 117.307L212.392 118.817L213.888 117.307C213.888 117.307 213.984 117.252 214.038 117.239L214.025 117.252Z" fill="#A3A3B2"/>
<path d="M170.358 162.323C177.963 157.078 185.684 156.183 185.684 152.992C185.684 149.801 175.129 151.227 168.975 153.5C160.655 156.594 155.078 162.444 158.927 166.118C161.646 168.729 165.149 165.901 170.358 162.299V162.323Z" fill="#E6E6E6" stroke="#A3A3B2" stroke-width="0.74" stroke-miterlimit="10" stroke-linecap="round"/>
<path d="M193.215 145.403C195.26 144.552 197.177 144.14 197.816 145.481C198.506 146.95 196.947 148.239 194.876 149.013C192.806 149.786 190.94 149.915 190.429 148.549C189.918 147.182 191.119 146.28 193.215 145.403Z" fill="#E6E6E6" stroke="#A3A3B2" stroke-width="0.74" stroke-miterlimit="10" stroke-linecap="round"/>
<path d="M120.066 162.839C112.479 157.268 104.684 156.407 104.684 153.064C104.684 149.721 114.353 151.165 121.384 154.052C128.948 157.141 135.378 162.991 131.539 166.841C128.809 169.576 126.866 167.854 120.066 162.839Z" fill="#E6E6E6" stroke="#A3A3B2" stroke-width="0.74" stroke-miterlimit="10" stroke-linecap="round"/>
<path d="M96.9772 145.403C94.9323 144.552 93.0152 144.14 92.3762 145.481C91.686 146.95 93.2453 148.239 95.3157 149.013C97.3862 149.786 99.2521 149.915 99.7634 148.549C100.275 147.182 99.0732 146.28 96.9772 145.403Z" fill="#E6E6E6" stroke="#A3A3B2" stroke-width="0.74" stroke-miterlimit="10" stroke-linecap="round"/>
<path d="M94.5089 158.032L98.8156 157.278C100.791 156.933 102.114 155.037 101.772 153.045L101.413 150.962C101.071 148.97 99.1919 147.635 97.2167 147.98L92.9101 148.734C90.9349 149.079 89.6115 150.975 89.9541 152.967L90.3123 155.05C90.6549 157.042 92.5338 158.377 94.5089 158.032Z" fill="#E6E6E6" stroke="#A3A3B2" stroke-width="0.74" stroke-miterlimit="10" stroke-linecap="round"/>
<path d="M197.267 148.749L192.96 147.996C190.985 147.65 189.106 148.985 188.763 150.977L188.405 153.06C188.063 155.053 189.386 156.948 191.361 157.293L195.668 158.047C197.643 158.392 199.522 157.057 199.864 155.065L200.223 152.982C200.565 150.99 199.242 149.095 197.267 148.749Z" fill="#E6E6E6" stroke="#A3A3B2" stroke-width="0.74" stroke-miterlimit="10" stroke-linecap="round"/>
<path d="M145.799 207.591C159.449 207.591 168.369 194.88 166.887 180.957C165.123 164.224 154.924 152.957 145.697 152.957C136.469 152.957 125.836 166.622 124.506 180.957C123.203 194.906 131.842 207.591 145.824 207.591H145.799Z" fill="#E6E6E6" stroke="#A3A3B2" stroke-width="0.74" stroke-miterlimit="10" stroke-linecap="round"/>
<path d="M145.697 149.58C180.281 150.096 192.525 134.085 194.365 105.982C196.231 77.5951 181.354 56.6854 179.182 64.1108C177.009 71.5362 177.214 86.2322 146.617 85.7681C110.499 85.2267 115.176 71.0463 113.234 63.5951C111.291 56.1182 95.6989 75.8676 97.0792 103.171C98.5106 131.3 111.368 149.09 145.671 149.606L145.697 149.58Z" fill="#E6E6E6" stroke="#A3A3B2" stroke-miterlimit="10"/>
<path d="M146.617 95.6428C137.363 95.3334 131.868 94.6631 128.366 94.3795C122.41 93.8638 112.313 91.8528 112.007 112.891C111.828 124.545 118.244 131.326 125.299 134.317C129.925 136.276 137.542 137.307 144.802 137.514H146.898C154.157 137.539 161.8 136.766 166.478 134.935C173.609 132.151 180.23 125.551 180.383 113.923C180.69 92.8841 170.542 94.6115 164.586 94.9467C161.059 95.1529 155.563 95.6428 146.31 95.6686H146.591L146.617 95.6428Z" fill="#EAEAEA" stroke="#A3A3B2" stroke-miterlimit="10"/>
<path opacity="0.7" d="M140.942 127.33C140.942 127.33 142.604 124.416 146.208 124.468C149.812 124.519 151.371 127.484 151.371 127.484" stroke="#A3A3B2" stroke-width="3" stroke-miterlimit="10" stroke-linecap="round"/>
<path opacity="0.7" d="M125.81 118.899L134.45 119.028C135.293 119.028 135.983 118.357 135.983 117.506L136.137 107.425L133.197 109.333C132.941 109.488 132.635 109.591 132.354 109.591L125.784 109.488C125.043 109.488 124.43 110.081 124.404 110.829L124.302 117.326C124.302 118.177 124.966 118.873 125.81 118.873V118.899Z" stroke="#A3A3B2" stroke-width="3" stroke-miterlimit="10"/>
<path opacity="0.7" d="M166.784 119.517L158.145 119.389C157.301 119.389 156.637 118.692 156.637 117.842L156.79 107.761L159.653 109.772C159.908 109.952 160.19 110.029 160.496 110.055L167.066 110.158C167.807 110.158 168.42 110.777 168.395 111.551L168.293 118.048C168.293 118.899 167.602 119.569 166.759 119.569L166.784 119.517Z" stroke="#A3A3B2" stroke-width="3" stroke-miterlimit="10"/>
<path d="M143.728 216.615H132.175C128.98 216.615 131.74 209.344 137.952 209.344C144.674 209.344 146.924 216.615 143.728 216.615Z" fill="#E6E6E6" stroke="#A3A3B2" stroke-width="0.74" stroke-miterlimit="10" stroke-linecap="round"/>
<path d="M161.34 216.615H149.787C146.591 216.615 149.352 209.344 155.563 209.344C162.286 209.344 164.535 216.615 161.34 216.615Z" fill="#E6E6E6" stroke="#A3A3B2" stroke-width="0.74" stroke-miterlimit="10" stroke-linecap="round"/>
<path d="M56.0002 167.747H73.1007" stroke="#A3A3B2" stroke-linecap="round"/>
<path d="M60.4989 163.467H77.5993" stroke="#A3A3B2" stroke-linecap="round"/>
<path d="M68.3032 145.149C68.3032 145.149 68.1944 145.177 68.1535 145.204L67.7453 145.616C67.6637 145.698 67.6637 145.822 67.7453 145.904L69.2422 147.414L67.7453 148.924C67.6637 149.006 67.6637 149.13 67.7453 149.212L68.1535 149.624C68.2352 149.706 68.3577 149.706 68.4393 149.624L69.9362 148.114L71.433 149.624C71.5146 149.706 71.6371 149.706 71.7188 149.624L72.127 149.212C72.2086 149.13 72.2086 149.006 72.127 148.924L70.6301 147.414L72.127 145.904C72.2086 145.822 72.2086 145.698 72.127 145.616L71.7188 145.204C71.6371 145.122 71.5146 145.122 71.433 145.204L69.9362 146.714L68.4393 145.204C68.4393 145.204 68.3441 145.149 68.2896 145.135L68.3032 145.149Z" fill="#A3A3B2"/>
<g opacity="0.5">
<path d="M139.696 185.745V185.929L139.703 185.584C139.696 185.638 139.696 185.688 139.696 185.745Z" fill="#A3A3B2"/>
<path d="M152.885 181.95L152.892 182.295V188.454C152.892 188.655 152.852 188.855 152.775 189.041C152.698 189.226 152.585 189.395 152.443 189.538C152.3 189.68 152.132 189.793 151.946 189.87C151.76 189.947 151.56 189.986 151.359 189.986H149.235V187.948H150.002C150.11 187.948 150.216 187.927 150.315 187.887C150.414 187.846 150.504 187.786 150.58 187.71C150.656 187.635 150.716 187.545 150.758 187.446C150.799 187.347 150.82 187.241 150.82 187.133V183.432C150.821 183.324 150.799 183.218 150.758 183.118C150.717 183.019 150.657 182.929 150.581 182.853C150.505 182.777 150.415 182.717 150.316 182.676C150.216 182.634 150.11 182.613 150.002 182.614H146.231C146.123 182.613 146.017 182.634 145.917 182.676C145.818 182.717 145.728 182.777 145.652 182.853C145.576 182.929 145.515 183.019 145.474 183.118C145.433 183.218 145.412 183.324 145.412 183.432V187.133C145.413 187.241 145.434 187.347 145.475 187.446C145.516 187.545 145.577 187.635 145.653 187.71C145.729 187.786 145.819 187.846 145.918 187.887C146.017 187.927 146.123 187.948 146.231 187.948H147.173V189.986H144.88C144.679 189.986 144.48 189.947 144.294 189.87C144.108 189.793 143.939 189.68 143.797 189.538C143.655 189.395 143.542 189.226 143.465 189.041C143.388 188.855 143.348 188.655 143.348 188.454V182.111C143.348 181.91 143.388 181.71 143.465 181.524C143.542 181.338 143.655 181.17 143.797 181.027C143.939 180.885 144.108 180.772 144.294 180.695C144.48 180.618 144.679 180.579 144.88 180.579H150.557L152.903 177.135L152.885 181.95Z" fill="#A3A3B2"/>
<path d="M147.707 184.213H145.414V186.251H146.356C146.463 186.251 146.569 186.272 146.669 186.313C146.768 186.354 146.858 186.414 146.934 186.489C147.01 186.565 147.07 186.655 147.111 186.754C147.153 186.853 147.174 186.959 147.174 187.066V190.765C147.174 190.872 147.153 190.979 147.112 191.078C147.071 191.177 147.011 191.268 146.935 191.344C146.859 191.42 146.769 191.48 146.669 191.521C146.57 191.562 146.463 191.583 146.356 191.583H142.577C142.47 191.583 142.363 191.562 142.264 191.521C142.165 191.48 142.075 191.42 141.999 191.344C141.923 191.268 141.862 191.177 141.821 191.078C141.78 190.979 141.759 190.872 141.759 190.765V187.066C141.759 186.959 141.781 186.853 141.822 186.754C141.863 186.655 141.924 186.565 142 186.489C142.076 186.414 142.166 186.354 142.265 186.313C142.364 186.272 142.47 186.251 142.577 186.251H143.346V184.213H142.032L139.684 180.769L139.701 185.584L139.696 185.929V192.088C139.696 192.289 139.736 192.489 139.813 192.675C139.89 192.861 140.003 193.029 140.145 193.172C140.287 193.314 140.456 193.427 140.642 193.504C140.828 193.581 141.027 193.621 141.228 193.621H147.71C147.912 193.621 148.111 193.581 148.297 193.504C148.483 193.427 148.652 193.314 148.794 193.172C148.936 193.029 149.049 192.861 149.126 192.675C149.203 192.489 149.243 192.289 149.242 192.088V185.745C149.242 185.338 149.08 184.948 148.792 184.661C148.504 184.374 148.114 184.212 147.707 184.213Z" fill="#A3A3B2"/>
<path d="M145.414 184.213H143.348V186.251H145.414V184.213Z" fill="#A3A3B2"/>
</g>
</svg>
