<svg width="18" height="18" viewBox="0 0 18 18" fill="none" xmlns="http://www.w3.org/2000/svg">
<path fill-rule="evenodd" clip-rule="evenodd" d="M9.5625 6.65625C8.73407 6.65625 8.0625 7.32782 8.0625 8.15625C8.0625 8.98468 8.73407 9.65625 9.5625 9.65625C10.3909 9.65625 11.0625 8.98468 11.0625 8.15625C11.0625 7.32782 10.3909 6.65625 9.5625 6.65625ZM6.5625 8.15625C6.5625 6.4994 7.90565 5.15625 9.5625 5.15625C11.2194 5.15625 12.5625 6.4994 12.5625 8.15625C12.5625 9.8131 11.2194 11.1562 9.5625 11.1562C7.90565 11.1562 6.5625 9.8131 6.5625 8.15625Z" fill="white"/>
<path fill-rule="evenodd" clip-rule="evenodd" d="M1.5 7.59375C1.5 7.17954 1.83579 6.84375 2.25 6.84375H3.9375C4.35171 6.84375 4.6875 7.17954 4.6875 7.59375C4.6875 8.00796 4.35171 8.34375 3.9375 8.34375H2.25C1.83579 8.34375 1.5 8.00796 1.5 7.59375Z" fill="white"/>
<path fill-rule="evenodd" clip-rule="evenodd" d="M1.5 4.78125C1.5 4.36704 1.83579 4.03125 2.25 4.03125H3.9375C4.35171 4.03125 4.6875 4.36704 4.6875 4.78125C4.6875 5.19546 4.35171 5.53125 3.9375 5.53125H2.25C1.83579 5.53125 1.5 5.19546 1.5 4.78125Z" fill="white"/>
<path fill-rule="evenodd" clip-rule="evenodd" d="M1.5 10.4062C1.5 9.99204 1.83579 9.65625 2.25 9.65625H3.9375C4.35171 9.65625 4.6875 9.99204 4.6875 10.4062C4.6875 10.8205 4.35171 11.1562 3.9375 11.1562H2.25C1.83579 11.1562 1.5 10.8205 1.5 10.4062Z" fill="white"/>
<path fill-rule="evenodd" clip-rule="evenodd" d="M1.5 13.2187C1.5 12.8045 1.83579 12.4688 2.25 12.4688H3.9375C4.35171 12.4688 4.6875 12.8045 4.6875 13.2187C4.6875 13.633 4.35171 13.9687 3.9375 13.9687H2.25C1.83579 13.9687 1.5 13.633 1.5 13.2187Z" fill="white"/>
<path fill-rule="evenodd" clip-rule="evenodd" d="M14.4375 3L4.6875 3V15H14.4375V3ZM14.625 1.5C15.3499 1.5 15.9375 2.08763 15.9375 2.8125V15.1875C15.9375 15.9124 15.3499 16.5 14.625 16.5H4.5C3.77513 16.5 3.1875 15.9124 3.1875 15.1875V2.8125C3.1875 2.08763 3.77513 1.5 4.5 1.5L14.625 1.5Z" fill="white"/>
<path fill-rule="evenodd" clip-rule="evenodd" d="M9.5625 11.1557C9.0849 11.1557 8.61244 11.2543 8.17472 11.4454C7.737 11.6365 7.34346 11.9159 7.01875 12.2662C6.73714 12.5699 6.26261 12.5879 5.95885 12.3063C5.65509 12.0246 5.63714 11.5501 5.91875 11.2464C6.38388 10.7446 6.9476 10.3444 7.5746 10.0707C8.2016 9.79698 8.87836 9.6557 9.5625 9.6557C10.2466 9.6557 10.9234 9.79698 11.5504 10.0707C12.1774 10.3444 12.7411 10.7446 13.2063 11.2464C13.4879 11.5501 13.4699 12.0246 13.1662 12.3063C12.8624 12.5879 12.3879 12.5699 12.1063 12.2662C11.7815 11.9159 11.388 11.6365 10.9503 11.4454C10.5126 11.2543 10.0401 11.1557 9.5625 11.1557Z" fill="white"/>
</svg>
