<svg width="12" height="7" viewBox="0 0 12 7" fill="none" xmlns="http://www.w3.org/2000/svg">
<path d="M0.620164 1.38375C0.626517 1.59946 0.716531 1.80423 0.871164 1.95475L5.30416 6.38775C5.46 6.54353 5.67132 6.63104 5.89166 6.63104C6.11201 6.63104 6.32333 6.54353 6.47916 6.38775L10.9122 1.95475C11.068 1.79854 11.1554 1.58683 11.1551 1.36619C11.1548 1.14556 11.0669 0.934068 10.9107 0.778254C10.7545 0.622439 10.5427 0.535062 10.3221 0.535343C10.1015 0.535625 9.88998 0.623542 9.73416 0.779755L5.88916 4.62475L2.04416 0.779755C1.92763 0.660134 1.77777 0.578397 1.6141 0.545202C1.45043 0.512008 1.28056 0.528894 1.12664 0.59366C0.972709 0.658426 0.841866 0.768068 0.751166 0.908289C0.660466 1.04851 0.614118 1.2128 0.618164 1.37975L0.620164 1.38375Z" fill="white"/>
</svg>
