<svg width="20" height="11" viewBox="0 0 20 11" fill="none" xmlns="http://www.w3.org/2000/svg">
<path d="M5.74604 10.2119C5.87911 10.078 5.9538 9.89691 5.9538 9.70816C5.9538 9.5194 5.87911 9.33831 5.74604 9.20444L2.45941 5.92496H19.2855C19.475 5.92496 19.6567 5.84968 19.7907 5.71569C19.9247 5.5817 20 5.39997 20 5.21047C20 5.02098 19.9247 4.83925 19.7907 4.70526C19.6567 4.57127 19.475 4.49599 19.2855 4.49599H2.48084L5.74604 1.2308C5.88152 1.09626 5.95801 0.913403 5.95868 0.722465C5.95935 0.531526 5.88415 0.348142 5.74961 0.212655C5.61507 0.0771671 5.43222 0.0006744 5.24128 4.43801e-06C5.05034 -0.000665524 4.86696 0.0745421 4.73147 0.209082L0.187346 4.76035C0.067362 4.88086 0 5.04399 0 5.21405C0 5.3841 0.067362 5.54723 0.187346 5.66774L4.73147 10.2119C4.79789 10.2788 4.87691 10.332 4.96398 10.3683C5.05104 10.4045 5.14443 10.4232 5.23875 10.4232C5.33307 10.4232 5.42646 10.4045 5.51353 10.3683C5.60059 10.332 5.67962 10.2788 5.74604 10.2119Z" fill="#16161D"/>
</svg>
