<svg width="44" height="44" viewBox="0 0 44 44" fill="none" xmlns="http://www.w3.org/2000/svg">
<g clip-path="url(#clip0_1_2524)">
<path d="M8.33594 22.7152V23.0733L8.3492 22.4017C8.33594 22.5059 8.33594 22.6034 8.33594 22.7152Z" fill="#0A0A0A"/>
<path d="M34.0076 15.3273L34.0208 15.9999V27.9879C34.0208 28.3796 33.9437 28.7675 33.7937 29.1293C33.6438 29.4912 33.4241 29.82 33.1471 30.0969C32.8701 30.3738 32.5412 30.5935 32.1793 30.7433C31.8174 30.8931 31.4295 30.9701 31.0378 30.97H26.9029V27.0027H28.3967C28.6054 27.0032 28.8122 26.9626 29.0052 26.8832C29.1982 26.8037 29.3736 26.6871 29.5215 26.5398C29.6694 26.3925 29.7868 26.2176 29.867 26.0249C29.9473 25.8322 29.9888 25.6257 29.9891 25.417V18.2118C29.9894 18.0026 29.9484 17.7955 29.8684 17.6021C29.7885 17.4088 29.6712 17.2332 29.5233 17.0853C29.3754 16.9374 29.1997 16.8201 29.0064 16.7401C28.8131 16.6602 28.6059 16.6192 28.3967 16.6194H21.0552C20.846 16.6192 20.6388 16.6602 20.4455 16.7401C20.2522 16.8201 20.0766 16.9374 19.9286 17.0853C19.7807 17.2332 19.6634 17.4088 19.5835 17.6021C19.5036 17.7955 19.4625 18.0026 19.4628 18.2118V25.417C19.4632 25.6257 19.5047 25.8322 19.5849 26.0249C19.6651 26.2176 19.7826 26.3925 19.9304 26.5398C20.0783 26.6871 20.2538 26.8037 20.4468 26.8832C20.6397 26.9626 20.8465 27.0032 21.0552 27.0027H22.8892V30.97H18.4274C18.0358 30.9701 17.6479 30.8931 17.2861 30.7433C16.9242 30.5934 16.5954 30.3738 16.3185 30.0969C16.0415 29.8199 15.8219 29.4911 15.6721 29.1293C15.5222 28.7674 15.4452 28.3796 15.4453 27.9879V15.6409C15.4452 15.2492 15.5222 14.8614 15.6721 14.4995C15.8219 14.1377 16.0415 13.8089 16.3185 13.5319C16.5954 13.255 16.9242 13.0353 17.2861 12.8855C17.6479 12.7357 18.0358 12.6587 18.4274 12.6588H29.4757L34.0436 5.95667L34.0076 15.3273Z" fill="#1574AD"/>
<path d="M28.4121 27.0027H20.3667V30.97H27.6561C28.2773 30.9695 28.8729 30.7225 29.3121 30.2833C29.7513 29.8441 29.9983 29.2485 29.9988 28.6273V25.4169C29.9983 25.8375 29.8309 26.2407 29.5335 26.538C29.236 26.8353 28.8327 27.0025 28.4121 27.0027Z" fill="url(#paint0_linear_1_2524)"/>
<path d="M23.9287 19.7323H19.465V23.7005H21.299C21.5077 23.7 21.7144 23.7406 21.9074 23.8201C22.1004 23.8995 22.2759 24.0162 22.4237 24.1634C22.5716 24.3107 22.689 24.4857 22.7693 24.6783C22.8495 24.871 22.891 25.0776 22.8914 25.2863V32.4857C22.8916 32.6949 22.8506 32.9021 22.7707 33.0954C22.6907 33.2887 22.5735 33.4644 22.4255 33.6123C22.2776 33.7602 22.102 33.8775 21.9087 33.9574C21.7153 34.0373 21.5082 34.0784 21.299 34.0781H13.9442C13.735 34.0784 13.5278 34.0373 13.3345 33.9574C13.1412 33.8775 12.9655 33.7602 12.8176 33.6123C12.6697 33.4644 12.5524 33.2887 12.4725 33.0954C12.3925 32.9021 12.3515 32.6949 12.3518 32.4857V25.2863C12.3521 25.0776 12.3936 24.871 12.4739 24.6783C12.5541 24.4857 12.6715 24.3107 12.8194 24.1634C12.9673 24.0162 13.1427 23.8995 13.3357 23.8201C13.5287 23.7406 13.7355 23.7 13.9442 23.7005H15.4409V19.7323H12.8832L8.3125 13.0302L8.34566 22.4017L8.33618 23.0734V35.0614C8.33606 35.4531 8.4131 35.841 8.56291 36.2029C8.71272 36.5648 8.93236 36.8937 9.20928 37.1707C9.48621 37.4477 9.81499 37.6674 10.1769 37.8174C10.5387 37.9673 10.9266 38.0444 11.3183 38.0444H23.9353C24.327 38.0444 24.7149 37.9673 25.0767 37.8174C25.4386 37.6674 25.7674 37.4477 26.0443 37.1707C26.3212 36.8937 26.5409 36.5648 26.6907 36.2029C26.8405 35.841 26.9175 35.4531 26.9174 35.0614V22.7153C26.9164 21.9235 26.601 21.1645 26.0406 20.6051C25.4801 20.0457 24.7205 19.7318 23.9287 19.7323Z" fill="#3EC745"/>
<path d="M12.3515 32.4838V28.4644H8.35205V30.9833C8.3518 31.3895 8.43163 31.7918 8.58698 32.1672C8.74232 32.5425 8.97014 32.8836 9.25739 33.1709C9.54465 33.4581 9.88571 33.6859 10.2611 33.8413C10.6364 33.9966 11.0387 34.0764 11.445 34.0762H13.9439C13.5218 34.0757 13.117 33.9078 12.8185 33.6092C12.52 33.3107 12.352 32.906 12.3515 32.4838Z" fill="url(#paint1_linear_1_2524)"/>
<path d="M26.9115 35.0614V28.4644H22.8912V32.1712C22.8912 32.1712 23.3999 38.0378 19.5757 38.0378H23.9332C24.3243 38.0382 24.7116 37.9614 25.073 37.812C25.4344 37.6626 25.7628 37.4434 26.0394 37.167C26.316 36.8905 26.5354 36.5623 26.6851 36.201C26.8347 35.8397 26.9117 35.4524 26.9115 35.0614Z" fill="url(#paint2_linear_1_2524)"/>
<path d="M21.0505 19.7322H13.9438V23.6995H21.0505V19.7322Z" fill="url(#paint3_linear_1_2524)"/>
<path d="M19.4656 19.7322H15.4453V23.6995H19.4656V19.7322Z" fill="#1574AD"/>
<path d="M19.4647 25.4103V18.316H15.4453V24.2679C15.4463 24.9928 15.7346 25.6876 16.2471 26.2003C16.7596 26.7129 17.4544 27.0015 18.1792 27.0027H21.0571C20.8479 27.003 20.6407 26.962 20.4474 26.882C20.2541 26.8021 20.0785 26.6848 19.9305 26.5369C19.7826 26.389 19.6653 26.2133 19.5854 26.02C19.5055 25.8267 19.4644 25.6195 19.4647 25.4103Z" fill="url(#paint4_linear_1_2524)"/>
<path d="M21.9997 43.9999C17.6479 44.0007 13.3936 42.7109 9.77501 40.2936C6.15638 37.8762 3.33596 34.44 1.67049 30.4195C0.00503022 26.399 -0.43065 21.9749 0.418562 17.7068C1.26777 13.4387 3.36373 9.51831 6.44131 6.44154C10.5674 2.31545 16.1636 -0.00256352 21.9987 -0.00256348C27.8339 -0.00256343 33.4301 2.31545 37.5562 6.44154C41.6823 10.5676 44.0003 16.1638 44.0003 21.999C44.0003 27.8342 41.6823 33.4303 37.5562 37.5564C35.5181 39.6059 33.0938 41.2307 30.4235 42.3367C27.7532 43.4427 24.89 44.0081 21.9997 43.9999ZM21.9997 1.5156C10.7041 1.5156 1.51537 10.7044 1.51537 21.9999C1.51537 33.2955 10.7041 42.4843 21.9997 42.4843C33.2952 42.4843 42.484 33.2955 42.484 21.9999C42.484 10.7044 33.2952 1.5156 21.9997 1.5156Z" fill="#34AF3A"/>
</g>
<defs>
<linearGradient id="paint0_linear_1_2524" x1="29.9979" y1="28.1935" x2="20.3658" y2="28.1935" gradientUnits="userSpaceOnUse">
<stop stop-opacity="0.3"/>
<stop offset="1" stop-color="#1574AD"/>
</linearGradient>
<linearGradient id="paint1_linear_1_2524" x1="11.1475" y1="34.0771" x2="11.1475" y2="28.4644" gradientUnits="userSpaceOnUse">
<stop stop-opacity="0.3"/>
<stop offset="0.07" stop-color="#071808" stop-opacity="0.35"/>
<stop offset="0.25" stop-color="#184D1B" stop-opacity="0.47"/>
<stop offset="0.42" stop-color="#26792A" stop-opacity="0.59"/>
<stop offset="0.58" stop-color="#309B36" stop-opacity="0.71"/>
<stop offset="0.74" stop-color="#38B33E" stop-opacity="0.82"/>
<stop offset="0.88" stop-color="#3CC243" stop-opacity="0.92"/>
<stop offset="1" stop-color="#3EC745"/>
</linearGradient>
<linearGradient id="paint2_linear_1_2524" x1="23.2436" y1="38.0378" x2="23.2436" y2="28.4644" gradientUnits="userSpaceOnUse">
<stop stop-opacity="0.3"/>
<stop offset="0.23" stop-color="#123914" stop-opacity="0.46"/>
<stop offset="0.49" stop-color="#257529" stop-opacity="0.65"/>
<stop offset="0.72" stop-color="#32A238" stop-opacity="0.8"/>
<stop offset="0.9" stop-color="#3BBD41" stop-opacity="0.93"/>
<stop offset="1" stop-color="#3EC745"/>
</linearGradient>
<linearGradient id="paint3_linear_1_2524" x1="21.0505" y1="21.7168" x2="13.9438" y2="21.7168" gradientUnits="userSpaceOnUse">
<stop stop-color="#3EC745"/>
<stop offset="0.06" stop-color="#3AB940" stop-opacity="0.92"/>
<stop offset="0.16" stop-color="#2F9534" stop-opacity="0.78"/>
<stop offset="0.3" stop-color="#1C5B20" stop-opacity="0.58"/>
<stop offset="0.48" stop-color="#040B04" stop-opacity="0.33"/>
<stop offset="0.5" stop-opacity="0.3"/>
<stop offset="0.61" stop-color="#123914" stop-opacity="0.46"/>
<stop offset="0.75" stop-color="#257529" stop-opacity="0.65"/>
<stop offset="0.86" stop-color="#32A238" stop-opacity="0.8"/>
<stop offset="0.95" stop-color="#3BBD41" stop-opacity="0.93"/>
<stop offset="1" stop-color="#3EC745"/>
</linearGradient>
<linearGradient id="paint4_linear_1_2524" x1="18.2512" y1="27.0027" x2="18.2512" y2="18.317" gradientUnits="userSpaceOnUse">
<stop stop-opacity="0.3"/>
<stop offset="0.18" stop-color="#062233" stop-opacity="0.43"/>
<stop offset="0.37" stop-color="#0B3F5F" stop-opacity="0.56"/>
<stop offset="0.55" stop-color="#105681" stop-opacity="0.68"/>
<stop offset="0.72" stop-color="#136799" stop-opacity="0.8"/>
<stop offset="0.87" stop-color="#1471A8" stop-opacity="0.91"/>
<stop offset="1" stop-color="#1574AD"/>
</linearGradient>
<clipPath id="clip0_1_2524">
<rect width="44" height="44" fill="white"/>
</clipPath>
</defs>
</svg>
