<svg width="12" height="14" viewBox="0 0 12 14" fill="none" xmlns="http://www.w3.org/2000/svg">
<path d="M11.5035 3.7482L11.5216 0.2117L9.58741 3.05171H4.92022C4.21743 3.05171 3.65281 3.6101 3.65281 4.3126V6.04182H2.5716L0.637451 3.20782L0.649464 7.17663V7.45883L0.643458 12.5204C0.643458 13.2229 1.20809 13.7873 1.90486 13.7873H7.2448C7.94759 13.7873 8.51221 13.2229 8.51221 12.5204V10.7972H10.2421C10.6986 10.7972 11.0891 10.557 11.3173 10.2028C11.4375 10.0106 11.5095 9.78247 11.5095 9.5363V4.18051L11.5035 3.7482ZM6.80031 11.4276C6.80031 11.7999 6.49997 12.1061 6.12756 12.1061H3.0221C2.64969 12.1061 2.34335 11.8059 2.34335 11.4276V8.38348C2.34936 8.01722 2.64969 7.71101 3.0221 7.71701H3.65281V9.52429C3.65281 10.2268 4.21744 10.7852 4.91421 10.7912H6.7943V11.4216L6.80031 11.4276ZM6.80031 9.116H6.00743C5.64703 9.10399 5.3527 8.80378 5.3527 8.43752V7.71701H6.12756C6.49397 7.71701 6.80031 8.01122 6.80031 8.38949V9.116ZM9.80966 8.44953C9.80966 8.7017 9.6655 8.92987 9.44325 9.03794C9.35315 9.08598 9.24503 9.10999 9.14291 9.116L8.51822 9.10999V7.29671C8.51221 6.69028 8.07973 6.17992 7.50309 6.05984C7.425 6.04182 7.34091 6.03582 7.25682 6.03582H5.36471V5.39337C5.36471 5.0211 5.66505 4.71489 6.04347 4.71489H9.14892C9.3051 4.71489 9.44926 4.76892 9.56338 4.86499C9.72556 4.97907 9.82167 5.17721 9.82167 5.39337V8.44352L9.80966 8.44953Z" fill="white"/>
</svg>
