<svg width="35" height="40" viewBox="0 0 35 40" fill="none" xmlns="http://www.w3.org/2000/svg">
<path d="M27.4976 20.0676C28.6885 22.0029 30.847 23.3426 32.6334 23.3426C33.4521 23.3426 33.7499 23.3426 33.7499 23.3426" stroke="#060606" stroke-miterlimit="10" stroke-linecap="round" stroke-linejoin="round"/>
<path d="M23.4785 10.0193C25.5626 11.8801 26.6791 14.5597 26.6791 17.2392" stroke="#060606" stroke-miterlimit="10" stroke-linecap="round" stroke-linejoin="round"/>
<path d="M7.92188 13.8153C9.18722 10.3914 12.3134 7.56299 16.9282 7.56299C17.8958 7.56299 18.789 7.71185 19.6077 7.93515" stroke="#060606" stroke-miterlimit="10" stroke-linecap="round" stroke-linejoin="round"/>
<path d="M1 22.4495C1 22.4495 2.33978 23.3426 4.12615 22.6727C6.35912 21.854 7.25231 19.9188 7.25231 17.3881" stroke="#060606" stroke-miterlimit="10" stroke-linecap="round" stroke-linejoin="round"/>
<path d="M28.2417 10.7635C29.507 12.9221 30.1025 15.4528 30.0281 17.8346C30.0281 19.2488 31.3679 20.5142 33.452 20.5142" stroke="#060606" stroke-miterlimit="10" stroke-linecap="round" stroke-linejoin="round"/>
<path d="M11.8667 5.47888C13.4298 4.80899 15.2161 4.43683 17.1514 4.43683C20.9474 4.43683 24.0736 5.92547 26.2321 8.15844" stroke="#060606" stroke-miterlimit="10" stroke-linecap="round" stroke-linejoin="round"/>
<path d="M2.48864 10.3914C1.52103 12.4755 1 14.7085 1 17.1648V17.8347C1 19.2489 2.86081 19.8443 3.67956 18.7279C3.97729 18.3557 4.12615 17.9091 4.12615 17.4625C4.12615 13.7409 5.76366 10.0193 8.74095 7.48859" stroke="#060606" stroke-miterlimit="10" stroke-linecap="round" stroke-linejoin="round"/>
<path d="M17.8957 1.01296C12.2388 0.789663 7.17742 3.46922 4.05127 7.71186" stroke="#060606" stroke-miterlimit="10" stroke-linecap="round" stroke-linejoin="round"/>
<path d="M33.4525 17.6113C33.4525 10.1681 28.5399 3.6925 21.7666 1.6084" stroke="#060606" stroke-miterlimit="10" stroke-linecap="round" stroke-linejoin="round"/>
<path d="M21.395 27.2875C20.7251 28.6273 19.9064 29.8927 19.0132 31.0836" stroke="#060606" stroke-miterlimit="10" stroke-linecap="round" stroke-linejoin="round"/>
<path d="M17.1519 10.838C21.3945 10.838 23.7019 14.1875 23.7019 17.388C23.7019 19.9932 23.2553 22.4494 22.4365 24.7568" stroke="#060606" stroke-miterlimit="10" stroke-linecap="round" stroke-linejoin="round"/>
<path d="M1.37256 26.6177C6.43395 26.6177 10.6022 22.4495 10.6022 17.3881C10.6022 15.0063 11.8675 12.55 14.3238 11.4335" stroke="#060606" stroke-miterlimit="10" stroke-linecap="round" stroke-linejoin="round"/>
<path d="M24.8927 38.0058C22.7342 37.1127 20.7245 35.9962 19.2359 34.6564C17.9705 33.6143 16.5563 33.7632 15.2165 34.8053C13.579 36.0706 11.7927 37.1127 9.85742 37.9314" stroke="#060606" stroke-miterlimit="10" stroke-linecap="round" stroke-linejoin="round"/>
<path d="M20.7242 39.1223C20.2031 38.8246 19.6821 38.6013 19.1611 38.378C17.8957 37.7825 16.4815 37.9314 15.1418 38.5268C14.6952 38.7501 14.1741 38.9734 13.7275 39.1967" stroke="#060606" stroke-miterlimit="10" stroke-linecap="round" stroke-linejoin="round"/>
<path d="M26.0088 23.1937C27.5719 25.65 30.7725 26.6176 33.7497 26.6176" stroke="#060606" stroke-miterlimit="10" stroke-linecap="round" stroke-linejoin="round"/>
<path d="M20.2039 20.4398C19.013 27.883 13.3562 33.912 6.13623 35.7728" stroke="#060606" stroke-miterlimit="10" stroke-linecap="round" stroke-linejoin="round"/>
<path d="M9.7832 26.6176C12.3139 24.3102 13.877 21.0352 13.877 17.3136C13.877 17.3136 13.877 14.0386 17.152 14.0386C20.427 14.0386 20.427 17.3136 20.427 17.3136" stroke="#060606" stroke-miterlimit="10" stroke-linecap="round" stroke-linejoin="round"/>
<path d="M1.37256 29.8182C3.23336 29.8182 5.01974 29.446 6.58281 28.7017" stroke="#060606" stroke-miterlimit="10" stroke-linecap="round" stroke-linejoin="round"/>
<path d="M13.4306 27.5852C10.8999 30.5625 7.25268 32.6466 3.08447 33.0188" stroke="#060606" stroke-miterlimit="10" stroke-linecap="round" stroke-linejoin="round"/>
<path d="M17.1513 17.3136C17.1513 19.9932 16.4814 22.5239 15.2905 24.6824" stroke="#060606" stroke-miterlimit="10" stroke-linecap="round" stroke-linejoin="round"/>
<path d="M21.7666 32.2745C23.7763 33.8376 26.0837 35.0285 28.6144 35.6984" stroke="#060606" stroke-miterlimit="10" stroke-linecap="round" stroke-linejoin="round"/>
<path d="M33.4522 29.8183C30.0283 29.8183 26.9766 28.4785 24.7437 26.2455" stroke="#060606" stroke-miterlimit="10" stroke-linecap="round" stroke-linejoin="round"/>
<path d="M28.7632 32.4233C29.6564 32.7211 30.624 32.9444 31.5916 33.0188" stroke="#060606" stroke-miterlimit="10" stroke-linecap="round" stroke-linejoin="round"/>
<path d="M23.3301 29.3716C24.2233 30.116 25.1165 30.7859 26.1585 31.3069" stroke="#060606" stroke-miterlimit="10" stroke-linecap="round" stroke-linejoin="round"/>
</svg>
