<svg width="16" height="16" viewBox="0 0 16 16" fill="none" xmlns="http://www.w3.org/2000/svg">
<path d="M7.91575 2.69885C7.68726 2.69885 7.46985 2.71798 7.264 2.74364C7.05514 2.76529 6.87497 2.89865 6.79193 3.09141C6.70889 3.28417 6.73707 3.50661 6.8649 3.6732C6.99223 3.83979 7.20009 3.92434 7.40794 3.89414C7.58308 3.87199 7.75067 3.85841 7.91575 3.85841C10.1644 3.85841 11.9742 5.6682 11.9742 7.91685C11.9742 10.1655 10.1644 11.9753 7.91575 11.9753C5.6671 11.9753 3.85731 10.1655 3.85731 7.91685C3.85731 7.15287 4.07171 6.44375 4.43709 5.83629V5.88763C4.43407 6.09649 4.54378 6.29126 4.72446 6.39644C4.90514 6.50213 5.12859 6.50213 5.30927 6.39644C5.48995 6.29126 5.59966 6.09649 5.59664 5.88763V4.1483C5.59664 3.82821 5.33695 3.56852 5.01687 3.56852H3.27753C3.06867 3.5655 2.8739 3.67521 2.76872 3.85589C2.66303 4.03657 2.66303 4.26002 2.76872 4.4407C2.8739 4.62138 3.06867 4.73109 3.27753 4.72807H3.79038C3.10692 5.61032 2.69776 6.71703 2.69776 7.91685C2.69776 10.7921 5.04052 13.1348 7.91575 13.1348C10.791 13.1348 13.1337 10.7921 13.1337 7.91685C13.1337 5.04161 10.791 2.69885 7.91575 2.69885Z" fill="#00CF08" stroke="#00CF08" stroke-width="0.359862"/>
</svg>
