<svg width="31" height="18" viewBox="0 0 31 18" fill="none" xmlns="http://www.w3.org/2000/svg">
<path d="M7.85614 0L0 8.93263L7.85614 17.8653H28.2958C28.9442 17.8633 29.5654 17.6111 30.0234 17.1638C30.4815 16.7166 30.7392 16.1106 30.74 15.4786V2.38245C30.738 1.75118 30.4799 1.14632 30.0219 0.699938C29.564 0.253559 28.9434 0.00193093 28.2958 0H7.85614ZM8.41407 1.19123H28.2958C28.4567 1.18997 28.6162 1.21993 28.765 1.27935C28.9139 1.33877 29.0491 1.42647 29.1628 1.53733C29.2766 1.6482 29.3665 1.78002 29.4275 1.92511C29.4885 2.0702 29.5192 2.22567 29.5179 2.38245V15.4786C29.5192 15.6354 29.4885 15.7909 29.4275 15.936C29.3665 16.0811 29.2766 16.2129 29.1628 16.3237C29.0491 16.4346 28.9139 16.5223 28.765 16.5817C28.6162 16.6411 28.4567 16.6711 28.2958 16.6699H8.41621L1.60728 8.93054L8.41407 1.19123ZM14.0653 4.93852L13.2016 5.78043L16.4333 8.93263L13.1994 12.0848L14.0631 12.9267L17.297 9.77454L20.5309 12.9267L21.3946 12.0848L18.1607 8.93263L21.3946 5.78043L20.5309 4.93852L17.297 8.09072L14.0653 4.93852Z" fill="white"/>
</svg>
