<svg width="15" height="15" viewBox="0 0 15 15" fill="none" xmlns="http://www.w3.org/2000/svg">
<path d="M2.34375 0.9375C1.57104 0.9375 0.9375 1.57104 0.9375 2.34375V9.84375C0.9375 10.6165 1.57104 11.25 2.34375 11.25H3.75V11.7188C3.75 12.4915 4.38354 13.125 5.15625 13.125H12.6562C13.429 13.125 14.0625 12.4915 14.0625 11.7188V4.21875C14.0625 3.44604 13.429 2.8125 12.6562 2.8125H11.25V2.34375C11.25 1.57104 10.6165 0.9375 9.84375 0.9375H2.34375ZM2.34375 1.875H9.84375C10.1074 1.875 10.3125 2.08008 10.3125 2.34375V9.84375C10.3125 10.1074 10.1074 10.3125 9.84375 10.3125H2.34375C2.08008 10.3125 1.875 10.1074 1.875 9.84375V2.34375C1.875 2.08008 2.08008 1.875 2.34375 1.875ZM11.25 3.75H12.6562C12.9199 3.75 13.125 3.95508 13.125 4.21875V11.7188C13.125 11.9824 12.9199 12.1875 12.6562 12.1875H5.15625C4.89258 12.1875 4.6875 11.9824 4.6875 11.7188V11.25H9.84375C10.6165 11.25 11.25 10.6165 11.25 9.84375V3.75Z" fill="white"/>
</svg>
