<svg width="239" height="108" viewBox="0 0 239 108" fill="none" xmlns="http://www.w3.org/2000/svg">
<mask id="mask0_1_2318" style="mask-type:luminance" maskUnits="userSpaceOnUse" x="0" y="0" width="239" height="108">
<path d="M238.987 0.738525H0.82959V107.015H238.987V0.738525Z" fill="white"/>
</mask>
<g mask="url(#mask0_1_2318)">
<mask id="mask1_1_2318" style="mask-type:luminance" maskUnits="userSpaceOnUse" x="0" y="0" width="239" height="108">
<path d="M238.987 0.738525H0.82959V107.015H238.987V0.738525Z" fill="white"/>
</mask>
<g mask="url(#mask1_1_2318)">
<mask id="mask2_1_2318" style="mask-type:luminance" maskUnits="userSpaceOnUse" x="0" y="8" width="239" height="100">
<path d="M238.987 8.73163H0.82959V107.015H238.987V8.73163Z" fill="white"/>
</mask>
<g mask="url(#mask2_1_2318)">
<path d="M230.84 106.496C230.84 106.496 250.754 69.2208 227.313 51.43C214.234 41.5043 198.926 48.9362 185.664 22.2941C177.945 6.79002 150.936 2.08373 137.429 23.251C123.922 44.4183 118.497 57.8715 100.442 50.5873C89.6908 46.2506 85.0591 32.5812 68.3297 35.4397C48.9944 38.7429 51.5839 58.7713 37.3361 55.2822C9.86077 48.5576 -10.4956 86.9764 8.50068 106.759L230.84 106.496Z" stroke="#515165" stroke-width="2" stroke-miterlimit="10" stroke-dasharray="7 8"/>
</g>
<mask id="mask3_1_2318" style="mask-type:luminance" maskUnits="userSpaceOnUse" x="107" y="67" width="34" height="40">
<path d="M140.68 67.8511H107.098V106.526H140.68V67.8511Z" fill="white"/>
</mask>
<g mask="url(#mask3_1_2318)">
<path d="M137.335 91.2014C135.924 90.9093 134.202 89.5551 134.269 89.1146C134.324 88.7687 136.106 89.3439 137.335 89.7224V84.0257C137.038 83.9482 136.845 83.9164 136.845 83.9164C136.845 83.9164 132.968 86.7953 132.212 86.6207C131.455 86.4462 135.045 83.5134 135.045 83.5134C133.695 82.8608 129.496 83.2687 129.496 83.2687C129.496 83.2687 128.097 87.7726 127.408 87.4178C126.718 87.0629 128.849 83.4922 128.849 83.4922C127.665 83.5521 126.515 83.9045 125.5 84.5176C122.974 86.5106 125.664 89.6465 125.664 89.6465C125.207 90.7889 124.482 91.8049 123.55 92.6086C122.844 93.1828 122.265 93.8951 121.846 94.7015C121.426 95.5079 121.177 96.3915 121.113 97.2978L121.527 97.3353C121.527 97.3353 122.181 94.5355 123.373 93.2099L123.569 93.0092C123.764 92.8297 123.9 92.6951 123.991 92.5948C124.502 92.0308 125.115 91.5682 125.798 91.2316C125.783 91.1662 125.778 91.0993 125.78 91.0325C125.785 91.0961 125.792 91.1614 125.798 91.2316C125.933 92.8166 129.012 94.2011 130.907 94.485C132.802 94.7689 132.214 93.9955 131.561 92.8387C130.907 91.6819 128.842 91.1696 128.371 90.6361C127.899 90.1025 128.874 90.1033 130.016 90.6238C131.158 91.1443 131.314 92.5319 133.144 93.4089C134.549 94.0803 136.494 92.452 137.328 91.6558L137.335 91.2014Z" fill="#363647"/>
<mask id="mask4_1_2318" style="mask-type:luminance" maskUnits="userSpaceOnUse" x="107" y="75" width="13" height="15">
<path d="M119.07 75.0308H107.098V89.1481H119.07V75.0308Z" fill="white"/>
</mask>
<g mask="url(#mask4_1_2318)">
<path d="M107.196 76.2855C108.195 77.6977 109.632 79.5886 110.202 79.6596C111.115 79.7738 108.317 75.0406 108.317 75.0406C110.087 74.8701 114.598 77.0368 114.598 77.0368C114.598 77.0368 114.312 82.625 115.225 82.5116C116.139 82.3982 115.225 77.55 115.225 77.55C116.941 78.0639 118.538 80.0593 118.538 80.0593C120.537 83.3095 116.25 85.7046 116.25 85.7046L115.55 87.2016C115.52 87.2685 115.487 87.3387 115.452 87.4113C114.653 89.1244 110.656 89.4075 108.427 88.9515C107.979 88.9082 107.551 88.7422 107.191 88.4718C107.127 88.4011 107.092 88.3094 107.092 88.2144C107.092 88.1194 107.127 88.0277 107.191 87.957C107.539 87.5433 107.935 87.1717 108.37 86.85C109.569 85.8327 112.081 86.1011 112.824 85.7014C113.566 85.3016 112.481 84.9027 110.996 85.0169C109.695 85.1164 108.965 86.2675 107.191 86.704L107.196 76.2855Z" fill="#63637F"/>
</g>
<path d="M117.399 89.8668C116.69 88.5916 116.297 87.1646 116.256 85.7063C113.667 82.8249 107.099 79.4092 107.099 79.4092C115.22 84.4671 115.457 87.417 115.457 87.417C116.08 88.0709 116.573 88.8365 116.911 89.6734C116.971 89.8227 117.069 90.0283 117.211 90.3089C117.269 90.4354 117.316 90.539 117.348 90.6108C118.133 92.5686 117.717 95.9591 117.717 95.9591L118.193 96.0864C118.492 95.0506 118.576 93.9646 118.439 92.8953C118.303 91.8259 117.948 90.7958 117.398 89.8684" fill="#63637F"/>
<path d="M137.335 83.71C136.942 83.8744 136.514 83.941 136.089 83.9042C132.928 83.604 131.95 81.6485 129.993 81.4992C128.037 81.3499 126.606 81.8745 127.585 82.4015C128.563 82.9285 131.875 82.5736 133.456 83.9156C135.038 85.2576 136.315 86.0839 133.38 86.6852C130.445 87.2864 125.176 86.9112 124.123 84.6563L123.069 82.4015C123.069 82.4015 117.424 79.2436 120.059 74.9599C120.059 74.9599 122.166 72.3289 124.424 71.6518C124.424 71.6518 123.22 78.0411 124.424 78.1912C125.628 78.3413 125.252 70.9756 125.252 70.9756C125.252 70.9756 131.198 68.1203 133.531 68.3446C133.531 68.3446 129.844 74.5838 131.048 74.4337C132.252 74.2835 136.391 67.9694 136.391 67.9694C136.391 67.9694 136.763 67.9008 137.337 67.8511V76.4169C136.216 76.5245 135.354 76.6926 135.413 76.9879C135.48 77.3191 136.278 77.7384 137.337 78.0484L137.335 83.71Z" fill="#63637F"/>
<path d="M140.681 71.5768C140.681 71.5768 124.875 76.6885 123.069 82.4007C123.015 84.3238 122.499 86.2058 121.563 87.8877C120.838 89.1101 120.371 90.4679 120.19 91.8775C120.01 93.2871 120.121 94.7186 120.515 96.0839L121.143 95.9159C121.143 95.9159 120.595 91.451 121.633 88.8658C121.675 88.7704 121.737 88.6341 121.813 88.4669C122.001 88.0973 122.129 87.8257 122.209 87.6299C122.772 86.4755 123.584 84.9712 124.126 84.6555C124.126 84.6555 120.588 79.6947 140.685 71.5768" fill="#63637F"/>
<path d="M111.82 94.7999C111.82 97.7286 112.985 100.537 115.058 102.608C117.132 104.679 119.945 105.843 122.877 105.843C125.81 105.843 128.623 104.679 130.696 102.608C132.77 100.537 133.935 97.7286 133.935 94.7999H111.82Z" fill="#63637F"/>
<path d="M132.723 105.164H113.031C112.669 105.164 112.322 105.307 112.066 105.563C111.81 105.818 111.667 106.165 111.667 106.526H134.087C134.087 106.165 133.943 105.818 133.688 105.563C133.432 105.307 133.085 105.164 132.723 105.164Z" fill="#63637F"/>
<path d="M134.017 95.1385H111.625C111.583 95.1355 111.542 95.1163 111.513 95.0849C111.484 95.0535 111.467 95.0121 111.467 94.9692C111.467 94.9262 111.484 94.8848 111.513 94.8533C111.542 94.8219 111.583 94.8028 111.625 94.7999H134.017C134.06 94.8028 134.1 94.8219 134.129 94.8533C134.158 94.8848 134.175 94.9262 134.175 94.9692C134.175 95.0121 134.158 95.0535 134.129 95.0849C134.1 95.1163 134.06 95.1355 134.017 95.1385Z" fill="#363647"/>
</g>
<mask id="mask5_1_2318" style="mask-type:luminance" maskUnits="userSpaceOnUse" x="137" y="15" width="49" height="92">
<path d="M185.243 15.7417H137.334V106.526H185.243V15.7417Z" fill="white"/>
</mask>
<g mask="url(#mask5_1_2318)">
<path d="M139.787 106.526H182.792C183.441 106.524 184.063 106.265 184.523 105.807C184.982 105.348 185.241 104.727 185.243 104.079V18.1898C185.241 17.5414 184.982 16.9201 184.523 16.4616C184.063 16.0031 183.441 15.7446 182.792 15.7424H139.787C139.137 15.7446 138.515 16.0031 138.056 16.4616C137.597 16.9201 137.338 17.5414 137.336 18.1898V104.077C137.338 104.725 137.597 105.347 138.056 105.805C138.515 106.264 139.137 106.522 139.787 106.524" fill="#63637F"/>
<path d="M154.268 20.147H166.721C166.85 20.147 166.973 20.096 167.064 20.0053C167.154 19.9146 167.205 19.7915 167.205 19.6632C167.205 19.5349 167.154 19.4119 167.064 19.3211C166.973 19.2304 166.85 19.1794 166.721 19.1794H154.267C154.139 19.1794 154.015 19.2304 153.925 19.3211C153.834 19.4119 153.783 19.5349 153.783 19.6632C153.783 19.7915 153.834 19.9146 153.925 20.0053C154.015 20.096 154.139 20.147 154.268 20.147Z" fill="#363647"/>
<path d="M168.933 20.147C169.029 20.147 169.123 20.1186 169.202 20.0654C169.282 20.0123 169.344 19.9367 169.381 19.8483C169.417 19.7599 169.427 19.6627 169.408 19.5688C169.39 19.475 169.343 19.3888 169.276 19.3211C169.208 19.2535 169.122 19.2074 169.028 19.1887C168.934 19.1701 168.836 19.1796 168.748 19.2163C168.659 19.2529 168.584 19.3149 168.53 19.3944C168.477 19.474 168.449 19.5675 168.449 19.6632C168.45 19.791 168.502 19.9132 168.592 20.0036C168.683 20.094 168.805 20.1455 168.933 20.147Z" fill="#363647"/>
<path d="M163.821 101.51C163.821 100.892 163.638 100.289 163.295 99.7757C162.951 99.2624 162.463 98.8623 161.892 98.6261C161.321 98.3899 160.693 98.3281 160.086 98.4485C159.48 98.569 158.923 98.8662 158.486 99.3027C158.049 99.7392 157.751 100.295 157.631 100.901C157.51 101.506 157.572 102.134 157.809 102.704C158.045 103.274 158.446 103.762 158.96 104.105C159.474 104.448 160.078 104.631 160.696 104.631C161.525 104.631 162.32 104.302 162.906 103.717C163.492 103.131 163.821 102.338 163.821 101.51Z" fill="#363647"/>
</g>
</g>
<path d="M181.255 22.9402H141.424V96.3703H181.255V22.9402Z" fill="#363647"/>
<mask id="mask6_1_2318" style="mask-type:luminance" maskUnits="userSpaceOnUse" x="0" y="0" width="239" height="108">
<path d="M238.987 0.738525H0.82959V107.015H238.987V0.738525Z" fill="white"/>
</mask>
<g mask="url(#mask6_1_2318)">
<mask id="mask7_1_2318" style="mask-type:luminance" maskUnits="userSpaceOnUse" x="64" y="25" width="44" height="82">
<path d="M107.196 25.142H64.248V106.526H107.196V25.142Z" fill="white"/>
</mask>
<g mask="url(#mask7_1_2318)">
<path d="M66.4454 25.1422H105.002C105.584 25.1444 106.141 25.3763 106.553 25.7873C106.965 26.1984 107.197 26.7553 107.199 27.3367V104.329C107.197 104.911 106.965 105.468 106.553 105.879C106.141 106.29 105.584 106.522 105.002 106.524H66.4454C65.8633 106.522 65.3057 106.29 64.8941 105.879C64.4824 105.468 64.2502 104.911 64.248 104.329V27.335C64.2502 26.7537 64.4824 26.1968 64.8941 25.7857C65.3057 25.3746 65.8633 25.1427 66.4454 25.1406" fill="#63637F"/>
</g>
</g>
<path d="M105.569 31.6488H65.7847V97.5956H105.569V31.6488Z" fill="#363647"/>
<mask id="mask8_1_2318" style="mask-type:luminance" maskUnits="userSpaceOnUse" x="0" y="0" width="239" height="108">
<path d="M238.987 0.738525H0.82959V107.015H238.987V0.738525Z" fill="white"/>
</mask>
<g mask="url(#mask8_1_2318)">
<path d="M80.8525 28.2208H92.0167C92.1319 28.2208 92.2425 28.2666 92.324 28.3479C92.4055 28.4293 92.4513 28.5397 92.4513 28.6548C92.4513 28.7699 92.4055 28.8803 92.324 28.9617C92.2425 29.0431 92.1319 29.0888 92.0167 29.0888H80.8525C80.7373 29.0888 80.6268 29.0431 80.5453 28.9617C80.4638 28.8803 80.418 28.7699 80.418 28.6548C80.418 28.5397 80.4638 28.4293 80.5453 28.3479C80.6268 28.2666 80.7373 28.2208 80.8525 28.2208Z" fill="#363647"/>
<path d="M78.8691 28.2208C78.9551 28.2208 79.0391 28.2463 79.1105 28.294C79.182 28.3417 79.2377 28.4094 79.2706 28.4887C79.3035 28.568 79.3121 28.6553 79.2954 28.7395C79.2786 28.8237 79.2372 28.901 79.1764 28.9617C79.1156 29.0224 79.0382 29.0637 78.9539 29.0805C78.8696 29.0972 78.7822 29.0886 78.7028 29.0558C78.6234 29.0229 78.5556 28.9673 78.5078 28.8959C78.4601 28.8246 78.4346 28.7406 78.4346 28.6548C78.4348 28.5398 78.4806 28.4295 78.5621 28.3482C78.6435 28.2668 78.7539 28.221 78.8691 28.2208Z" fill="#363647"/>
<path d="M85.6769 100.384C86.1169 100.384 86.5469 100.514 86.9127 100.758C87.2785 101.002 87.5636 101.349 87.732 101.755C87.9003 102.161 87.9444 102.608 87.8586 103.039C87.7727 103.47 87.5609 103.865 87.2498 104.176C86.9387 104.487 86.5424 104.698 86.1109 104.784C85.6794 104.87 85.2322 104.826 84.8258 104.658C84.4193 104.49 84.0719 104.205 83.8275 103.839C83.5831 103.474 83.4526 103.045 83.4526 102.605C83.4526 102.016 83.687 101.451 84.1041 101.035C84.5213 100.618 85.087 100.384 85.6769 100.384Z" fill="#363647"/>
<mask id="mask9_1_2318" style="mask-type:luminance" maskUnits="userSpaceOnUse" x="18" y="64" width="47" height="43">
<path d="M64.2089 64.2061H18.0796V106.531H64.2089V64.2061Z" fill="white"/>
</mask>
<g mask="url(#mask9_1_2318)">
<path d="M23.4442 106.473C23.4442 106.473 19.85 106.604 19.3223 106.473C19.3003 106.374 18.6362 102.192 18.6362 102.192L18.0839 98.3249C18.0663 98.2058 18.0858 98.0841 18.1396 97.9764C18.1935 97.8686 18.2792 97.78 18.3851 97.7224C18.491 97.6649 18.6121 97.6412 18.7319 97.6545C18.8517 97.6679 18.9646 97.7177 19.0552 97.7971C19.2926 98.0254 19.4673 98.3108 19.5625 98.6259C20.0142 99.9875 21.3465 102.182 23.3201 102.755C25.399 103.357 23.441 106.472 23.441 106.472" fill="#363647"/>
<path d="M42.1692 87.0866L41.8163 87.2122C41.5249 86.7587 41.0864 86.4189 40.5742 86.2496C40.0619 86.0803 39.507 86.0919 39.0022 86.2823C39.0022 86.2823 38.2474 86.598 38.6951 87.0099C39.1427 87.4219 39.0316 87.209 39.65 87.8029C39.9032 88.0823 40.2237 88.2925 40.5812 88.4135C40.9386 88.5344 41.321 88.5621 41.6922 88.4939L42.3367 88.2671L42.1692 87.0866Z" fill="#E49963"/>
<path d="M58.0914 100.165C58.0914 100.165 44.9178 90.1116 41.17 90.0015C37.4222 89.8913 25.2656 106.508 25.2656 106.508H29.818C29.818 106.508 37.8397 102.245 40.6611 98.1936C40.7267 98.0999 40.8145 98.0238 40.9167 97.9723C41.019 97.9209 41.1324 97.8956 41.2468 97.8987C41.3613 97.9019 41.4732 97.9334 41.5724 97.9905C41.6716 98.0475 41.7551 98.1282 41.8154 98.2254C43.2743 100.553 47.0874 106.263 49.5535 106.508C52.201 106.772 58.0914 100.165 58.0914 100.165Z" fill="#363647"/>
<path d="M56.8286 72.8102C56.8286 72.8102 56.9103 73.4694 57.0189 74.2786C57.1619 75.3392 57.3514 76.6445 57.4764 77.0524L61.4398 78.055L61.7306 75.1768C61.0653 73.6643 60.729 72.0279 60.7439 70.3759L56.8286 72.8102Z" fill="#FFB27D"/>
<path d="M60.2791 78.8014L54.6427 85.6916L52.6732 88.1014C52.6732 88.1014 49.1451 88.7614 47.2933 88.9221C45.4188 88.8911 43.5478 88.7481 41.6904 88.4938L41.813 87.213C43.0827 86.6653 44.3874 86.202 45.7184 85.8262C47.0017 85.5578 50.243 84.8276 50.243 84.8276C51.4683 84.3822 56.1245 78.3699 56.1245 78.3699L60.2791 78.8014Z" fill="#5C5A72"/>
<path d="M63.9524 103.405L52.4346 102.466C52.4346 102.466 52.4027 102.235 52.3529 101.848C52.3361 101.724 52.3263 101.599 52.3235 101.473C52.4487 100.055 52.656 98.6459 52.9444 97.2521C53.1121 96.3006 53.0561 95.3231 52.781 94.3968C52.3936 92.8722 52.1955 91.3059 52.1912 89.733C52.1005 87.492 52.1528 85.3979 52.152 85.3824C52.0877 83.8364 52.3585 82.2947 52.946 80.8629C54.0691 77.891 56.1644 76.2088 57.1487 75.2111C57.1487 75.2111 58.3512 75.5072 61.4781 74.5715C61.5713 74.5438 61.8392 74.9362 61.9585 75.1654C61.9585 75.1654 63.3104 76.8745 63.8667 81.0391C64.3641 84.7697 63.959 103.406 63.959 103.406" fill="#63637F"/>
<path d="M61.0706 82.749C61.0478 83.2719 56.4145 98.0043 56.9806 99.0934C59.7293 104.352 52.8006 101.983 52.4249 100.626C52.5531 99.6212 53.0849 95.2527 52.7778 94.3936C52.3903 92.8691 52.1923 91.3026 52.188 89.7297C52.3278 89.0331 52.5826 88.3646 52.9419 87.7515C54.6639 87.4822 61.243 78.6962 61.0706 82.749Z" fill="#5C5A72"/>
<path d="M38.0333 85.6223L39.462 84.6433C39.4738 84.635 39.4867 84.6284 39.5004 84.6238L39.7699 84.5136L41.0843 88.6586L39.9341 89.5878L39.7275 89.6775C39.6736 89.6925 39.6161 89.6859 39.5671 89.6591C39.5181 89.6323 39.4815 89.5874 39.4652 89.534L37.9769 85.8923C37.9548 85.8472 37.9486 85.796 37.9591 85.7469C37.9696 85.6978 37.9963 85.6536 38.0349 85.6214" fill="#373480"/>
<path d="M41.3792 88.4131L40.0159 89.5552C39.9891 89.5723 39.9587 89.5828 39.927 89.5859C39.8954 89.589 39.8635 89.5846 39.8339 89.5729C39.8043 89.5613 39.7779 89.5429 39.7569 89.5191C39.7358 89.4953 39.7207 89.4668 39.7128 89.4361L38.2245 85.7944C38.2024 85.7493 38.1961 85.6981 38.2066 85.649C38.2171 85.5999 38.2439 85.5557 38.2825 85.5236L39.7112 84.5446C39.7383 84.5307 39.7682 84.5229 39.7988 84.522C39.8293 84.5211 39.8596 84.527 39.8876 84.5392C39.9155 84.5515 39.9404 84.5699 39.9603 84.593C39.9802 84.616 39.9948 84.6433 40.0028 84.6727L41.425 88.1545C41.4453 88.1974 41.4519 88.2455 41.4437 88.2923C41.4355 88.3391 41.413 88.3821 41.3792 88.4155" fill="#575B9F"/>
<path d="M41.1568 87.9669L39.8138 89.0894L38.4644 85.7862L39.8718 84.8212L41.1568 87.9669Z" fill="#363647"/>
<path d="M40.6276 88.7263C40.6173 88.6971 40.6176 88.6652 40.6285 88.6363C40.6395 88.6073 40.6602 88.5832 40.6873 88.5681C40.7387 88.5469 40.7959 88.5844 40.8139 88.6496C40.8242 88.6788 40.8239 88.7107 40.8129 88.7397C40.802 88.7686 40.7812 88.7927 40.7542 88.8079C40.7028 88.8291 40.6456 88.7916 40.6276 88.7263Z" fill="#373480"/>
<path d="M38.6689 85.8474L39.8126 85.0422L40.997 87.8787L39.8338 88.7842L38.6689 85.8474Z" fill="#363647"/>
<path d="M38.9668 86.0179L39.7673 85.4534L40.5973 87.4407L39.7804 88.0753L38.9668 86.0179Z" fill="#363647"/>
<path d="M42.0042 89.0959L41.2797 89.0722C41.1762 88.8641 41.0326 88.6786 40.857 88.5263C40.6814 88.3739 40.4772 88.2579 40.2565 88.1848C40.0357 88.1117 39.8026 88.0829 39.5706 88.1002C39.3387 88.1176 39.1124 88.1806 38.905 88.2858C38.905 88.2858 38.2417 88.6317 38.6077 89.02C38.9737 89.4083 38.8879 89.2003 39.3919 89.7542C39.5872 90.0133 39.856 90.2076 40.1634 90.3121C40.4708 90.4166 40.8025 90.4263 41.1155 90.34L41.6799 90.087L42.0042 89.0959Z" fill="#E49963"/>
<path d="M60.0037 75.234C58.239 76.0393 56.7463 77.339 55.707 78.9752C54.7267 80.6737 53.0432 83.5624 52.0311 85.3017C51.7637 85.7596 51.4042 86.1571 50.9753 86.4693C50.5463 86.7814 50.0572 87.0014 49.5388 87.1152L46.1079 87.8689L41.2884 89.0723C41.2108 89.2401 41.1808 89.4261 41.2019 89.6099C41.1964 89.729 41.2267 89.8471 41.289 89.9489C41.3513 90.0507 41.4427 90.1315 41.5515 90.1809C41.5515 90.1809 46.0516 91.2627 47.6535 91.3834C51.6006 91.6795 53.4712 91.1631 54.0512 90.9502C54.179 90.9025 54.298 90.8339 54.4032 90.7471C55.9664 89.5059 57.3598 88.0654 58.548 86.4625C59.7358 84.6588 63.0114 79.9721 63.0114 79.9721L60.0037 75.234Z" fill="#63637F"/>
<path d="M64.0319 98.9547C64.0319 98.9547 65.1673 106.508 61.6842 106.508H23.3486C22.7738 106.029 22.3839 105.365 22.246 104.63C22.1082 103.895 22.2308 103.135 22.593 102.48C22.593 102.48 36.3164 102.003 39.1027 101.071C53.0712 96.3972 64.0311 98.9538 64.0311 98.9538" fill="#5C5A72"/>
<path d="M56.8286 72.8102C56.8286 72.8102 56.9103 73.4694 57.0189 74.2787C60.6809 73.2116 60.7447 70.3792 60.7447 70.3792L56.8286 72.8102Z" fill="#E8945B"/>
<path d="M56.2553 73.0208C56.2553 73.0208 60.7064 73.1521 60.7481 70.3825C60.7898 67.6129 61.3885 65.7643 58.5483 65.5636C55.708 65.363 55.1403 66.4112 54.9018 67.3323C54.6633 68.2533 55.1003 72.9147 56.257 73.0208" fill="#FFB27D"/>
<path d="M60.8247 71.4675C60.8247 71.4675 60.3542 71.3859 60.4301 70.7422C60.5061 70.0986 60.5053 69.2494 59.9784 69.4076C59.4515 69.5659 59.4254 69.986 59.2089 69.7405C58.9925 69.4949 58.9883 68.4589 57.4216 68.3862C55.8548 68.3136 55.2161 68.8586 54.4883 68.5388C53.7604 68.219 53.7212 67.1169 53.7212 67.1169C53.8389 67.3376 54.0202 67.5181 54.2416 67.6349C54.2416 67.6349 53.0252 65.974 54.4335 64.8351C55.8418 63.6963 57.277 64.4419 58.0914 64.4909C59.8885 64.5994 61.046 64.7071 61.6326 65.8851C62.2191 67.0631 61.9773 70.3336 60.8255 71.4675" fill="#2A2B3A"/>
</g>
<mask id="mask10_1_2318" style="mask-type:luminance" maskUnits="userSpaceOnUse" x="161" y="0" width="20" height="11">
<path d="M180.906 0.738525H161.639V10.2531H180.906V0.738525Z" fill="white"/>
</mask>
<g mask="url(#mask10_1_2318)">
<path d="M168.961 6.7542L180.905 10.2539L173.61 3.57507L172.943 5.28171L169.899 5.38939L168.961 6.7542Z" fill="#363647"/>
<path d="M180.905 10.2531L171.511 3.56364L161.637 1.62695L180.905 10.2531Z" fill="white"/>
<path d="M173.613 3.57504L180.908 10.2539L175.887 0.740173L173.613 3.57504Z" fill="white"/>
</g>
<mask id="mask11_1_2318" style="mask-type:luminance" maskUnits="userSpaceOnUse" x="193" y="24" width="33" height="83">
<path d="M225.576 24.4168H193.464V106.526H225.576V24.4168Z" fill="white"/>
</mask>
<g mask="url(#mask11_1_2318)">
<path d="M202.402 24.8712C202.731 24.7477 203.083 24.6923 203.435 24.7085C203.787 24.7246 204.132 24.8119 204.449 24.965C204.014 24.354 202.424 24.5571 202.424 24.5571C205.59 23.8849 206.251 25.9056 206.305 26.0949C208.602 24.0252 212.278 28.4362 212.278 28.4362L207.002 35.4194C207.002 35.4194 206.521 34.3083 205.885 34.655C204.894 35.1958 202.977 33.0079 203.59 30.129C203.652 29.8394 203.73 29.5537 203.824 29.2732C203.618 29.371 203.395 29.4265 203.167 29.4364C202.59 29.4364 201.719 27.968 201.601 27.4736C201.483 26.9792 201.612 25.3574 202.402 24.8753" fill="#2A2B3A"/>
<path d="M217.49 55.27C220.831 54.0406 224.05 48.3308 224.05 48.3308L222.995 47.5966C222.118 48.8791 218.169 51.3403 218.169 51.3403C218.079 50.2602 217.948 49.2796 217.787 48.392C216.691 42.3552 214.184 40.5702 213.51 40.1909C213.455 40.1588 213.398 40.1302 213.34 40.1052C213.34 40.1052 213.34 40.1493 213.347 40.2341C213.357 40.4161 213.378 40.7815 213.413 41.2832C213.675 45.0195 214.698 56.3011 217.489 55.2732" fill="#FFB27D"/>
<path d="M201.342 61.4316C202.993 57.7345 203.782 56.6894 203.81 55.5261C203.831 54.6059 203.377 53.6139 202.496 51.1804C202.291 50.6103 202.144 50.0211 202.056 49.4216C201.359 44.73 204.075 39.659 205.763 39.3131C206.233 39.1891 207.029 37.4947 207.02 34.7643L207.231 34.8059L210.786 35.5091C210.786 35.5091 210.705 36.6267 210.705 37.6791C210.705 38.5561 210.755 39.3874 210.954 39.4926C211.209 39.5155 211.362 39.531 211.362 39.531C211.362 39.531 214.326 43.6425 214.576 47.4661C214.825 51.2897 212.202 52.9507 214.595 60.5922C217.039 68.396 200.432 63.4752 201.345 61.4324" fill="#FFB27D"/>
<path d="M210.786 35.5091C210.786 35.5091 210.705 36.6268 210.705 37.6791C208.715 37.6228 207.663 35.811 207.233 34.8059L210.786 35.5091Z" fill="#E8945B"/>
<path d="M206.864 34.4192C206.273 33.4772 205.837 32.4469 205.571 31.3673C205.392 30.3631 205.904 26.6407 209.65 27.1766C210.405 27.2812 211.126 27.5536 211.76 27.9736C212.577 28.5219 213.748 29.7064 212.435 32.9548L212.095 34.0521L206.864 34.4192Z" fill="#363647"/>
<path d="M211.451 36.506C211.451 36.506 206.744 36.5876 206.741 33.6557C206.738 30.7237 206.128 28.7658 209.133 28.592C212.137 28.4183 212.723 29.5351 212.962 30.5124C213.201 31.4897 212.675 36.4106 211.451 36.506Z" fill="#FFB27D"/>
<path d="M205.509 96.9046C206.231 99.7628 207.225 102.546 208.476 105.216L210.028 105.108C209.512 102.304 209.272 99.4561 209.31 96.6052C209.297 92.7634 209.906 88.9448 211.115 85.2976C215.76 72.0508 215.009 62.4106 215.009 62.4106L206.275 63.4303L205.867 63.4776C205.831 67.4831 205.727 72.922 205.636 77.1747C205.555 80.9991 205.485 83.8642 205.485 83.8642C203.807 87.4757 204.416 92.5736 205.506 96.903" fill="#63637F"/>
<path d="M200.499 96.1533C200.754 99.2517 201.679 102.258 203.212 104.964L203.953 105.502C203.953 105.502 204.655 101.732 205.152 97.2448C205.625 92.9807 206.274 88.4685 207.007 87.0915C209.92 81.6257 210.797 61.0091 210.797 61.0091L201.942 60.5702C201.052 62.0655 200.663 64.5178 200.571 67.3061C200.338 74.3431 201.994 83.5199 202.242 84.8456C202.256 84.9481 202.235 85.0524 202.183 85.1418C200.422 88.6252 200.166 92.6095 200.498 96.1451" fill="#63637F"/>
<path d="M208.009 32.4597C206.032 32.968 205.173 32.4385 205.173 32.4385C206.149 31.5824 206.797 30.4141 207.006 29.1337C207.006 29.1337 207.874 26.3951 211.238 28.4566C211.546 28.1923 212.095 28.0014 212.822 28.8808C213.913 30.2016 212.942 32.5364 212.942 32.5364C212.494 32.5886 212.389 31.0533 212.154 30.3077C211.924 29.7782 211.572 29.3101 211.127 28.9412C211.033 29.2879 210.084 32.5698 207.722 33.6605C208.453 32.9821 209.089 32.2073 209.61 31.3576C209.197 31.8744 208.64 32.2578 208.009 32.4597Z" fill="#2A2B3A"/>
<path d="M194.444 66.4161C194.806 66.0874 195.089 65.6818 195.273 65.2291C196.368 62.5076 197.629 57.2344 198.046 56.2554C198.198 55.9014 198.49 54.2323 198.871 52.081C199.557 48.2215 200.531 42.8112 201.507 40.6673C201.72 40.3514 202.035 40.1185 202.4 40.0082C203.566 39.6092 204.774 39.3453 206.001 39.2217L204.815 44.3539L204.467 45.859C204.467 45.859 203.411 49.5765 202.592 52.6145C202.196 54.083 201.857 55.3882 201.719 56.045C201.295 58.0551 196.634 65.7789 196.634 65.7789C196.634 65.7789 196.493 65.8728 196.328 66.3435C196.163 66.8142 194.845 69.3056 194.28 69.3056C193.715 69.3056 193.598 68.4588 193.479 67.9188C193.361 67.3787 193.997 66.6951 194.445 66.4136" fill="#FFB27D"/>
<path d="M222.993 47.5942C222.993 47.449 222.872 45.3492 223.246 44.9086C223.62 44.4681 224.385 43.8399 224.625 43.8595C224.96 44.1161 225.219 44.4575 225.377 44.8483C225.536 45.239 225.586 45.6649 225.523 46.0817C225.165 46.9107 224.666 47.6716 224.048 48.3309L222.993 47.5942Z" fill="#FFB27D"/>
<path d="M221.282 45.0253L223.46 45.6779C223.478 45.683 223.496 45.6848 223.513 45.683C223.531 45.6811 223.549 45.6759 223.564 45.6674C223.58 45.6589 223.594 45.6474 223.605 45.6335C223.617 45.6196 223.625 45.6037 223.63 45.5865L224.875 41.4374C224.88 41.4203 224.882 41.4023 224.88 41.3845C224.879 41.3667 224.873 41.3494 224.865 41.3337C224.856 41.3179 224.845 41.304 224.831 41.2927C224.817 41.2813 224.801 41.2729 224.784 41.2677L222.605 40.6151C222.571 40.6049 222.533 40.6088 222.501 40.6259C222.47 40.6431 222.446 40.672 222.435 40.7065L221.19 44.8556C221.185 44.8727 221.183 44.8907 221.185 44.9085C221.187 44.9263 221.192 44.9436 221.201 44.9594C221.209 44.9751 221.221 44.989 221.235 45.0004C221.249 45.0117 221.265 45.0201 221.282 45.0253Z" fill="#63637F"/>
<path d="M221.845 45.195L223.821 45.7864C223.882 45.804 223.949 45.7967 224.005 45.7662C224.061 45.7357 224.103 45.6844 224.122 45.6233L225.307 41.6765C225.324 41.6149 225.317 41.549 225.286 41.4927C225.256 41.4364 225.204 41.3943 225.143 41.3755L223.166 40.784C223.105 40.7664 223.039 40.7737 222.982 40.8042C222.926 40.8347 222.884 40.886 222.865 40.9472L221.68 44.8939C221.663 44.9556 221.67 45.0218 221.7 45.0782C221.731 45.1347 221.782 45.1769 221.844 45.1958" fill="#363647"/>
<path d="M200.499 96.1533C200.754 99.2518 201.68 102.258 203.213 104.964L203.968 105.651C203.968 105.651 204.657 101.735 205.153 97.2481C203.525 97.3696 201.9 96.9873 200.497 96.1533" fill="#FFB27D"/>
<path d="M202.572 52.7777C201.164 53.1118 199.68 52.8946 198.427 52.1708C199.224 48.2835 200.358 42.8349 201.494 40.6755C201.564 40.5575 201.66 40.4571 201.774 40.3818L201.763 40.368C202.764 39.8172 203.866 39.4734 205.003 39.3572C205.003 39.3572 205.674 42.3283 206.098 42.7158C206.522 43.1033 212.666 43.738 212.808 43.0331C212.943 42.3593 211.211 39.739 211.082 39.5081C211.175 39.5101 211.268 39.5172 211.361 39.5293C212.062 39.6215 212.555 39.6925 212.913 39.752C213.334 39.8094 213.734 39.9688 214.078 40.2162C214.906 40.8419 216.849 42.7631 217.609 47.3951C217.018 48.1744 216.214 48.7663 215.293 49.0993C215.258 49.1091 215.222 49.1181 215.186 49.1271C215.421 53.051 216.868 59.5798 216.346 63.3569C215.846 66.9888 208.196 66.0596 206.679 65.7227C205.64 65.4926 204.834 64.3995 204.261 62.4432C204.071 63.808 203.645 65.4086 202.688 65.5081C201.124 65.6713 200.477 65.3996 200.288 64.8082C200.23 64.5775 200.212 64.3386 200.234 64.1017C200.336 62.0622 201.89 57.2556 202.575 52.7794" fill="#7C7C93"/>
<path d="M205.511 96.9046C206.233 99.7628 207.227 102.546 208.477 105.216L210.03 105.108C209.514 102.304 209.274 99.4566 209.312 96.606C208.786 96.8711 207.698 97.1396 205.511 96.9046Z" fill="#D9935C"/>
<path d="M207.582 106.515H208.573C208.905 106.463 209.151 106.367 209.49 106.323C209.63 106.29 209.775 106.291 209.914 106.324C210.054 106.358 210.183 106.423 210.293 106.515L210.302 106.525H214.511C214.617 106.374 214.515 106.024 214.415 105.767C214.382 105.681 214.329 105.604 214.26 105.541C214.192 105.479 214.11 105.433 214.021 105.408C213.237 105.275 212.502 104.94 211.889 104.435C211.435 104.027 209.7 102.931 209.7 102.931H209.691C209.652 102.931 209.471 102.987 208.681 103.653C208.273 103.996 207.577 103.167 207.577 103.167C207.482 103.255 207.405 103.36 207.35 103.477C207.251 103.677 207.22 103.903 207.259 104.122C207.259 104.656 207.157 105.185 206.958 105.681C206.859 105.97 206.777 106.17 206.777 106.17C206.777 106.17 206.73 106.409 207.582 106.515Z" fill="#363647"/>
<path d="M202.294 106.515H203.285C203.616 106.463 203.861 106.367 204.202 106.323C204.342 106.29 204.487 106.291 204.626 106.324C204.765 106.358 204.895 106.423 205.004 106.515L205.013 106.525H209.223C209.329 106.374 209.227 106.024 209.127 105.767C209.094 105.681 209.041 105.604 208.972 105.541C208.904 105.479 208.822 105.433 208.733 105.408C207.95 105.275 207.214 104.94 206.601 104.435C206.148 104.027 204.412 102.931 204.412 102.931H204.403C204.365 102.931 204.183 102.987 203.393 103.653C202.985 103.996 202.29 103.167 202.29 103.167C202.194 103.255 202.117 103.36 202.062 103.477C201.963 103.677 201.932 103.903 201.971 104.122C201.971 104.656 201.869 105.185 201.67 105.681C201.572 105.97 201.489 106.17 201.489 106.17C201.489 106.17 201.442 106.408 202.295 106.515" fill="#363647"/>
<path d="M200.232 64.1008C201.283 63.75 202.631 62.8184 204.25 60.7284C208.537 55.1949 204.615 48.6922 204.087 48.5731C203.559 48.454 202.572 52.7802 202.572 52.7802C201.886 57.2572 200.333 62.063 200.23 64.1025" fill="#5C5A72"/>
<path d="M224.814 44.0006C224.814 44.0006 224.126 43.3774 223.565 43.9672C223.004 44.557 223.777 45.6094 224.344 45.8598C224.608 45.9657 224.861 46.0971 225.099 46.2522L224.814 44.0006Z" fill="#FFB27D"/>
<path d="M210.531 34.7668C210.531 34.7668 210.613 35.1118 211.472 35.0588C211.472 35.0588 212.194 35.0139 212.172 34.6346C211.627 34.4771 211.044 34.5242 210.531 34.7668Z" fill="white"/>
</g>
<mask id="mask12_1_2318" style="mask-type:luminance" maskUnits="userSpaceOnUse" x="72" y="49" width="27" height="24">
<path d="M98.6888 49.0863H72.665V72.4628H98.6888V49.0863Z" fill="white"/>
</mask>
<g mask="url(#mask12_1_2318)">
<path d="M97.1515 71.1143H74.2016C73.794 71.1143 73.4033 70.9526 73.1151 70.6648C72.8269 70.377 72.665 69.9868 72.665 69.5798V55.3981C72.665 54.9911 72.8269 54.6008 73.1151 54.313C73.4033 54.0252 73.794 53.8636 74.2016 53.8636H97.1515C97.559 53.8636 97.9498 54.0252 98.238 54.313C98.5261 54.6008 98.688 54.9911 98.688 55.3981V69.5789C98.688 69.9859 98.5261 70.3762 98.238 70.664C97.9498 70.9518 97.559 71.1143 97.1515 71.1143Z" fill="#2A2B3A"/>
<path d="M81.2111 49.1189C80.3656 49.2244 79.5704 49.5779 78.9261 50.1347C78.2817 50.6916 77.8172 51.4268 77.5912 52.2473C77.3653 53.0678 77.3881 53.9367 77.6566 54.7443C77.9252 55.5519 78.4275 56.2618 79.1001 56.7843C79.7727 57.3068 80.5854 57.6183 81.4353 57.6795C82.2851 57.7407 83.1341 57.5489 83.8748 57.1283C84.6155 56.7076 85.2147 56.077 85.5965 55.3163C85.9784 54.5555 86.1258 53.6988 86.0201 52.8544C85.8783 51.7222 85.292 50.6926 84.3902 49.9921C83.4884 49.2916 82.3448 48.9775 81.2111 49.1189Z" fill="#2A2B3A"/>
<path d="M80.8386 49.1663C79.9931 49.2717 79.1979 49.6253 78.5535 50.1821C77.9092 50.7389 77.4447 51.4741 77.2187 52.2946C76.9927 53.1151 77.0155 53.9841 77.2841 54.7917C77.5526 55.5993 78.055 56.3092 78.7276 56.8317C79.4002 57.3541 80.2128 57.6656 81.0627 57.7269C81.9126 57.7881 82.7615 57.5962 83.5023 57.1756C84.243 56.7549 84.8421 56.1244 85.224 55.3636C85.6058 54.6029 85.7532 53.7461 85.6475 52.9017C85.5058 51.7695 84.9195 50.74 84.0177 50.0395C83.1159 49.3389 81.9723 49.0248 80.8386 49.1663Z" fill="white"/>
<path d="M81.8656 57.3747C81.0963 57.4699 80.3161 57.3353 79.6234 56.9878C78.9307 56.6403 78.3568 56.0956 77.974 55.4225C77.5911 54.7494 77.4167 53.9781 77.4726 53.206C77.5286 52.4339 77.8125 51.6956 78.2884 51.0846C78.7642 50.4735 79.4108 50.0171 80.1464 49.7729C80.8819 49.5286 81.6734 49.5076 82.421 49.7125C83.1685 49.9173 83.8384 50.3388 84.3461 50.9237C84.8538 51.5087 85.1766 52.2308 85.2736 52.9988C85.4014 54.0302 85.1144 55.0701 84.4755 55.8904C83.8366 56.7108 82.898 57.2446 81.8656 57.3747ZM80.9213 49.8278C80.197 49.9182 79.5157 50.221 78.9637 50.698C78.4117 51.175 78.0138 51.8047 77.8202 52.5076C77.6266 53.2104 77.646 53.9549 77.8761 54.6467C78.1061 55.3386 78.5364 55.9467 79.1126 56.3943C79.6887 56.8419 80.3848 57.1088 81.1129 57.1613C81.8409 57.2138 82.5682 57.0496 83.2028 56.6892C83.8373 56.3289 84.3506 55.7888 84.6778 55.1371C85.0049 54.4855 85.1312 53.7516 85.0407 53.0282C84.9181 52.0588 84.4156 51.1775 83.6434 50.5776C82.8712 49.9777 81.8923 49.708 80.9213 49.8278Z" fill="#BBBBBB"/>
<path d="M86.8147 51.9791C85.9692 52.0845 85.1739 52.4381 84.5296 52.9949C83.8853 53.5518 83.4207 54.2869 83.1948 55.1074C82.9688 55.9279 82.9916 56.7969 83.2601 57.6045C83.5287 58.4121 84.0311 59.122 84.7037 59.6445C85.3763 60.1669 86.1889 60.4784 87.0387 60.5397C87.8886 60.6009 88.7376 60.409 89.4783 59.9884C90.219 59.5677 90.8182 58.9372 91.2001 58.1765C91.5819 57.4157 91.7293 56.5589 91.6236 55.7145C91.4818 54.5824 90.8956 53.5528 89.9938 52.8523C89.0919 52.1517 87.9484 51.8376 86.8147 51.9791Z" fill="#2A2B3A"/>
<path d="M86.4416 52.0256C85.5961 52.1311 84.8008 52.4846 84.1565 53.0414C83.5122 53.5983 83.0477 54.3334 82.8217 55.1539C82.5958 55.9744 82.6185 56.8434 82.8871 57.651C83.1557 58.4586 83.658 59.1685 84.3306 59.691C85.0032 60.2134 85.8158 60.525 86.6657 60.5862C87.5156 60.6474 88.3646 60.4556 89.1053 60.0349C89.846 59.6143 90.4451 58.9837 90.827 58.223C91.2088 57.4622 91.3562 56.6055 91.2505 55.7611C91.1088 54.6289 90.5225 53.5993 89.6207 52.8988C88.7188 52.1982 87.5753 51.8841 86.4416 52.0256Z" fill="white"/>
<path d="M87.4681 60.234C86.6988 60.3292 85.9186 60.1946 85.2259 59.8472C84.5333 59.4997 83.9593 58.955 83.5764 58.2819C83.1936 57.6087 83.0192 56.8374 83.0752 56.0653C83.1311 55.2932 83.415 54.555 83.8909 53.9439C84.3668 53.3329 85.0133 52.8764 85.7489 52.6322C86.4844 52.388 87.2759 52.3669 88.0234 52.5718C88.771 52.7766 89.4409 53.1981 89.9486 53.7831C90.4564 54.368 90.7791 55.0901 90.8761 55.8581C91.0039 56.8895 90.7169 57.9294 90.078 58.7497C89.4391 59.5701 88.5005 60.1039 87.4681 60.234ZM86.5238 52.6872C85.7995 52.7775 85.1183 53.0803 84.5663 53.5573C84.0143 54.0343 83.6163 54.6641 83.4227 55.3669C83.2291 56.0698 83.2485 56.8142 83.4786 57.506C83.7086 58.1979 84.1389 58.8061 84.7151 59.2537C85.2912 59.7013 85.9873 59.9682 86.7154 60.0207C87.4434 60.0732 88.1707 59.9089 88.8053 59.5486C89.4398 59.1882 89.9531 58.6481 90.2803 57.9964C90.6075 57.3448 90.7338 56.6109 90.6433 55.8875C90.5207 54.9181 90.0182 54.0369 89.246 53.437C88.4737 52.837 87.4948 52.5674 86.5238 52.6872Z" fill="#BBBBBB"/>
<path d="M95.4507 72.4628H74.2016C73.794 72.4628 73.4033 72.3011 73.1151 72.0133C72.8269 71.7255 72.665 71.3352 72.665 70.9282V56.7466C72.665 56.3396 72.8269 55.9493 73.1151 55.6615C73.4033 55.3737 73.794 55.2121 74.2016 55.2121H95.4507C95.8582 55.2121 96.2491 55.3737 96.5372 55.6615C96.8254 55.9493 96.9873 56.3396 96.9873 56.7466V70.9274C96.9873 71.3344 96.8254 71.7247 96.5372 72.0125C96.2491 72.3003 95.8582 72.4619 95.4507 72.4619" fill="#63637F"/>
<path d="M97.7092 66.1942H90.1622C89.5363 66.1942 88.936 65.9459 88.4934 65.5039C88.0508 65.0619 87.8022 64.4625 87.8022 63.8374C87.8022 63.2123 88.0508 62.6129 88.4934 62.1709C88.936 61.7289 89.5363 61.4806 90.1622 61.4806H97.7092V66.1942Z" fill="#52526C"/>
<path d="M92.0128 63.8374C92.0128 64.2027 91.9043 64.5598 91.701 64.8635C91.4978 65.1672 91.209 65.404 90.8711 65.5438C90.5332 65.6836 90.1613 65.7201 89.8026 65.6489C89.4438 65.5776 89.1143 65.4017 88.8557 65.1434C88.597 64.8851 88.4209 64.556 88.3495 64.1978C88.2782 63.8395 88.3147 63.4681 88.4547 63.1306C88.5947 62.7931 88.8317 62.5047 89.1359 62.3017C89.44 62.0988 89.7976 61.9905 90.1633 61.9905C90.6538 61.9905 91.1243 62.185 91.4711 62.5314C91.8179 62.8778 92.0128 63.3476 92.0128 63.8374Z" fill="#73739A"/>
</g>
<path d="M161.122 69.3766C160.002 69.3766 158.908 69.7082 157.977 70.3295C157.046 70.9508 156.32 71.8339 155.891 72.867C155.463 73.9002 155.351 75.0371 155.569 76.1339C155.788 77.2307 156.327 78.2382 157.119 79.029C157.911 79.8197 158.919 80.3582 160.018 80.5764C161.116 80.7946 162.254 80.6826 163.289 80.2547C164.323 79.8267 165.208 79.102 165.83 78.1722C166.452 77.2423 166.784 76.1491 166.784 75.0308C166.784 73.5312 166.187 72.093 165.126 71.0327C164.064 69.9723 162.624 69.3766 161.122 69.3766ZM164.421 73.5559L160.705 77.2669C160.655 77.3169 160.595 77.3565 160.53 77.3835C160.464 77.4105 160.394 77.4244 160.323 77.4243H160.054C159.911 77.4244 159.773 77.3678 159.672 77.2669L157.824 75.42C157.771 75.3705 157.729 75.3111 157.7 75.2452C157.671 75.1792 157.656 75.1082 157.655 75.0362C157.654 74.9642 157.667 74.8927 157.694 74.826C157.721 74.7593 157.762 74.6987 157.813 74.6478C157.864 74.5969 157.924 74.5567 157.991 74.5296C158.058 74.5025 158.129 74.4891 158.202 74.4902C158.274 74.4912 158.345 74.5066 158.411 74.5356C158.477 74.5646 158.536 74.6065 158.586 74.6588L159.685 75.7569C159.786 75.857 159.921 75.9137 160.063 75.9145C160.205 75.9152 160.342 75.86 160.443 75.7609L163.487 72.7899C163.588 72.6915 163.723 72.6364 163.864 72.6365H164.039C164.146 72.6364 164.25 72.6679 164.339 72.7271C164.428 72.7862 164.497 72.8703 164.538 72.9688C164.579 73.0672 164.589 73.1756 164.568 73.2801C164.548 73.3846 164.496 73.4806 164.421 73.5559Z" fill="#63637F"/>
<mask id="mask13_1_2318" style="mask-type:luminance" maskUnits="userSpaceOnUse" x="40" y="22" width="91" height="24">
<path d="M130.823 22.0649H40.9741V45.1795H130.823V22.0649Z" fill="white"/>
</mask>
<g mask="url(#mask13_1_2318)">
<path d="M51.8695 44.7773L51.3883 44.8368C51.3032 44.8435 51.2188 44.8172 51.1526 44.7633C51.0864 44.7094 51.0436 44.6321 51.0331 44.5475C51.0226 44.4628 51.0451 44.3774 51.0961 44.309C51.1471 44.2406 51.2225 44.1944 51.3067 44.1801C51.5926 44.1453 51.8834 44.1083 52.1791 44.0692C52.2606 44.0677 52.3397 44.0963 52.4015 44.1494C52.4632 44.2025 52.5032 44.2765 52.5138 44.3572C52.5245 44.4379 52.5049 44.5197 52.459 44.587C52.4131 44.6542 52.3439 44.7022 52.2648 44.7218L51.8646 44.774M53.1389 44.6003C53.0571 44.6026 52.9773 44.5747 52.9149 44.5218C52.8524 44.4689 52.8118 44.3949 52.8007 44.3139C52.7897 44.2329 52.809 44.1507 52.855 44.0831C52.901 44.0154 52.9704 43.9672 53.0498 43.9476C53.3363 43.9063 53.6268 43.8628 53.9215 43.8171C54.0047 43.8107 54.0873 43.836 54.1527 43.8878C54.2182 43.9396 54.2616 44.0142 54.2744 44.0966C54.2872 44.179 54.2684 44.2632 54.2217 44.3324C54.1751 44.4015 54.104 44.4506 54.0227 44.4697C53.7259 44.5154 53.4332 44.5592 53.1446 44.6011H53.1389M50.5086 44.9347H50.5012C50.2006 44.9665 49.9033 44.9959 49.6166 45.022C49.5311 45.0261 49.4474 44.9971 49.3828 44.941C49.3183 44.8849 49.2779 44.8061 49.2702 44.721C49.2625 44.6359 49.2881 44.5511 49.3415 44.4844C49.3949 44.4176 49.4721 44.3741 49.5569 44.3628C49.8396 44.3376 50.1336 44.309 50.431 44.2772C50.5168 44.2699 50.6021 44.2962 50.6688 44.3505C50.7355 44.4049 50.7785 44.483 50.7885 44.5684C50.7986 44.6538 50.775 44.7398 50.7228 44.8082C50.6705 44.8765 50.5937 44.9219 50.5086 44.9347ZM54.887 44.3318C54.8045 44.3362 54.7233 44.3096 54.6594 44.2573C54.5955 44.2049 54.5534 44.1307 54.5414 44.049C54.5295 43.9674 54.5485 43.8842 54.5947 43.8158C54.6409 43.7474 54.7111 43.6987 54.7914 43.6792C55.0779 43.6325 55.3679 43.584 55.6614 43.534C55.7049 43.5252 55.7497 43.5253 55.7932 43.5341C55.8367 43.543 55.8779 43.5604 55.9145 43.5855C55.9511 43.6106 55.9823 43.6427 56.0062 43.68C56.0302 43.7173 56.0464 43.7591 56.0539 43.8028C56.0614 43.8464 56.06 43.8912 56.0499 43.9343C56.0397 43.9775 56.021 44.0182 55.9949 44.054C55.9687 44.0898 55.9356 44.1199 55.8975 44.1427C55.8595 44.1655 55.8172 44.1804 55.7733 44.1866C55.4787 44.2372 55.187 44.2859 54.8984 44.3327H54.887M48.7482 45.0922H48.7286C48.4231 45.1134 48.1241 45.1305 47.839 45.1444C47.7942 45.1488 47.749 45.1441 47.706 45.1305C47.6631 45.1169 47.6234 45.0947 47.5893 45.0653C47.5553 45.0359 47.5276 44.9998 47.5079 44.9594C47.4882 44.9189 47.477 44.8748 47.475 44.8299C47.4729 44.785 47.48 44.7401 47.4959 44.698C47.5118 44.6559 47.5361 44.6175 47.5673 44.5851C47.5986 44.5527 47.6361 44.527 47.6776 44.5095C47.7191 44.4921 47.7638 44.4832 47.8088 44.4836C48.089 44.4705 48.3806 44.4534 48.6829 44.4322C48.7678 44.4281 48.8511 44.4568 48.9155 44.5123C48.9799 44.5678 49.0205 44.6458 49.0288 44.7304C49.0372 44.8149 49.0128 44.8994 48.9606 44.9664C48.9083 45.0335 48.8323 45.0779 48.7482 45.0905M56.6302 44.03C56.547 44.036 56.4646 44.0106 56.3995 43.9587C56.3343 43.9068 56.291 43.8323 56.2783 43.75C56.2657 43.6677 56.2845 43.5837 56.3311 43.5146C56.3777 43.4456 56.4486 43.3966 56.5297 43.3774C56.8162 43.3263 57.1053 43.2735 57.3972 43.2191C57.4401 43.2112 57.4842 43.2118 57.5269 43.2208C57.5695 43.2299 57.61 43.2473 57.646 43.272C57.6819 43.2967 57.7127 43.3282 57.7364 43.3648C57.7602 43.4013 57.7765 43.4422 57.7844 43.4851C57.7924 43.5279 57.7918 43.5719 57.7827 43.6145C57.7736 43.6571 57.7562 43.6976 57.7314 43.7335C57.7067 43.7694 57.6752 43.8001 57.6386 43.8238C57.602 43.8475 57.561 43.8638 57.5181 43.8717C57.2246 43.9261 56.9338 43.9792 56.6457 44.0308H56.6294M46.9822 45.168H46.9454C46.635 45.1729 46.3336 45.1721 46.0468 45.168C46.0021 45.169 45.9576 45.161 45.916 45.1443C45.8744 45.1276 45.8367 45.1027 45.805 45.0711C45.7733 45.0395 45.7484 45.0018 45.7317 44.9602C45.715 44.9187 45.7069 44.8743 45.7079 44.8296C45.7089 44.7848 45.719 44.7408 45.7375 44.7C45.756 44.6593 45.7826 44.6227 45.8156 44.5925C45.8486 44.5623 45.8875 44.5391 45.9297 44.5243C45.972 44.5095 46.0169 44.5034 46.0615 44.5064C46.3376 44.5121 46.6334 44.5129 46.9323 44.5064C47.0164 44.506 47.0975 44.5374 47.1593 44.5944C47.221 44.6515 47.2588 44.7298 47.2649 44.8135C47.271 44.8973 47.2451 44.9802 47.1923 45.0456C47.1395 45.111 47.0638 45.1538 46.9805 45.1656M58.3668 43.7061C58.2831 43.7138 58.1995 43.6894 58.1331 43.6379C58.0667 43.5864 58.0223 43.5116 58.009 43.4286C57.9957 43.3457 58.0145 43.2608 58.0615 43.1912C58.1086 43.1215 58.1803 43.0723 58.2623 43.0535L59.1282 42.8854C59.2148 42.8685 59.3047 42.8866 59.378 42.9358C59.4513 42.9849 59.502 43.0612 59.519 43.1477C59.5361 43.2343 59.5179 43.324 59.4687 43.3972C59.4194 43.4704 59.3431 43.5211 59.2564 43.5381L58.3865 43.707H58.366M60.1011 43.3651C60.0167 43.3744 59.932 43.351 59.8644 43.2998C59.7968 43.2486 59.7514 43.1735 59.7376 43.0898C59.7238 43.0062 59.7426 42.9205 59.7901 42.8503C59.8377 42.7801 59.9104 42.7308 59.9932 42.7125L60.8575 42.5355C60.901 42.5241 60.9463 42.5217 60.9908 42.5284C61.0352 42.5351 61.0779 42.5508 61.1161 42.5745C61.1543 42.5982 61.1873 42.6293 61.2131 42.6661C61.2388 42.7029 61.2568 42.7446 61.266 42.7886C61.2751 42.8325 61.2752 42.8779 61.2663 42.9219C61.2573 42.9659 61.2395 43.0076 61.2139 43.0445C61.1883 43.0814 61.1555 43.1128 61.1174 43.1366C61.0793 43.1605 61.0367 43.1763 60.9923 43.1832L60.1247 43.3611H60.1002M61.832 43.0021C61.7468 43.0134 61.6606 42.9913 61.5914 42.9405C61.5223 42.8896 61.4756 42.8139 61.4612 42.7293C61.4468 42.6448 61.4658 42.5579 61.5143 42.487C61.5627 42.4162 61.6368 42.3669 61.7209 42.3495L62.5843 42.1643C62.6688 42.1493 62.7559 42.1675 62.8271 42.2152C62.8984 42.2629 62.9485 42.3364 62.9666 42.4202C62.9848 42.5039 62.9698 42.5915 62.9247 42.6644C62.8796 42.7373 62.808 42.79 62.7248 42.8112L61.859 42.9972L61.832 43.0013M45.2128 45.1223C45.1905 45.1246 45.1681 45.1246 45.1458 45.1223C44.8256 45.0987 44.5218 45.0652 44.2432 45.0236C44.1625 45.0043 44.092 44.9555 44.0456 44.8867C43.9992 44.818 43.9803 44.7344 43.9926 44.6525C44.0049 44.5705 44.0476 44.4961 44.1121 44.444C44.1766 44.3919 44.2584 44.3659 44.3412 44.371C44.6034 44.4102 44.891 44.4412 45.1948 44.464C45.2764 44.4706 45.3526 44.507 45.4089 44.5662C45.4652 44.6255 45.4975 44.7035 45.4997 44.7851C45.502 44.8668 45.4739 44.9464 45.4209 45.0086C45.368 45.0709 45.2939 45.1114 45.2128 45.1223ZM63.5605 42.6301C63.4747 42.643 63.3873 42.6219 63.317 42.5712C63.2466 42.5205 63.199 42.4443 63.1843 42.3589C63.1695 42.2735 63.1888 42.1858 63.2381 42.1145C63.2874 42.0432 63.3626 41.994 63.4478 41.9775L64.3096 41.7858C64.3932 41.7717 64.479 41.7902 64.5495 41.8375C64.6199 41.8847 64.6695 41.957 64.6881 42.0397C64.7067 42.1223 64.6929 42.209 64.6495 42.2817C64.6062 42.3545 64.5365 42.408 64.4549 42.4311L63.5907 42.6236L63.5613 42.6285M65.2865 42.2418C65.1999 42.257 65.1107 42.2373 65.0386 42.1869C64.9665 42.1365 64.9175 42.0595 64.9022 41.973C64.8869 41.8864 64.9067 41.7974 64.9572 41.7254C65.0076 41.6534 65.0847 41.6044 65.1714 41.5892L66.0323 41.3917C66.0756 41.3794 66.1209 41.3759 66.1655 41.3816C66.2102 41.3872 66.2532 41.4019 66.292 41.4247C66.3307 41.4475 66.3645 41.4779 66.3911 41.5141C66.4177 41.5504 66.4367 41.5916 66.4468 41.6354C66.457 41.6791 66.4581 41.7245 66.4502 41.7688C66.4422 41.813 66.4253 41.8551 66.4005 41.8926C66.3757 41.9301 66.3435 41.9622 66.3059 41.9869C66.2683 42.0116 66.2261 42.0284 66.1818 42.0362L65.3192 42.2345L65.2873 42.2402M67.0101 41.8412C66.9235 41.8568 66.8341 41.8374 66.7618 41.7872C66.6895 41.737 66.6402 41.6602 66.6246 41.5737C66.609 41.4871 66.6284 41.3979 66.6787 41.3257C66.7289 41.2535 66.8058 41.2042 66.8925 41.1886L67.7518 40.9855C67.8356 40.9697 67.9222 40.9867 67.9937 41.033C68.0653 41.0793 68.1162 41.1514 68.136 41.2342C68.1557 41.317 68.1428 41.4042 68.0999 41.4778C68.0569 41.5513 67.9873 41.6055 67.9054 41.6291L67.0436 41.8323L67.0093 41.8388M43.4704 44.8434C43.427 44.8489 43.3829 44.8458 43.3406 44.8344C43.0323 44.7532 42.7337 44.6389 42.4502 44.4934C42.3758 44.4505 42.321 44.3805 42.2972 44.298C42.2735 44.2156 42.2827 44.1272 42.3229 44.0514C42.3631 43.9756 42.4312 43.9184 42.5129 43.8917C42.5945 43.865 42.6833 43.871 42.7606 43.9084C43.0013 44.0315 43.2546 44.1281 43.5162 44.1964C43.59 44.2168 43.6545 44.262 43.6987 44.3245C43.7429 44.3869 43.7641 44.4627 43.7587 44.539C43.7534 44.6153 43.7217 44.6874 43.6692 44.743C43.6166 44.7986 43.5464 44.8336 43.4704 44.8434ZM68.7296 41.4309C68.643 41.4467 68.5536 41.4275 68.4811 41.3774C68.4086 41.3274 68.3591 41.2507 68.3432 41.1641C68.3274 41.0776 68.3467 40.9883 68.3968 40.916C68.4469 40.8436 68.5237 40.7941 68.6104 40.7783L69.4689 40.5702C69.5525 40.5541 69.6392 40.5708 69.7109 40.6167C69.7826 40.6627 69.8338 40.7344 69.854 40.817C69.8742 40.8997 69.8617 40.9869 69.8192 41.0607C69.7767 41.1344 69.7074 41.189 69.6257 41.2131L68.7656 41.4219L68.7296 41.4285M70.445 41.01C70.3584 41.026 70.2689 41.0069 70.1963 40.9571C70.1237 40.9072 70.0739 40.8305 70.0579 40.744C70.0418 40.6575 70.0609 40.5681 70.1108 40.4956C70.1607 40.4231 70.2375 40.3733 70.3241 40.3573L71.1819 40.1444C71.2671 40.1228 71.3575 40.1358 71.4331 40.1808C71.5087 40.2257 71.5633 40.2987 71.585 40.3838C71.6067 40.469 71.5936 40.5592 71.5486 40.6347C71.5036 40.7102 71.4305 40.7648 71.3452 40.7864L70.4867 40.9994L70.4491 41.0067M72.1646 40.5792C72.0779 40.5954 71.9883 40.5766 71.9156 40.5269C71.8428 40.4772 71.7928 40.4006 71.7765 40.3141C71.7603 40.2276 71.7791 40.1381 71.8289 40.0654C71.8787 39.9928 71.9554 39.9428 72.042 39.9266L72.8981 39.7104C72.941 39.6972 72.9862 39.6929 73.0308 39.6977C73.0755 39.7025 73.1187 39.7163 73.1579 39.7383C73.197 39.7603 73.2313 39.79 73.2586 39.8256C73.2859 39.8612 73.3057 39.9019 73.3168 39.9454C73.3278 39.9888 73.33 40.0341 73.323 40.0784C73.316 40.1227 73.3001 40.1651 73.2763 40.2031C73.2524 40.2411 73.221 40.2739 73.1841 40.2994C73.1472 40.3249 73.1055 40.3427 73.0615 40.3516L72.2038 40.5686L72.1646 40.576M73.88 40.1403C73.7933 40.1568 73.7037 40.1382 73.6307 40.0886C73.5578 40.039 73.5076 39.9625 73.4911 39.876C73.4747 39.7895 73.4933 39.6999 73.5429 39.6271C73.5926 39.5543 73.6691 39.5041 73.7558 39.4877L74.611 39.2674C74.6542 39.2532 74.6999 39.248 74.7452 39.2522C74.7905 39.2563 74.8344 39.2697 74.8743 39.2916C74.9142 39.3134 74.9491 39.3432 74.977 39.3791C75.0049 39.415 75.025 39.4562 75.0362 39.5002C75.0475 39.5442 75.0495 39.5901 75.0423 39.6349C75.035 39.6797 75.0186 39.7226 74.994 39.7608C74.9695 39.7991 74.9373 39.8318 74.8995 39.8571C74.8618 39.8824 74.8192 39.8997 74.7744 39.9078L73.9175 40.1281C73.9041 40.1317 73.8905 40.1344 73.8767 40.1362M75.5864 39.6941C75.5034 39.7035 75.4199 39.6813 75.3526 39.6319C75.2853 39.5825 75.2391 39.5095 75.2233 39.4276C75.2075 39.3457 75.2233 39.2608 75.2674 39.19C75.3116 39.1191 75.3809 39.0676 75.4614 39.0455L76.3142 38.822C76.3982 38.8029 76.4863 38.8171 76.5599 38.8617C76.6336 38.9062 76.687 38.9777 76.7089 39.0608C76.7307 39.144 76.7193 39.2324 76.6771 39.3074C76.6348 39.3823 76.5651 39.4379 76.4825 39.4624L75.628 39.6859C75.6144 39.6896 75.6005 39.6923 75.5864 39.6941ZM41.9731 43.9615C41.9141 43.969 41.8542 43.9606 41.7996 43.937C41.745 43.9135 41.6977 43.8757 41.6627 43.8277C41.6431 43.8008 41.6243 43.773 41.6072 43.7461C41.4502 43.5033 41.317 43.2459 41.2093 42.9776C41.1804 42.8968 41.1841 42.808 41.2194 42.7298C41.2548 42.6516 41.3192 42.5902 41.3991 42.5584C41.4789 42.5267 41.5679 42.5272 41.6474 42.5597C41.727 42.5923 41.7907 42.6544 41.8253 42.7329C41.9174 42.9608 42.0312 43.1793 42.1651 43.3855C42.1757 43.4027 42.1871 43.419 42.1986 43.4353C42.2323 43.4818 42.2534 43.5362 42.2598 43.5933C42.2661 43.6503 42.2575 43.7081 42.2347 43.7608C42.212 43.8135 42.176 43.8594 42.1301 43.8941C42.0842 43.9287 42.0301 43.9508 41.9731 43.9582M77.2945 39.2422C77.2112 39.2523 77.1271 39.2306 77.0593 39.1814C76.9914 39.1321 76.9447 39.059 76.9287 38.9768C76.9126 38.8945 76.9284 38.8093 76.9728 38.7382C77.0171 38.6671 77.0868 38.6154 77.1679 38.5936L78.0223 38.366C78.1059 38.3472 78.1936 38.3614 78.2669 38.4058C78.3402 38.4501 78.3935 38.5211 78.4156 38.6038C78.4377 38.6865 78.4268 38.7745 78.3853 38.8494C78.3438 38.9243 78.2749 38.9803 78.193 39.0056L77.337 39.2332C77.3227 39.237 77.3082 39.2401 77.2936 39.2422M79.005 38.7853C78.9222 38.7948 78.8388 38.7729 78.7715 38.7238C78.7042 38.6748 78.6579 38.6022 78.6417 38.5205C78.6255 38.4389 78.6407 38.3541 78.6843 38.2832C78.7278 38.2122 78.7966 38.1602 78.8768 38.1376L79.7328 37.9067C79.8162 37.8881 79.9035 37.9023 79.9766 37.9464C80.0497 37.9905 80.1029 38.061 80.1253 38.1434C80.1476 38.2257 80.1372 38.3134 80.0964 38.3883C80.0555 38.4632 79.9873 38.5195 79.906 38.5455L79.0491 38.7763C79.0346 38.7803 79.0199 38.7833 79.005 38.7853ZM80.7147 38.3227C80.6318 38.3326 80.5481 38.3109 80.4805 38.2619C80.4129 38.213 80.3664 38.1403 80.3501 38.0585C80.3338 37.9767 80.349 37.8918 80.3926 37.8207C80.4363 37.7496 80.5052 37.6976 80.5856 37.675L81.4376 37.4425C81.4804 37.4282 81.5256 37.4228 81.5706 37.4266C81.6155 37.4304 81.6592 37.4433 81.699 37.4645C81.7388 37.4857 81.7738 37.5148 81.802 37.55C81.8301 37.5852 81.8507 37.6258 81.8626 37.6692C81.8745 37.7126 81.8774 37.7581 81.8712 37.8027C81.8649 37.8473 81.8496 37.8901 81.8262 37.9286C81.8028 37.9671 81.7718 38.0004 81.735 38.0265C81.6983 38.0526 81.6566 38.071 81.6125 38.0805L80.7596 38.3138C80.7446 38.3178 80.7293 38.3208 80.7139 38.3227M82.4195 37.8553C82.3371 37.8643 82.2544 37.8422 82.1876 37.7933C82.1207 37.7444 82.0746 37.6723 82.0583 37.5912C82.042 37.51 82.0567 37.4258 82.0995 37.3549C82.1423 37.2841 82.2102 37.2318 82.2896 37.2084L83.1416 36.9734C83.2262 36.95 83.3167 36.961 83.3931 37.0042C83.4696 37.0473 83.5257 37.119 83.5492 37.2035C83.5727 37.288 83.5617 37.3783 83.5185 37.4547C83.4753 37.531 83.4035 37.5871 83.3189 37.6106L82.4661 37.8463C82.4508 37.8505 82.4352 37.8535 82.4195 37.8553ZM84.1235 37.3829C84.041 37.3923 83.958 37.3704 83.8909 37.3216C83.8238 37.2728 83.7775 37.2006 83.7611 37.1194C83.7447 37.0381 83.7594 36.9536 83.8023 36.8827C83.8452 36.8117 83.9132 36.7594 83.9928 36.736L84.844 36.4978C84.8866 36.4837 84.9315 36.4784 84.9762 36.4822C85.0209 36.486 85.0644 36.4988 85.104 36.5198C85.1436 36.5408 85.1785 36.5697 85.2066 36.6046C85.2347 36.6395 85.2555 36.6797 85.2676 36.7228C85.2797 36.7659 85.2829 36.8111 85.277 36.8555C85.2712 36.8999 85.2564 36.9427 85.2335 36.9812C85.2106 37.0197 85.1802 37.0532 85.144 37.0796C85.1078 37.1061 85.0666 37.1249 85.0229 37.135L84.1709 37.3732C84.1553 37.3776 84.1395 37.3808 84.1235 37.3829ZM85.8258 36.9057C85.7432 36.9154 85.66 36.8937 85.5926 36.845C85.5253 36.7963 85.4787 36.7241 85.4621 36.6427C85.4456 36.5613 85.4603 36.4766 85.5033 36.4055C85.5463 36.3344 85.6145 36.282 85.6944 36.2588L86.5447 36.0181C86.6274 35.9997 86.714 36.0136 86.7867 36.0569C86.8595 36.1002 86.9129 36.1697 86.936 36.2511C86.9591 36.3325 86.9501 36.4197 86.9109 36.4947C86.8717 36.5697 86.8053 36.6268 86.7252 36.6544L85.874 36.8951C85.8582 36.8995 85.8421 36.9028 85.8258 36.9049M87.5266 36.4228C87.4438 36.4328 87.3603 36.4114 87.2927 36.3628C87.2251 36.3141 87.1782 36.2418 87.1616 36.1603C87.1449 36.0787 87.1595 35.9939 87.2026 35.9227C87.2458 35.8514 87.3142 35.799 87.3942 35.7758L88.2438 35.5311C88.3272 35.5102 88.4155 35.5225 88.49 35.5654C88.5645 35.6083 88.6194 35.6784 88.6431 35.761C88.6669 35.8435 88.6576 35.932 88.6172 36.0079C88.5768 36.0837 88.5086 36.1409 88.4268 36.1674L87.5764 36.4122C87.5603 36.4165 87.5439 36.4198 87.5274 36.422M41.3507 42.3242H41.3384C41.2951 42.3282 41.2513 42.3237 41.2097 42.3108C41.1682 42.298 41.1295 42.277 41.0961 42.2492C41.0626 42.2214 41.035 42.1872 41.0147 42.1487C40.9945 42.1102 40.9821 42.0681 40.9782 42.0248C40.9483 41.6995 40.9706 41.3715 41.0443 41.0532C41.068 40.972 41.1219 40.9029 41.195 40.8601C41.268 40.8173 41.3547 40.804 41.4372 40.823C41.5198 40.842 41.5919 40.8918 41.6388 40.9622C41.6858 41.0326 41.704 41.1183 41.6897 41.2017C41.6318 41.4515 41.6142 41.709 41.6374 41.9644C41.6453 42.0497 41.6197 42.1347 41.5661 42.2015C41.5124 42.2683 41.4349 42.3117 41.3498 42.3226M89.2265 35.9341C89.1443 35.9433 89.0616 35.9215 88.9947 35.8729C88.9278 35.8244 88.8814 35.7526 88.8647 35.6717C88.8481 35.5908 88.8623 35.5066 88.9045 35.4356C88.9468 35.3646 89.0142 35.312 89.0933 35.288L89.9429 35.0433C89.9854 35.0285 90.0305 35.0225 90.0754 35.0258C90.1204 35.029 90.1642 35.0413 90.2042 35.062C90.2442 35.0826 90.2796 35.1112 90.3081 35.146C90.3367 35.1808 90.3579 35.221 90.3704 35.2642C90.3829 35.3074 90.3864 35.3527 90.3808 35.3974C90.3752 35.442 90.3606 35.485 90.3377 35.5238C90.3149 35.5626 90.2844 35.5963 90.2481 35.623C90.2119 35.6496 90.1705 35.6686 90.1266 35.6788L89.2771 35.9235C89.2608 35.9283 89.2433 35.9319 89.2265 35.9341ZM90.9264 35.4446C90.844 35.4542 90.7612 35.4326 90.694 35.3841C90.6268 35.3356 90.5802 35.2638 90.5634 35.1828C90.5466 35.1018 90.5608 35.0174 90.6032 34.9463C90.6456 34.8751 90.7131 34.8224 90.7924 34.7985L91.6411 34.5538C91.6835 34.5397 91.7282 34.5343 91.7727 34.5378C91.8172 34.5414 91.8605 34.5539 91.9 34.5746C91.9395 34.5953 91.9745 34.6237 92.0027 34.6582C92.031 34.6927 92.052 34.7325 92.0645 34.7753C92.077 34.8181 92.0807 34.863 92.0754 34.9072C92.0701 34.9515 92.0559 34.9942 92.0337 35.0329C92.0115 35.0715 91.9817 35.1053 91.9461 35.1322C91.9105 35.1591 91.8698 35.1785 91.8265 35.1893L90.977 35.434C90.9604 35.4389 90.9435 35.4424 90.9264 35.4446ZM92.6238 34.9494C92.542 34.9582 92.4599 34.9363 92.3933 34.8879C92.3268 34.8395 92.2806 34.7682 92.2638 34.6878C92.247 34.6073 92.2608 34.5235 92.3024 34.4526C92.344 34.3817 92.4106 34.3288 92.4891 34.3042L93.3369 34.0554C93.4197 34.0354 93.5069 34.048 93.5806 34.0905C93.6543 34.1331 93.7088 34.2023 93.7328 34.2838C93.7569 34.3653 93.7486 34.453 93.7097 34.5286C93.6708 34.6042 93.6044 34.662 93.524 34.69L92.6753 34.9397C92.6584 34.9445 92.6412 34.9481 92.6238 34.9503M94.3205 34.4518C94.2385 34.4609 94.1561 34.4392 94.0894 34.3909C94.0226 34.3426 93.9762 34.2712 93.9593 34.1907C93.9424 34.1101 93.9561 34.0261 93.9978 33.9551C94.0395 33.8841 94.1062 33.8311 94.1849 33.8065L95.0327 33.5561C95.116 33.5343 95.2045 33.5457 95.2795 33.5879C95.3545 33.6301 95.4102 33.6998 95.4347 33.7822C95.4592 33.8646 95.4506 33.9534 95.4109 34.0296C95.3711 34.1058 95.3031 34.1636 95.2214 34.1908L94.3736 34.442C94.3565 34.4472 94.339 34.451 94.3213 34.4534M96.0171 33.9509C95.935 33.9603 95.8524 33.9389 95.7854 33.8906C95.7184 33.8424 95.6718 33.771 95.6548 33.6903C95.6377 33.6096 95.6514 33.5254 95.6931 33.4543C95.7349 33.3832 95.8018 33.3302 95.8807 33.3056L96.7277 33.0528C96.7701 33.0377 96.8152 33.0314 96.8601 33.0342C96.905 33.0371 96.9489 33.049 96.9891 33.0693C97.0292 33.0896 97.0647 33.1179 97.0936 33.1524C97.1225 33.1869 97.144 33.2269 97.1569 33.27C97.1697 33.313 97.1737 33.3583 97.1685 33.4029C97.1633 33.4476 97.1491 33.4907 97.1267 33.5297C97.1042 33.5687 97.0741 33.6027 97.0381 33.6297C97.0021 33.6566 96.961 33.676 96.9173 33.6866L96.0702 33.9395C96.0528 33.9448 96.0351 33.9486 96.0171 33.9509ZM41.7256 40.6478C41.6647 40.656 41.6026 40.647 41.5464 40.6219C41.4903 40.5969 41.4422 40.5566 41.4077 40.5058C41.3731 40.4549 41.3535 40.3955 41.3509 40.3341C41.3484 40.2727 41.363 40.2118 41.3932 40.1583C41.546 39.8829 41.7257 39.6232 41.9298 39.3833C41.9571 39.3478 41.9913 39.3183 42.0304 39.2964C42.0694 39.2746 42.1124 39.2608 42.1569 39.256C42.2014 39.2512 42.2464 39.2554 42.2892 39.2684C42.3321 39.2815 42.3718 39.303 42.4061 39.3318C42.4403 39.3605 42.4684 39.3959 42.4886 39.4358C42.5088 39.4756 42.5207 39.5192 42.5236 39.5638C42.5265 39.6084 42.5203 39.6531 42.5055 39.6953C42.4906 39.7375 42.4674 39.7762 42.4371 39.8091C42.2614 40.0158 42.1066 40.2394 41.9748 40.4764C41.9501 40.5219 41.915 40.5609 41.8725 40.5904C41.8299 40.6199 41.781 40.639 41.7297 40.6461M97.7153 33.4427C97.6332 33.4525 97.5504 33.4312 97.4831 33.383C97.4158 33.3349 97.369 33.2634 97.3518 33.1826C97.3346 33.1018 97.3483 33.0174 97.3902 32.9462C97.432 32.8749 97.4991 32.8218 97.5781 32.7974L98.4244 32.5429C98.4666 32.5285 98.5112 32.5228 98.5556 32.526C98.6001 32.5293 98.6434 32.5415 98.6831 32.5618C98.7227 32.5822 98.7578 32.6103 98.7863 32.6445C98.8148 32.6787 98.8361 32.7182 98.849 32.7608C98.8618 32.8035 98.866 32.8482 98.8611 32.8925C98.8562 32.9367 98.8425 32.9795 98.8207 33.0183C98.7989 33.0571 98.7695 33.0912 98.7343 33.1184C98.699 33.1456 98.6587 33.1654 98.6156 33.1767L97.7684 33.4313C97.7508 33.4365 97.7336 33.4403 97.7153 33.4427ZM99.4079 32.9328C99.3256 32.9429 99.2425 32.9219 99.175 32.8739C99.1075 32.8258 99.0604 32.7543 99.0431 32.6733C99.0258 32.5923 99.0394 32.5078 99.0814 32.4364C99.1234 32.365 99.1906 32.3119 99.2698 32.2875L100.116 32.0314C100.199 32.0105 100.286 32.0222 100.361 32.064C100.435 32.1059 100.49 32.1746 100.515 32.2561C100.54 32.3375 100.532 32.4254 100.494 32.5014C100.455 32.5775 100.389 32.6358 100.309 32.6644L99.4618 32.9206C99.4442 32.9259 99.4262 32.9297 99.4079 32.932M101.1 32.4181C101.019 32.4271 100.937 32.4055 100.87 32.3574C100.803 32.3094 100.757 32.2384 100.74 32.1581C100.723 32.0779 100.736 31.9941 100.777 31.9231C100.818 31.852 100.884 31.7987 100.962 31.7736L101.808 31.5158C101.891 31.4929 101.98 31.5032 102.056 31.5447C102.131 31.5862 102.188 31.6555 102.213 31.7379C102.238 31.8204 102.231 31.9094 102.191 31.9862C102.152 32.0629 102.084 32.1213 102.002 32.1489L101.156 32.4075C101.138 32.4127 101.12 32.4165 101.101 32.4189M102.792 31.9017C102.71 31.911 102.628 31.8896 102.561 31.8417C102.494 31.7937 102.448 31.7227 102.43 31.6423C102.413 31.5619 102.426 31.478 102.467 31.4068C102.509 31.3356 102.575 31.2823 102.653 31.2572L103.499 30.9978C103.541 30.9825 103.586 30.9759 103.631 30.9784C103.676 30.9809 103.719 30.9926 103.76 31.0126C103.8 31.0325 103.836 31.0605 103.865 31.0947C103.894 31.1289 103.916 31.1686 103.929 31.2115C103.942 31.2544 103.947 31.2995 103.942 31.3441C103.937 31.3887 103.923 31.4319 103.901 31.471C103.879 31.5102 103.85 31.5444 103.814 31.5718C103.778 31.5991 103.738 31.6189 103.694 31.63L102.849 31.8902C102.83 31.8958 102.812 31.8999 102.793 31.9025M42.8456 39.2944C42.7763 39.3022 42.7062 39.288 42.6455 39.2539C42.5847 39.2197 42.5363 39.1673 42.507 39.104C42.4778 39.0408 42.4693 38.9699 42.4827 38.9016C42.4961 38.8333 42.5308 38.7709 42.5817 38.7233C42.7965 38.53 43.0359 38.3366 43.2932 38.1465C43.328 38.1182 43.3682 38.0972 43.4114 38.0849C43.4546 38.0725 43.4998 38.0691 43.5444 38.0747C43.589 38.0803 43.6319 38.095 43.6706 38.1177C43.7094 38.1404 43.7431 38.1707 43.7697 38.2069C43.7964 38.243 43.8154 38.2841 43.8256 38.3278C43.8358 38.3715 43.8371 38.4168 43.8293 38.4609C43.8214 38.5051 43.8047 38.5472 43.7801 38.5848C43.7555 38.6223 43.7235 38.6544 43.6861 38.6793C43.4459 38.8563 43.2238 39.0357 43.0253 39.2144C42.9752 39.2594 42.9124 39.2879 42.8456 39.296M104.483 31.3828C104.401 31.3925 104.319 31.3713 104.251 31.3235C104.184 31.2756 104.137 31.2045 104.12 31.124C104.103 31.0435 104.116 30.9594 104.157 30.8881C104.198 30.8168 104.265 30.7634 104.343 30.7384L105.188 30.4773C105.23 30.4628 105.274 30.4569 105.319 30.4599C105.363 30.4629 105.406 30.4748 105.446 30.4948C105.486 30.5148 105.521 30.5426 105.55 30.5765C105.578 30.6104 105.6 30.6496 105.613 30.692C105.626 30.7344 105.631 30.779 105.626 30.8231C105.622 30.8672 105.609 30.9101 105.587 30.949C105.566 30.9879 105.537 31.0222 105.502 31.0498C105.468 31.0774 105.428 31.0977 105.385 31.1095L104.539 31.3714C104.521 31.377 104.502 31.3803 104.483 31.3828ZM106.173 30.8591C106.091 30.8691 106.008 30.8482 105.941 30.8004C105.874 30.7526 105.826 30.6814 105.809 30.6008C105.791 30.5201 105.805 30.4358 105.846 30.3644C105.887 30.293 105.954 30.2396 106.033 30.2146L106.877 29.9511C106.96 29.9299 107.047 29.9411 107.121 29.9824C107.196 30.0237 107.251 30.092 107.277 30.173C107.302 30.2541 107.295 30.3418 107.258 30.418C107.22 30.4942 107.155 30.5531 107.075 30.5825L106.23 30.846C106.212 30.8517 106.193 30.8558 106.173 30.8583M107.862 30.3305C107.78 30.3394 107.698 30.3179 107.632 30.2702C107.565 30.2224 107.519 30.1517 107.501 30.0718C107.484 29.9918 107.497 29.9083 107.537 29.8372C107.578 29.7661 107.643 29.7125 107.721 29.6868L108.565 29.4217C108.648 29.3986 108.736 29.4086 108.812 29.4495C108.888 29.4905 108.945 29.5592 108.97 29.6411C108.996 29.7231 108.989 29.8119 108.951 29.8887C108.912 29.9656 108.845 30.0245 108.764 30.0531L107.92 30.3182C107.901 30.3239 107.882 30.328 107.863 30.3305M44.2645 38.2436C44.1896 38.2531 44.1137 38.2368 44.0494 38.1974C43.985 38.1581 43.9361 38.098 43.9105 38.027C43.885 37.9561 43.8845 37.8786 43.909 37.8073C43.9336 37.7361 43.9817 37.6753 44.0455 37.635C44.2906 37.4817 44.5512 37.3283 44.824 37.1774C44.8622 37.1538 44.9048 37.1382 44.9492 37.1316C44.9937 37.1249 45.039 37.1274 45.0824 37.1388C45.1259 37.1501 45.1666 37.1702 45.202 37.1978C45.2375 37.2253 45.2669 37.2598 45.2887 37.299C45.3104 37.3383 45.3239 37.3816 45.3283 37.4262C45.3328 37.4709 45.3281 37.516 45.3146 37.5587C45.3011 37.6015 45.279 37.6411 45.2497 37.6751C45.2204 37.7091 45.1846 37.7369 45.1442 37.7566C44.882 37.901 44.6312 38.0486 44.3976 38.1955C44.357 38.221 44.3112 38.2375 44.2636 38.2436M109.553 29.8288C109.471 29.838 109.389 29.8168 109.322 29.7691C109.255 29.7214 109.209 29.6507 109.191 29.5706C109.174 29.4905 109.186 29.4068 109.227 29.3356C109.268 29.2644 109.333 29.2108 109.411 29.1851L110.255 28.9183C110.297 28.9029 110.342 28.8961 110.387 28.8984C110.431 28.9007 110.475 28.912 110.515 28.9317C110.556 28.9513 110.591 28.9789 110.621 29.0128C110.65 29.0467 110.672 29.0861 110.686 29.1287C110.699 29.1714 110.704 29.2163 110.7 29.2608C110.695 29.3053 110.682 29.3486 110.661 29.3878C110.639 29.4271 110.61 29.4616 110.575 29.4893C110.54 29.517 110.499 29.5373 110.456 29.5489L109.611 29.8165C109.593 29.8226 109.573 29.8269 109.553 29.8296M111.241 29.2944C111.159 29.304 111.077 29.283 111.01 29.2354C110.943 29.1878 110.896 29.117 110.878 29.0368C110.861 28.9566 110.873 28.8727 110.914 28.8014C110.955 28.73 111.021 28.6763 111.099 28.6508L111.942 28.3815C112.024 28.3607 112.111 28.3718 112.185 28.4127C112.259 28.4536 112.314 28.5211 112.34 28.6015C112.366 28.6819 112.36 28.7691 112.323 28.8453C112.287 28.9215 112.223 28.9808 112.144 29.0113L111.3 29.2805C111.281 29.2867 111.261 29.2911 111.241 29.2936M45.81 37.4156C45.7324 37.425 45.654 37.4068 45.5885 37.3642C45.5231 37.3215 45.4749 37.2571 45.4523 37.1824C45.4297 37.1077 45.4343 37.0275 45.4652 36.9558C45.4961 36.8841 45.5514 36.8257 45.6213 36.7907C45.8794 36.6626 46.153 36.5345 46.4332 36.4081C46.5128 36.3757 46.6018 36.3754 46.6815 36.4073C46.7613 36.4392 46.8255 36.5007 46.8608 36.5789C46.896 36.6571 46.8995 36.746 46.8705 36.8267C46.8415 36.9074 46.7822 36.9738 46.7052 37.0118C46.4324 37.1341 46.1669 37.2565 45.9153 37.3838C45.8825 37.4002 45.8464 37.4109 45.81 37.4156ZM112.925 28.7535C112.844 28.7625 112.763 28.7411 112.696 28.6936C112.63 28.6461 112.583 28.5758 112.565 28.4961C112.548 28.4165 112.56 28.333 112.6 28.2619C112.64 28.1908 112.705 28.1369 112.782 28.1107L113.626 27.839C113.668 27.8234 113.713 27.8164 113.758 27.8185C113.803 27.8205 113.846 27.8317 113.887 27.8512C113.927 27.8707 113.963 27.8981 113.993 27.9319C114.022 27.9657 114.044 28.0051 114.058 28.0477C114.072 28.0903 114.077 28.1352 114.073 28.1797C114.068 28.2243 114.055 28.2676 114.034 28.307C114.013 28.3463 113.984 28.381 113.948 28.4088C113.913 28.4366 113.873 28.457 113.83 28.4688L112.985 28.7405C112.966 28.7467 112.946 28.7511 112.925 28.7535ZM114.616 28.2078C114.534 28.2174 114.452 28.1964 114.385 28.1491C114.318 28.1018 114.271 28.0313 114.253 27.9514C114.235 27.8715 114.247 27.7878 114.288 27.7164C114.328 27.645 114.393 27.591 114.471 27.5649L115.271 27.3039C115.354 27.2788 115.443 27.2871 115.52 27.327C115.597 27.3669 115.655 27.4351 115.682 27.5172C115.709 27.5994 115.703 27.6888 115.665 27.7665C115.627 27.8441 115.56 27.9038 115.478 27.9329L114.676 28.1939C114.656 28.2004 114.636 28.2051 114.616 28.2078ZM47.4241 36.6879C47.3444 36.698 47.2637 36.6788 47.1971 36.6339C47.1305 36.5891 47.0825 36.5216 47.0619 36.4441C47.0414 36.3665 47.0497 36.2842 47.0853 36.2123C47.121 36.1404 47.1816 36.0839 47.2558 36.0532C47.5229 35.9431 47.8023 35.8321 48.0866 35.7269C48.1275 35.7097 48.1716 35.7009 48.216 35.7011C48.2605 35.7012 48.3044 35.7103 48.3453 35.7277C48.3862 35.7452 48.4231 35.7706 48.4539 35.8026C48.4848 35.8346 48.5088 35.8725 48.5247 35.9139C48.5406 35.9554 48.548 35.9996 48.5464 36.044C48.5448 36.0883 48.5343 36.1319 48.5156 36.1722C48.4968 36.2124 48.4701 36.2485 48.4371 36.2782C48.4041 36.308 48.3655 36.3307 48.3235 36.3453C48.0449 36.4513 47.7704 36.5607 47.5066 36.6716C47.4805 36.6827 47.453 36.6903 47.4249 36.6944M49.0782 36.0614C48.9973 36.0713 48.9155 36.0511 48.8485 36.0046C48.7815 35.9582 48.734 35.8887 48.7151 35.8094C48.6962 35.7302 48.7072 35.6467 48.746 35.5751C48.7848 35.5034 48.8487 35.4485 48.9255 35.421C49.1991 35.3239 49.4826 35.226 49.7693 35.1306C49.8511 35.1081 49.9384 35.1178 50.0133 35.1577C50.0882 35.1976 50.1449 35.2646 50.1718 35.3449C50.1987 35.4253 50.1937 35.5129 50.1579 35.5897C50.1221 35.6665 50.0582 35.7267 49.9793 35.7579C49.6966 35.8517 49.4172 35.948 49.1485 36.0442C49.126 36.0524 49.1027 36.0581 49.0791 36.0614M50.7594 35.5009C50.6773 35.5109 50.5945 35.49 50.5271 35.4422C50.4597 35.3945 50.4127 35.3233 50.3951 35.2426C50.3775 35.162 50.3907 35.0777 50.4321 35.0063C50.4735 34.9348 50.5401 34.8814 50.6189 34.8565C50.8958 34.77 51.1825 34.6827 51.4717 34.597C51.5547 34.5763 51.6425 34.5883 51.7167 34.6307C51.791 34.6731 51.8461 34.7425 51.8703 34.8244C51.8946 34.9064 51.8862 34.9945 51.8469 35.0704C51.8076 35.1463 51.7405 35.2041 51.6595 35.2317C51.3744 35.3133 51.0877 35.4022 50.8173 35.4879C50.7987 35.4936 50.7796 35.4978 50.7602 35.5001M52.4584 34.9984C52.3759 35.0077 52.293 34.9858 52.2259 34.937C52.1588 34.8882 52.1124 34.8161 52.096 34.7348C52.0796 34.6535 52.0943 34.5691 52.1372 34.4981C52.1801 34.4271 52.2481 34.3748 52.3278 34.3515C52.6104 34.2699 52.8995 34.194 53.1871 34.1182C53.2702 34.1009 53.3568 34.1161 53.4291 34.1607C53.5013 34.2053 53.5537 34.2759 53.5754 34.3579C53.597 34.4399 53.5864 34.5271 53.5456 34.6015C53.5048 34.6758 53.437 34.7318 53.3562 34.7577C53.0711 34.8328 52.7844 34.9111 52.5058 34.9886C52.4903 34.9931 52.4744 34.9963 52.4584 34.9984ZM54.1739 34.5456C54.0872 34.5619 53.9976 34.5431 53.9249 34.4933C53.8521 34.4436 53.8021 34.3671 53.7858 34.2805C53.7696 34.194 53.7885 34.1045 53.8382 34.0319C53.888 33.9592 53.9647 33.9092 54.0513 33.893C54.3356 33.822 54.6231 33.7511 54.9164 33.6825C54.9999 33.6674 55.0861 33.6848 55.1572 33.7312C55.2283 33.7776 55.2788 33.8495 55.2984 33.932C55.318 34.0145 55.3051 34.1014 55.2624 34.1748C55.2198 34.2481 55.1506 34.3023 55.0691 34.3262C54.7824 34.3939 54.4973 34.4641 54.2122 34.535C54.1996 34.5382 54.1868 34.5407 54.1739 34.5424M55.8991 34.1345C55.8124 34.1496 55.7233 34.1298 55.6513 34.0793C55.5793 34.0288 55.5303 33.9518 55.5152 33.8653C55.5 33.7787 55.5199 33.6897 55.5704 33.6178C55.621 33.5459 55.6981 33.497 55.7847 33.4819C56.0747 33.4166 56.368 33.353 56.6555 33.2926C56.6988 33.2817 56.7439 33.2797 56.788 33.2866C56.8321 33.2935 56.8743 33.3093 56.9122 33.3329C56.9501 33.3565 56.9828 33.3875 57.0083 33.4241C57.0339 33.4606 57.0518 33.502 57.061 33.5456C57.0702 33.5893 57.0705 33.6343 57.0618 33.678C57.0531 33.7218 57.0357 33.7633 57.0106 33.8002C56.9855 33.837 56.9532 33.8685 56.9156 33.8925C56.878 33.9166 56.836 33.9329 56.7919 33.9403C56.5068 33.9999 56.2201 34.0635 55.9293 34.128L55.8991 34.1337M57.6357 33.7682C57.5491 33.7821 57.4604 33.7612 57.3893 33.7098C57.3181 33.6585 57.2703 33.581 57.2563 33.4945C57.2423 33.408 57.2634 33.3194 57.3148 33.2483C57.3662 33.1773 57.4437 33.1295 57.5304 33.1156C58.0834 33.0071 58.4028 32.9524 58.4158 32.9524C58.4588 32.9451 58.5027 32.9463 58.5451 32.956C58.5876 32.9657 58.6277 32.9836 58.6632 33.0088C58.6987 33.0339 58.7288 33.0658 58.752 33.1026C58.7752 33.1394 58.7909 33.1804 58.7982 33.2232C58.8054 33.2661 58.8042 33.31 58.7945 33.3523C58.7849 33.3947 58.7669 33.4348 58.7417 33.4702C58.7165 33.5057 58.6846 33.5358 58.6478 33.559C58.6109 33.5821 58.5699 33.5978 58.527 33.605C58.527 33.605 58.2002 33.6605 57.6578 33.7682H57.6357Z" fill="#63637F"/>
<path d="M119.277 32.6603L130.824 24.0219L119.551 26.1429L120.673 27.9467L118.66 30.8419L119.277 32.6603Z" fill="#363647"/>
<path d="M130.824 24.0228L118.081 28.0789L109.422 35.8844L130.824 24.0228Z" fill="white"/>
<path d="M119.552 26.1446L130.825 24.0236L118.499 22.0657L119.552 26.1446Z" fill="white"/>
</g>
<mask id="mask14_1_2318" style="mask-type:luminance" maskUnits="userSpaceOnUse" x="70" y="83" width="32" height="8">
<path d="M101.029 83.0011H70.3247V90.53H101.029V83.0011Z" fill="white"/>
</mask>
<g mask="url(#mask14_1_2318)">
<path d="M97.3165 85.7642C97.179 85.6967 97.0268 85.665 96.8738 85.672H96.168V86.5955H96.8738C97.0273 86.6027 97.1801 86.5692 97.3165 86.4984C97.3747 86.4573 97.4206 86.4013 97.4494 86.3362C97.4782 86.2711 97.4887 86.1994 97.4798 86.1288C97.4891 86.0589 97.4788 85.9878 97.4499 85.9234C97.4211 85.859 97.3749 85.8039 97.3165 85.7642Z" fill="#63637F"/>
<path d="M80.3853 87.1975H81.4562L80.9211 85.8107L80.3853 87.1975Z" fill="#63637F"/>
<path d="M78.1324 85.7642C77.995 85.6967 77.8427 85.665 77.6897 85.672H76.9839V86.5955H77.6897C77.8432 86.6027 77.996 86.5692 78.1324 86.4984C78.1907 86.4574 78.2367 86.4014 78.2655 86.3363C78.2943 86.2712 78.3048 86.1994 78.2958 86.1288C78.3051 86.0589 78.2948 85.9878 78.2659 85.9234C78.2371 85.859 78.1908 85.8038 78.1324 85.7642Z" fill="#63637F"/>
<path d="M99.7401 83.0011H71.6145C71.2724 83.0011 70.9444 83.1368 70.7025 83.3784C70.4606 83.6199 70.3247 83.9476 70.3247 84.2892V89.2419C70.3247 89.5835 70.4606 89.9111 70.7025 90.1527C70.9444 90.3943 71.2724 90.53 71.6145 90.53H99.7401C100.082 90.53 100.41 90.3943 100.652 90.1527C100.894 89.9111 101.03 89.5835 101.03 89.2419V84.2892C101.03 83.9476 100.894 83.6199 100.652 83.3784C100.41 83.1368 100.082 83.0011 99.7401 83.0011ZM75.8402 85.5423C75.8398 85.577 75.8258 85.6101 75.8012 85.6347C75.7766 85.6592 75.7434 85.6732 75.7087 85.6736H74.8346V88.3363C74.8342 88.371 74.8202 88.4042 74.7956 88.4288C74.7711 88.4533 74.7379 88.4673 74.7031 88.4677H74.3094C74.2746 88.4673 74.2414 88.4533 74.2168 88.4288C74.1923 88.4042 74.1783 88.371 74.1779 88.3363V85.6736H73.3022C73.2674 85.6732 73.2342 85.6592 73.2097 85.6347C73.1851 85.6101 73.1711 85.577 73.1707 85.5423V85.1972C73.1711 85.1625 73.1851 85.1293 73.2097 85.1048C73.2342 85.0803 73.2674 85.0663 73.3022 85.0659H75.7111C75.7459 85.0663 75.7791 85.0803 75.8037 85.1048C75.8282 85.1293 75.8422 85.1625 75.8427 85.1972L75.8402 85.5423ZM78.9663 88.4359C78.9566 88.446 78.945 88.4541 78.932 88.4595C78.9191 88.465 78.9052 88.4678 78.8912 88.4677H78.4778C78.452 88.4698 78.426 88.4668 78.4013 88.4588C78.3766 88.4509 78.3538 88.4381 78.3341 88.4212C78.3082 88.3976 78.2861 88.3701 78.2687 88.3396L77.6316 87.2073H76.9846V88.3396C76.9842 88.3743 76.9702 88.4075 76.9456 88.432C76.921 88.4565 76.8879 88.4705 76.8531 88.4709H76.4594C76.4246 88.4705 76.3914 88.4565 76.3669 88.432C76.3423 88.4075 76.3283 88.3743 76.3279 88.3396V85.2005C76.3283 85.1658 76.3423 85.1326 76.3669 85.108C76.3914 85.0835 76.4246 85.0695 76.4594 85.0691H77.7149C78.0475 85.0457 78.3769 85.1462 78.6396 85.3514C78.7465 85.4507 78.8302 85.5722 78.8849 85.7074C78.9395 85.8426 78.9637 85.9881 78.9557 86.1337C78.962 86.3471 78.9052 86.5577 78.7923 86.739C78.6768 86.9114 78.5086 87.0418 78.3128 87.111L78.9843 88.311C78.9934 88.3276 78.9984 88.346 78.999 88.3649C78.999 88.3789 78.9962 88.3928 78.9908 88.4057C78.9853 88.4186 78.9772 88.4303 78.9671 88.44M82.5312 88.4326C82.5192 88.4451 82.5049 88.455 82.489 88.4617C82.4731 88.4685 82.4561 88.4719 82.4388 88.4718H82.0884C82.064 88.4743 82.0394 88.472 82.016 88.4648C81.9925 88.4577 81.9708 88.4459 81.952 88.4302C81.929 88.4068 81.911 88.3791 81.8989 88.3486L81.6898 87.8093H80.1524L79.9433 88.3486C79.9312 88.3791 79.9132 88.4068 79.8902 88.4302C79.8714 88.4459 79.8497 88.4577 79.8262 88.4648C79.8028 88.472 79.7782 88.4743 79.7538 88.4718H79.4034C79.3686 88.4714 79.3354 88.4574 79.3108 88.4328C79.2863 88.4083 79.2723 88.3751 79.2719 88.3404C79.2716 88.3288 79.2732 88.3172 79.2767 88.3062L80.4694 85.2347C80.4833 85.1892 80.5064 85.147 80.5372 85.1107C80.5527 85.0961 80.5711 85.0848 80.5912 85.0776C80.6113 85.0705 80.6327 85.0675 80.654 85.0691H81.189C81.2103 85.0675 81.2317 85.0705 81.2518 85.0776C81.2719 85.0848 81.2903 85.0961 81.3059 85.1107C81.3366 85.1471 81.3597 85.1892 81.3737 85.2347L82.5655 88.3062C82.5689 88.3173 82.5705 88.3288 82.5703 88.3404C82.5704 88.3576 82.567 88.3747 82.5603 88.3906C82.5535 88.4064 82.5436 88.4207 82.5312 88.4326ZM85.6941 88.3404C85.6936 88.3751 85.6797 88.4083 85.6551 88.4328C85.6305 88.4574 85.5973 88.4714 85.5625 88.4718H85.2219C85.1989 88.4733 85.1758 88.4702 85.1541 88.4627C85.1323 88.4551 85.1123 88.4432 85.0953 88.4277C85.0729 88.4063 85.0516 88.3836 85.0316 88.36L83.6691 86.3385V88.3404C83.6686 88.3751 83.6546 88.4083 83.6301 88.4328C83.6055 88.4574 83.5723 88.4714 83.5375 88.4718H83.143C83.1082 88.4714 83.075 88.4574 83.0505 88.4328C83.0259 88.4083 83.0119 88.3751 83.0115 88.3404V85.2013C83.0119 85.1665 83.0259 85.1334 83.0505 85.1088C83.075 85.0843 83.1082 85.0703 83.143 85.0699H83.4836C83.5066 85.0684 83.5296 85.0715 83.5514 85.0791C83.5731 85.0866 83.5932 85.0985 83.6102 85.114C83.6396 85.1433 83.6601 85.1662 83.6739 85.1817L85.0365 87.2032V85.2013C85.0369 85.1665 85.0509 85.1334 85.0755 85.1088C85.1001 85.0843 85.1332 85.0703 85.168 85.0699H85.5617C85.5964 85.0703 85.6297 85.0843 85.6542 85.1088C85.6788 85.1334 85.6928 85.1665 85.6932 85.2013L85.6941 88.3404ZM88.9542 87.9105C88.8874 88.0372 88.7924 88.1469 88.6765 88.2311C88.5425 88.327 88.3926 88.3985 88.2337 88.4424C88.0423 88.4977 87.844 88.5252 87.6448 88.524C87.4692 88.5248 87.2943 88.5029 87.1244 88.4587C86.9685 88.4193 86.8199 88.3554 86.6841 88.2695C86.5617 88.1923 86.4565 88.0906 86.3753 87.9709C86.2977 87.8551 86.2523 87.7208 86.2438 87.5817C86.2417 87.5642 86.2439 87.5463 86.2503 87.5298C86.2567 87.5133 86.2671 87.4986 86.2805 87.4871C86.3064 87.4633 86.3402 87.4502 86.3753 87.4504H86.716C86.7601 87.4477 86.8041 87.4579 86.8426 87.4798C86.8742 87.5019 86.8992 87.532 86.9153 87.5671C86.9391 87.6113 86.9664 87.6536 86.997 87.6935C87.0331 87.7389 87.0778 87.7769 87.1285 87.8053C87.1932 87.842 87.2628 87.8694 87.3351 87.8868C87.4364 87.91 87.5401 87.9207 87.6439 87.9186C87.7386 87.9189 87.8331 87.9115 87.9265 87.8966C88.0093 87.8847 88.0897 87.8602 88.1651 87.824C88.2276 87.7935 88.2832 87.7504 88.3284 87.6976C88.3716 87.645 88.3942 87.5787 88.3922 87.5107C88.3934 87.4786 88.388 87.4465 88.3763 87.4165C88.3647 87.3865 88.347 87.3591 88.3244 87.3362C88.2648 87.2827 88.1943 87.2428 88.1177 87.2195C88.0053 87.1818 87.8908 87.151 87.7746 87.1273C87.6385 87.098 87.4811 87.0607 87.3025 87.0156C87.1568 86.982 87.0144 86.9356 86.8769 86.8769C86.7654 86.83 86.6633 86.7634 86.5755 86.6803C86.4964 86.6031 86.4359 86.5091 86.3982 86.4054C86.3565 86.2842 86.3366 86.1566 86.3394 86.0285C86.3379 85.8879 86.3713 85.7492 86.4366 85.6247C86.5019 85.5012 86.5933 85.3935 86.7045 85.309C86.8276 85.2168 86.9658 85.147 87.113 85.1026C87.2774 85.0511 87.4488 85.0255 87.6211 85.0267C87.8152 85.0234 88.0085 85.0529 88.1928 85.114C88.3418 85.1635 88.4815 85.2374 88.6062 85.3326C88.7086 85.4108 88.794 85.5091 88.857 85.6214C88.9094 85.7131 88.9417 85.8149 88.9517 85.92C88.9539 85.9376 88.9516 85.9554 88.9452 85.9719C88.9388 85.9884 88.9284 86.0031 88.915 86.0146C88.8891 86.0383 88.8553 86.0514 88.8202 86.0513H88.4796C88.4358 86.0545 88.3922 86.0433 88.3554 86.0195C88.3258 85.9969 88.3003 85.9693 88.2802 85.9379C88.2249 85.8504 88.1489 85.7779 88.0589 85.7267C87.9226 85.6584 87.7707 85.6274 87.6186 85.6369C87.5375 85.6366 87.4566 85.6456 87.3776 85.6638C87.3073 85.6805 87.2401 85.708 87.1783 85.7454C87.1248 85.7761 87.079 85.8185 87.0443 85.8694C87.0121 85.9177 86.995 85.9745 86.9953 86.0326C86.9926 86.0965 87.0088 86.1597 87.0419 86.2145C87.0816 86.2686 87.1356 86.3107 87.1979 86.336C87.291 86.3768 87.3879 86.4085 87.4871 86.4307C87.6069 86.46 87.7561 86.494 87.9347 86.5326C88.1066 86.568 88.2752 86.6176 88.4387 86.6811C88.5648 86.7288 88.6816 86.7978 88.7842 86.8851C88.8706 86.9605 88.9387 87.0545 88.9836 87.16C89.029 87.2727 89.0512 87.3934 89.0489 87.5148C89.0503 87.6567 89.0169 87.7967 88.9517 87.9227M91.9447 85.557C91.9443 85.5917 91.9303 85.6248 91.9057 85.6494C91.8812 85.6739 91.8479 85.6879 91.8132 85.6883H90.2612V86.6313H91.716C91.7508 86.6317 91.7839 86.6457 91.8085 86.6703C91.8331 86.6948 91.8471 86.728 91.8475 86.7627V87.1078C91.8471 87.1425 91.8331 87.1757 91.8085 87.2002C91.7839 87.2247 91.7508 87.2387 91.716 87.2391H90.2612V88.3518C90.2608 88.3865 90.2468 88.4197 90.2222 88.4442C90.1976 88.4688 90.1644 88.4828 90.1297 88.4832H89.7351C89.7003 88.4828 89.6672 88.4688 89.6426 88.4442C89.618 88.4197 89.604 88.3865 89.6036 88.3518V85.2127C89.604 85.178 89.618 85.1448 89.6426 85.1203C89.6672 85.0957 89.7003 85.0818 89.7351 85.0814H91.8132C91.8479 85.0818 91.8812 85.0957 91.9057 85.1203C91.9303 85.1448 91.9443 85.178 91.9447 85.2127V85.557ZM94.9083 88.351C94.9079 88.3857 94.8939 88.4189 94.8693 88.4434C94.8447 88.468 94.8115 88.482 94.7768 88.4824H92.6423C92.6076 88.482 92.5744 88.468 92.5498 88.4434C92.5252 88.4189 92.5112 88.3857 92.5108 88.351V85.2119C92.5112 85.1772 92.5252 85.144 92.5498 85.1194C92.5744 85.0949 92.6076 85.0809 92.6423 85.0805H94.7392C94.774 85.0809 94.8072 85.0949 94.8318 85.1194C94.8563 85.144 94.8703 85.1772 94.8708 85.2119V85.557C94.8703 85.5917 94.8563 85.6248 94.8318 85.6494C94.8072 85.6739 94.774 85.6879 94.7392 85.6883H93.1676V86.4608H94.6322C94.6669 86.4613 94.7002 86.4752 94.7247 86.4998C94.7493 86.5243 94.7633 86.5575 94.7637 86.5922V86.9372C94.7633 86.9719 94.7493 87.0051 94.7247 87.0297C94.7002 87.0542 94.6669 87.0682 94.6322 87.0686H93.1676V87.8754H94.7784C94.8132 87.8758 94.8464 87.8898 94.871 87.9144C94.8955 87.9389 94.9095 87.9721 94.91 88.0068L94.9083 88.351ZM98.1513 88.4506C98.1416 88.4607 98.1299 88.4687 98.117 88.4742C98.1041 88.4797 98.0902 88.4825 98.0761 88.4824H97.6628C97.6369 88.4846 97.6109 88.4816 97.5862 88.4736C97.5615 88.4656 97.5387 88.4528 97.519 88.4359C97.4931 88.4123 97.4711 88.3847 97.4537 88.3543L96.8165 87.222H96.1696V88.3543C96.1691 88.389 96.1551 88.4221 96.1306 88.4467C96.106 88.4712 96.0728 88.4852 96.038 88.4856H95.6435C95.6088 88.4852 95.5755 88.4712 95.551 88.4467C95.5264 88.4221 95.5124 88.389 95.512 88.3543V85.2151C95.5124 85.1804 95.5264 85.1473 95.551 85.1227C95.5755 85.0982 95.6088 85.0842 95.6435 85.0838H96.899C97.2316 85.0603 97.5611 85.1609 97.8237 85.3661C97.9306 85.4654 98.0144 85.5869 98.069 85.7221C98.1236 85.8573 98.1478 86.0028 98.1398 86.1484C98.1462 86.3618 98.0894 86.5724 97.9765 86.7537C97.861 86.9261 97.6928 87.0565 97.497 87.1257L98.1685 88.3257C98.1775 88.3423 98.1825 88.3607 98.1832 88.3796C98.1833 88.3936 98.1805 88.4075 98.175 88.4204C98.1695 88.4333 98.1615 88.445 98.1513 88.4546" fill="#63637F"/>
</g>
<mask id="mask15_1_2318" style="mask-type:luminance" maskUnits="userSpaceOnUse" x="19" y="72" width="8" height="9">
<path d="M26.294 72.4628H19.8931V80.8523H26.294V72.4628Z" fill="white"/>
</mask>
<g mask="url(#mask15_1_2318)">
<path d="M23.0937 72.4595C22.7792 72.4589 22.4676 72.5201 22.1768 72.6397C21.886 72.7593 21.6216 72.935 21.3987 73.1566C21.1759 73.3783 20.9989 73.6416 20.8779 73.9316C20.757 74.2215 20.6944 74.5324 20.6938 74.8465V75.2544C20.4819 75.2551 20.2788 75.3394 20.129 75.4891C19.9791 75.6387 19.8947 75.8415 19.894 76.0531V80.0504C19.8949 80.262 19.9794 80.4646 20.1292 80.6142C20.279 80.7638 20.4819 80.8482 20.6938 80.8491H25.4945C25.7063 80.8482 25.9092 80.7638 26.059 80.6142C26.2088 80.4646 26.2933 80.262 26.2942 80.0504V76.0531C26.2935 75.8415 26.2091 75.6387 26.0593 75.4891C25.9094 75.3394 25.7064 75.2551 25.4945 75.2544V74.8547C25.4951 74.5406 25.4338 74.2294 25.3141 73.939C25.1943 73.6485 25.0184 73.3845 24.7965 73.1619C24.5745 72.9394 24.3108 72.7626 24.0205 72.6418C23.7302 72.521 23.4188 72.4585 23.1043 72.4579H23.0937M23.0937 73.2565C23.2995 73.2521 23.5041 73.2882 23.6959 73.3628C23.8877 73.4373 24.0629 73.5489 24.2115 73.6911C24.3601 73.8333 24.4792 74.0033 24.562 74.1915C24.6448 74.3797 24.6896 74.5823 24.6939 74.7878C24.6939 74.8101 24.6939 74.8324 24.6939 74.8547V75.2544H21.4935V74.8547C21.4858 74.4404 21.643 74.04 21.9306 73.7413C22.2182 73.4426 22.6127 73.27 23.0275 73.2614H23.0945M23.0945 77.2588C23.2527 77.2588 23.4072 77.3056 23.5387 77.3934C23.6702 77.4811 23.7727 77.6058 23.8333 77.7517C23.8938 77.8975 23.9097 78.0581 23.8789 78.213C23.8481 78.3679 23.7721 78.5102 23.6603 78.6219C23.5485 78.7336 23.4061 78.8098 23.251 78.8407C23.096 78.8716 22.9352 78.8559 22.7891 78.7956C22.6429 78.7353 22.518 78.633 22.43 78.5018C22.342 78.3705 22.295 78.2162 22.2948 78.0583C22.2947 77.9533 22.3153 77.8494 22.3555 77.7524C22.3956 77.6554 22.4545 77.5673 22.5288 77.493C22.603 77.4188 22.6912 77.3599 22.7883 77.3197C22.8854 77.2795 22.9894 77.2588 23.0945 77.2588Z" fill="#63637F"/>
</g>
<mask id="mask16_1_2318" style="mask-type:luminance" maskUnits="userSpaceOnUse" x="119" y="56" width="8" height="10">
<path d="M126.282 56.8012H119.362V65.3099H126.282V56.8012Z" fill="white"/>
</mask>
<g mask="url(#mask16_1_2318)">
<path d="M122.817 56.8012C122.758 56.8014 122.7 56.8116 122.644 56.8314L119.521 57.9972C119.475 58.0137 119.434 58.0441 119.405 58.0843C119.376 58.1246 119.359 58.1727 119.358 58.2223V59.4362C119.353 60.617 119.659 61.7783 120.245 62.8038C120.831 63.8293 121.677 64.6829 122.697 65.2789C122.734 65.3006 122.776 65.3117 122.818 65.3107C122.861 65.3127 122.903 65.3016 122.939 65.2789C123.96 64.6828 124.806 63.8292 125.392 62.8038C125.978 61.7783 126.284 60.617 126.279 59.4362V58.2223C126.279 58.1723 126.263 58.1234 126.234 58.0829C126.205 58.0424 126.163 58.0123 126.115 57.9972L122.977 56.8314C122.925 56.8117 122.869 56.8014 122.813 56.8012M122.813 57.3233C122.872 57.3235 122.93 57.3337 122.985 57.3535L125.793 58.3904V59.4354C126.124 59.9657 126.306 60.5746 126.322 61.1989C126.337 61.8233 126.185 62.4405 125.881 62.9865C125.578 63.5324 125.133 63.9873 124.594 64.304C124.055 64.6208 123.441 64.7878 122.816 64.7878C122.191 64.7878 121.577 64.6208 121.038 64.304C120.499 63.9873 120.054 63.5324 119.75 62.9865C119.447 62.4405 119.295 61.8233 119.31 61.1989C119.326 60.5746 119.508 59.9657 119.838 59.4354V58.3904L122.647 57.3535C122.699 57.3337 122.754 57.3235 122.81 57.3233M123.075 58.1758C123.041 58.1722 123.008 58.1758 122.976 58.1862C122.944 58.1965 122.915 58.2135 122.89 58.2361C122.865 58.2586 122.846 58.286 122.832 58.3167C122.819 58.3474 122.812 58.3806 122.813 58.414V63.4132C122.814 63.4593 122.828 63.5041 122.854 63.5423C122.88 63.5804 122.916 63.6102 122.959 63.6281C123.001 63.646 123.048 63.6512 123.093 63.643C123.139 63.6348 123.181 63.6136 123.215 63.5821C123.8 63.0617 124.268 62.4228 124.587 61.7078C124.906 60.9929 125.069 60.2182 125.066 59.4354V59.0658C125.066 59.0158 125.05 58.9669 125.021 58.9264C124.992 58.8859 124.95 58.8558 124.902 58.8407L123.132 58.1881C123.113 58.1811 123.093 58.1765 123.072 58.1742" fill="#63637F"/>
</g>
<mask id="mask17_1_2318" style="mask-type:luminance" maskUnits="userSpaceOnUse" x="150" y="37" width="22" height="22">
<path d="M171.517 37.9173H150.729V58.6775H171.517V37.9173Z" fill="white"/>
</mask>
<g mask="url(#mask17_1_2318)">
<path d="M160.034 39.5954C158.287 39.8134 156.643 40.544 155.311 41.6949C153.98 42.8457 153.02 44.3651 152.553 46.0608C152.086 47.7566 152.133 49.5526 152.688 51.2216C153.243 52.8907 154.281 54.3579 155.671 55.4377C157.061 56.5175 158.741 57.1614 160.497 57.288C162.253 57.4145 164.008 57.0181 165.539 56.1488C167.07 55.2794 168.308 53.9762 169.097 52.404C169.887 50.8318 170.191 49.0612 169.973 47.316C169.677 44.9772 168.465 42.851 166.602 41.4036C164.739 39.9562 162.377 39.306 160.034 39.5954ZM165.145 46.4774V50.1142C165.145 50.3545 165.049 50.5848 164.878 50.7546C164.708 50.9244 164.477 51.0197 164.237 51.0197H162.995V52.2589C162.995 52.4988 162.9 52.7288 162.73 52.8986C162.56 53.0684 162.33 53.164 162.09 53.1644H158.259C158.019 53.1642 157.788 53.0688 157.618 52.899C157.448 52.7293 157.352 52.4991 157.351 52.2589V48.627L157.356 48.4239L157.347 45.5825L158.735 47.6138H159.51V48.8179H159.055C158.992 48.8176 158.93 48.8297 158.871 48.8535C158.813 48.8774 158.759 48.9125 158.714 48.9569C158.67 49.0013 158.634 49.0541 158.609 49.1123C158.585 49.1704 158.572 49.2329 158.572 49.296V51.4798C158.572 51.6076 158.623 51.7301 158.714 51.8203C158.805 51.9105 158.927 51.9611 159.055 51.9611H161.286C161.35 51.9612 161.413 51.9489 161.471 51.9247C161.53 51.9006 161.583 51.8652 161.628 51.8205C161.673 51.7758 161.708 51.7227 161.733 51.6643C161.757 51.6058 161.77 51.5431 161.77 51.4798V51.0222H160.418C160.178 51.0217 159.948 50.9261 159.778 50.7564C159.608 50.5866 159.513 50.3565 159.513 50.1166V46.3689C159.513 46.129 159.608 45.8989 159.778 45.7292C159.948 45.5594 160.178 45.4638 160.418 45.4634H163.772L165.161 43.4321L165.146 46.2735L165.145 46.4774Z" fill="white"/>
<path d="M161.285 48.8163H160.73V49.3327C160.729 49.458 160.777 49.5787 160.865 49.6688C160.952 49.759 161.071 49.8114 161.196 49.8148H161.162C161.179 49.8164 161.195 49.8164 161.212 49.8148H161.768V49.291C161.768 49.2279 161.755 49.1655 161.731 49.1074C161.706 49.0492 161.671 48.9964 161.626 48.952C161.581 48.9076 161.527 48.8725 161.469 48.8486C161.41 48.8248 161.348 48.8127 161.285 48.813" fill="white"/>
<path d="M163.443 46.6683H161.212C161.084 46.6687 160.962 46.7198 160.871 46.8103C160.781 46.9008 160.73 47.0234 160.73 47.1512V47.6121H162.086C162.326 47.6128 162.557 47.7081 162.727 47.8774C162.897 48.0467 162.993 48.2763 162.994 48.516V49.8213H163.444C163.52 49.8211 163.594 49.8029 163.661 49.7683C163.74 49.7281 163.807 49.667 163.853 49.5918C163.9 49.5166 163.925 49.43 163.925 49.3416V47.1545C163.925 47.0267 163.874 46.9041 163.784 46.8136C163.694 46.723 163.571 46.6719 163.443 46.6715" fill="white"/>
<path d="M171.436 47.0132C171.181 44.976 170.327 43.06 168.982 41.5074C167.637 39.9549 165.862 38.8355 163.88 38.2909C161.898 37.7462 159.799 37.8008 157.848 38.4477C155.897 39.0946 154.182 40.3047 152.919 41.9251C151.657 43.5454 150.905 45.5032 150.756 47.5508C150.608 49.5984 151.072 51.6438 152.088 53.4284C153.104 55.2131 154.627 56.6567 156.465 57.5768C158.302 58.4968 160.372 58.852 162.412 58.5974C165.146 58.256 167.633 56.8438 169.325 54.6714C171.018 52.499 171.777 49.7443 171.436 47.0132ZM162.313 57.8044C160.455 58.0365 158.569 57.7131 156.895 56.8751C155.221 56.0371 153.833 54.7221 152.907 53.0964C151.982 51.4708 151.559 49.6075 151.694 47.7422C151.828 45.8768 152.514 44.0932 153.663 42.6169C154.813 41.1406 156.375 40.0379 158.152 39.4482C159.929 38.8585 161.842 38.8084 163.647 39.3041C165.453 39.7998 167.071 40.8191 168.297 42.2332C169.522 43.6472 170.3 45.3924 170.533 47.2481C170.841 49.736 170.149 52.2445 168.608 54.2234C167.067 56.2023 164.803 57.4901 162.313 57.8044Z" fill="white"/>
</g>
</g>
</g>
</svg>
