<svg width="253" height="113" viewBox="0 0 253 113" fill="none" xmlns="http://www.w3.org/2000/svg">
<g opacity="0.8">
<path d="M244.031 111.292C244.031 111.292 265.073 72.0657 240.305 53.3438C226.485 42.8986 210.311 50.7194 196.298 22.6829C188.142 6.36739 159.604 1.41478 145.334 23.69C131.063 45.9651 125.329 60.1224 106.252 52.457C94.8926 47.8933 89.9987 33.5085 72.3231 36.5166C51.8932 39.9926 54.6293 61.0694 39.5749 57.3976C10.5442 50.3211 -10.9637 90.7507 9.1071 111.568L244.031 111.292Z" stroke="#C7C8CD" stroke-miterlimit="10" stroke-dasharray="5 3"/>
<path d="M145.233 95.1968C143.742 94.8894 141.922 93.4652 141.994 93.0008C142.051 92.6368 143.935 93.242 145.233 93.6403V87.6455C144.92 87.5639 144.715 87.5305 144.715 87.5305C144.715 87.5305 140.619 90.5601 139.819 90.3764C139.02 90.1926 142.814 87.1064 142.814 87.1064C141.387 86.4196 136.95 86.8488 136.95 86.8488C136.95 86.8488 135.473 91.5885 134.743 91.2151C134.014 90.8417 136.267 87.084 136.267 87.084C135.016 87.1471 133.8 87.5179 132.728 88.1632C130.059 90.2596 132.901 93.5605 132.901 93.5605C132.418 94.7627 131.652 95.8318 130.667 96.6776C129.922 97.2819 129.309 98.0315 128.867 98.8801C128.424 99.7288 128.16 100.659 128.092 101.612L128.53 101.652C128.53 101.652 129.22 98.7054 130.481 97.3103L130.688 97.0992C130.893 96.9103 131.037 96.7687 131.133 96.6631C131.673 96.0695 132.321 95.5828 133.042 95.2285C133.027 95.1597 133.021 95.0893 133.024 95.019C133.029 95.086 133.036 95.1547 133.042 95.2285C133.185 96.8966 136.439 98.3534 138.441 98.653C140.443 98.9526 139.822 98.1379 139.132 96.9206C138.441 95.7033 136.259 95.1641 135.761 94.6027C135.263 94.0412 136.293 94.0421 137.499 94.5898C138.704 95.1375 138.87 96.5978 140.804 97.5207C142.289 98.2272 144.343 96.5137 145.225 95.6758L145.233 95.1968Z" fill="#C8CAD5"/>
<path d="M113.388 79.5002C114.445 80.9863 115.963 82.9762 116.565 83.0509C117.53 83.1711 114.573 78.1902 114.573 78.1902C116.445 78.0108 121.21 80.2909 121.21 80.2909C121.21 80.2909 120.908 86.1715 121.873 86.0522C122.838 85.9328 121.873 80.8309 121.873 80.8309C123.685 81.3717 125.373 83.4716 125.373 83.4716C127.485 86.8918 122.956 89.4123 122.956 89.4123L122.216 90.9876C122.184 91.058 122.149 91.1319 122.113 91.2083C121.268 93.0111 117.045 93.309 114.69 92.8291C114.216 92.7836 113.764 92.6089 113.383 92.3243C113.316 92.2499 113.279 92.1535 113.279 92.0535C113.279 91.9535 113.316 91.857 113.383 91.7826C113.751 91.3469 114.17 90.9555 114.63 90.6168C115.897 89.5462 118.551 89.8287 119.335 89.4089C120.12 88.9891 118.973 88.5684 117.405 88.6886C116.03 88.7934 115.258 90.0047 113.383 90.464L113.388 79.5002Z" fill="#C8CAD5"/>
<path d="M124.169 93.7923C123.419 92.4504 123.004 90.9487 122.961 89.414C120.225 86.381 113.284 82.7874 113.284 82.7874C121.865 88.11 122.116 91.2142 122.116 91.2142C122.774 91.9024 123.295 92.7081 123.652 93.5888C123.717 93.7459 123.818 93.9623 123.969 94.2576C124.031 94.3906 124.08 94.4997 124.114 94.5752C124.943 96.6356 124.504 100.203 124.504 100.203L125.006 100.337C125.323 99.2475 125.411 98.1046 125.267 96.9793C125.122 95.8539 124.748 94.7699 124.166 93.794" fill="#B0B1BA"/>
<path d="M145.233 87.3133C144.817 87.4864 144.365 87.5565 143.916 87.5176C140.576 87.2008 139.543 85.1439 137.475 84.9868C135.408 84.8297 133.896 85.3817 134.93 85.9363C135.964 86.4909 139.463 86.1175 141.134 87.5297C142.805 88.9419 144.155 89.8115 141.054 90.4442C137.953 91.0769 132.386 90.682 131.272 88.3091L130.159 85.9363C130.159 85.9363 124.194 82.6131 126.977 78.1052C126.977 78.1052 129.204 75.3365 131.59 74.624C131.59 74.624 130.318 81.3477 131.59 81.5056C132.862 81.6636 132.465 73.9123 132.465 73.9123C132.465 73.9123 138.748 70.9076 141.213 71.1437C141.213 71.1437 137.317 77.7094 138.589 77.5506C139.861 77.3918 144.234 70.7479 144.234 70.7479C144.234 70.7479 144.627 70.6758 145.234 70.6235V79.6376C144.049 79.7509 143.138 79.9277 143.201 80.2385C143.271 80.587 144.114 81.0283 145.234 81.3546L145.233 87.3133Z" fill="#C8CAD5"/>
<path d="M148.768 74.545C148.768 74.545 132.068 79.9243 130.158 85.9354C130.102 87.9592 129.556 89.9397 128.568 91.7096C127.801 92.9961 127.307 94.4249 127.117 95.9083C126.927 97.3916 127.043 98.8981 127.46 100.335L128.123 100.158C128.123 100.158 127.544 95.4595 128.641 92.7389C128.686 92.6385 128.751 92.4951 128.831 92.3191C129.03 91.9302 129.165 91.6443 129.25 91.4383C129.845 90.2236 130.703 88.6405 131.275 88.3083C131.275 88.3083 127.537 83.0878 148.771 74.545" fill="#B0B1BA"/>
<path d="M118.273 98.9836C118.273 102.066 119.504 105.021 121.695 107.201C123.887 109.38 126.858 110.604 129.957 110.604C133.056 110.604 136.027 109.38 138.218 107.201C140.41 105.021 141.64 102.066 141.64 98.9836H118.273Z" fill="#C8CAD5"/>
<path d="M140.36 109.89H119.554C119.171 109.89 118.805 110.041 118.534 110.31C118.264 110.579 118.112 110.943 118.112 111.324H141.802C141.802 110.943 141.65 110.579 141.38 110.31C141.11 110.041 140.742 109.89 140.36 109.89Z" fill="#C8CAD5"/>
<path d="M141.727 99.3399H118.068C118.023 99.3368 117.981 99.3166 117.95 99.2835C117.919 99.2504 117.901 99.207 117.901 99.1617C117.901 99.1165 117.919 99.0729 117.95 99.0399C117.981 99.0068 118.023 98.9867 118.068 98.9836H141.727C141.773 98.9867 141.815 99.0068 141.846 99.0399C141.877 99.0729 141.894 99.1165 141.894 99.1617C141.894 99.207 141.877 99.2504 141.846 99.2835C141.815 99.3166 141.773 99.3368 141.727 99.3399Z" fill="#9899A3"/>
<path d="M147.823 111.324H193.262C193.948 111.321 194.605 111.049 195.091 110.567C195.576 110.084 195.849 109.43 195.851 108.748V18.3648C195.849 17.6824 195.576 17.0286 195.091 16.5461C194.605 16.0636 193.948 15.7916 193.262 15.7893H147.823C147.137 15.7916 146.479 16.0636 145.994 16.5461C145.509 17.0286 145.236 17.6824 145.233 18.3648V108.747C145.236 109.43 145.509 110.083 145.994 110.566C146.479 111.048 147.137 111.32 147.823 111.323" fill="#DDDDDD"/>
<path d="M163.124 20.4234H176.282C176.418 20.4234 176.548 20.3698 176.644 20.2743C176.74 20.1788 176.794 20.0493 176.794 19.9143C176.794 19.7793 176.74 19.6498 176.644 19.5544C176.548 19.4589 176.418 19.4052 176.282 19.4052H163.123C162.987 19.4052 162.857 19.4589 162.761 19.5544C162.665 19.6498 162.611 19.7793 162.611 19.9143C162.611 20.0493 162.665 20.1788 162.761 20.2743C162.857 20.3698 162.988 20.4234 163.124 20.4234Z" fill="#C9CBD3"/>
<path d="M178.62 20.4234C178.721 20.4234 178.82 20.3935 178.905 20.3376C178.989 20.2817 179.054 20.2022 179.093 20.1091C179.132 20.0161 179.142 19.9138 179.122 19.815C179.103 19.7163 179.054 19.6255 178.982 19.5544C178.911 19.4832 178.819 19.4347 178.72 19.415C178.621 19.3954 178.518 19.4055 178.424 19.444C178.331 19.4825 178.251 19.5478 178.195 19.6315C178.138 19.7152 178.108 19.8136 178.108 19.9143C178.11 20.0489 178.164 20.1774 178.26 20.2726C178.356 20.3677 178.485 20.4219 178.62 20.4234Z" fill="#C9CBD3"/>
<path d="M173.217 106.045C173.217 105.395 173.024 104.76 172.661 104.22C172.298 103.68 171.782 103.259 171.179 103.01C170.575 102.762 169.911 102.697 169.271 102.823C168.63 102.95 168.042 103.263 167.58 103.722C167.118 104.181 166.804 104.767 166.676 105.404C166.549 106.041 166.614 106.701 166.864 107.302C167.114 107.902 167.537 108.415 168.08 108.776C168.623 109.137 169.262 109.329 169.915 109.329C170.791 109.329 171.631 108.983 172.25 108.367C172.869 107.751 173.217 106.916 173.217 106.045Z" fill="#B0B1BA"/>
<path d="M191.639 23.3637H149.553V100.636H191.639V23.3637Z" fill="#B0B1BA"/>
<mask id="mask0_1_48" style="mask-type:luminance" maskUnits="userSpaceOnUse" x="1" y="0" width="252" height="112">
<path d="M252.639 0H1V111.839H252.639V0Z" fill="white"/>
</mask>
<g mask="url(#mask0_1_48)">
<mask id="mask1_1_48" style="mask-type:luminance" maskUnits="userSpaceOnUse" x="68" y="25" width="46" height="87">
<path d="M113.387 25.6808H68.0083V111.324H113.387V25.6808Z" fill="white"/>
</mask>
<g mask="url(#mask1_1_48)">
<path d="M70.3301 25.6805H111.069C111.684 25.6828 112.273 25.9268 112.708 26.3594C113.143 26.792 113.388 27.3781 113.391 27.9898V109.012C113.388 109.624 113.143 110.21 112.708 110.643C112.273 111.075 111.684 111.319 111.069 111.321H70.3301C69.715 111.319 69.1258 111.075 68.6909 110.643C68.256 110.21 68.0106 109.624 68.0083 109.012V27.9881C68.0106 27.3763 68.256 26.7903 68.6909 26.3577C69.1258 25.9251 69.715 25.681 70.3301 25.6788" fill="#DDDDDD"/>
</g>
</g>
<path d="M111.669 32.5281H69.6318V101.926H111.669V32.5281Z" fill="#B0B1BA"/>
<path d="M85.5519 28.9207H97.3481C97.4698 28.9207 97.5867 28.9688 97.6728 29.0545C97.7589 29.1401 97.8073 29.2563 97.8073 29.3774C97.8073 29.4985 97.7589 29.6147 97.6728 29.7004C97.5867 29.786 97.4698 29.8341 97.3481 29.8341H85.5519C85.4302 29.8341 85.3134 29.786 85.2273 29.7004C85.1412 29.6147 85.0928 29.4985 85.0928 29.3774C85.0928 29.2563 85.1412 29.1401 85.2273 29.0545C85.3134 28.9688 85.4302 28.9207 85.5519 28.9207Z" fill="#C9CBD3"/>
<path d="M83.4572 28.9207C83.548 28.9207 83.6368 28.9475 83.7123 28.9977C83.7878 29.0479 83.8467 29.1192 83.8814 29.2026C83.9162 29.2861 83.9253 29.3779 83.9076 29.4665C83.8899 29.5551 83.8461 29.6365 83.7819 29.7004C83.7177 29.7642 83.6359 29.8077 83.5468 29.8254C83.4577 29.843 83.3654 29.8339 83.2815 29.7994C83.1976 29.7648 83.1259 29.7063 83.0754 29.6312C83.025 29.556 82.998 29.4677 82.998 29.3774C82.9983 29.2564 83.0467 29.1403 83.1328 29.0547C83.2189 28.9691 83.3355 28.9209 83.4572 28.9207Z" fill="#C9CBD3"/>
<path d="M90.6495 104.861C91.1144 104.861 91.5688 104.998 91.9553 105.255C92.3418 105.512 92.643 105.877 92.8209 106.304C92.9988 106.731 93.0453 107.201 92.9547 107.655C92.864 108.108 92.6401 108.524 92.3114 108.851C91.9827 109.178 91.564 109.401 91.1081 109.491C90.6522 109.581 90.1796 109.535 89.7502 109.358C89.3207 109.181 88.9537 108.882 88.6954 108.497C88.4372 108.113 88.2993 107.661 88.2993 107.198C88.2993 106.578 88.5469 105.984 88.9877 105.546C89.4284 105.107 90.0262 104.861 90.6495 104.861Z" fill="#B0B1BA"/>
<path d="M24.8934 111.268C24.8934 111.268 21.0957 111.406 20.5381 111.268C20.5148 111.164 19.8131 106.763 19.8131 106.763L19.2297 102.694C19.2113 102.569 19.232 102.441 19.289 102.328C19.346 102.214 19.4365 102.121 19.5484 102.061C19.6602 102 19.788 101.975 19.9146 101.989C20.0411 102.004 20.1602 102.056 20.2559 102.139C20.5068 102.38 20.6913 102.68 20.7919 103.012C21.2692 104.444 22.6769 106.754 24.7622 107.356C26.9588 107.99 24.8899 111.268 24.8899 111.268" fill="#9899A3"/>
<path d="M44.6786 90.8675L44.3057 90.9997C43.9979 90.5223 43.5346 90.1646 42.9933 89.9865C42.452 89.8083 41.8656 89.8205 41.3323 90.021C41.3323 90.021 40.5348 90.3533 41.0078 90.7868C41.4808 91.2203 41.3634 90.9963 42.0168 91.6204C42.2843 91.9145 42.623 92.1357 43.0006 92.2629C43.3783 92.3902 43.7824 92.4193 44.1745 92.3475L44.8555 92.1088L44.6786 90.8675Z" fill="#FFE8DC"/>
<path d="M61.5025 104.63C61.5025 104.63 47.5831 94.0508 43.6231 93.9357C39.6632 93.8207 26.8184 111.306 26.8184 111.306H31.6285C31.6285 111.306 40.1042 106.82 43.0854 102.557C43.1547 102.458 43.2475 102.378 43.3555 102.324C43.4635 102.27 43.5834 102.243 43.7043 102.246C43.8252 102.25 43.9434 102.283 44.0483 102.343C44.1531 102.403 44.2413 102.488 44.305 102.59C45.8465 105.04 49.8755 111.048 52.4812 111.306C55.2786 111.584 61.5025 104.63 61.5025 104.63Z" fill="#AEAFBA"/>
<path d="M60.168 75.8431C60.168 75.8431 60.2543 76.5367 60.369 77.3883C60.5201 78.5044 60.7204 79.878 60.8524 80.3072L65.0411 81.3623L65.3484 78.3335C64.6454 76.7418 64.29 75.0198 64.3057 73.2813L60.168 75.8431Z" fill="#FFE8DC"/>
<path d="M63.813 82.1487L57.8575 89.3994L55.7765 91.9345C55.7765 91.9345 52.0487 92.629 50.0929 92.7982C48.1123 92.7656 46.1354 92.6151 44.1729 92.3475L44.3023 90.9997C45.644 90.4233 47.0225 89.9357 48.4289 89.5402C49.7848 89.2578 53.2096 88.4894 53.2096 88.4894C54.5043 88.0207 59.424 81.6936 59.424 81.6936L63.813 82.1487Z" fill="#C4C4CE"/>
<path d="M67.696 108.04L55.5261 107.052C55.5261 107.052 55.4925 106.809 55.4398 106.402C55.422 106.271 55.4116 106.139 55.4087 106.007C55.541 104.515 55.76 103.032 56.0647 101.565C56.2419 100.564 56.1828 99.5351 55.8921 98.5604C55.4828 96.956 55.2735 95.3076 55.2689 93.6524C55.1731 91.2941 55.2283 89.0904 55.2275 89.0741C55.1595 87.4471 55.4457 85.8248 56.0664 84.3181C57.2541 81.1906 59.4671 79.4204 60.5071 78.3704C60.5071 78.3704 61.7777 78.6821 65.0816 77.6974C65.18 77.6682 65.4631 78.0812 65.5891 78.3224C65.5891 78.3224 67.0176 80.1209 67.6053 84.5035C68.131 88.4294 67.7029 108.041 67.7029 108.041" fill="#D6D7E1"/>
<path d="M64.6503 86.3029C64.6261 86.8532 59.7305 102.357 60.3295 103.503C63.2339 109.037 55.913 106.543 55.516 105.117C55.6523 104.059 56.2134 99.4618 55.8888 98.5578C55.4795 96.9534 55.2702 95.3051 55.2656 93.6499C55.4133 92.9168 55.6826 92.2132 56.0623 91.568C57.8817 91.2847 64.8332 82.0388 64.6511 86.3038" fill="#C4C4CE"/>
<path d="M40.3088 89.3265L41.8183 88.2963C41.8308 88.2878 41.8445 88.2812 41.8589 88.2765L42.1437 88.1606L43.5325 92.5226L42.3172 93.5005L42.0989 93.5949C42.042 93.6107 41.9812 93.6037 41.9294 93.5754C41.8776 93.5472 41.839 93.4999 41.8218 93.4438L40.2492 89.6115C40.2259 89.564 40.2192 89.5101 40.2303 89.4584C40.2415 89.4068 40.2697 89.3603 40.3105 89.3265" fill="#C7C8CD"/>
<path d="M43.8438 92.2625L42.4032 93.4644C42.375 93.4824 42.3428 93.4935 42.3094 93.4967C42.2759 93.5 42.2422 93.4953 42.211 93.4831C42.1797 93.4708 42.1518 93.4514 42.1296 93.4264C42.1073 93.4013 42.0914 93.3714 42.083 93.339L40.5104 89.5067C40.4871 89.4593 40.4805 89.4054 40.4916 89.3537C40.5027 89.3021 40.5309 89.2556 40.5717 89.2217L42.0813 88.1916C42.11 88.1769 42.1416 88.1687 42.1738 88.1678C42.2061 88.1668 42.2381 88.173 42.2677 88.1859C42.2972 88.1988 42.3235 88.2181 42.3445 88.2424C42.3656 88.2667 42.3809 88.2954 42.3894 88.3263L43.893 91.9903C43.9145 92.0355 43.9214 92.0862 43.9128 92.1354C43.9041 92.1846 43.8803 92.2299 43.8446 92.2651" fill="#E6E7EC"/>
<path d="M43.609 91.7938L42.19 92.9751L40.7642 89.499L42.2513 88.4835L43.609 91.7938Z" fill="#D6D7E1"/>
<path d="M43.0499 92.5921C43.039 92.5614 43.0394 92.5278 43.0509 92.4974C43.0624 92.4669 43.0844 92.4415 43.1129 92.4256C43.1673 92.4033 43.2277 92.4427 43.2467 92.5114C43.2576 92.5421 43.2573 92.5757 43.2457 92.6062C43.2342 92.6366 43.2122 92.662 43.1837 92.6779C43.1293 92.7003 43.0689 92.6608 43.0499 92.5921Z" fill="#373480"/>
<path d="M44.5035 92.9819L43.7379 92.957C43.6287 92.738 43.4769 92.5428 43.2913 92.3825C43.1058 92.2222 42.8901 92.1001 42.6568 92.0231C42.4235 91.9462 42.1772 91.9159 41.9321 91.9342C41.6871 91.9524 41.448 92.0188 41.2289 92.1294C41.2289 92.1294 40.528 92.4926 40.9147 92.9021C41.3014 93.3116 41.2108 93.0918 41.7433 93.6747C41.9496 93.9477 42.2337 94.1525 42.5587 94.2626C42.8836 94.3727 43.2344 94.3829 43.5653 94.292L44.1617 94.0259L44.5035 92.9819Z" fill="#FFE8DC"/>
<path d="M63.5226 78.3945C61.6579 79.242 60.0807 80.6097 58.9826 82.3315C57.9469 84.1189 56.168 87.1588 55.0986 88.9891C54.8161 89.471 54.4363 89.8894 53.983 90.2178C53.5298 90.5463 53.013 90.7778 52.4652 90.8975L48.8402 91.6907L43.7478 92.957C43.6657 93.1337 43.6341 93.3294 43.6563 93.5228C43.6505 93.6482 43.6826 93.7724 43.7484 93.8796C43.8143 93.9867 43.9108 94.0717 44.0257 94.1237C44.0257 94.1237 48.7806 95.2621 50.4732 95.3891C54.6437 95.7008 56.6202 95.1573 57.2331 94.9333C57.3682 94.8831 57.4939 94.8109 57.6051 94.7195C59.2566 93.4133 60.729 91.8975 61.9845 90.2107C63.2394 88.3126 66.7005 83.3806 66.7005 83.3806L63.5226 78.3945Z" fill="#D6D7E1"/>
<path d="M67.779 103.357C67.779 103.357 68.9787 111.305 65.2984 111.305H24.7926C24.1852 110.801 23.7733 110.102 23.6276 109.329C23.4819 108.555 23.6115 107.756 23.9942 107.067C23.9942 107.067 38.4945 106.565 41.4385 105.584C56.1977 100.665 67.7781 103.357 67.7781 103.357" fill="#C8CAD5"/>
<path d="M60.168 75.8431C60.168 75.8431 60.2543 76.5367 60.369 77.3883C64.2384 76.2654 64.3057 73.2848 64.3057 73.2848L60.168 75.8431Z" fill="#F7DCCF"/>
<path d="M59.5621 76.0654C59.5621 76.0654 64.266 76.2036 64.3092 73.2891C64.3523 70.3745 64.9859 68.4292 61.9848 68.218C58.9838 68.0068 58.3839 69.1099 58.1319 70.0792C57.8799 71.0484 58.3416 75.9538 59.5638 76.0654" fill="#FFE8DC"/>
<path d="M64.3904 74.4309C64.3904 74.4309 63.8932 74.345 63.9735 73.6677C64.0538 72.9903 64.0529 72.0967 63.4962 72.2624C62.9395 72.428 62.9119 72.8718 62.6832 72.6126C62.4544 72.3533 62.4501 71.2631 60.7946 71.1875C59.1392 71.112 58.4643 71.6846 57.6952 71.3481C56.9262 71.0115 56.8848 69.8517 56.8848 69.8517C57.0092 70.0839 57.2007 70.2738 57.4346 70.3968C57.4346 70.3968 56.1494 68.6489 57.6374 67.4505C59.1254 66.252 60.641 67.0367 61.5024 67.0882C63.4012 67.2024 64.6243 67.3157 65.244 68.5554C65.8637 69.795 65.6082 73.2367 64.3913 74.43" fill="#8B8C96"/>
<path d="M178.649 6.33048L191.269 10.0134L183.561 2.98495L182.856 4.78091L179.64 4.89423L178.649 6.33048Z" fill="#DCDEE5"/>
<path d="M191.268 10.0134L181.342 2.97378L170.909 0.93573L191.268 10.0134Z" fill="#F5F5F5"/>
<path d="M183.564 2.98495L191.272 10.0134L185.967 0.00170898L183.564 2.98495Z" fill="#F5F5F5"/>
<path d="M213.982 25.3958C214.331 25.2657 214.703 25.2074 215.075 25.2243C215.447 25.2413 215.811 25.3332 216.147 25.4945C215.687 24.8515 214.007 25.0652 214.007 25.0652C217.352 24.3579 218.05 26.4843 218.108 26.6835C220.534 24.5055 224.418 29.1474 224.418 29.1474L218.844 36.496C218.844 36.496 218.336 35.3267 217.664 35.6916C216.616 36.2608 214.591 33.9583 215.239 30.9287C215.304 30.6241 215.386 30.3234 215.486 30.0282C215.268 30.1311 215.032 30.1895 214.791 30.1999C214.181 30.1999 213.261 28.6546 213.136 28.1344C213.011 27.6141 213.149 25.9074 213.982 25.4001" fill="#8B8C96"/>
<path d="M229.925 57.3856C233.455 56.0919 236.854 50.0833 236.854 50.0833L235.741 49.3107C234.814 50.6602 230.642 53.2502 230.642 53.2502C230.547 52.1136 230.408 51.0817 230.238 50.1477C229.08 43.7949 226.431 41.9165 225.72 41.5173C225.662 41.4835 225.602 41.4534 225.54 41.4272C225.54 41.4272 225.54 41.4735 225.548 41.5628C225.558 41.7543 225.581 42.1388 225.618 42.6668C225.894 46.5987 226.975 58.4707 229.925 57.389" fill="#FFE8DC"/>
<path d="M212.862 63.8698C214.607 59.98 215.44 58.8794 215.47 57.6552C215.493 56.6876 215.013 55.6429 214.081 53.082C213.865 52.482 213.709 51.8619 213.617 51.2311C212.88 46.2939 215.75 40.9576 217.534 40.5936C218.03 40.4631 218.871 38.68 218.861 35.8066L219.084 35.8504L222.841 36.5905C222.841 36.5905 222.755 37.7666 222.755 38.874C222.755 39.7969 222.808 40.6717 223.018 40.7825C223.288 40.8065 223.449 40.8228 223.449 40.8228C223.449 40.8228 226.581 45.1496 226.845 49.1733C227.108 53.197 224.337 54.9449 226.866 62.9864C229.447 71.1987 211.901 66.0203 212.865 63.8706" fill="#FFE8DC"/>
<path d="M222.842 36.5904C222.842 36.5904 222.756 37.7666 222.756 38.874C220.653 38.8148 219.542 36.9081 219.087 35.8504L222.842 36.5904Z" fill="#F7DCCF"/>
<path d="M218.697 35.4435C218.072 34.4522 217.611 33.368 217.331 32.2319C217.142 31.1751 217.683 27.2578 221.641 27.8219C222.438 27.9319 223.2 28.2185 223.871 28.6606C224.734 29.2375 225.97 30.484 224.584 33.9025L224.224 35.0572L218.697 35.4435Z" fill="#848590"/>
<path d="M223.544 37.6395C223.544 37.6395 218.57 37.7254 218.567 34.64C218.563 31.5546 217.919 29.4942 221.094 29.3113C224.269 29.1285 224.887 30.3038 225.14 31.3322C225.393 32.3607 224.837 37.5391 223.544 37.6395Z" fill="#FFE8DC"/>
<path d="M217.266 101.199C218.03 104.207 219.079 107.136 220.401 109.946L222.041 109.832C221.496 106.881 221.242 103.884 221.283 100.884C221.269 96.8414 221.913 92.8229 223.19 88.9848C228.098 75.0447 227.305 64.8999 227.305 64.8999L218.077 65.973L217.645 66.0237C217.607 70.2388 217.498 75.9624 217.402 80.4377C217.315 84.4623 217.243 87.4773 217.243 87.4773C215.468 91.2778 216.113 96.6425 217.265 101.198" fill="#C8CAD5"/>
<path d="M211.972 100.409C212.241 103.669 213.219 106.833 214.839 109.68L215.623 110.247C215.623 110.247 216.364 106.279 216.889 101.557C217.39 97.07 218.075 92.3217 218.849 90.8726C221.927 85.1207 222.853 63.425 222.853 63.425L213.496 62.9632C212.555 64.5368 212.146 67.1174 212.048 70.0517C211.802 77.457 213.552 87.1141 213.814 88.5092C213.829 88.6169 213.807 88.7266 213.753 88.8208C211.891 92.4866 211.622 96.6794 211.972 100.4" fill="#C8CAD5"/>
<path d="M219.908 33.3814C217.818 33.9163 216.912 33.3591 216.912 33.3591C217.943 32.4582 218.628 31.2288 218.848 29.8814C218.848 29.8814 219.765 26.9994 223.32 29.1688C223.646 28.8907 224.226 28.6898 224.993 29.6152C226.146 31.0051 225.12 33.4621 225.12 33.4621C224.646 33.5171 224.536 31.9014 224.287 31.1167C224.044 30.5596 223.673 30.0671 223.203 29.6788C223.103 30.0436 222.101 33.4973 219.605 34.6451C220.378 33.9312 221.049 33.1158 221.6 32.2216C221.164 32.7656 220.574 33.1691 219.908 33.3814Z" fill="#8B8C96"/>
<path d="M205.574 69.1151C205.956 68.7691 206.255 68.3422 206.45 67.866C207.606 65.0021 208.939 59.4528 209.379 58.4226C209.54 58.05 209.848 56.2936 210.251 54.0297C210.975 49.9682 212.005 44.2748 213.036 42.0186C213.261 41.6861 213.594 41.441 213.979 41.325C215.212 40.9052 216.488 40.6275 217.784 40.4974L216.53 45.8973L216.162 47.4812C216.162 47.4812 215.046 51.3933 214.181 54.5903C213.764 56.1356 213.405 57.5092 213.259 58.2003C212.811 60.3147 207.886 68.4429 207.886 68.4429C207.886 68.4429 207.737 68.5416 207.562 69.037C207.388 69.5323 205.996 72.1541 205.398 72.1541C204.801 72.1541 204.677 71.263 204.553 70.6947C204.428 70.1264 205.101 69.407 205.573 69.1116" fill="#FFE8DC"/>
<path d="M235.74 49.3081C235.74 49.1553 235.612 46.9455 236.007 46.4819C236.402 46.0184 237.21 45.3573 237.464 45.3779C237.817 45.6483 238.091 46.0077 238.258 46.4188C238.425 46.8299 238.479 47.2779 238.413 47.7164C238.034 48.5886 237.507 49.3893 236.854 50.0833L235.74 49.3081Z" fill="#FFE8DC"/>
<path d="M233.931 46.6047L236.233 47.2915C236.251 47.2969 236.27 47.2987 236.289 47.2968C236.308 47.2949 236.326 47.2893 236.342 47.2804C236.359 47.2715 236.374 47.2594 236.386 47.2448C236.398 47.2302 236.407 47.2134 236.412 47.1953L237.728 42.8291C237.733 42.811 237.735 42.7921 237.733 42.7734C237.731 42.7546 237.726 42.7365 237.717 42.7199C237.708 42.7033 237.695 42.6886 237.681 42.6767C237.666 42.6648 237.649 42.6559 237.631 42.6505L235.329 41.9637C235.292 41.9528 235.253 41.9567 235.219 41.9747C235.185 41.9928 235.16 42.0234 235.149 42.0599L233.833 46.4261C233.828 46.4442 233.826 46.4631 233.828 46.4818C233.83 46.5006 233.835 46.5188 233.844 46.5353C233.853 46.5519 233.865 46.5666 233.88 46.5785C233.895 46.5904 233.913 46.5993 233.931 46.6047Z" fill="#D6D7E1"/>
<path d="M234.527 46.7833L236.615 47.4056C236.68 47.4244 236.75 47.4169 236.809 47.3848C236.869 47.3527 236.914 47.2985 236.934 47.234L238.185 43.0806C238.204 43.0158 238.196 42.9464 238.164 42.8872C238.132 42.828 238.077 42.7837 238.013 42.7638L235.925 42.1414C235.86 42.1227 235.79 42.1301 235.73 42.1623C235.67 42.1944 235.626 42.2486 235.606 42.3131L234.354 46.4665C234.335 46.5313 234.343 46.601 234.375 46.6604C234.407 46.7198 234.462 46.7634 234.527 46.7833Z" fill="#C4C4CE"/>
<path d="M211.972 100.409C212.241 103.669 213.219 106.833 214.839 109.68L215.637 110.403C215.637 110.403 216.363 106.282 216.889 101.561C215.169 101.689 213.451 101.286 211.969 100.409" fill="#FFE8DC"/>
<path d="M214.162 54.7629C212.674 55.1144 211.107 54.8858 209.782 54.1242C210.625 50.0335 211.823 44.2997 213.022 42.0272C213.096 41.9031 213.197 41.7974 213.318 41.7182L213.306 41.7036C214.364 41.124 215.529 40.7622 216.73 40.6399C216.73 40.6399 217.439 43.7665 217.887 44.1743C218.335 44.5821 224.827 45.25 224.976 44.5083C225.12 43.7992 223.288 41.0417 223.152 40.7987C223.251 40.8009 223.349 40.8084 223.447 40.8211C224.187 40.9181 224.709 40.9928 225.087 41.0554C225.531 41.1158 225.954 41.2835 226.318 41.5439C227.192 42.2024 229.246 44.2241 230.05 49.0986C229.425 49.9186 228.575 50.5415 227.603 50.892C227.565 50.9023 227.527 50.9117 227.489 50.9212C227.738 55.0505 229.266 61.921 228.715 65.8958C228.186 69.7178 220.103 68.7399 218.501 68.3854C217.403 68.1433 216.551 66.9929 215.947 64.9343C215.746 66.3705 215.296 68.0549 214.285 68.1596C212.632 68.3313 211.949 68.0454 211.749 67.4222C211.688 67.1794 211.668 66.928 211.691 66.6787C211.799 64.5325 213.441 59.4743 214.164 54.7638" fill="#D6D7E1"/>
<path d="M217.267 101.199C218.03 104.206 219.08 107.135 220.402 109.945L222.042 109.831C221.497 106.881 221.243 103.884 221.283 100.884C220.726 101.163 219.579 101.447 217.267 101.199Z" fill="#FFE8DC"/>
<path d="M219.457 111.314H220.504C220.854 111.259 221.113 111.158 221.473 111.111C221.62 111.077 221.774 111.078 221.921 111.113C222.068 111.148 222.205 111.217 222.32 111.314L222.33 111.324H226.778C226.891 111.165 226.778 110.797 226.677 110.527C226.642 110.436 226.586 110.355 226.514 110.289C226.442 110.223 226.356 110.175 226.262 110.148C225.433 110.009 224.656 109.656 224.008 109.125C223.529 108.696 221.695 107.542 221.695 107.542H221.685C221.645 107.542 221.453 107.601 220.618 108.302C220.187 108.663 219.452 107.791 219.452 107.791C219.351 107.883 219.27 107.993 219.212 108.116C219.108 108.327 219.074 108.565 219.116 108.795C219.116 109.357 219.008 109.914 218.797 110.436C218.694 110.74 218.606 110.951 218.606 110.951C218.606 110.951 218.556 111.202 219.457 111.314Z" fill="#9899A3"/>
<path d="M213.868 111.314H214.915C215.266 111.259 215.525 111.158 215.885 111.111C216.032 111.077 216.185 111.078 216.332 111.113C216.479 111.148 216.616 111.217 216.732 111.314L216.742 111.324H221.189C221.301 111.165 221.194 110.797 221.088 110.527C221.053 110.436 220.997 110.355 220.925 110.289C220.853 110.223 220.766 110.175 220.672 110.148C219.844 110.009 219.067 109.656 218.419 109.125C217.94 108.696 216.106 107.542 216.106 107.542H216.097C216.056 107.542 215.865 107.601 215.031 108.302C214.599 108.663 213.865 107.791 213.865 107.791C213.764 107.882 213.681 107.993 213.623 108.116C213.519 108.327 213.486 108.565 213.527 108.795C213.527 109.357 213.419 109.914 213.209 110.436C213.105 110.74 213.018 110.951 213.018 110.951C213.018 110.951 212.968 111.201 213.869 111.313" fill="#9899A3"/>
<path d="M211.69 66.6778C212.8 66.3087 214.225 65.3283 215.935 63.1289C220.465 57.3057 216.32 50.4636 215.763 50.3374C215.205 50.2112 214.161 54.7646 214.161 54.7646C213.437 59.476 211.795 64.5333 211.688 66.6796" fill="#C4C4CE"/>
<path d="M237.664 45.5264C237.664 45.5264 236.937 44.8706 236.344 45.4912C235.751 46.1119 236.568 47.2194 237.167 47.4829C237.446 47.5945 237.713 47.7331 237.965 47.8967L237.664 45.5264Z" fill="#FFE8DC"/>
<path d="M222.572 35.8092C222.572 35.8092 222.658 36.1723 223.566 36.1165C223.566 36.1165 224.329 36.0693 224.306 35.6701C223.73 35.5043 223.113 35.5538 222.572 35.8092Z" fill="#F5F5F5"/>
<path d="M102.774 74.0583H78.5254C78.0948 74.0583 77.6819 73.8881 77.3774 73.5853C77.0729 73.2824 76.9019 72.8717 76.9019 72.4435V57.5195C76.9019 57.0912 77.0729 56.6805 77.3774 56.3776C77.6819 56.0748 78.0948 55.9047 78.5254 55.9047H102.774C103.204 55.9047 103.617 56.0748 103.922 56.3776C104.226 56.6805 104.397 57.0912 104.397 57.5195V72.4426C104.397 72.8709 104.226 73.2816 103.922 73.5844C103.617 73.8873 103.204 74.0574 102.774 74.0574" fill="#BBBBC3"/>
<path d="M85.9316 50.9117C85.0383 51.0227 84.198 51.3947 83.5172 51.9807C82.8364 52.5667 82.3456 53.3404 82.1068 54.2038C81.868 55.0673 81.8921 55.9817 82.1759 56.8316C82.4597 57.6814 82.9904 58.4285 83.7011 58.9783C84.4118 59.5281 85.2704 59.856 86.1684 59.9204C87.0664 59.9848 87.9634 59.783 88.7461 59.3403C89.5287 58.8976 90.1618 58.234 90.5653 57.4335C90.9687 56.6329 91.1245 55.7313 91.0128 54.8428C90.863 53.6513 90.2436 52.5678 89.2907 51.8306C88.3378 51.0934 87.1295 50.7629 85.9316 50.9117Z" fill="#BBBBC3"/>
<path d="M85.5371 50.9615C84.6437 51.0725 83.8035 51.4446 83.1227 52.0305C82.4419 52.6165 81.951 53.3901 81.7123 54.2536C81.4735 55.117 81.4976 56.0315 81.7814 56.8814C82.0651 57.7313 82.5959 58.4783 83.3066 59.0281C84.0173 59.5779 84.8759 59.9058 85.7739 59.9702C86.6719 60.0346 87.5689 59.8327 88.3516 59.39C89.1342 58.9474 89.7673 58.2838 90.1708 57.4833C90.5742 56.6827 90.73 55.7811 90.6183 54.8925C90.5442 54.3025 90.3541 53.7329 90.0586 53.216C89.7632 52.6991 89.3682 52.2452 88.8964 51.8801C88.4245 51.5151 87.885 51.2461 87.3086 51.0885C86.7322 50.9309 86.1303 50.8877 85.5371 50.9615Z" fill="#F5F5F5"/>
<path d="M86.623 59.5996C85.8102 59.7 84.9857 59.5585 84.2537 59.1929C83.5217 58.8274 82.9151 58.2542 82.5105 57.5459C82.1059 56.8376 81.9215 56.0259 81.9805 55.2133C82.0395 54.4008 82.3393 53.6239 82.8421 52.9807C83.3449 52.3376 84.028 51.8572 84.8052 51.6001C85.5824 51.343 86.4188 51.3208 87.2087 51.5363C87.9986 51.7519 88.7065 52.1954 89.243 52.811C89.7795 53.4265 90.1205 54.1864 90.223 54.9947C90.358 56.0799 90.0549 57.1742 89.3801 58.0374C88.7052 58.9006 87.7137 59.4625 86.623 59.5996ZM85.6252 51.6577C84.8599 51.7528 84.1401 52.0715 83.5568 52.5734C82.9736 53.0754 82.5531 53.7381 82.3486 54.4777C82.144 55.2174 82.1646 56.0008 82.4076 56.7289C82.6507 57.4569 83.1053 58.0969 83.7141 58.5679C84.3229 59.039 85.0584 59.3198 85.8277 59.3751C86.5969 59.4303 87.3654 59.2574 88.0359 58.8783C88.7063 58.4991 89.2487 57.9307 89.5944 57.2449C89.94 56.5592 90.0735 55.7868 89.9779 55.0256C89.8483 54.0055 89.3174 53.0781 88.5015 52.4468C87.6855 51.8154 86.6512 51.5317 85.6252 51.6577Z" fill="#19AD1C"/>
<path d="M91.8516 53.9216C90.9582 54.0326 90.118 54.4046 89.4371 54.9906C88.7563 55.5766 88.2655 56.3502 88.0267 57.2136C87.788 58.0771 87.812 58.9916 88.0958 59.8414C88.3796 60.6913 88.9104 61.4384 89.6211 61.9882C90.3317 62.538 91.1903 62.8658 92.0883 62.9302C92.9863 62.9947 93.8834 62.7928 94.666 62.3501C95.4487 61.9074 96.0818 61.2439 96.4852 60.4433C96.8887 59.6428 97.0444 58.7411 96.9327 57.8526C96.7829 56.6611 96.1635 55.5777 95.2106 54.8405C94.2577 54.1033 93.0495 53.7727 91.8516 53.9216Z" fill="#BBBBC3"/>
<path d="M91.458 53.9705C90.5646 54.0815 89.7244 54.4535 89.0435 55.0395C88.3627 55.6255 87.8719 56.3991 87.6332 57.2626C87.3944 58.126 87.4185 59.0405 87.7023 59.8903C87.986 60.7402 88.5168 61.4873 89.2275 62.0371C89.9382 62.5869 90.7968 62.9148 91.6948 62.9792C92.5928 63.0436 93.4898 62.8417 94.2725 62.3991C95.0551 61.9564 95.6881 61.2928 96.0916 60.4922C96.4951 59.6917 96.6508 58.7901 96.5391 57.9015C96.3894 56.7101 95.7699 55.6266 94.817 54.8894C93.8641 54.1522 92.6559 53.8216 91.458 53.9705Z" fill="#F5F5F5"/>
<path d="M92.5429 62.6086C91.7301 62.709 90.9056 62.5674 90.1737 62.2019C89.4417 61.8364 88.835 61.2633 88.4304 60.5549C88.0258 59.8466 87.8414 59.0349 87.9004 58.2223C87.9594 57.4098 88.2593 56.6329 88.7621 55.9898C89.2648 55.3466 89.948 54.8662 90.7252 54.6091C91.5024 54.352 92.3387 54.3298 93.1286 54.5454C93.9185 54.7609 94.6264 55.2044 95.1629 55.82C95.6994 56.4355 96.0405 57.1954 96.143 58.0037C96.278 59.0889 95.9749 60.1831 95.3 61.0464C94.6252 61.9096 93.6336 62.4714 92.5429 62.6086ZM91.5451 54.6668C90.7798 54.7618 90.0601 55.0805 89.4768 55.5824C88.8936 56.0844 88.4731 56.7471 88.2685 57.4868C88.0639 58.2264 88.0845 59.0098 88.3276 59.7378C88.5706 60.4659 89.0253 61.1059 89.6341 61.577C90.2428 62.048 90.9783 62.3289 91.7476 62.3841C92.5169 62.4393 93.2853 62.2664 93.9558 61.8873C94.6263 61.5081 95.1687 60.9397 95.5143 60.2539C95.86 59.5681 95.9935 58.7958 95.8978 58.0346C95.7683 57.0145 95.2374 56.0871 94.4214 55.4558C93.6055 54.8244 92.5711 54.5407 91.5451 54.6668Z" fill="#19AD1C"/>
<path d="M100.977 75.4774H78.5254C78.0948 75.4774 77.6819 75.3072 77.3774 75.0044C77.0729 74.7015 76.9019 74.2908 76.9019 73.8625V58.9386C76.9019 58.5103 77.0729 58.0996 77.3774 57.7967C77.6819 57.4939 78.0948 57.3238 78.5254 57.3238H100.977C101.408 57.3238 101.821 57.4939 102.125 57.7967C102.43 58.0996 102.601 58.5103 102.601 58.9386V73.8617C102.601 74.2899 102.43 74.7007 102.125 75.0035C101.821 75.3064 101.408 75.4765 100.977 75.4765" fill="#E6E7EC"/>
<path d="M103.364 68.8807H95.3891C94.7277 68.8807 94.0935 68.6194 93.6259 68.1543C93.1582 67.6892 92.8955 67.0583 92.8955 66.4005C92.8955 65.7427 93.1582 65.1119 93.6259 64.6468C94.0935 64.1817 94.7277 63.9204 95.3891 63.9204H103.364V68.8807Z" fill="#BBBBC3"/>
<path d="M97.3447 66.4005C97.3447 66.7849 97.2301 67.1607 97.0153 67.4804C96.8006 67.8 96.4955 68.0491 96.1384 68.1962C95.7814 68.3433 95.3884 68.3818 95.0094 68.3068C94.6303 68.2318 94.2822 68.0467 94.0089 67.7749C93.7356 67.5031 93.5495 67.1568 93.4741 66.7797C93.3987 66.4027 93.4373 66.0119 93.5852 65.6567C93.7331 65.3016 93.9836 64.998 94.305 64.7845C94.6263 64.5709 95.0041 64.4569 95.3906 64.4569C95.9088 64.4569 96.4059 64.6617 96.7724 65.0262C97.1388 65.3907 97.3447 65.8851 97.3447 66.4005Z" fill="#FCFCFC"/>
<mask id="mask2_1_48" style="mask-type:luminance" maskUnits="userSpaceOnUse" x="164" y="72" width="13" height="13">
<path d="M176.348 72.2306H164.384V84.1301H176.348V72.2306Z" fill="white"/>
</mask>
<g mask="url(#mask2_1_48)">
<path d="M170.366 72.2306C169.182 72.2306 168.026 72.5796 167.042 73.2334C166.058 73.8873 165.291 74.8166 164.839 75.9039C164.386 76.9912 164.267 78.1876 164.498 79.3418C164.729 80.4961 165.299 81.5563 166.136 82.3884C166.973 83.2205 168.038 83.7872 169.199 84.0167C170.359 84.2462 171.562 84.1282 172.655 83.6777C173.748 83.2272 174.683 82.4645 175.34 81.4859C175.997 80.5073 176.348 79.3567 176.348 78.1799C176.348 76.6019 175.717 75.0887 174.595 73.973C173.473 72.8573 171.952 72.2306 170.366 72.2306ZM173.851 76.6286L169.924 80.5338C169.817 80.64 169.673 80.6996 169.521 80.6995H169.237C169.085 80.6996 168.941 80.64 168.834 80.5338L166.88 78.5911C166.773 78.4848 166.713 78.3406 166.713 78.1902C166.713 78.0398 166.773 77.8956 166.88 77.7892C166.987 77.6829 167.132 77.6232 167.283 77.6232C167.435 77.6232 167.579 77.6829 167.686 77.7892L168.848 78.9448C168.954 79.0502 169.098 79.1098 169.248 79.1106C169.398 79.1114 169.542 79.0534 169.649 78.9491L172.865 75.8225C172.972 75.7189 173.115 75.6609 173.264 75.6611H173.449C173.561 75.6609 173.672 75.6942 173.765 75.7564C173.859 75.8187 173.932 75.9072 173.975 76.0108C174.019 76.1144 174.03 76.2284 174.008 76.3383C173.986 76.4483 173.931 76.5493 173.851 76.6286Z" fill="#E6E7EC"/>
</g>
<path d="M54.9278 46.3429L54.4194 46.4055C54.3337 46.406 54.2508 46.3752 54.1864 46.3189C54.122 46.2626 54.0806 46.1848 54.0699 46.1002C54.0593 46.0157 54.0802 45.9301 54.1287 45.8598C54.1772 45.7895 54.2499 45.7393 54.3331 45.7188C54.6352 45.6821 54.9425 45.6432 55.2549 45.602C55.341 45.6005 55.4247 45.6305 55.4899 45.6864C55.5552 45.7423 55.5974 45.8202 55.6086 45.9051C55.6199 45.9901 55.5992 46.0761 55.5507 46.1469C55.5022 46.2177 55.4291 46.2682 55.3455 46.2888L54.9226 46.3437M56.2691 46.1609C56.1826 46.1634 56.0983 46.134 56.0324 46.0783C55.9664 46.0227 55.9234 45.9448 55.9118 45.8595C55.9001 45.7743 55.9205 45.6878 55.9691 45.6166C56.0177 45.5455 56.091 45.4947 56.175 45.4741C56.4776 45.4306 56.7846 45.3848 57.0959 45.3367C57.1839 45.3301 57.2712 45.3567 57.3403 45.4112C57.4095 45.4657 57.4553 45.5442 57.4689 45.6309C57.4824 45.7176 57.4625 45.8062 57.4132 45.879C57.3639 45.9518 57.2888 46.0034 57.203 46.0235C56.8899 46.0716 56.5807 46.1177 56.2751 46.1617L56.2691 46.1609ZM53.4899 46.5129H53.4821C53.1645 46.5463 52.8503 46.5773 52.5473 46.6047C52.4571 46.6091 52.3686 46.5785 52.3004 46.5195C52.2322 46.4605 52.1895 46.3775 52.1814 46.2879C52.1733 46.1984 52.2003 46.1092 52.2567 46.0389C52.3132 45.9687 52.3947 45.9229 52.4843 45.9111C52.783 45.8845 53.0937 45.8535 53.4079 45.8209C53.4985 45.8132 53.5886 45.8409 53.6591 45.8981C53.7296 45.9553 53.775 46.0375 53.7857 46.1274C53.7963 46.2173 53.7714 46.3078 53.7162 46.3797C53.661 46.4516 53.5798 46.4994 53.4899 46.5129ZM58.1161 45.8784C58.0289 45.883 57.9432 45.855 57.8756 45.8C57.8081 45.7449 57.7636 45.6668 57.751 45.5808C57.7384 45.4949 57.7584 45.4074 57.8073 45.3354C57.8562 45.2634 57.9303 45.2121 58.0152 45.1917C58.3178 45.1424 58.6242 45.0915 58.9344 45.0388C59.0246 45.0262 59.1163 45.049 59.1899 45.1025C59.2635 45.1559 59.3133 45.2358 59.3287 45.3252C59.3441 45.4145 59.3239 45.5063 59.2723 45.5811C59.2208 45.6558 59.142 45.7077 59.0526 45.7256C58.7413 45.7789 58.4332 45.8301 58.1282 45.8793H58.1161M51.6298 46.6786H51.6091C51.2863 46.7009 50.9704 46.7189 50.6692 46.7335C50.6218 46.7382 50.574 46.7332 50.5287 46.7189C50.4833 46.7046 50.4413 46.6813 50.4053 46.6503C50.3694 46.6193 50.3401 46.5814 50.3193 46.5388C50.2985 46.4962 50.2867 46.4498 50.2845 46.4026C50.2824 46.3553 50.2899 46.3081 50.3067 46.2638C50.3234 46.2195 50.3491 46.179 50.3821 46.1449C50.4151 46.1108 50.4548 46.0838 50.4986 46.0654C50.5425 46.047 50.5897 46.0378 50.6373 46.0381C50.9333 46.0244 51.2415 46.0063 51.5608 45.984C51.6506 45.9797 51.7386 46.0099 51.8066 46.0683C51.8746 46.1267 51.9175 46.2088 51.9264 46.2978C51.9352 46.3867 51.9094 46.4757 51.8542 46.5462C51.799 46.6167 51.7187 46.6635 51.6298 46.6768M59.958 45.5608C59.8703 45.5668 59.7834 45.5398 59.7148 45.4851C59.6461 45.4305 59.6007 45.3521 59.5874 45.2656C59.5742 45.1791 59.5941 45.0909 59.6432 45.0183C59.6924 44.9458 59.7672 44.8943 59.8527 44.874C60.1554 44.8202 60.4609 44.7647 60.7693 44.7075C60.8147 44.6991 60.8612 44.6997 60.9063 44.7093C60.9514 44.7188 60.9942 44.7371 61.0322 44.7631C61.0702 44.7891 61.1026 44.8223 61.1277 44.8607C61.1528 44.8992 61.1701 44.9422 61.1785 44.9873C61.1868 45.0324 61.1862 45.0787 61.1766 45.1236C61.167 45.1684 61.1486 45.211 61.1225 45.2488C61.0964 45.2865 61.063 45.3188 61.0243 45.3438C60.9856 45.3688 60.9424 45.3859 60.8971 45.3943C60.5869 45.4515 60.2797 45.5073 59.9753 45.5617H59.958M49.7647 46.7584H49.7258C49.3978 46.7635 49.0794 46.7627 48.7764 46.7584C48.7291 46.7594 48.682 46.751 48.6381 46.7334C48.5942 46.7159 48.5543 46.6897 48.5208 46.6564C48.4874 46.6231 48.461 46.5834 48.4434 46.5397C48.4258 46.496 48.4172 46.4493 48.4183 46.4022C48.4193 46.3551 48.43 46.3088 48.4495 46.2659C48.4691 46.223 48.4972 46.1846 48.5321 46.1528C48.567 46.121 48.608 46.0966 48.6527 46.081C48.6973 46.0654 48.7447 46.059 48.7919 46.0622C49.0837 46.0682 49.3961 46.069 49.712 46.0622C49.8009 46.0617 49.8866 46.0948 49.9518 46.1548C50.017 46.2148 50.0569 46.2972 50.0634 46.3853C50.0699 46.4735 50.0424 46.5607 49.9866 46.6295C49.9309 46.6983 49.8509 46.7435 49.7629 46.7558M61.7938 45.22C61.7053 45.2281 61.6171 45.2024 61.5469 45.1482C61.4767 45.094 61.4298 45.0153 61.4158 44.928C61.4017 44.8407 61.4215 44.7514 61.4712 44.6781C61.5209 44.6048 61.5968 44.553 61.6834 44.5332L62.5983 44.3563C62.6436 44.3475 62.6903 44.3476 62.7356 44.3567C62.7808 44.3658 62.8239 44.3836 62.8622 44.4093C62.9006 44.4349 62.9335 44.4678 62.959 44.5061C62.9846 44.5443 63.0024 44.5873 63.0113 44.6323C63.0202 44.6774 63.02 44.7238 63.0109 44.7689C63.0018 44.8139 62.9838 44.8568 62.958 44.8949C62.9323 44.9331 62.8992 44.9658 62.8607 44.9912C62.8223 45.0167 62.7791 45.0343 62.7338 45.0431L61.8146 45.2209H61.793M63.6262 44.8611C63.5371 44.8709 63.4476 44.8463 63.3762 44.7924C63.3047 44.7385 63.2568 44.6594 63.2422 44.5714C63.2276 44.4834 63.2475 44.3932 63.2977 44.3193C63.348 44.2455 63.4247 44.1936 63.5123 44.1743L64.4255 43.9881C64.4714 43.9761 64.5194 43.9736 64.5663 43.9806C64.6133 43.9877 64.6584 44.0042 64.6987 44.0291C64.7391 44.054 64.774 44.0868 64.8012 44.1256C64.8284 44.1643 64.8474 44.2081 64.8571 44.2544C64.8668 44.3006 64.8669 44.3484 64.8574 44.3947C64.848 44.441 64.8291 44.4849 64.8021 44.5238C64.775 44.5626 64.7403 44.5956 64.7 44.6207C64.6598 44.6458 64.6148 44.6624 64.5679 44.6697L63.6513 44.8568H63.6254M65.4552 44.4791C65.3652 44.491 65.2741 44.4678 65.201 44.4142C65.1279 44.3607 65.0786 44.281 65.0634 44.192C65.0482 44.103 65.0683 44.0116 65.1195 43.9371C65.1706 43.8625 65.2489 43.8106 65.3378 43.7923L66.2501 43.5974C66.3394 43.5816 66.4313 43.6008 66.5067 43.651C66.582 43.7013 66.6348 43.7786 66.6541 43.8667C66.6733 43.9549 66.6574 44.047 66.6097 44.1237C66.5621 44.2005 66.4864 44.2558 66.3985 44.2782L65.4836 44.4739L65.4552 44.4782M47.8952 46.7103C47.8716 46.7127 47.8479 46.7127 47.8244 46.7103C47.4861 46.6854 47.165 46.6502 46.8706 46.6064C46.7854 46.5861 46.7109 46.5347 46.6619 46.4623C46.6129 46.39 46.5929 46.3021 46.6059 46.2158C46.6189 46.1296 46.664 46.0513 46.7321 45.9965C46.8003 45.9416 46.8867 45.9142 46.9742 45.9197C47.2513 45.9609 47.5551 45.9935 47.8762 46.0175C47.9623 46.0244 48.0429 46.0627 48.1023 46.1251C48.1618 46.1875 48.196 46.2695 48.1983 46.3555C48.2007 46.4414 48.171 46.5251 48.1151 46.5906C48.0591 46.6561 47.9808 46.6988 47.8952 46.7103ZM67.2815 44.0876C67.1909 44.1012 67.0985 44.0789 67.0242 44.0256C66.9499 43.9722 66.8996 43.8921 66.884 43.8022C66.8684 43.7124 66.8888 43.6201 66.9409 43.5451C66.9929 43.47 67.0724 43.4182 67.1624 43.4008L68.073 43.1991C68.1613 43.1843 68.2521 43.2038 68.3264 43.2535C68.4008 43.3032 68.4533 43.3793 68.4729 43.4663C68.4926 43.5533 68.478 43.6444 68.4322 43.721C68.3864 43.7976 68.3128 43.8539 68.2266 43.8782L67.3134 44.0808L67.2824 44.0859M69.1053 43.679C69.0137 43.695 68.9195 43.6743 68.8433 43.6212C68.7672 43.5682 68.7153 43.4872 68.6992 43.3961C68.683 43.305 68.7039 43.2113 68.7573 43.1356C68.8106 43.0598 68.892 43.0083 68.9836 42.9922L69.8933 42.7845C69.9817 42.7688 70.0728 42.7875 70.1477 42.8367C70.2227 42.886 70.2758 42.9619 70.296 43.049C70.3163 43.136 70.3022 43.2274 70.2566 43.3044C70.2111 43.3814 70.1376 43.438 70.0512 43.4627L69.1398 43.6713L69.1061 43.6773M70.9264 43.2575C70.8349 43.2739 70.7405 43.2534 70.6641 43.2006C70.5877 43.1478 70.5355 43.067 70.519 42.9759C70.5026 42.8848 70.5231 42.791 70.5762 42.715C70.6293 42.639 70.7106 42.5871 70.8021 42.5707L71.7101 42.3569C71.7986 42.3403 71.8902 42.3582 71.9657 42.407C72.0413 42.4557 72.0951 42.5315 72.116 42.6186C72.1369 42.7058 72.1232 42.7976 72.0778 42.875C72.0325 42.9524 71.9589 43.0094 71.8724 43.0343L70.9618 43.248L70.9256 43.2549M46.0542 46.4167C46.0082 46.4225 45.9616 46.4193 45.9169 46.4073C45.5912 46.3219 45.2757 46.2016 44.9761 46.0484C44.8975 46.0033 44.8396 45.9296 44.8145 45.8429C44.7894 45.7561 44.7991 45.6631 44.8416 45.5833C44.8841 45.5036 44.9561 45.4433 45.0424 45.4153C45.1286 45.3872 45.2224 45.3935 45.3041 45.4329C45.5584 45.5624 45.8261 45.664 46.1025 45.7359C46.1805 45.7573 46.2486 45.805 46.2953 45.8707C46.342 45.9364 46.3645 46.0161 46.3588 46.0964C46.3531 46.1767 46.3196 46.2526 46.2641 46.3111C46.2086 46.3696 46.1344 46.4072 46.0542 46.4176M72.7433 42.8257C72.6517 42.8423 72.5573 42.822 72.4807 42.7694C72.4041 42.7167 72.3517 42.636 72.335 42.5449C72.3183 42.4539 72.3387 42.3599 72.3916 42.2838C72.4445 42.2076 72.5257 42.1555 72.6173 42.1389L73.5244 41.92C73.5699 41.9066 73.6176 41.9025 73.6648 41.9081C73.7119 41.9136 73.7574 41.9286 73.7985 41.9521C73.8396 41.9757 73.8755 42.0073 73.904 42.045C73.9325 42.0828 73.9529 42.1259 73.9641 42.1717C73.9754 42.2176 73.9771 42.2652 73.9693 42.3117C73.9615 42.3583 73.9442 42.4028 73.9186 42.4425C73.893 42.4822 73.8595 42.5163 73.8202 42.5428C73.781 42.5692 73.7367 42.5875 73.6901 42.5965L72.7813 42.8162L72.7433 42.8231M74.5558 42.3827C74.5105 42.391 74.4639 42.3904 74.4188 42.3809C74.3737 42.3713 74.331 42.353 74.293 42.327C74.255 42.301 74.2225 42.2679 74.1974 42.2294C74.1723 42.1909 74.1551 42.1479 74.1467 42.1028C74.1383 42.0577 74.1389 42.0114 74.1485 41.9666C74.1581 41.9217 74.1765 41.8792 74.2027 41.8414C74.2288 41.8036 74.2621 41.7713 74.3008 41.7463C74.3395 41.7214 74.3827 41.7042 74.4281 41.6959L75.3344 41.4727C75.4244 41.4499 75.5199 41.4637 75.5998 41.5109C75.6797 41.5582 75.7374 41.6351 75.7603 41.7247C75.7832 41.8142 75.7693 41.9092 75.7218 41.9887C75.6743 42.0681 75.597 42.1256 75.507 42.1483L74.5998 42.3724L74.5601 42.3801M76.3727 41.9303C76.3273 41.9387 76.2807 41.9382 76.2356 41.9288C76.1905 41.9193 76.1476 41.9011 76.1096 41.8752C76.0715 41.8493 76.0389 41.8162 76.0137 41.7778C75.9885 41.7393 75.9712 41.6963 75.9627 41.6512C75.9542 41.6061 75.9547 41.5598 75.9642 41.5149C75.9737 41.47 75.992 41.4274 76.018 41.3896C76.0441 41.3517 76.0774 41.3193 76.116 41.2943C76.1546 41.2692 76.1978 41.2519 76.2432 41.2435L77.1477 41.016C77.1931 41.0021 77.2408 40.9976 77.288 41.0026C77.3352 41.0077 77.3808 41.0222 77.4222 41.0453C77.4635 41.0685 77.4997 41.0997 77.5286 41.1371C77.5575 41.1746 77.5784 41.2175 77.5901 41.2632C77.6018 41.309 77.6041 41.3566 77.5967 41.4032C77.5893 41.4498 77.5725 41.4945 77.5473 41.5345C77.5221 41.5744 77.489 41.6089 77.45 41.6358C77.4109 41.6626 77.3669 41.6813 77.3204 41.6908L76.4141 41.9191C76.4004 41.9225 76.3866 41.9251 76.3727 41.9268M78.1852 41.4684C78.0936 41.4857 77.9989 41.4661 77.9218 41.414C77.8448 41.3618 77.7918 41.2813 77.7744 41.1902C77.757 41.0992 77.7767 41.0049 77.8291 40.9283C77.8815 40.8517 77.9624 40.7989 78.054 40.7816L78.9577 40.5498C79.0033 40.5349 79.0516 40.5294 79.0994 40.5338C79.1472 40.5381 79.1937 40.5523 79.2358 40.5752C79.2779 40.5982 79.3149 40.6295 79.3443 40.6673C79.3737 40.7051 79.3951 40.7485 79.4069 40.7948C79.4188 40.8411 79.4209 40.8894 79.4133 40.9365C79.4056 40.9837 79.3883 41.0288 79.3623 41.0691C79.3364 41.1093 79.3024 41.1438 79.2624 41.1704C79.2225 41.197 79.1776 41.2151 79.1303 41.2237L78.2249 41.4555C78.2107 41.4593 78.1963 41.4622 78.1818 41.4641M79.9882 40.9988C79.9005 41.0087 79.8123 40.9853 79.7412 40.9333C79.6701 40.8813 79.6213 40.8046 79.6046 40.7184C79.5879 40.6321 79.6046 40.5428 79.6512 40.4683C79.6979 40.3938 79.7711 40.3395 79.8562 40.3163L80.7572 40.0811C80.8023 40.0678 80.8495 40.0636 80.8962 40.0688C80.9429 40.074 80.988 40.0885 81.029 40.1115C81.0699 40.1344 81.1058 40.1652 81.1345 40.2022C81.1632 40.2392 81.1841 40.2815 81.196 40.3267C81.2079 40.3719 81.2106 40.419 81.2039 40.4652C81.1971 40.5115 81.1811 40.5559 81.1568 40.5958C81.1324 40.6358 81.1002 40.6705 81.0622 40.6978C81.0241 40.7252 80.9809 40.7446 80.9351 40.755L80.0323 40.9902C80.0178 40.994 80.0031 40.9969 79.9882 40.9988ZM44.4721 45.4895C44.4097 45.4975 44.3464 45.4886 44.2887 45.4638C44.231 45.4391 44.181 45.3993 44.1441 45.3488C44.1234 45.3204 44.1035 45.2912 44.0854 45.2629C43.9196 45.0073 43.7789 44.7365 43.6651 44.4542C43.6307 44.3683 43.6321 44.2723 43.669 44.1873C43.7058 44.1024 43.775 44.0355 43.8614 44.0014C43.9478 43.9672 44.0443 43.9686 44.1297 44.0052C44.2151 44.0418 44.2824 44.1107 44.3167 44.1967C44.4141 44.4364 44.5343 44.6664 44.6758 44.8835C44.687 44.9015 44.6991 44.9187 44.7112 44.9358C44.7468 44.9847 44.7691 45.042 44.7758 45.1021C44.7825 45.1621 44.7734 45.2229 44.7494 45.2784C44.7254 45.3339 44.6872 45.3822 44.6388 45.4186C44.5903 45.455 44.5332 45.4783 44.4729 45.4861M81.7939 40.5232C81.7059 40.5339 81.6171 40.5111 81.5453 40.4592C81.4736 40.4074 81.4243 40.3305 81.4073 40.2439C81.3904 40.1574 81.407 40.0677 81.4539 39.9929C81.5008 39.918 81.5745 39.8637 81.6601 39.8407L82.5629 39.602C82.6513 39.5823 82.7439 39.5973 82.8214 39.6439C82.8988 39.6906 82.9551 39.7653 82.9784 39.8523C83.0018 39.9393 82.9903 40.032 82.9465 40.1108C82.9026 40.1896 82.8298 40.2485 82.7433 40.2751L81.8388 40.5146C81.8237 40.5184 81.8084 40.5212 81.793 40.5232M83.6003 40.0433C83.513 40.053 83.4252 40.0296 83.3543 39.9779C83.2835 39.9262 83.2348 39.8499 83.2178 39.7641C83.2009 39.6783 83.217 39.5893 83.2629 39.5148C83.3088 39.4403 83.3812 39.3856 83.4657 39.3617L84.3703 39.1187C84.4583 39.0992 84.5506 39.1141 84.6278 39.1605C84.7051 39.2069 84.7613 39.2812 84.7849 39.3678C84.8085 39.4544 84.7976 39.5467 84.7544 39.6256C84.7112 39.7044 84.6392 39.7636 84.5532 39.7909L83.6478 40.0339C83.6325 40.038 83.617 40.0412 83.6012 40.0433M85.4077 39.5565C85.3201 39.567 85.2317 39.5441 85.1603 39.4926C85.0889 39.441 85.0397 39.3646 85.0224 39.2785C85.0052 39.1924 85.0213 39.103 85.0674 39.0282C85.1136 38.9534 85.1864 38.8987 85.2714 38.8749L86.1715 38.6302C86.2167 38.6152 86.2646 38.6095 86.312 38.6135C86.3595 38.6175 86.4057 38.631 86.4478 38.6534C86.4898 38.6757 86.5268 38.7063 86.5565 38.7434C86.5863 38.7804 86.6081 38.8231 86.6206 38.8688C86.6332 38.9145 86.6363 38.9623 86.6297 39.0093C86.623 39.0562 86.6069 39.1013 86.5821 39.1418C86.5574 39.1823 86.5246 39.2174 86.4857 39.2448C86.4469 39.2723 86.4028 39.2916 86.3562 39.3016L85.4552 39.5471C85.4393 39.5514 85.424 39.5545 85.4077 39.5565ZM87.209 39.0646C87.1213 39.0754 87.0326 39.0529 86.9609 39.0014C86.8892 38.95 86.8397 38.8734 86.8223 38.7872C86.8049 38.7009 86.821 38.6113 86.8672 38.5364C86.9135 38.4614 86.9866 38.4066 87.0718 38.383L87.9712 38.1357C88.0605 38.111 88.1562 38.1227 88.2369 38.1681C88.3177 38.2135 88.377 38.2889 88.4019 38.3778C88.4267 38.4668 88.415 38.5618 88.3694 38.6422C88.3237 38.7225 88.2478 38.7815 88.1584 38.8062L87.2573 39.0543C87.2412 39.0587 87.2247 39.0618 87.2081 39.0638M89.0086 38.5667C88.9214 38.5765 88.8338 38.5535 88.7629 38.5021C88.692 38.4508 88.643 38.3748 88.6257 38.2893C88.6083 38.2038 88.6238 38.1149 88.6692 38.0402C88.7145 37.9656 88.7863 37.9105 88.8705 37.8859L89.7699 37.6353C89.8148 37.6204 89.8624 37.6148 89.9096 37.6188C89.9568 37.6228 90.0028 37.6363 90.0446 37.6584C90.0864 37.6805 90.1233 37.7109 90.1531 37.7476C90.1828 37.7843 90.2047 37.8266 90.2175 37.872C90.2303 37.9174 90.2337 37.9649 90.2275 38.0116C90.2213 38.0584 90.2056 38.1033 90.1815 38.1439C90.1573 38.1844 90.1251 38.2197 90.0868 38.2475C90.0486 38.2753 90.0051 38.2951 89.9589 38.3057L89.0587 38.5564C89.0423 38.561 89.0255 38.5645 89.0086 38.5667ZM90.8073 38.0645C90.7201 38.0747 90.6321 38.0519 90.5609 38.0006C90.4897 37.9494 90.4405 37.8734 90.423 37.7877C90.4056 37.702 90.4211 37.6129 90.4665 37.5381C90.5119 37.4633 90.584 37.4082 90.6684 37.3837L91.5669 37.1305C91.6543 37.1111 91.7458 37.1257 91.8227 37.1712C91.8995 37.2168 91.956 37.29 91.9804 37.3756C92.0048 37.4613 91.9953 37.553 91.9539 37.6319C91.9125 37.7108 91.8423 37.771 91.7576 37.8001L90.8582 38.0533C90.8415 38.058 90.8245 38.0614 90.8073 38.0636M92.6043 37.5563C92.5169 37.5669 92.4287 37.5443 92.3572 37.4931C92.2857 37.4419 92.2363 37.3658 92.2186 37.28C92.201 37.1942 92.2165 37.1049 92.2621 37.03C92.3077 36.955 92.3799 36.8999 92.4645 36.8755L93.3621 36.618C93.4503 36.596 93.5436 36.6089 93.6223 36.6541C93.701 36.6992 93.7591 36.773 93.7841 36.8598C93.8092 36.9467 93.7994 37.0399 93.7567 37.1197C93.714 37.1995 93.6419 37.2597 93.5555 37.2876L92.657 37.5451C92.64 37.5497 92.6227 37.5531 92.6052 37.5554M43.8144 43.7666H43.8014C43.7556 43.7708 43.7094 43.766 43.6655 43.7525C43.6215 43.7389 43.5807 43.7169 43.5453 43.6876C43.51 43.6584 43.4808 43.6224 43.4594 43.5819C43.438 43.5414 43.4249 43.4971 43.4208 43.4515C43.3892 43.1092 43.4128 42.764 43.4907 42.429C43.5157 42.3436 43.5726 42.2709 43.6498 42.2258C43.727 42.1808 43.8186 42.1668 43.9059 42.1868C43.9931 42.2068 44.0693 42.2592 44.1189 42.3333C44.1685 42.4074 44.1877 42.4976 44.1726 42.5853C44.1114 42.8482 44.0928 43.1192 44.1173 43.388C44.1257 43.4777 44.0986 43.5672 44.042 43.6375C43.9853 43.7078 43.9034 43.7534 43.8135 43.7648M94.4004 37.042C94.3136 37.0517 94.2262 37.0287 94.1555 36.9777C94.0848 36.9266 94.0359 36.851 94.0183 36.7659C94.0006 36.6808 94.0157 36.5922 94.0603 36.5175C94.105 36.4427 94.1762 36.3874 94.2598 36.3621L95.1574 36.1046C95.2448 36.0844 95.3366 36.0984 95.414 36.1435C95.4913 36.1887 95.5483 36.2617 95.5732 36.3474C95.5981 36.4331 95.589 36.5251 95.5478 36.6043C95.5065 36.6835 95.4363 36.744 95.3516 36.7733L94.454 37.0309C94.4367 37.0357 94.4191 37.0391 94.4013 37.0412M96.1966 36.5261C96.1096 36.5361 96.022 36.5134 95.951 36.4624C95.8801 36.4114 95.8309 36.3358 95.8131 36.2505C95.7954 36.1653 95.8103 36.0764 95.8551 36.0016C95.8999 35.9268 95.9712 35.8713 96.055 35.8462L96.9518 35.5886C96.9965 35.5738 97.0438 35.5681 97.0908 35.5718C97.1378 35.5756 97.1836 35.5888 97.2254 35.6105C97.2671 35.6323 97.304 35.6622 97.3339 35.6985C97.3638 35.7348 97.386 35.7767 97.3992 35.8217C97.4123 35.8668 97.4163 35.914 97.4107 35.9605C97.4051 36.0071 97.3901 36.0521 97.3667 36.0928C97.3432 36.1334 97.3117 36.169 97.274 36.1973C97.2364 36.2255 97.1935 36.246 97.1478 36.2574L96.2501 36.5149C96.2326 36.52 96.2147 36.5237 96.1966 36.5261ZM97.9901 36.005C97.9037 36.0142 97.8169 35.9911 97.7466 35.9402C97.6763 35.8893 97.6275 35.8143 97.6098 35.7296C97.592 35.6449 97.6066 35.5567 97.6505 35.4821C97.6945 35.4075 97.7648 35.3519 97.8477 35.3259L98.7437 35.0641C98.7885 35.0485 98.836 35.0422 98.8834 35.0454C98.9307 35.0487 98.9769 35.0615 99.0192 35.0831C99.0614 35.1047 99.0988 35.1346 99.1291 35.1709C99.1593 35.2073 99.1819 35.2494 99.1953 35.2947C99.2087 35.34 99.2127 35.3876 99.2071 35.4345C99.2015 35.4814 99.1863 35.5266 99.1625 35.5675C99.1388 35.6084 99.1069 35.6441 99.0689 35.6724C99.0309 35.7006 98.9875 35.7209 98.9413 35.732L98.0445 35.9947C98.0267 35.9998 98.0085 36.0035 97.9901 36.0058M99.7828 35.4813C99.6963 35.4909 99.6092 35.468 99.5387 35.4172C99.4681 35.3664 99.4192 35.2912 99.4013 35.2065C99.3834 35.1217 99.3978 35.0333 99.4419 34.9586C99.4859 34.8838 99.5564 34.8281 99.6395 34.8022L100.535 34.5387C100.623 34.5158 100.717 34.5278 100.796 34.5722C100.875 34.6166 100.934 34.6899 100.96 34.7767C100.986 34.8634 100.977 34.9567 100.935 35.037C100.893 35.1172 100.821 35.178 100.735 35.2066L99.8389 35.471C99.8209 35.4764 99.8024 35.4805 99.7837 35.483M101.576 34.9542C101.489 34.9641 101.402 34.9415 101.331 34.8907C101.26 34.84 101.211 34.7648 101.193 34.6799C101.175 34.595 101.189 34.5064 101.233 34.4316C101.277 34.3567 101.348 34.3009 101.431 34.2751L102.326 34.009C102.414 33.988 102.506 34.001 102.584 34.0455C102.661 34.0899 102.719 34.1624 102.745 34.248C102.771 34.3336 102.762 34.4257 102.722 34.5053C102.681 34.585 102.611 34.6461 102.527 34.676L101.631 34.9422C101.612 34.9477 101.594 34.9517 101.575 34.9542M44.2105 42.0015C44.1462 42.0098 44.0808 42.0002 44.0217 41.9737C43.9625 41.9472 43.9119 41.9049 43.8755 41.8515C43.8391 41.7981 43.8183 41.7357 43.8154 41.6713C43.8125 41.6068 43.8277 41.5428 43.8593 41.4864C44.0208 41.1966 44.2107 40.9235 44.4263 40.6709C44.4552 40.6336 44.4913 40.6025 44.5325 40.5795C44.5738 40.5565 44.6193 40.542 44.6663 40.5369C44.7133 40.5319 44.7608 40.5363 44.8061 40.55C44.8513 40.5637 44.8933 40.5864 44.9295 40.6166C44.9657 40.6469 44.9954 40.6841 45.0167 40.7261C45.038 40.7681 45.0506 40.8139 45.0537 40.8608C45.0568 40.9078 45.0503 40.9548 45.0346 40.9992C45.0189 41.0436 44.9943 41.0843 44.9623 41.119C44.7767 41.3365 44.6131 41.5718 44.4738 41.8212C44.4477 41.8691 44.4107 41.9102 44.3657 41.9412C44.3207 41.9722 44.2691 41.9923 44.2149 41.9998M103.37 34.4194C103.283 34.4296 103.196 34.4072 103.124 34.3566C103.053 34.306 103.004 34.2307 102.986 34.1457C102.968 34.0606 102.982 33.9719 103.026 33.8969C103.071 33.8218 103.141 33.766 103.225 33.7403L104.119 33.4725C104.164 33.4573 104.211 33.4513 104.258 33.4547C104.305 33.4581 104.351 33.4709 104.392 33.4923C104.434 33.5137 104.471 33.5434 104.501 33.5793C104.532 33.6153 104.554 33.657 104.568 33.7018C104.581 33.7467 104.586 33.7938 104.581 33.8403C104.575 33.8869 104.561 33.9319 104.538 33.9728C104.515 34.0136 104.484 34.0495 104.447 34.0781C104.409 34.1067 104.367 34.1276 104.321 34.1395L103.426 34.4073C103.407 34.4128 103.388 34.4169 103.369 34.4194M105.158 33.8828C105.071 33.8934 104.984 33.8713 104.912 33.8207C104.841 33.7702 104.791 33.6949 104.773 33.6097C104.754 33.5245 104.769 33.4355 104.813 33.3604C104.858 33.2853 104.929 33.2294 105.012 33.2037L105.907 32.9342C105.994 32.9122 106.086 32.9245 106.165 32.9685C106.243 33.0125 106.302 33.0849 106.328 33.1706C106.354 33.2564 106.346 33.3488 106.306 33.4288C106.265 33.5088 106.195 33.5703 106.11 33.6004L105.216 33.8699C105.197 33.8756 105.178 33.8796 105.158 33.8819M106.947 33.3411C106.86 33.3506 106.774 33.3278 106.703 33.2773C106.633 33.2268 106.584 33.152 106.566 33.0676C106.547 32.9831 106.561 32.8949 106.605 32.8202C106.648 32.7454 106.718 32.6894 106.801 32.6629L107.694 32.3916C107.782 32.3675 107.876 32.3784 107.956 32.422C108.036 32.4657 108.096 32.5386 108.122 32.6254C108.149 32.7121 108.141 32.8058 108.099 32.8866C108.058 32.9673 107.986 33.0288 107.9 33.0578L107.005 33.3299C106.986 33.3355 106.967 33.3395 106.948 33.342M108.734 32.7977C108.648 32.8075 108.561 32.785 108.49 32.7345C108.419 32.6841 108.37 32.6093 108.352 32.5247C108.334 32.4401 108.347 32.3518 108.391 32.2769C108.435 32.202 108.505 32.1459 108.587 32.1195L109.481 31.8465C109.568 31.8243 109.66 31.8364 109.739 31.8802C109.817 31.9239 109.876 31.996 109.902 32.0815C109.929 32.167 109.921 32.2593 109.881 32.3394C109.841 32.4195 109.772 32.4812 109.687 32.5118L108.794 32.7856C108.775 32.7914 108.755 32.7958 108.735 32.7985M45.3947 40.5773C45.3213 40.5861 45.247 40.5716 45.1824 40.5357C45.1178 40.4999 45.0663 40.4446 45.0353 40.3778C45.0043 40.311 44.9955 40.2361 45.01 40.164C45.0244 40.0919 45.0615 40.0262 45.1159 39.9763C45.3429 39.7729 45.5958 39.5694 45.8677 39.3694C45.9045 39.3396 45.947 39.3175 45.9926 39.3045C46.0383 39.2915 46.0861 39.2879 46.1331 39.2938C46.1802 39.2997 46.2256 39.3151 46.2665 39.339C46.3075 39.3629 46.3431 39.3949 46.3712 39.4329C46.3994 39.4709 46.4195 39.5142 46.4303 39.5601C46.4411 39.6061 46.4424 39.6538 46.4342 39.7003C46.4259 39.7467 46.4082 39.7911 46.3822 39.8306C46.3562 39.8701 46.3224 39.9039 46.2829 39.93C46.0291 40.1154 45.7944 40.3051 45.5846 40.4931C45.5317 40.5406 45.4654 40.5705 45.3947 40.579M110.522 32.2517C110.435 32.2618 110.348 32.2396 110.277 32.1892C110.206 32.1388 110.156 32.064 110.138 31.9793C110.12 31.8945 110.134 31.806 110.177 31.731C110.221 31.656 110.291 31.5998 110.374 31.5735L111.267 31.2988C111.311 31.2835 111.358 31.2773 111.405 31.2805C111.452 31.2836 111.497 31.2961 111.539 31.3172C111.581 31.3383 111.618 31.3675 111.648 31.4031C111.679 31.4388 111.702 31.4801 111.716 31.5247C111.729 31.5693 111.734 31.6162 111.73 31.6626C111.725 31.7091 111.711 31.7542 111.689 31.7951C111.666 31.8361 111.636 31.8722 111.599 31.9012C111.562 31.9302 111.52 31.9516 111.475 31.9641L110.581 32.2397C110.562 32.2456 110.542 32.2499 110.522 32.2525M112.307 31.7005C112.221 31.711 112.133 31.689 112.062 31.6387C111.991 31.5885 111.941 31.5136 111.923 31.4287C111.904 31.3438 111.918 31.2551 111.962 31.18C112.005 31.1048 112.076 31.0486 112.159 31.0223L113.051 30.745C113.138 30.7227 113.231 30.7345 113.309 30.778C113.388 30.8215 113.447 30.8932 113.473 30.9785C113.5 31.0638 113.493 31.1561 113.453 31.2363C113.414 31.3165 113.345 31.3785 113.26 31.4095L112.368 31.6868C112.348 31.6928 112.328 31.6979 112.307 31.7005ZM114.091 31.1442C114.005 31.154 113.919 31.1316 113.848 31.0814C113.777 31.0313 113.728 30.9568 113.71 30.8726C113.691 30.7883 113.704 30.7002 113.747 30.6252C113.79 30.5503 113.86 30.4939 113.942 30.4669L114.834 30.1879C114.921 30.1636 115.015 30.1741 115.095 30.2172C115.175 30.2602 115.235 30.3326 115.262 30.4188C115.289 30.5051 115.282 30.5985 115.241 30.6794C115.201 30.7603 115.13 30.8223 115.044 30.8523L114.152 31.1313C114.132 31.1373 114.112 31.1416 114.091 31.1442ZM46.8931 39.4715C46.814 39.4815 46.7338 39.4644 46.6659 39.423C46.5979 39.3815 46.5461 39.3183 46.5192 39.2436C46.4922 39.169 46.4917 39.0874 46.5176 39.0124C46.5435 38.9374 46.5944 38.8735 46.6618 38.8311C46.9207 38.6697 47.196 38.5083 47.4843 38.3495C47.5651 38.3102 47.658 38.3032 47.7438 38.3301C47.8296 38.357 47.9018 38.4157 47.9452 38.4941C47.9887 38.5724 48.0003 38.6644 47.9775 38.7509C47.9546 38.8375 47.8992 38.912 47.8227 38.959C47.5456 39.111 47.2806 39.2664 47.0338 39.4209C46.9909 39.4479 46.9434 39.4652 46.8931 39.4715ZM115.876 30.612C115.79 30.6217 115.703 30.5994 115.633 30.5492C115.562 30.499 115.513 30.4246 115.494 30.3403C115.476 30.256 115.489 30.1679 115.532 30.093C115.575 30.018 115.645 29.9616 115.727 29.9346L116.619 29.6539C116.706 29.6305 116.799 29.6414 116.878 29.6844C116.957 29.7274 117.017 29.7992 117.044 29.8847C117.071 29.9702 117.064 30.063 117.025 30.1436C116.985 30.2242 116.916 30.2865 116.831 30.3175L115.939 30.5991C115.919 30.6055 115.898 30.6101 115.877 30.6128M117.66 30.0497C117.574 30.0598 117.487 30.0376 117.416 29.9875C117.346 29.9374 117.296 29.863 117.277 29.7786C117.259 29.6942 117.272 29.6059 117.315 29.5308C117.358 29.4557 117.428 29.3992 117.51 29.3723L118.402 29.089C118.488 29.067 118.58 29.0787 118.658 29.1218C118.736 29.1648 118.795 29.2359 118.822 29.3205C118.849 29.4051 118.843 29.4969 118.805 29.577C118.766 29.6572 118.698 29.7197 118.615 29.7518L117.723 30.035C117.703 30.0416 117.682 30.0462 117.661 30.0488M48.5261 38.5959C48.4441 38.6058 48.3613 38.5867 48.2922 38.5418C48.223 38.4969 48.1721 38.4292 48.1482 38.3505C48.1244 38.2719 48.1292 38.1874 48.1619 38.112C48.1945 38.0366 48.2529 37.9751 48.3267 37.9383C48.5995 37.8035 48.8886 37.6687 49.1846 37.5357C49.2687 37.5016 49.3628 37.5013 49.447 37.5348C49.5313 37.5684 49.5992 37.6331 49.6364 37.7154C49.6736 37.7977 49.6773 37.8912 49.6467 37.9762C49.616 38.0611 49.5534 38.131 49.4721 38.1709C49.1838 38.2997 48.9033 38.4285 48.6374 38.5624C48.6028 38.5797 48.5654 38.591 48.527 38.5959M119.443 29.4848C119.357 29.4942 119.271 29.4717 119.2 29.4217C119.13 29.3717 119.081 29.2977 119.062 29.2139C119.044 29.13 119.057 29.0423 119.099 28.9674C119.141 28.8926 119.21 28.8359 119.292 28.8083L120.183 28.5224C120.228 28.5059 120.275 28.4986 120.322 28.5008C120.37 28.503 120.416 28.5147 120.459 28.5352C120.501 28.5557 120.539 28.5846 120.57 28.6201C120.601 28.6557 120.625 28.6971 120.639 28.7419C120.654 28.7867 120.659 28.8341 120.655 28.881C120.65 28.9279 120.637 28.9734 120.614 29.0148C120.592 29.0563 120.561 29.0927 120.524 29.122C120.487 29.1513 120.444 29.1727 120.398 29.1852L119.506 29.471C119.485 29.4776 119.464 29.4821 119.443 29.4848ZM121.229 28.9104C121.142 28.9205 121.056 28.8985 120.985 28.8487C120.914 28.7989 120.865 28.7248 120.846 28.6407C120.827 28.5566 120.84 28.4685 120.882 28.3933C120.925 28.3182 120.994 28.2614 121.076 28.2339C121.626 28.0562 121.92 27.9601 121.921 27.9592C121.965 27.9436 122.011 27.9369 122.058 27.9395C122.105 27.9422 122.15 27.954 122.192 27.9745C122.234 27.9949 122.272 28.0235 122.303 28.0585C122.333 28.0935 122.357 28.1343 122.371 28.1785C122.386 28.2226 122.391 28.2692 122.388 28.3156C122.384 28.3619 122.371 28.407 122.349 28.4483C122.328 28.4895 122.298 28.5261 122.262 28.5557C122.226 28.5854 122.185 28.6077 122.14 28.6211L121.293 28.8958C121.272 28.9027 121.251 28.9076 121.229 28.9104M50.2342 37.8344C50.1504 37.8442 50.0659 37.8237 49.9962 37.7765C49.9264 37.7293 49.8761 37.6587 49.8545 37.5776C49.8329 37.4965 49.8414 37.4103 49.8785 37.335C49.9156 37.2596 49.9787 37.2001 50.0564 37.1674C50.3386 37.0515 50.6338 36.9347 50.9342 36.824C50.9775 36.8059 51.024 36.7966 51.071 36.7968C51.1179 36.7969 51.1644 36.8065 51.2076 36.8248C51.2507 36.8432 51.2898 36.87 51.3224 36.9037C51.3549 36.9373 51.3803 36.9772 51.3971 37.0208C51.4139 37.0644 51.4217 37.111 51.42 37.1577C51.4184 37.2043 51.4073 37.2502 51.3875 37.2926C51.3676 37.3349 51.3394 37.3728 51.3046 37.4041C51.2697 37.4354 51.2289 37.4594 51.1845 37.4747C50.8902 37.5863 50.6002 37.7013 50.3214 37.8181C50.2937 37.8297 50.2647 37.8378 50.2351 37.8422M51.982 37.176C51.8964 37.1864 51.81 37.1652 51.7392 37.1163C51.6685 37.0673 51.6183 36.9942 51.5983 36.9108C51.5783 36.8274 51.59 36.7396 51.631 36.6642C51.672 36.5888 51.7395 36.5311 51.8206 36.502C52.1097 36.3999 52.4092 36.2969 52.7122 36.1964C52.7986 36.1728 52.8909 36.183 52.97 36.2249C53.0491 36.2669 53.109 36.3374 53.1374 36.422C53.1659 36.5066 53.1606 36.5988 53.1228 36.6796C53.0849 36.7605 53.0174 36.8238 52.934 36.8566C52.6354 36.9553 52.3402 37.0566 52.0562 37.1579C52.0325 37.1665 52.0079 37.1726 51.9829 37.176M53.7583 36.5862C53.6716 36.5967 53.5841 36.5747 53.5129 36.5244C53.4417 36.4741 53.3919 36.3992 53.3734 36.3144C53.3548 36.2295 53.3688 36.1408 53.4125 36.0656C53.4562 35.9905 53.5266 35.9342 53.6098 35.908C53.9024 35.817 54.2054 35.7251 54.5109 35.635C54.5986 35.6131 54.6914 35.6258 54.7699 35.6704C54.8484 35.715 54.9065 35.788 54.9321 35.8742C54.9578 35.9605 54.9489 36.0532 54.9074 36.1331C54.8659 36.213 54.795 36.2738 54.7094 36.3029C54.4082 36.3887 54.1053 36.4823 53.8196 36.5724C53.7999 36.5785 53.7796 36.5828 53.7592 36.5853M55.5535 36.0573C55.4664 36.0672 55.3787 36.0441 55.3078 35.9928C55.2369 35.9414 55.188 35.8655 55.1706 35.78C55.1533 35.6944 55.1688 35.6056 55.2141 35.5309C55.2595 35.4562 55.3313 35.4011 55.4155 35.3766C55.7141 35.2907 56.0196 35.2109 56.3235 35.131C56.4113 35.1128 56.5028 35.1289 56.5791 35.1758C56.6555 35.2227 56.7108 35.297 56.7337 35.3833C56.7566 35.4696 56.7454 35.5613 56.7023 35.6396C56.6592 35.7179 56.5876 35.7768 56.5021 35.8041C56.2018 35.8831 55.8979 35.9655 55.6036 36.0471C55.5872 36.0517 55.5705 36.0551 55.5535 36.0573ZM57.3661 35.5809C57.2745 35.5979 57.1799 35.5779 57.1031 35.5255C57.0263 35.4731 56.9736 35.3925 56.9565 35.3015C56.9395 35.2104 56.9595 35.1163 57.0122 35.0399C57.0649 34.9635 57.1459 34.9111 57.2375 34.8941C57.5378 34.8194 57.8417 34.7447 58.1515 34.6726C58.2398 34.6567 58.3309 34.675 58.406 34.7238C58.481 34.7727 58.5344 34.8483 58.5551 34.9352C58.5758 35.022 58.5622 35.1134 58.5172 35.1906C58.4721 35.2678 58.399 35.3248 58.3129 35.3499C58.01 35.4212 57.7087 35.495 57.4075 35.5689L57.3669 35.5766M59.1898 35.1474C59.0983 35.1633 59.0041 35.1424 58.928 35.0893C58.8519 35.0361 58.8002 34.9551 58.7842 34.864C58.7682 34.773 58.7892 34.6793 58.8426 34.6036C58.896 34.528 58.9775 34.4765 59.069 34.4606C59.3754 34.3919 59.6853 34.3249 59.9891 34.2614C60.0348 34.2499 60.0824 34.2478 60.129 34.2551C60.1757 34.2624 60.2203 34.2789 60.2603 34.3038C60.3003 34.3287 60.3349 34.3613 60.3619 34.3998C60.3889 34.4382 60.4078 34.4817 60.4175 34.5276C60.4273 34.5736 60.4275 34.621 60.4184 34.667C60.4092 34.713 60.3908 34.7568 60.3643 34.7956C60.3377 34.8343 60.3036 34.8674 60.2639 34.8927C60.2242 34.9181 60.1797 34.9352 60.1332 34.943C59.832 35.0057 59.529 35.0727 59.2218 35.1405L59.189 35.1465M61.024 34.7619C60.9353 34.7704 60.8467 34.7449 60.7762 34.6908C60.7058 34.6367 60.6586 34.5579 60.6445 34.4704C60.6303 34.383 60.6501 34.2934 60.6999 34.22C60.7497 34.1466 60.8258 34.0948 60.9126 34.0751C61.4969 33.9609 61.8344 33.9034 61.8482 33.9034C61.8936 33.8957 61.94 33.8969 61.9848 33.907C62.0297 33.9172 62.0721 33.936 62.1097 33.9624C62.1472 33.9888 62.1792 34.0224 62.2037 34.0611C62.2282 34.0998 62.2448 34.1429 62.2526 34.188C62.2603 34.2331 62.2591 34.2792 62.2489 34.3239C62.2388 34.3685 62.2198 34.4107 62.1933 34.448C62.1667 34.4854 62.133 34.5172 62.0941 34.5416C62.0552 34.5659 62.0118 34.5825 61.9665 34.5902C61.9665 34.5902 61.6212 34.6486 61.0481 34.7619H61.0248" fill="#C8CAD5"/>
<path d="M126.152 33.5918L138.352 24.5013L126.441 26.7333L127.627 28.6314L125.499 31.6782L126.152 33.5918Z" fill="#DCDEE5"/>
<path d="M138.351 24.5021L124.886 28.7705L115.737 36.9845L138.351 24.5021Z" fill="#F5F5F5"/>
<path d="M126.442 26.7359L138.353 24.5038L125.329 22.4435L126.442 26.7359Z" fill="#F5F5F5"/>
<path d="M102.947 89.475C102.802 89.404 102.641 89.3706 102.479 89.378H101.733V90.3498H102.479C102.641 90.3575 102.803 90.3222 102.947 90.2476C103.008 90.2045 103.057 90.1455 103.087 90.077C103.118 90.0085 103.129 89.933 103.12 89.8587C103.129 89.7851 103.119 89.7103 103.088 89.6425C103.058 89.5747 103.009 89.5167 102.947 89.475Z" fill="#E6E7EC"/>
<path d="M85.0581 90.9842H86.1897L85.6243 89.5248L85.0581 90.9842Z" fill="#E6E7EC"/>
<path d="M82.6779 89.475C82.5327 89.4039 82.3718 89.3705 82.2101 89.378H81.4644V90.3498H82.2101C82.3724 90.3575 82.5338 90.3222 82.6779 90.2476C82.7394 90.2045 82.788 90.1455 82.8184 90.077C82.8488 90.0085 82.8599 89.933 82.8505 89.8587C82.8604 89.7851 82.8495 89.7103 82.819 89.6425C82.7885 89.5748 82.7396 89.5167 82.6779 89.475Z" fill="#E6E7EC"/>
<path d="M105.509 86.5673H75.7911C75.4296 86.5673 75.083 86.7101 74.8274 86.9643C74.5718 87.2186 74.4282 87.5633 74.4282 87.9229V93.1347C74.4282 93.4942 74.5718 93.839 74.8274 94.0932C75.083 94.3474 75.4296 94.4903 75.7911 94.4903H105.509C105.87 94.4903 106.217 94.3474 106.473 94.0932C106.728 93.839 106.872 93.4942 106.872 93.1347V87.9229C106.872 87.5633 106.728 87.2186 106.473 86.9643C106.217 86.7101 105.87 86.5673 105.509 86.5673ZM80.256 89.2415C80.2555 89.278 80.2407 89.3129 80.2148 89.3388C80.1888 89.3646 80.1537 89.3793 80.117 89.3797H79.1935V92.1818C79.193 92.2183 79.1782 92.2532 79.1523 92.2791C79.1263 92.3049 79.0912 92.3196 79.0545 92.32H78.6376C78.6009 92.3196 78.5658 92.3049 78.5399 92.2791C78.5139 92.2532 78.4991 92.2183 78.4987 92.1818V89.3797H77.5734C77.5367 89.3793 77.5016 89.3646 77.4756 89.3388C77.4496 89.3129 77.4349 89.278 77.4344 89.2415V88.8783C77.4349 88.8418 77.4496 88.807 77.4756 88.7811C77.5016 88.7553 77.5367 88.7406 77.5734 88.7402H80.1187C80.1554 88.7406 80.1905 88.7553 80.2165 88.7811C80.2424 88.807 80.2572 88.8418 80.2576 88.8783L80.256 89.2415ZM83.5591 92.2866C83.5488 92.2972 83.5365 92.3057 83.5228 92.3114C83.5092 92.3172 83.4945 92.3201 83.4797 92.32H83.0429C83.0156 92.3223 82.9881 92.3191 82.962 92.3107C82.936 92.3023 82.9118 92.2888 82.891 92.2711C82.8637 92.2462 82.8404 92.2172 82.822 92.1853L82.1488 90.9937H81.4651V92.1853C81.4647 92.2218 81.4499 92.2566 81.4239 92.2825C81.398 92.3083 81.3629 92.323 81.3262 92.3234H80.9093C80.8726 92.323 80.8375 92.3083 80.8115 92.2825C80.7856 92.2566 80.7708 92.2218 80.7703 92.1853V88.8818C80.7708 88.8453 80.7856 88.8104 80.8115 88.7845C80.8375 88.7587 80.8726 88.744 80.9093 88.7436H82.2359C82.5873 88.7189 82.9355 88.8247 83.2129 89.0406C83.3259 89.1451 83.4144 89.273 83.4721 89.4153C83.5298 89.5575 83.5554 89.7107 83.547 89.8639C83.5538 90.0885 83.4937 90.3101 83.3744 90.5009C83.2523 90.6823 83.0746 90.8196 82.8677 90.8924L83.5772 92.1552C83.5867 92.1726 83.5921 92.192 83.5927 92.2118C83.5928 92.2266 83.5898 92.2412 83.584 92.2548C83.5782 92.2684 83.5697 92.2806 83.5591 92.2909M87.3257 92.2831C87.3131 92.2962 87.2979 92.3067 87.2812 92.3137C87.2644 92.3208 87.2463 92.3244 87.2281 92.3243H86.8579C86.8321 92.3271 86.8061 92.3246 86.7813 92.317C86.7565 92.3095 86.7336 92.2971 86.7138 92.2805C86.6892 92.256 86.6697 92.2268 86.6568 92.1947L86.4358 91.6272H84.8114L84.5905 92.1947C84.5777 92.2268 84.5587 92.2559 84.5344 92.2805C84.5145 92.2971 84.4916 92.3095 84.4668 92.317C84.442 92.3246 84.416 92.3271 84.3902 92.3243H84.02C83.9832 92.3239 83.9481 92.3092 83.9222 92.2834C83.8962 92.2575 83.8814 92.2226 83.881 92.1861C83.8808 92.1739 83.8825 92.1617 83.8862 92.1501L85.1463 88.9178C85.1611 88.87 85.1855 88.8256 85.218 88.7874C85.2343 88.7719 85.2537 88.76 85.275 88.7524C85.2963 88.7449 85.3189 88.7419 85.3414 88.7436H85.9067C85.9293 88.7419 85.9518 88.745 85.9731 88.7525C85.9943 88.7601 86.0137 88.7719 86.0301 88.7874C86.0626 88.8256 86.087 88.87 86.1018 88.9178L87.3619 92.1501C87.3655 92.1617 87.3672 92.1739 87.3671 92.1861C87.3672 92.2042 87.3637 92.2222 87.3566 92.2389C87.3494 92.2556 87.3389 92.2706 87.3257 92.2831ZM90.6677 92.1861C90.6672 92.2226 90.6524 92.2575 90.6265 92.2834C90.6005 92.3092 90.5654 92.3239 90.5287 92.3243H90.1688C90.1445 92.326 90.1201 92.3227 90.0971 92.3147C90.0741 92.3068 90.053 92.2943 90.035 92.278C90.0113 92.2554 89.9888 92.2316 89.9676 92.2067L88.528 90.0794V92.1861C88.5276 92.2226 88.5128 92.2575 88.4868 92.2834C88.4608 92.3092 88.4258 92.3239 88.389 92.3243H87.9721C87.9354 92.3239 87.9004 92.3092 87.8744 92.2834C87.8484 92.2575 87.8337 92.2226 87.8332 92.1861V88.8826C87.8334 88.846 87.8481 88.811 87.8741 88.7852C87.9002 88.7593 87.9353 88.7446 87.9721 88.7444H88.3321C88.3564 88.7428 88.3807 88.746 88.4037 88.754C88.4267 88.762 88.4478 88.7745 88.4658 88.7908C88.4895 88.8134 88.5119 88.8372 88.5332 88.862L89.9729 90.9894V88.8826C89.9733 88.8461 89.9881 88.8112 90.0141 88.7854C90.04 88.7596 90.0751 88.7448 90.1118 88.7444H90.5287C90.5654 88.7448 90.6005 88.7596 90.6265 88.7854C90.6524 88.8112 90.6672 88.8461 90.6677 88.8826V92.1861ZM94.1123 91.7337C94.0418 91.867 93.9414 91.9824 93.8189 92.071C93.6773 92.1719 93.5189 92.2472 93.3511 92.2934C93.1489 92.3516 92.9393 92.3805 92.7288 92.3792C92.5433 92.3802 92.3584 92.3572 92.1789 92.3106C92.0143 92.269 91.8573 92.2018 91.7137 92.1114C91.5843 92.0302 91.4732 91.9232 91.3875 91.7972C91.3054 91.6754 91.2575 91.5341 91.2485 91.3877C91.2463 91.3692 91.2486 91.3504 91.2554 91.3331C91.2622 91.3157 91.2731 91.3003 91.2873 91.2881C91.3146 91.2631 91.3504 91.2493 91.3875 91.2495H91.7474C91.7941 91.2467 91.8406 91.2574 91.8812 91.2804C91.9144 91.3038 91.9409 91.3355 91.958 91.3723C91.9831 91.4189 92.012 91.4633 92.0443 91.5053C92.0825 91.5531 92.1297 91.593 92.1833 91.6229C92.2517 91.6616 92.3252 91.6904 92.4016 91.7088C92.5086 91.7331 92.6182 91.7443 92.7279 91.7422C92.8276 91.7425 92.9272 91.7348 93.0257 91.7191C93.1131 91.7064 93.198 91.6807 93.2777 91.6427C93.3438 91.6105 93.4025 91.5652 93.4503 91.5096C93.4957 91.4542 93.5192 91.3844 93.5168 91.313C93.518 91.2791 93.5123 91.2454 93.5 91.2139C93.4876 91.1823 93.469 91.1535 93.4451 91.1293C93.3822 91.073 93.3077 91.0311 93.2268 91.0065C93.108 90.9668 92.987 90.9345 92.8643 90.9095C92.7204 90.8792 92.5541 90.84 92.3654 90.7919C92.2115 90.7565 92.061 90.7077 91.9157 90.646C91.7979 90.5967 91.69 90.5265 91.5972 90.4391C91.5137 90.3578 91.4497 90.259 91.4099 90.1498C91.3659 90.0222 91.3448 89.888 91.3478 89.7532C91.3462 89.6053 91.3815 89.4593 91.4505 89.3282C91.5195 89.1983 91.6161 89.0849 91.7336 88.996C91.8636 88.899 92.0096 88.8255 92.1651 88.7788C92.3388 88.7245 92.52 88.6976 92.702 88.6989C92.9072 88.6955 93.1114 88.7265 93.3062 88.7908C93.4636 88.843 93.6111 88.9207 93.7429 89.0209C93.8512 89.1031 93.9414 89.2065 94.0079 89.3248C94.0633 89.4212 94.0974 89.5284 94.108 89.639C94.1102 89.6575 94.1079 89.6762 94.1011 89.6936C94.0944 89.711 94.0834 89.7264 94.0692 89.7385C94.0419 89.7635 94.0061 89.7773 93.969 89.7772H93.6091C93.5629 89.7805 93.5168 89.7687 93.4779 89.7437C93.4466 89.7199 93.4198 89.6909 93.3985 89.6579C93.3401 89.5658 93.2598 89.4895 93.1646 89.4355C93.0207 89.3638 92.8602 89.3311 92.6994 89.3411C92.6137 89.3407 92.5283 89.3502 92.4448 89.3694C92.3705 89.3869 92.2995 89.4158 92.2342 89.4552C92.1777 89.4875 92.1293 89.5322 92.0927 89.5858C92.0585 89.6366 92.0405 89.6964 92.0409 89.7575C92.0379 89.825 92.055 89.8919 92.0901 89.9498C92.132 90.0068 92.1891 90.0511 92.2549 90.0777C92.3533 90.1205 92.4556 90.1538 92.5605 90.1772C92.687 90.2076 92.8447 90.2433 93.0334 90.2845C93.215 90.3219 93.3931 90.3742 93.566 90.4408C93.6991 90.491 93.8226 90.5636 93.9311 90.6554C94.0223 90.7349 94.0942 90.8338 94.1417 90.9447C94.1896 91.0634 94.2131 91.1904 94.2107 91.3182C94.2123 91.4675 94.177 91.6149 94.108 91.7474M97.2704 89.2578C97.27 89.2943 97.2552 89.3292 97.2292 89.355C97.2033 89.3809 97.1682 89.3956 97.1315 89.396H95.4916V90.3875H97.0288C97.0655 90.388 97.1006 90.4027 97.1266 90.4285C97.1525 90.4543 97.1673 90.4893 97.1678 90.5258V90.8889C97.1673 90.9255 97.1525 90.9604 97.1266 90.9862C97.1006 91.012 97.0655 91.0267 97.0288 91.0272H95.4916V92.1981C95.4911 92.2346 95.4763 92.2695 95.4504 92.2954C95.4244 92.3212 95.3893 92.3359 95.3526 92.3363H94.9358C94.899 92.3359 94.8639 92.3212 94.838 92.2954C94.812 92.2695 94.7972 92.2346 94.7968 92.1981V88.8947C94.7972 88.8582 94.812 88.8233 94.838 88.7974C94.8639 88.7716 94.899 88.7569 94.9358 88.7565H97.1315C97.1682 88.7569 97.2033 88.7716 97.2292 88.7974C97.2552 88.8233 97.27 88.8582 97.2704 88.8947V89.2578ZM100.402 92.1981C100.401 92.2346 100.387 92.2695 100.361 92.2954C100.335 92.3212 100.3 92.3359 100.263 92.3363H98.0093C97.9726 92.3359 97.9375 92.3212 97.9115 92.2954C97.8855 92.2695 97.8707 92.2346 97.8703 92.1981V88.8947C97.8705 88.8581 97.8853 88.823 97.9113 88.7972C97.9373 88.7713 97.9725 88.7567 98.0093 88.7565H100.226C100.262 88.7569 100.298 88.7716 100.324 88.7974C100.349 88.8233 100.364 88.8582 100.365 88.8947V89.2578C100.364 89.2943 100.349 89.3292 100.324 89.355C100.298 89.3809 100.262 89.3956 100.226 89.396H98.5651V90.209H100.113C100.149 90.2095 100.184 90.2242 100.21 90.25C100.236 90.2758 100.251 90.3107 100.252 90.3472V90.7104C100.251 90.7469 100.236 90.7818 100.21 90.8076C100.184 90.8334 100.149 90.8482 100.113 90.8486H98.5651V91.6976H100.267C100.304 91.698 100.339 91.7128 100.365 91.7386C100.391 91.7644 100.406 91.7993 100.406 91.8358L100.402 92.1981ZM103.828 92.3029C103.818 92.3135 103.806 92.3219 103.792 92.3277C103.778 92.3334 103.764 92.3364 103.749 92.3363H103.312C103.285 92.3386 103.257 92.3354 103.231 92.327C103.205 92.3186 103.181 92.3051 103.16 92.2874C103.133 92.2624 103.11 92.2335 103.091 92.2016L102.418 91.01H101.734V92.2016C101.734 92.2381 101.719 92.273 101.693 92.2988C101.667 92.3246 101.632 92.3393 101.596 92.3398H101.179C101.142 92.3393 101.107 92.3246 101.081 92.2988C101.055 92.273 101.04 92.2381 101.04 92.2016V88.8981C101.04 88.8616 101.055 88.8267 101.081 88.8008C101.107 88.775 101.142 88.7603 101.179 88.7599H102.505C102.857 88.7353 103.205 88.8411 103.482 89.0569C103.595 89.1614 103.684 89.2893 103.741 89.4316C103.799 89.5739 103.825 89.727 103.816 89.8802C103.823 90.1048 103.763 90.3263 103.644 90.5172C103.522 90.6986 103.344 90.8359 103.137 90.9087L103.846 92.1715C103.856 92.1889 103.861 92.2084 103.862 92.2282C103.862 92.2429 103.859 92.2575 103.853 92.2711C103.848 92.2847 103.839 92.297 103.828 92.3071" fill="#E6E7EC"/>
<mask id="mask3_1_48" style="mask-type:luminance" maskUnits="userSpaceOnUse" x="21" y="75" width="7" height="10">
<path d="M27.9054 75.4774H21.1421V84.306H27.9054V75.4774Z" fill="white"/>
</mask>
<g mask="url(#mask3_1_48)">
<path d="M24.5239 75.4736C24.1915 75.4729 23.8623 75.5373 23.555 75.6632C23.2477 75.7891 22.9684 75.9739 22.7329 76.2072C22.4974 76.4404 22.3105 76.7176 22.1827 77.0227C22.0549 77.3278 21.9887 77.655 21.9881 77.9855V78.4148C21.7642 78.4155 21.5496 78.5042 21.3913 78.6617C21.233 78.8192 21.1437 79.0326 21.1431 79.2553V83.4618C21.144 83.6844 21.2333 83.8977 21.3916 84.0551C21.5498 84.2125 21.7642 84.3014 21.9881 84.3023H27.0606C27.2844 84.3014 27.4988 84.2125 27.657 84.0551C27.8153 83.8977 27.9046 83.6844 27.9055 83.4618V79.2553C27.9049 79.0326 27.8156 78.8192 27.6573 78.6617C27.499 78.5042 27.2845 78.4155 27.0606 78.4148V77.9941C27.0612 77.6635 26.9965 77.3361 26.8699 77.0305C26.7434 76.7248 26.5575 76.447 26.323 76.2128C26.0885 75.9786 25.8099 75.7925 25.5031 75.6654C25.1964 75.5383 24.8674 75.4725 24.5351 75.4719H24.5239M24.5239 76.3123C24.7413 76.3077 24.9575 76.3456 25.1601 76.4241C25.3628 76.5026 25.5479 76.62 25.7049 76.7696C25.8619 76.9192 25.9878 77.0982 26.0753 77.2962C26.1627 77.4942 26.2101 77.7075 26.2147 77.9237C26.2147 77.9469 26.2147 77.9709 26.2147 77.9941V78.4148H22.833V77.9941C22.8249 77.5581 22.9911 77.1367 23.2949 76.8224C23.5988 76.5081 24.0156 76.3265 24.454 76.3175H24.5247M24.5247 80.5241C24.6919 80.5241 24.8552 80.5734 24.9942 80.6657C25.1331 80.7581 25.2414 80.8893 25.3054 81.0429C25.3694 81.1965 25.3861 81.3655 25.3535 81.5285C25.3209 81.6915 25.2404 81.8413 25.1222 81.9588C25.0041 82.0764 24.8535 82.1564 24.6896 82.1889C24.5257 82.2213 24.3558 82.2046 24.2014 82.141C24.047 82.0774 23.915 81.9697 23.8222 81.8314C23.7293 81.6932 23.6797 81.5308 23.6797 81.3645C23.6797 81.2542 23.7016 81.1449 23.7441 81.0429C23.7865 80.9409 23.8488 80.8483 23.9272 80.7702C24.0057 80.6922 24.0989 80.6303 24.2014 80.588C24.3039 80.5458 24.4138 80.5241 24.5247 80.5241Z" fill="#C8CAD5"/>
</g>
<mask id="mask4_1_48" style="mask-type:luminance" maskUnits="userSpaceOnUse" x="126" y="58" width="8" height="10">
<path d="M133.553 58.997H126.242V67.951H133.553V58.997Z" fill="white"/>
</mask>
<g mask="url(#mask4_1_48)">
<path d="M129.893 58.9927C129.831 58.9929 129.77 59.0037 129.712 59.0245L126.412 60.2512C126.362 60.2686 126.319 60.3006 126.289 60.343C126.258 60.3853 126.241 60.4359 126.239 60.4882V61.7647C126.234 63.0073 126.557 64.2294 127.176 65.3086C127.796 66.3877 128.689 67.286 129.768 67.9133C129.806 67.9361 129.851 67.9476 129.895 67.9467C129.94 67.9487 129.985 67.9371 130.023 67.9133C131.102 67.286 131.995 66.3877 132.614 65.3086C133.234 64.2294 133.557 63.0073 133.552 61.7647V60.4882C133.552 60.4355 133.535 60.3841 133.504 60.3415C133.473 60.2988 133.429 60.2672 133.379 60.2512L130.063 59.0245C130.008 59.0036 129.949 58.9928 129.89 58.9927M129.89 59.5421C129.952 59.5424 130.013 59.5531 130.072 59.5739L133.039 60.665V61.7647C133.388 62.3228 133.581 62.9636 133.597 63.6206C133.613 64.2777 133.453 64.9271 133.132 65.5017C132.811 66.0762 132.342 66.5549 131.772 66.8882C131.202 67.2215 130.554 67.3973 129.893 67.3973C129.232 67.3973 128.583 67.2215 128.014 66.8882C127.444 66.5549 126.975 66.0762 126.654 65.5017C126.333 64.9271 126.172 64.2777 126.189 63.6206C126.205 62.9636 126.398 62.3228 126.747 61.7647V60.665L129.714 59.5739C129.769 59.553 129.828 59.5423 129.887 59.5421M130.167 60.4392C130.131 60.4354 130.096 60.4392 130.062 60.4501C130.029 60.4611 129.998 60.4789 129.972 60.5026C129.945 60.5263 129.925 60.5553 129.911 60.5876C129.897 60.6199 129.89 60.6548 129.89 60.6899V65.9508C129.891 65.9994 129.906 66.0468 129.934 66.0871C129.961 66.1274 130 66.1589 130.045 66.1778C130.09 66.1966 130.139 66.202 130.188 66.1933C130.236 66.1845 130.28 66.1619 130.316 66.1284C130.935 65.5808 131.429 64.9085 131.766 64.1561C132.103 63.4037 132.276 62.5885 132.272 61.7647V61.3758C132.272 61.3232 132.256 61.2718 132.225 61.2291C132.193 61.1865 132.149 61.1549 132.099 61.1389L130.229 60.4521C130.208 60.4447 130.187 60.4398 130.165 60.4375" fill="#C8CAD5"/>
</g>
<path d="M161.046 51.3331C160.74 48.8713 161.429 46.3901 162.96 44.4325C164.492 42.4748 166.741 41.2014 169.216 40.8912C171.691 40.5854 174.188 41.2685 176.157 42.7918C178.126 44.3151 179.407 46.554 179.719 49.0158C180.025 51.4781 179.337 53.9606 177.805 55.9189C176.274 57.8773 174.024 59.1517 171.549 59.4627C171.16 59.511 170.769 59.5353 170.376 59.5356C168.084 59.5308 165.873 58.6954 164.155 57.1857C162.438 55.676 161.333 53.5949 161.046 51.3331ZM166.385 50.1795L166.378 50.3924V54.2137C166.38 54.4662 166.481 54.7078 166.661 54.8861C166.841 55.0643 167.084 55.165 167.338 55.1652H171.388C171.642 55.165 171.885 55.0644 172.064 54.8861C172.243 54.7077 172.344 54.4659 172.344 54.2137V52.91H173.655C173.909 52.9105 174.153 52.8099 174.333 52.6317C174.513 52.4535 174.614 52.2119 174.615 51.9593V48.1305V47.9176L174.632 44.9279L173.165 47.0641H169.622C169.368 47.065 169.125 47.166 168.946 47.345C168.766 47.5239 168.666 47.7664 168.666 48.019V51.9593C168.666 52.0842 168.69 52.2078 168.738 52.3232C168.786 52.4386 168.857 52.5434 168.946 52.6317C169.034 52.72 169.14 52.7903 169.256 52.8379C169.372 52.8856 169.496 52.9103 169.622 52.91H171.049V53.3921C171.049 53.5265 170.995 53.6558 170.9 53.7509C170.804 53.846 170.675 53.8991 170.54 53.8993H168.181C168.114 53.8993 168.047 53.8862 167.985 53.8607C167.924 53.8352 167.867 53.798 167.82 53.7509C167.773 53.7038 167.735 53.6481 167.709 53.5866C167.684 53.525 167.671 53.4587 167.671 53.3921V51.0916C167.671 51.0254 167.684 50.9598 167.71 50.8988C167.736 50.8378 167.773 50.7826 167.821 50.7361C167.868 50.6897 167.925 50.6527 167.986 50.628C168.048 50.6033 168.114 50.5912 168.181 50.5919H168.662V49.3218H167.843L166.376 47.1865L166.385 50.1795ZM172.815 51.6474H172.343V50.2742C172.342 50.0217 172.241 49.7801 172.061 49.6018C171.881 49.4236 171.638 49.3229 171.384 49.3227H169.949V48.8381C169.949 48.7035 170.003 48.5744 170.099 48.4793C170.194 48.3841 170.324 48.3309 170.459 48.3309H172.818C172.953 48.3309 173.083 48.3841 173.179 48.4793C173.274 48.5744 173.328 48.7035 173.328 48.8381V51.1386C173.327 51.232 173.3 51.3233 173.25 51.4026C173.201 51.482 173.13 51.5469 173.047 51.5896C172.976 51.6251 172.898 51.6435 172.818 51.6441L172.815 51.6474ZM170.459 51.6474C170.442 51.6474 170.424 51.6474 170.407 51.6474H170.442C170.31 51.6439 170.184 51.5887 170.092 51.494C170 51.3993 169.949 51.2727 169.95 51.1411V50.5953H170.537C170.604 50.5951 170.67 50.6078 170.731 50.633C170.793 50.6582 170.849 50.6952 170.897 50.742C170.944 50.7888 170.981 50.8442 171.007 50.9055C171.033 50.9668 171.046 51.0328 171.046 51.0992V51.6508L170.459 51.6474Z" fill="#F5F5F5"/>
<path d="M181.262 48.696C180.993 46.5525 180.091 44.5365 178.67 42.9029C177.249 41.2694 175.373 40.0916 173.279 39.5186C171.185 38.9456 168.967 39.0031 166.906 39.6838C164.845 40.3645 163.033 41.6379 161.7 43.3428C160.366 45.0478 159.571 47.1078 159.414 49.2623C159.258 51.4168 159.747 53.5691 160.821 55.447C161.894 57.3248 163.503 58.8439 165.444 59.8122C167.386 60.7804 169.572 61.1543 171.727 60.8865C174.617 60.5275 177.245 59.0414 179.033 56.7553C180.821 54.4692 181.623 51.5701 181.262 48.696ZM171.623 60.052C169.66 60.2963 167.667 59.9559 165.899 59.0741C164.13 58.1922 162.663 56.8084 161.685 55.0977C160.707 53.3869 160.261 51.4261 160.403 49.4631C160.545 47.5002 161.269 45.6232 162.484 44.0696C163.699 42.5161 165.349 41.3556 167.227 40.7351C169.105 40.1145 171.125 40.0618 173.033 40.5834C174.941 41.1051 176.651 42.1778 177.946 43.6658C179.241 45.1538 180.063 46.9904 180.308 48.9432C180.634 51.5613 179.903 54.2011 178.275 56.2836C176.646 58.3661 174.254 59.7213 171.623 60.052Z" fill="#19AD1C"/>
</g>
</svg>
