<svg width="23" height="20" viewBox="0 0 23 20" fill="none" xmlns="http://www.w3.org/2000/svg">
<path d="M22.1153 3.53846H7.07688C6.84226 3.53846 6.61726 3.44526 6.45136 3.27936C6.28546 3.11346 6.19226 2.88846 6.19226 2.65384C6.19226 2.41923 6.28546 2.19422 6.45136 2.02832C6.61726 1.86243 6.84226 1.76923 7.07688 1.76923H22.1153C22.35 1.76923 22.575 1.86243 22.7409 2.02832C22.9068 2.19422 23 2.41923 23 2.65384C23 2.88846 22.9068 3.11346 22.7409 3.27936C22.575 3.44526 22.35 3.53846 22.1153 3.53846Z" fill="white"/>
<path d="M3.53846 3.53846H0.884616C0.650001 3.53846 0.424995 3.44526 0.259098 3.27936C0.0932003 3.11346 0 2.88846 0 2.65384C0 2.41923 0.0932003 2.19422 0.259098 2.02832C0.424995 1.86243 0.650001 1.76923 0.884616 1.76923H3.53846C3.77308 1.76923 3.99808 1.86243 4.16398 2.02832C4.32988 2.19422 4.42308 2.41923 4.42308 2.65384C4.42308 2.88846 4.32988 3.11346 4.16398 3.27936C3.99808 3.44526 3.77308 3.53846 3.53846 3.53846Z" fill="white"/>
<path d="M15.9231 10.6154H0.884615C0.650001 10.6154 0.424995 10.5222 0.259098 10.3563C0.0932002 10.1904 0 9.96536 0 9.73075C0 9.49613 0.0932002 9.27113 0.259098 9.10523C0.424995 8.93933 0.650001 8.84613 0.884615 8.84613H15.9231C16.1577 8.84613 16.3827 8.93933 16.5486 9.10523C16.7145 9.27113 16.8077 9.49613 16.8077 9.73075C16.8077 9.96536 16.7145 10.1904 16.5486 10.3563C16.3827 10.5222 16.1577 10.6154 15.9231 10.6154Z" fill="white"/>
<path d="M7.07692 17.6923H0.884615C0.650001 17.6923 0.424995 17.5991 0.259098 17.4332C0.0932002 17.2673 0 17.0423 0 16.8077C0 16.5731 0.0932002 16.3481 0.259098 16.1822C0.424995 16.0163 0.650001 15.9231 0.884615 15.9231H7.07692C7.31154 15.9231 7.53654 16.0163 7.70244 16.1822C7.86834 16.3481 7.96154 16.5731 7.96154 16.8077C7.96154 17.0423 7.86834 17.2673 7.70244 17.4332C7.53654 17.5991 7.31154 17.6923 7.07692 17.6923Z" fill="white"/>
<path d="M5.30766 5.30769C4.78277 5.30769 4.26968 5.15205 3.83326 4.86044C3.39684 4.56883 3.05669 4.15436 2.85582 3.66943C2.65496 3.1845 2.6024 2.6509 2.7048 2.13611C2.8072 1.62131 3.05996 1.14844 3.4311 0.777295C3.80225 0.406148 4.27512 0.153393 4.78992 0.0509941C5.30471 -0.0514051 5.83831 0.00114987 6.32324 0.202013C6.80817 0.402877 7.22264 0.743026 7.51425 1.17945C7.80586 1.61587 7.9615 2.12897 7.9615 2.65385C7.9615 3.35769 7.6819 4.03271 7.18421 4.5304C6.68652 5.02809 6.0115 5.30769 5.30766 5.30769ZM5.30766 1.76923C5.1327 1.76923 4.96166 1.82111 4.81619 1.91832C4.67072 2.01552 4.55733 2.15368 4.49038 2.31532C4.42342 2.47696 4.40591 2.65483 4.44004 2.82643C4.47417 2.99803 4.55842 3.15565 4.68214 3.27936C4.80585 3.40308 4.96348 3.48733 5.13508 3.52147C5.30667 3.5556 5.48454 3.53808 5.64618 3.47113C5.80783 3.40417 5.94598 3.29079 6.04319 3.14531C6.14039 2.99984 6.19227 2.82881 6.19227 2.65385C6.19227 2.41923 6.09907 2.19423 5.93317 2.02833C5.76728 1.86243 5.54227 1.76923 5.30766 1.76923Z" fill="white"/>
<path d="M17.6923 12.3846C17.1674 12.3846 16.6543 12.229 16.2179 11.9373C15.7815 11.6457 15.4413 11.2313 15.2405 10.7463C15.0396 10.2614 14.987 9.72781 15.0894 9.21301C15.1918 8.69822 15.4446 8.22535 15.8157 7.8542C16.1869 7.48305 16.6598 7.2303 17.1746 7.1279C17.6894 7.0255 18.223 7.07805 18.7079 7.27892C19.1928 7.47978 19.6073 7.81993 19.8989 8.25635C20.1905 8.69278 20.3461 9.20587 20.3461 9.73075C20.3461 10.4346 20.0665 11.1096 19.5689 11.6073C19.0712 12.105 18.3961 12.3846 17.6923 12.3846ZM17.6923 8.84614C17.5173 8.84614 17.3463 8.89802 17.2008 8.99522C17.0554 9.09242 16.942 9.23058 16.875 9.39222C16.8081 9.55387 16.7905 9.73173 16.8247 9.90333C16.8588 10.0749 16.9431 10.2326 17.0668 10.3563C17.1905 10.48 17.3481 10.5642 17.5197 10.5984C17.6913 10.6325 17.8692 10.615 18.0308 10.548C18.1925 10.4811 18.3306 10.3677 18.4278 10.2222C18.525 10.0767 18.5769 9.90571 18.5769 9.73075C18.5769 9.49614 18.4837 9.27113 18.3178 9.10523C18.1519 8.93934 17.9269 8.84614 17.6923 8.84614Z" fill="white"/>
<path d="M8.84611 19.4616C8.32123 19.4616 7.80813 19.3059 7.37171 19.0143C6.93529 18.7227 6.59514 18.3082 6.39427 17.8233C6.19341 17.3384 6.14086 16.8048 6.24325 16.29C6.34565 15.7752 6.59841 15.3023 6.96956 14.9312C7.3407 14.56 7.81357 14.3073 8.32837 14.2049C8.84316 14.1025 9.37676 14.155 9.86169 14.3559C10.3466 14.5567 10.7611 14.8969 11.0527 15.3333C11.3443 15.7697 11.5 16.2828 11.5 16.8077C11.5 17.5116 11.2204 18.1866 10.7227 18.6843C10.225 19.182 9.54995 19.4616 8.84611 19.4616ZM8.84611 15.9231C8.67115 15.9231 8.50012 15.975 8.35464 16.0722C8.20917 16.1694 8.09578 16.3075 8.02883 16.4692C7.96188 16.6308 7.94436 16.8087 7.97849 16.9803C8.01262 17.1519 8.09688 17.3095 8.22059 17.4332C8.34431 17.557 8.50193 17.6412 8.67353 17.6753C8.84513 17.7095 9.02299 17.692 9.18464 17.625C9.34628 17.558 9.48444 17.4447 9.58164 17.2992C9.67884 17.1537 9.73072 16.9827 9.73072 16.8077C9.73072 16.5731 9.63752 16.3481 9.47163 16.1822C9.30573 16.0163 9.08072 15.9231 8.84611 15.9231Z" fill="white"/>
<path d="M22.1154 10.6154H19.4615C19.2269 10.6154 19.0019 10.5222 18.836 10.3563C18.6701 10.1904 18.5769 9.96536 18.5769 9.73075C18.5769 9.49613 18.6701 9.27113 18.836 9.10523C19.0019 8.93933 19.2269 8.84613 19.4615 8.84613H22.1154C22.35 8.84613 22.575 8.93933 22.7409 9.10523C22.9068 9.27113 23 9.49613 23 9.73075C23 9.96536 22.9068 10.1904 22.7409 10.3563C22.575 10.5222 22.35 10.6154 22.1154 10.6154Z" fill="white"/>
<path d="M22.1154 17.6923H10.6155C10.3808 17.6923 10.1558 17.5991 9.98993 17.4332C9.82404 17.2673 9.73083 17.0423 9.73083 16.8077C9.73083 16.5731 9.82404 16.3481 9.98993 16.1822C10.1558 16.0163 10.3808 15.9231 10.6155 15.9231H22.1154C22.3501 15.9231 22.5751 16.0163 22.741 16.1822C22.9069 16.3481 23.0001 16.5731 23.0001 16.8077C23.0001 17.0423 22.9069 17.2673 22.741 17.4332C22.5751 17.5991 22.3501 17.6923 22.1154 17.6923Z" fill="white"/>
</svg>
