<svg width="105" height="105" viewBox="0 0 105 105" fill="none" xmlns="http://www.w3.org/2000/svg">
<path d="M60.0835 37.6H60.0834C59.7494 37.6 59.4224 37.6929 59.1366 37.8677C58.851 38.0424 58.6177 38.2922 58.4596 38.5896C58.4596 38.5896 58.4596 38.5896 58.4596 38.5896L47.8261 58.5906L47.826 58.5907C47.6728 58.8792 47.5952 59.2031 47.6002 59.5307C47.6052 59.8582 47.6926 60.1795 47.8547 60.4631C48.0168 60.7467 48.2485 60.9833 48.5283 61.1484C48.8081 61.3136 49.1258 61.4011 49.4499 61.4011H49.4499H55.3966L49.6711 75.7836L49.6708 75.7844C49.5111 76.1882 49.4914 76.636 49.6148 77.0527C49.7382 77.4696 49.9981 77.8324 50.3537 78.0775C50.7095 78.3228 51.1384 78.4343 51.5671 78.3908C51.9957 78.3472 52.3941 78.1518 52.6956 77.841L52.6961 77.8405L76.8632 52.8393L76.8633 52.8392C77.1208 52.5726 77.2947 52.2346 77.365 51.8687C77.4353 51.5028 77.3993 51.1235 77.261 50.778C77.1226 50.4325 76.8875 50.135 76.5833 49.9246C76.2788 49.7141 75.9195 49.6007 75.5506 49.6006H75.5504H70.0593L75.2172 40.4524L75.2173 40.4524C75.3796 40.1644 75.4651 39.8383 75.4662 39.5067C75.4673 39.1751 75.3839 38.8484 75.2235 38.5593C75.0631 38.2701 74.8308 38.0281 74.5488 37.8591C74.2667 37.69 73.9453 37.6002 73.6173 37.6H73.617H60.0835ZM58.1501 57.601H52.5682L61.181 41.4001H70.408L65.25 50.5483L65.25 50.5483C65.0877 50.8363 65.0021 51.1625 65.001 51.4941C64.9999 51.8256 65.0833 52.1524 65.2437 52.4414C65.4042 52.7306 65.6365 52.9726 65.9185 53.1416C66.2006 53.3108 66.5219 53.4005 66.85 53.4007H66.8502H71.107L56.6053 68.4029L59.8623 60.2193L59.8624 60.219C59.9764 59.9318 60.0202 59.6206 59.9903 59.3125C59.9604 59.0044 59.8575 58.7078 59.6899 58.4489C59.5222 58.1899 59.2945 57.9762 59.026 57.8278C58.7573 57.6794 58.4565 57.6011 58.1503 57.601H58.1501Z" fill="#222222" stroke="#222222" stroke-width="0.8"/>
<path d="M28 26C26.344 26 25 27.344 25 29V41C25 42.656 26.344 44 28 44H40C41.656 44 43 42.656 43 41V29C43 27.344 41.656 26 40 26H28ZM31 32H37V38H31V32ZM25 50V56H31V50H25ZM37 50V56H43V50H37ZM28 62C26.344 62 25 63.344 25 65V77C25 78.656 26.344 80 28 80H40C41.656 80 43 78.656 43 77V65C43 63.344 41.656 62 40 62H28ZM31 68H37V74H31V68Z" fill="#222222"/>
<path d="M60 32V26H66V32H60Z" fill="#222222"/>
<path d="M49 32V26H55V32H49Z" fill="#222222"/>
<path d="M72 78V72H78V78H72Z" fill="#222222"/>
<path d="M62 78V72H68V78H62Z" fill="#222222"/>
<path d="M72 32V26H78V32H72Z" fill="#222222"/>
<path d="M14.9193 14.1774C13.8893 14.1774 13.0483 15.0105 13.0483 16.0484V24.2742C13.0483 25.3121 13.8893 26.1452 14.9193 26.1452C15.9493 26.1452 16.7903 25.3121 16.7903 24.2742V17.9194H23.1451C24.1751 17.9194 25.0161 17.0863 25.0161 16.0484C25.0161 15.0105 24.1751 14.1774 23.1451 14.1774H14.9193ZM80.7258 14.1774C79.6958 14.1774 78.8548 15.0105 78.8548 16.0484C78.8548 17.0863 79.6958 17.9194 80.7258 17.9194H87.0806V24.2742C87.0806 25.3121 87.9216 26.1452 88.9516 26.1452C89.9815 26.1452 90.8225 25.3121 90.8225 24.2742V16.0484C90.8225 15.0105 89.9815 14.1774 88.9516 14.1774H80.7258ZM14.9193 79.9839C13.8893 79.9839 13.0483 80.817 13.0483 81.8549V90.0807C13.0483 91.1185 13.8893 91.9516 14.9193 91.9516H23.1451C24.1751 91.9516 25.0161 91.1185 25.0161 90.0807C25.0161 89.0428 24.1751 88.2097 23.1451 88.2097H16.7903V81.8549C16.7903 80.817 15.9493 79.9839 14.9193 79.9839ZM88.9516 79.9839C87.9216 79.9839 87.0806 80.817 87.0806 81.8549V88.2097H80.7258C79.6958 88.2097 78.8548 89.0428 78.8548 90.0807C78.8548 91.1185 79.6958 91.9516 80.7258 91.9516H88.9516C89.9815 91.9516 90.8225 91.1185 90.8225 90.0807V81.8549C90.8225 80.817 89.9815 79.9839 88.9516 79.9839Z" fill="#222222" stroke="#222222"/>
</svg>
