<svg width="72" height="84" viewBox="0 0 72 84" fill="none" xmlns="http://www.w3.org/2000/svg">
<g filter="url(#filter0_d_463_259)">
<path d="M22.5424 19.234C22.2064 19.3764 21.9156 19.6084 21.7005 19.9059C21.4855 20.2034 21.3539 20.5553 21.3196 20.9251L18.4017 52.3408C18.3685 52.6995 18.4281 53.0624 18.5745 53.3936C18.7209 53.7248 18.9491 54.0129 19.2366 54.2296C19.5242 54.4462 19.8611 54.584 20.2143 54.6292C20.5675 54.6745 20.9247 54.6256 21.2507 54.4876L29.7084 50.9039L30.1106 73.2619C30.1202 73.7414 30.2929 74.2055 30.5992 74.5753C30.9056 74.9451 31.3268 75.1979 31.7913 75.2909C32.2559 75.3838 32.7352 75.3111 33.1479 75.0852C33.5606 74.8592 33.8814 74.4939 34.0557 74.0512L51.7747 28.8191C51.9232 28.4395 51.9569 28.022 51.8716 27.6192C51.7862 27.2164 51.5856 26.8464 51.2951 26.556C51.0046 26.2656 50.6372 26.0678 50.2394 25.9876C49.8416 25.9074 49.4313 25.9484 49.0602 26.1055L41.0691 29.4915L42.8964 14.0136C42.9391 13.6516 42.8869 13.2831 42.745 12.9451C42.6031 12.6072 42.3766 12.3118 42.0883 12.0887C41.8001 11.8656 41.4602 11.7228 41.103 11.6745C40.7458 11.6263 40.3839 11.6744 40.0539 11.814L22.5424 19.234ZM25.2777 22.6019L38.4137 17.0359L36.5865 32.5137C36.5438 32.8757 36.596 33.2442 36.7379 33.5822C36.8797 33.9201 37.1062 34.2155 37.3945 34.4386C37.6828 34.6617 38.0227 34.8046 38.3799 34.8528C38.7371 34.901 39.0989 34.8529 39.429 34.7133L46.157 31.8625L34.0112 62.8677L33.7387 47.7933C33.7323 47.4523 33.6433 47.1167 33.4797 46.8163C33.3161 46.5159 33.0828 46.2598 32.8005 46.0707C32.5181 45.8816 32.1954 45.7652 31.8608 45.7319C31.5262 45.6986 31.19 45.7494 30.8819 45.8797L22.798 49.305L25.2777 22.6019Z" fill="#1BB71F"/>
<path d="M54.5907 8.1042C54.1137 8.2482 53.7694 8.66789 53.7249 9.16426C53.6786 9.66125 53.9352 10.135 54.3797 10.3668L59.265 12.9888L49.4029 16.3846C48.9819 16.5218 48.6704 16.8749 48.5847 17.3095C48.4955 17.7426 48.6499 18.1911 48.9869 18.4774C49.3219 18.7672 49.7848 18.8536 50.201 18.7025L60.0631 15.3067L57.8277 20.3806C57.6424 20.7837 57.6903 21.2533 57.9503 21.6121C58.2107 21.9704 58.6432 22.1608 59.0818 22.111C59.5225 22.0606 59.9005 21.7758 60.0723 21.3699L63.8923 12.6919L55.5394 8.20527C55.2516 8.0461 54.9066 8.00791 54.5907 8.1042Z" fill="#1BB71F"/>
<path d="M17.7794 72.4666C18.2388 72.2735 18.5374 71.8202 18.5297 71.3219C18.5238 70.8228 18.2191 70.3785 17.7528 70.1944L12.6202 68.0973L22.0733 63.6893C22.4776 63.5088 22.7506 63.1251 22.7903 62.684C22.8338 62.2439 22.6333 61.814 22.2683 61.5644C21.9048 61.3113 21.4354 61.2738 21.0373 61.4675L11.5842 65.8756L13.277 60.5958C13.4191 60.1756 13.3223 59.7135 13.0263 59.3839C12.7299 59.0547 12.2798 58.9106 11.8488 59.006C11.4158 59.1022 11.0697 59.4249 10.9412 59.8465L8.04927 68.8764L16.8254 72.4653C17.1282 72.5935 17.4753 72.5954 17.7794 72.4666Z" fill="#1BB71F"/>
</g>
<defs>
<filter id="filter0_d_463_259" x="0.0493164" y="0.0517578" width="71.8428" height="83.2783" filterUnits="userSpaceOnUse" color-interpolation-filters="sRGB">
<feFlood flood-opacity="0" result="BackgroundImageFix"/>
<feColorMatrix in="SourceAlpha" type="matrix" values="0 0 0 0 0 0 0 0 0 0 0 0 0 0 0 0 0 0 127 0" result="hardAlpha"/>
<feOffset/>
<feGaussianBlur stdDeviation="4"/>
<feComposite in2="hardAlpha" operator="out"/>
<feColorMatrix type="matrix" values="0 0 0 0 0.105882 0 0 0 0 0.717647 0 0 0 0 0.121569 0 0 0 0.6 0"/>
<feBlend mode="normal" in2="BackgroundImageFix" result="effect1_dropShadow_463_259"/>
<feBlend mode="normal" in="SourceGraphic" in2="effect1_dropShadow_463_259" result="shape"/>
</filter>
</defs>
</svg>
