<svg width="24" height="24" viewBox="0 0 24 24" fill="none" xmlns="http://www.w3.org/2000/svg">
<path d="M11.4436 3.09641C7.08058 3.57065 3.57119 7.08005 3.09694 11.3482C2.6227 15.8061 5.18361 19.7897 9.0724 21.3073C9.35694 21.4022 9.64149 21.2125 9.64149 20.8331V19.3155C9.64149 19.3155 9.26209 19.4103 8.78785 19.4103C7.45997 19.4103 6.89088 18.2722 6.79603 17.6082C6.70119 17.2288 6.51149 16.9443 6.22694 16.6597C5.9424 16.5649 5.84755 16.5649 5.84755 16.47C5.84755 16.2803 6.13209 16.2803 6.22694 16.2803C6.79603 16.2803 7.27028 16.9443 7.45997 17.2288C7.93421 17.9876 8.50331 18.1773 8.78785 18.1773C9.16724 18.1773 9.45179 18.0825 9.64149 17.9876C9.73633 17.3237 10.0209 16.6597 10.59 16.2803C8.40846 15.8061 6.79603 14.5731 6.79603 12.4864C6.79603 11.4431 7.27028 10.3997 7.93421 9.64095C7.83937 9.45126 7.74452 8.97701 7.74452 8.31307C7.74452 7.93368 7.74452 7.36459 8.02906 6.7955C8.02906 6.7955 9.35694 6.7955 10.6848 8.02853C11.1591 7.83883 11.823 7.74398 12.4869 7.74398C13.1509 7.74398 13.8148 7.83883 14.3839 8.02853C15.6169 6.7955 17.0397 6.7955 17.0397 6.7955C17.2294 7.36459 17.2294 7.93368 17.2294 8.31307C17.2294 9.07186 17.1345 9.45126 17.0397 9.64095C17.7036 10.3997 18.1778 11.3482 18.1778 12.4864C18.1778 14.5731 16.5654 15.8061 14.3839 16.2803C14.953 16.7546 15.3324 17.6082 15.3324 18.4619V20.9279C15.3324 21.2125 15.6169 21.497 15.9963 21.4022C19.5057 19.9794 21.9718 16.5649 21.9718 12.5813C21.9718 6.89035 17.1345 2.43247 11.4436 3.09641Z" fill="#C5C5C5"/>
</svg>
