<svg width="26" height="29" viewBox="0 0 26 29" fill="none" xmlns="http://www.w3.org/2000/svg">
<g filter="url(#filter0_d_462_115)">
<path d="M13 5.27979C9.584 5.27979 6.60259 7.12191 5 9.84866H7.25887C8.09164 8.83256 9.1783 8.02825 10.443 7.56601C10.1532 8.23111 9.92132 9.00806 9.74362 9.84866H11.6465C12.0895 8.04223 12.7103 7.10733 13 7.10733C13.2897 7.10733 13.9105 8.04223 14.3535 9.84866H16.2564C16.0787 9.00806 15.8456 8.23111 15.557 7.56601C16.8208 8.02825 17.9084 8.83256 18.7411 9.84866H21C19.3974 7.12191 16.416 5.27979 13 5.27979ZM5 18.9864C6.60259 21.7131 9.584 23.5553 13 23.5553C16.416 23.5553 19.3974 21.7131 21 18.9864H18.7411C17.9084 20.0025 16.8217 20.8068 15.557 21.2691C15.8456 20.604 16.0769 19.827 16.2546 18.9864H14.3517C13.9087 20.7928 13.288 21.7277 12.9982 21.7277C12.7084 21.7277 12.0895 20.7928 11.6465 18.9864H9.74362C9.92132 19.827 10.1544 20.604 10.443 21.2691C9.1792 20.8068 8.09164 20.0025 7.25887 18.9864H5Z" fill="url(#paint0_linear_462_115)"/>
<path d="M8.37593 15.4725C8.37593 15.0344 8.01041 14.7715 7.43238 14.7715H6.25933V16.1444H7.45788C8.03591 16.1444 8.37593 15.9034 8.37593 15.4725ZM8.23142 13.3474C8.23142 12.9385 7.9084 12.7047 7.34738 12.7047H6.25933V13.9827H7.34738C7.9084 13.9827 8.23142 13.7637 8.23142 13.3474ZM9.58298 15.5967C9.58298 16.4073 8.86045 16.9769 7.62789 16.9769H5.06927V11.8795H7.51739C8.75844 11.8795 9.44697 12.4345 9.44697 13.1941C9.44697 13.8148 9.01345 14.2018 8.43543 14.3625C9.10696 14.4647 9.58298 14.9979 9.58298 15.5967Z" fill="url(#paint1_linear_462_115)"/>
<path d="M14.4163 11.8727H15.6063V16.9774H14.4163L11.7217 13.4793V16.9774H10.5316V11.8727H11.7217L14.4163 15.378V11.8727Z" fill="url(#paint2_linear_462_115)"/>
<path d="M20.9303 15.5021C20.9303 16.3054 20.1823 17.0284 18.8307 17.0284C17.5982 17.0284 16.6462 16.4734 16.6292 15.5094H17.9042C17.9382 15.9183 18.2527 16.1886 18.8053 16.1886C19.3663 16.1886 19.6978 15.933 19.6978 15.5678C19.6978 14.465 16.6377 15.1296 16.6461 13.282C16.6461 12.3618 17.5132 11.8068 18.7372 11.8068C19.9528 11.8068 20.7858 12.3399 20.8623 13.2601H19.5532C19.5278 12.9241 19.2133 12.6612 18.7032 12.6539C18.2357 12.6393 17.8872 12.8365 17.8872 13.2528C17.8872 14.2752 20.9303 13.7056 20.9303 15.5021Z" fill="url(#paint3_linear_462_115)"/>
<path d="M7.28125 18.939L7.29492 18.9565C8.10021 19.9391 9.14547 20.7215 10.3574 21.186C10.0873 20.5405 9.8665 19.797 9.69727 18.9966L9.68555 18.939H11.6836L11.6924 18.9751C11.9132 19.8754 12.1769 20.557 12.4209 21.0122C12.543 21.24 12.6596 21.41 12.7617 21.522C12.8127 21.5779 12.8595 21.6179 12.9004 21.644C12.9416 21.6704 12.9741 21.6811 12.998 21.6812C13.0219 21.6812 13.0543 21.6704 13.0957 21.644C13.1367 21.6179 13.1842 21.578 13.2354 21.522C13.3377 21.41 13.4539 21.2399 13.5762 21.0122C13.8206 20.557 14.0848 19.8755 14.3057 18.9751L14.3145 18.939H16.3125L16.3008 18.9966C16.1315 19.7971 15.9117 20.5403 15.6416 21.186C16.8547 20.7215 17.8996 19.9394 18.7051 18.9565L18.7188 18.939H21.082L21.041 19.0103C19.4303 21.7508 16.4333 23.6021 13 23.6021C9.56669 23.6021 6.56971 21.7508 4.95898 19.0103L4.91797 18.939H7.28125ZM18.7373 11.7603C19.3511 11.7603 19.8732 11.8941 20.2529 12.1489C20.634 12.4048 20.8697 12.7813 20.9092 13.2563L20.9131 13.3071H19.5098L19.5059 13.2632C19.4856 12.9986 19.2656 12.7717 18.8789 12.7144L18.7021 12.7007C18.4745 12.6936 18.2811 12.7386 18.1465 12.8306C18.0142 12.921 17.9347 13.0596 17.9346 13.2524C17.9346 13.4773 18.0988 13.6227 18.3809 13.7397C18.6624 13.8566 19.0363 13.9354 19.4209 14.0415C19.8017 14.1466 20.1904 14.2775 20.4834 14.4985C20.7792 14.7217 20.9775 15.0371 20.9775 15.5024C20.9773 16.3413 20.1972 17.0756 18.8311 17.0757C18.2084 17.0757 17.652 16.9351 17.248 16.6694C16.8429 16.4029 16.5909 16.0098 16.582 15.5103L16.5811 15.4624H17.9473L17.9512 15.5054C17.9672 15.698 18.0488 15.8555 18.1895 15.9653C18.3309 16.0757 18.5368 16.1411 18.8057 16.1411C19.0794 16.1411 19.292 16.0791 19.4346 15.9771C19.5759 15.8759 19.6504 15.7344 19.6504 15.5679C19.6504 15.4424 19.6073 15.3429 19.5312 15.2603C19.454 15.1765 19.3414 15.1078 19.2012 15.0483C18.9186 14.9285 18.5425 14.852 18.1562 14.7495C17.7741 14.6481 17.3843 14.5219 17.0908 14.3013C16.7942 14.0782 16.5964 13.7595 16.5986 13.2817C16.5987 12.8048 16.8248 12.4223 17.2061 12.1606C17.5859 11.9 18.1189 11.7603 18.7373 11.7603ZM11.7451 11.8257L11.7588 11.8442L14.3691 15.2397V11.8257H15.6533V17.0249H14.3936L14.3789 17.0063L11.7686 13.6167V17.0249H10.4844V11.8257H11.7451ZM7.51758 11.8325C8.14414 11.8325 8.63699 11.9724 8.97461 12.2134C9.31356 12.4554 9.49408 12.7982 9.49414 13.1938C9.49414 13.7817 9.11934 14.1629 8.61035 14.3521C9.21294 14.514 9.62988 15.0242 9.62988 15.5972C9.62975 16.0177 9.44167 16.3763 9.0957 16.6284C8.75063 16.8797 8.2508 17.0239 7.62793 17.0239H5.02246V11.8325H7.51758ZM6.30664 16.0972H7.45801C7.74137 16.0972 7.96016 16.0383 8.10645 15.9321C8.25056 15.8275 8.3291 15.6735 8.3291 15.4722C8.329 15.268 8.24411 15.107 8.09277 14.9956C7.93978 14.883 7.71504 14.8189 7.43262 14.8188H6.30664V16.0972ZM6.30664 13.936H7.34766C7.62302 13.936 7.83291 13.8816 7.97266 13.7827C8.10998 13.6855 8.18457 13.5413 8.18457 13.3472C8.18451 13.1568 8.1095 13.0107 7.97168 12.9106C7.8318 12.8093 7.62221 12.7515 7.34766 12.7515H6.30664V13.936ZM13 5.23291C16.4333 5.23291 19.4303 7.08413 21.041 9.82471L21.082 9.896H18.7188L18.7051 9.87842C17.8998 8.89585 16.8546 8.11349 15.6426 7.64893C15.9128 8.29462 16.1335 9.03874 16.3027 9.83936L16.3145 9.896H14.3164L14.3076 9.85986C14.0868 8.95952 13.8226 8.27795 13.5781 7.82275C13.4558 7.59497 13.3387 7.42499 13.2363 7.31299C13.1853 7.25717 13.1386 7.21704 13.0977 7.19092C13.0563 7.1645 13.0239 7.15479 13 7.15479C12.9761 7.15479 12.9437 7.1645 12.9023 7.19092C12.8614 7.21704 12.8147 7.25717 12.7637 7.31299C12.6613 7.42499 12.5442 7.59497 12.4219 7.82275C12.1774 8.27795 11.9132 8.95952 11.6924 9.85986L11.6836 9.896H9.68555L9.69727 9.83936C9.86647 9.03893 10.0853 8.29461 10.3564 7.64893C9.14404 8.11353 8.10005 8.89605 7.29492 9.87842L7.28125 9.896H4.91797L4.95898 9.82471C6.56971 7.08413 9.56669 5.23291 13 5.23291Z" stroke="url(#paint4_linear_462_115)" stroke-width="0.0941176"/>
</g>
<defs>
<filter id="filter0_d_462_115" x="0.129567" y="0.479665" width="25.7409" height="27.8756" filterUnits="userSpaceOnUse" color-interpolation-filters="sRGB">
<feFlood flood-opacity="0" result="BackgroundImageFix"/>
<feColorMatrix in="SourceAlpha" type="matrix" values="0 0 0 0 0 0 0 0 0 0 0 0 0 0 0 0 0 0 127 0" result="hardAlpha"/>
<feOffset/>
<feGaussianBlur stdDeviation="2.35294"/>
<feComposite in2="hardAlpha" operator="out"/>
<feColorMatrix type="matrix" values="0 0 0 0 0.317849 0 0 0 0 0.572858 0 0 0 0 0.98725 0 0 0 0.22 0"/>
<feBlend mode="normal" in2="BackgroundImageFix" result="effect1_dropShadow_462_115"/>
<feBlend mode="normal" in="SourceGraphic" in2="effect1_dropShadow_462_115" result="shape"/>
</filter>
<linearGradient id="paint0_linear_462_115" x1="6.0111" y1="5.26668" x2="23.0186" y2="18.956" gradientUnits="userSpaceOnUse">
<stop stop-color="#24A4FF"/>
<stop offset="1" stop-color="#0065E9"/>
</linearGradient>
<linearGradient id="paint1_linear_462_115" x1="6.0111" y1="5.26668" x2="23.0186" y2="18.956" gradientUnits="userSpaceOnUse">
<stop stop-color="#24A4FF"/>
<stop offset="1" stop-color="#0065E9"/>
</linearGradient>
<linearGradient id="paint2_linear_462_115" x1="6.0111" y1="5.26668" x2="23.0186" y2="18.956" gradientUnits="userSpaceOnUse">
<stop stop-color="#24A4FF"/>
<stop offset="1" stop-color="#0065E9"/>
</linearGradient>
<linearGradient id="paint3_linear_462_115" x1="6.0111" y1="5.26668" x2="23.0186" y2="18.956" gradientUnits="userSpaceOnUse">
<stop stop-color="#24A4FF"/>
<stop offset="1" stop-color="#0065E9"/>
</linearGradient>
<linearGradient id="paint4_linear_462_115" x1="6.0111" y1="5.26668" x2="23.0186" y2="18.956" gradientUnits="userSpaceOnUse">
<stop stop-color="#0D2495"/>
<stop offset="0.355769" stop-color="#0065E9"/>
<stop offset="0.783654" stop-color="#0D70FF"/>
<stop offset="1" stop-color="#F7F7F7"/>
</linearGradient>
</defs>
</svg>
