<svg width="22" height="26" viewBox="0 0 22 26" fill="none" xmlns="http://www.w3.org/2000/svg">
<path d="M10.9323 0C6.26422 0 2.19001 2.51734 0 6.24355H3.08683C4.22485 4.85502 5.70982 3.75589 7.43804 3.12421C7.0421 4.03311 6.72518 5.09483 6.48235 6.24355H9.08273C9.68811 3.77499 10.5364 2.49742 10.9323 2.49742C11.3282 2.49742 12.1765 3.77499 12.782 6.24355H15.3823C15.1395 5.09483 14.8209 4.03311 14.4266 3.12421C16.1536 3.75589 17.6398 4.85502 18.7778 6.24355H21.8647C19.6747 2.51734 15.6004 0 10.9323 0ZM0 18.7307C2.19001 22.4569 6.26422 24.9742 10.9323 24.9742C15.6004 24.9742 19.6747 22.4569 21.8647 18.7307H18.7778C17.6398 20.1192 16.1548 21.2183 14.4266 21.85C14.8209 20.9411 15.137 19.8794 15.3798 18.7307H12.7795C12.174 21.1992 11.3258 22.4768 10.9299 22.4768C10.5339 22.4768 9.68811 21.1992 9.08273 18.7307H6.48235C6.72518 19.8794 7.04374 20.9411 7.43804 21.85C5.71105 21.2183 4.22485 20.1192 3.08683 18.7307H0Z" fill="#2979FB"/>
<path d="M4.6134 13.9293C4.6134 13.3305 4.1139 12.9712 3.32401 12.9712H1.72099V14.8474H3.35886C4.14875 14.8474 4.6134 14.5181 4.6134 13.9293ZM4.41593 11.0252C4.41593 10.4663 3.97451 10.1469 3.20784 10.1469H1.72099V11.8934H3.20784C3.97451 11.8934 4.41593 11.594 4.41593 11.0252ZM6.26289 14.099C6.26289 15.2067 5.27552 15.9851 3.59118 15.9851H0.0947266V9.01929H3.44017C5.13612 9.01929 6.07703 9.77773 6.07703 10.8156C6.07703 11.6639 5.48461 12.1928 4.69471 12.4124C5.61238 12.552 6.26289 13.2806 6.26289 14.099Z" fill="#222222"/>
<path d="M12.8676 9.00903H14.4939V15.9849H12.8676L9.18537 11.2046V15.9849H7.55908V9.00903H9.18537L12.8676 13.7993V9.00903Z" fill="#222222"/>
<path d="M21.7696 13.9691C21.7696 15.0669 20.7473 16.0549 18.9004 16.0549C17.216 16.0549 15.9151 15.2965 15.8918 13.9791H17.6342C17.6807 14.538 18.1105 14.9072 18.8656 14.9072C19.6322 14.9072 20.0853 14.558 20.0853 14.059C20.0853 12.552 15.9035 13.4602 15.9151 10.9353C15.9151 9.67787 17.0999 8.91943 18.7726 8.91943C20.4337 8.91943 21.5721 9.64791 21.6766 10.9053H19.8877C19.8529 10.4463 19.4231 10.087 18.7261 10.0771C18.0873 10.0571 17.611 10.3266 17.611 10.8954C17.611 12.2925 21.7696 11.5142 21.7696 13.9691Z" fill="#222222"/>
</svg>
