<svg width="16" height="16" viewBox="0 0 16 16" fill="none" xmlns="http://www.w3.org/2000/svg">
<g clip-path="url(#clip0_765_209)">
<path d="M12.714 3.28607C10.1147 0.686742 5.88528 0.686742 3.28596 3.28607C0.686631 5.88539 0.686631 10.1148 3.28596 12.7142C5.88528 15.3135 10.1147 15.3135 12.714 12.7142C15.3134 10.1148 15.3134 5.88539 12.714 3.28607ZM9.64992 10.3571L8 8.70722L6.35008 10.3571C6.15469 10.5525 5.83837 10.5525 5.64298 10.3571C5.44758 10.1617 5.44758 9.84542 5.64298 9.65003L7.29289 8.00011L5.64298 6.3502C5.44758 6.1548 5.44758 5.83849 5.64298 5.64309C5.83837 5.44769 6.15469 5.44769 6.35008 5.64309L8 7.293L9.64992 5.64309C9.84531 5.44769 10.1616 5.44769 10.357 5.64309C10.5524 5.83849 10.5524 6.1548 10.357 6.3502L8.70711 8.00011L10.357 9.65003C10.5524 9.84542 10.5524 10.1617 10.357 10.3571C10.1616 10.5525 9.84531 10.5525 9.64992 10.3571Z" fill="#77778B"/>
</g>
<defs>
<clipPath id="clip0_765_209">
<rect width="16" height="16" fill="white"/>
</clipPath>
</defs>
</svg>
