<svg width="95" height="82" viewBox="0 0 95 82" fill="none" xmlns="http://www.w3.org/2000/svg">
<path d="M47.5003 -5.37898e-05C46.2021 -0.0229756 44.9203 0.292144 43.7807 0.91436C42.6411 1.53658 41.6829 2.44449 41.0003 3.54895L1.33628 69.5369C0.690928 70.6943 0.353871 71.9982 0.35745 73.3233C0.361029 74.6485 0.705124 75.9504 1.35671 77.1043C2.0083 78.2582 2.94552 79.2253 4.07842 79.9127C5.21133 80.6001 6.50189 80.9848 7.82627 81.0299H87.1653C88.4901 80.9854 89.7812 80.6012 90.9148 79.9142C92.0484 79.2272 92.9864 78.2604 93.6389 77.1066C94.2915 75.9528 94.6366 74.6507 94.6412 73.3252C94.6458 71.9997 94.3098 70.6952 93.6653 69.5369L54.0003 3.54895C53.3176 2.44449 52.3595 1.53658 51.2199 0.91436C50.0803 0.292144 48.7985 -0.0229756 47.5003 -5.37898e-05ZM47.5003 10.2329L84.6383 72.0119H10.3633L47.5003 10.2329ZM42.9913 26.9219V49.4709H52.0093V26.9219H42.9913ZM42.9913 58.4849V67.5029H52.0093V58.4849H42.9913Z" fill="#FFD447"/>
</svg>
