<svg width="32" height="33" viewBox="0 0 32 33" fill="none" xmlns="http://www.w3.org/2000/svg">
<g clip-path="url(#clip0_1_3081)">
<path d="M10.3652 24.195C14.3608 27.5476 20.3391 27.0246 23.6918 23.0291C27.0444 19.0335 26.5214 13.0552 22.5259 9.70258C18.5303 6.34993 12.552 6.87296 9.19935 10.8685C5.84669 14.864 6.36971 20.8423 10.3652 24.195ZM11.2773 23.108C7.86918 20.2483 7.42653 15.1886 10.2863 11.7805C13.146 8.37242 18.2057 7.92976 21.6138 10.7895C25.0219 13.6493 25.4646 18.7089 22.6048 22.117C19.7451 25.5251 14.6854 25.9678 11.2773 23.108ZM13.4357 20.5961C13.5678 20.6951 13.7303 20.7448 13.8952 20.7369L18.0743 20.5391C18.169 20.5371 18.2624 20.5161 18.3489 20.4774C18.4353 20.4387 18.5132 20.3831 18.5778 20.3138C18.6425 20.2446 18.6926 20.1631 18.7252 20.0741C18.7578 19.9852 18.7723 19.8906 18.7678 19.796C18.7633 19.7013 18.7399 19.6086 18.6989 19.5231C18.658 19.4377 18.6003 19.3613 18.5294 19.2985C18.4585 19.2357 18.3757 19.1878 18.2859 19.1575C18.1961 19.1272 18.1012 19.1152 18.0067 19.1222L15.4464 19.2432L19.5731 14.3252C19.6346 14.254 19.6813 14.1713 19.7105 14.082C19.7397 13.9926 19.7509 13.8983 19.7434 13.8046C19.7358 13.7109 19.7097 13.6196 19.6666 13.5361C19.6235 13.4525 19.5642 13.3784 19.4922 13.3179C19.4202 13.2575 19.3369 13.212 19.2471 13.184C19.1573 13.1561 19.0629 13.1462 18.9693 13.1551C18.8757 13.164 18.7848 13.1913 18.7019 13.2356C18.6189 13.2799 18.5456 13.3403 18.4862 13.4131L14.3594 18.3312L14.0341 15.7887C14.0245 15.6944 13.9962 15.6031 13.9508 15.5199C13.9054 15.4368 13.8438 15.3635 13.7696 15.3046C13.6955 15.2456 13.6103 15.2021 13.519 15.1767C13.4278 15.1512 13.3323 15.1442 13.2384 15.1562C13.1444 15.1682 13.0538 15.1989 12.9718 15.2465C12.8899 15.294 12.8183 15.3575 12.7613 15.4332C12.7044 15.5089 12.6631 15.5952 12.64 15.6871C12.6169 15.779 12.6125 15.8746 12.6269 15.9682L13.1578 20.1182C13.1698 20.2124 13.2006 20.3032 13.2483 20.3853C13.296 20.4674 13.3598 20.5391 13.4357 20.5961Z" fill="#0BA70F"/>
</g>
<defs>
<clipPath id="clip0_1_3081">
<rect width="22.7079" height="22.7079" fill="white" transform="matrix(-0.766044 -0.642788 0.642789 -0.766043 17.3953 32.5641)"/>
</clipPath>
</defs>
</svg>
