<svg width="28" height="29" viewBox="0 0 28 29" fill="none" xmlns="http://www.w3.org/2000/svg">
<ellipse cx="14" cy="14.475" rx="14" ry="14.3021" fill="#0BA70F"/>
<path d="M13.9825 7.0774C13.6634 7.08218 13.3592 7.21619 13.1367 7.44999C12.9143 7.6838 12.7918 7.99826 12.7961 8.32429V13.2446H7.97998C7.82043 13.2423 7.66202 13.2724 7.51396 13.3332C7.3659 13.3939 7.23115 13.4842 7.11752 13.5986C7.0039 13.7131 6.91367 13.8495 6.85209 13.9998C6.7905 14.1502 6.75879 14.3116 6.75879 14.4746C6.75879 14.6376 6.7905 14.799 6.85209 14.9494C6.91367 15.0998 7.0039 15.2362 7.11752 15.3506C7.23115 15.4651 7.3659 15.5553 7.51396 15.6161C7.66202 15.6769 7.82043 15.707 7.97998 15.7047H12.7961V20.625C12.7939 20.788 12.8233 20.9498 12.8828 21.1011C12.9423 21.2523 13.0307 21.39 13.1427 21.5061C13.2547 21.6222 13.3882 21.7143 13.5354 21.7773C13.6826 21.8402 13.8406 21.8726 14.0002 21.8726C14.1597 21.8726 14.3177 21.8402 14.4649 21.7773C14.6121 21.7143 14.7456 21.6222 14.8576 21.5061C14.9697 21.39 15.058 21.2523 15.1175 21.1011C15.177 20.9498 15.2065 20.788 15.2042 20.625V15.7047H20.0204C20.1799 15.707 20.3383 15.6769 20.4864 15.6161C20.6344 15.5553 20.7692 15.4651 20.8828 15.3506C20.9964 15.2362 21.0867 15.0998 21.1482 14.9494C21.2098 14.799 21.2415 14.6376 21.2415 14.4746C21.2415 14.3116 21.2098 14.1502 21.1482 13.9998C21.0867 13.8495 20.9964 13.7131 20.8828 13.5986C20.7692 13.4842 20.6344 13.3939 20.4864 13.3332C20.3383 13.2724 20.1799 13.2423 20.0204 13.2446H15.2042V8.32429C15.2064 8.15982 15.1763 7.99657 15.1157 7.8442C15.055 7.69182 14.9651 7.55342 14.8512 7.43717C14.7373 7.32092 14.6018 7.22918 14.4525 7.16739C14.3033 7.10559 14.1435 7.07499 13.9825 7.0774Z" fill="white"/>
</svg>
