<svg width="142" height="142" viewBox="0 0 142 142" fill="none" xmlns="http://www.w3.org/2000/svg">
<g clip-path="url(#clip0_7_93)">
<path d="M45.2811 104.908C40.3171 104.942 33.2261 101.077 28.6941 95.028C19.2151 82.38 22.3731 67.916 27.7171 63.045C32.0321 59.113 37.6171 58.914 45.0561 61.896C45.0561 70.196 45.2811 104.908 45.2811 104.908Z" fill="#E6E6E6"/>
<path d="M45.2811 104.908C40.3171 104.942 33.2261 101.077 28.6941 95.028C19.2151 82.38 22.3731 67.916 27.7171 63.045C32.0321 59.113 37.6171 58.914 45.0561 61.896C45.0561 70.2 45.2811 104.908 45.2811 104.908Z" stroke="#A3A3B2" stroke-miterlimit="10" stroke-linecap="round"/>
<path d="M24.4021 56.131C44.8771 60.545 54.0331 52.58 58.4461 36.252C62.9021 19.761 56.5301 5.69303 54.3691 9.79503C52.2081 13.897 50.5951 22.583 32.4751 18.677C11.0981 14.067 15.5461 6.27703 15.2751 1.65203C15.0041 -2.97297 3.41909 6.78703 1.01909 23.024C-1.45491 39.755 4.08509 51.751 24.4021 56.131Z" fill="#E6E6E6"/>
<path d="M24.4021 56.131C44.8771 60.545 54.0331 52.58 58.4461 36.252C62.9021 19.761 56.5301 5.69303 54.3691 9.79503C52.2081 13.897 50.5951 22.583 32.4751 18.677C11.0981 14.067 15.5461 6.27703 15.2751 1.65203C15.0041 -2.97297 3.41909 6.78703 1.01909 23.024C-1.45491 39.755 4.08509 51.751 24.4021 56.131Z" stroke="#A3A3B2" stroke-miterlimit="10"/>
<path d="M31.31 24.491C25.857 23.202 22.673 22.166 20.62 21.57C17.144 20.561 11.393 18.17 8.73098 30.524C7.25798 37.358 10.268 42.113 14.099 44.715C16.614 46.424 21.013 47.924 25.299 48.915L26.547 49.184C30.864 50.049 35.489 50.495 38.486 49.975C43.048 49.182 47.75 46.09 49.224 39.256C51.886 26.906 45.664 26.712 42.081 26.2C39.965 25.9 36.637 25.528 31.138 24.456L31.31 24.491Z" fill="#EAEAEA" stroke="#A3A3B2" stroke-miterlimit="10"/>
<path d="M24.2041 42.474C24.6261 41.9591 25.176 41.5642 25.7987 41.3286C26.4214 41.0931 27.095 41.0253 27.7521 41.132C28.3899 41.3024 28.9704 41.6403 29.4336 42.1106C29.8967 42.581 30.2256 43.1667 30.3861 43.807" stroke="#A3A3B2" stroke-miterlimit="10"/>
<path d="M16.2092 35.705L21.3252 36.805C21.564 36.8561 21.8133 36.8103 22.0184 36.6777C22.2235 36.5452 22.3676 36.3367 22.4192 36.098L23.6942 30.179L21.7282 30.961C21.5576 31.0291 21.3707 31.0448 21.1912 31.006L17.2972 30.167C17.0851 30.1213 16.8636 30.1616 16.6813 30.2792C16.4991 30.3968 16.3709 30.582 16.3252 30.794L15.5032 34.608C15.4773 34.7264 15.475 34.8487 15.4965 34.968C15.518 35.0873 15.5629 35.2011 15.6285 35.303C15.694 35.405 15.7791 35.4929 15.8788 35.5619C15.9784 35.6309 16.0907 35.6795 16.2092 35.705Z" stroke="#A3A3B2" stroke-miterlimit="10"/>
<path d="M40.4561 40.931L35.3401 39.831C35.222 39.8056 35.11 39.7572 35.0106 39.6885C34.9112 39.6199 34.8263 39.5323 34.7607 39.4308C34.6952 39.3293 34.6502 39.2159 34.6285 39.097C34.6068 38.9781 34.6087 38.8562 34.6341 38.738L35.9111 32.819L37.3841 34.338C37.5116 34.4702 37.6756 34.5614 37.8551 34.6L41.7491 35.44C41.8542 35.4626 41.9537 35.5056 42.0421 35.5667C42.1305 35.6278 42.206 35.7057 42.2642 35.796C42.3225 35.8863 42.3623 35.9871 42.3815 36.0929C42.4007 36.1986 42.3989 36.307 42.3761 36.412L41.5561 40.226C41.5305 40.3447 41.4817 40.4572 41.4125 40.557C41.3433 40.6567 41.255 40.7418 41.1528 40.8074C41.0505 40.8729 40.9364 40.9175 40.8168 40.9388C40.6972 40.96 40.5747 40.9574 40.4561 40.931Z" stroke="#A3A3B2" stroke-miterlimit="10"/>
<path d="M44.9822 141.076V53.1951C44.9824 48.8116 46.7239 44.6078 49.8234 41.5083C52.923 38.4087 57.1268 36.6673 61.5102 36.6671H124.235C128.619 36.6671 132.823 38.4084 135.923 41.5079C139.022 44.6075 140.764 48.8115 140.764 53.1951V141.076" fill="#EAEAEA"/>
<path d="M44.9822 141.076V53.1951C44.9824 48.8116 46.7239 44.6078 49.8234 41.5083C52.923 38.4087 57.1268 36.6673 61.5102 36.6671H124.235C128.619 36.6671 132.823 38.4084 135.923 41.5079C139.022 44.6075 140.764 48.8115 140.764 53.1951V141.076" stroke="#A3A3B2" stroke-miterlimit="10"/>
<path d="M127.936 61.645H58.935C57.1357 61.645 55.677 63.1037 55.677 64.903V78.217C55.677 80.0164 57.1357 81.475 58.935 81.475H127.936C129.735 81.475 131.194 80.0164 131.194 78.217V64.903C131.194 63.1037 129.735 61.645 127.936 61.645Z" stroke="#A3A3B2" stroke-width="1.03" stroke-miterlimit="10"/>
<path d="M127.936 88.144H58.935C57.1357 88.144 55.677 89.6027 55.677 91.402V104.716C55.677 106.515 57.1357 107.974 58.935 107.974H127.936C129.735 107.974 131.194 106.515 131.194 104.716V91.402C131.194 89.6027 129.735 88.144 127.936 88.144Z" stroke="#A3A3B2" stroke-width="1.03" stroke-miterlimit="10"/>
<path d="M127.936 114.643H58.935C57.1357 114.643 55.677 116.102 55.677 117.901V131.215C55.677 133.014 57.1357 134.473 58.935 134.473H127.936C129.735 134.473 131.194 133.014 131.194 131.215V117.901C131.194 116.102 129.735 114.643 127.936 114.643Z" stroke="#A3A3B2" stroke-width="1.03" stroke-miterlimit="10"/>
<path d="M76.0151 71.5601H113.572" stroke="#A3A3B2" stroke-width="1.03" stroke-miterlimit="10" stroke-linecap="round"/>
<path d="M76.0151 124.558H113.572" stroke="#A3A3B2" stroke-width="1.03" stroke-miterlimit="10" stroke-linecap="round"/>
<path d="M85.521 50.018H103.866" stroke="#A3A3B2" stroke-miterlimit="10" stroke-linecap="round"/>
<path d="M76.0151 98.998H113.572" stroke="#A3A3B2" stroke-width="1.03" stroke-miterlimit="10" stroke-linecap="round"/>
<path d="M69.7171 72.58C69.7171 72.7225 69.7737 72.8591 69.8744 72.9598C69.9751 73.0605 70.1117 73.117 70.2541 73.117C70.3965 73.117 70.5331 73.0605 70.6338 72.9598C70.7345 72.8591 70.7911 72.7225 70.7911 72.58V68.819C70.7912 68.7838 70.7882 68.7487 70.7821 68.714C70.7783 68.6985 70.7737 68.6831 70.7681 68.668L70.7511 68.614C70.7433 68.5962 70.7339 68.5792 70.7231 68.563C70.717 68.5484 70.7097 68.5344 70.7011 68.521C70.6616 68.4621 70.611 68.4115 70.5521 68.372C70.5393 68.3638 70.5259 68.3565 70.5121 68.35C70.4953 68.3392 70.4776 68.3298 70.4591 68.322C70.4416 68.3148 70.4236 68.3091 70.4051 68.305C70.3901 68.305 70.3741 68.294 70.3591 68.291C70.3244 68.2849 70.2893 68.2819 70.2541 68.282H66.4931C66.3507 68.282 66.2141 68.3386 66.1134 68.4393C66.0127 68.54 65.9561 68.6766 65.9561 68.819C65.9561 68.9615 66.0127 69.0981 66.1134 69.1988C66.2141 69.2995 66.3507 69.356 66.4931 69.356H68.9571L64.2951 74.315C64.1943 74.4158 64.1377 74.5525 64.1377 74.695C64.1377 74.8376 64.1943 74.9743 64.2951 75.075C64.3959 75.1758 64.5326 75.2324 64.6751 75.2324C64.8176 75.2324 64.9543 75.1758 65.0551 75.075L69.7171 70.116V72.58Z" fill="#A3A3B2"/>
<path d="M69.7171 125.38C69.7171 125.522 69.7737 125.659 69.8744 125.76C69.9751 125.86 70.1117 125.917 70.2541 125.917C70.3965 125.917 70.5331 125.86 70.6338 125.76C70.7345 125.659 70.7911 125.522 70.7911 125.38V121.62C70.7912 121.585 70.7882 121.55 70.7821 121.515C70.7783 121.499 70.7737 121.484 70.7681 121.469L70.7511 121.415C70.7433 121.397 70.7339 121.38 70.7231 121.364C70.717 121.349 70.7097 121.335 70.7011 121.322C70.6616 121.263 70.611 121.212 70.5521 121.173C70.5393 121.165 70.5259 121.157 70.5121 121.151C70.4953 121.14 70.4776 121.131 70.4591 121.123C70.4416 121.116 70.4236 121.11 70.4051 121.106C70.3901 121.106 70.3741 121.095 70.3591 121.092C70.3244 121.086 70.2893 121.083 70.2541 121.083H66.4931C66.3507 121.083 66.2141 121.14 66.1134 121.24C66.0127 121.341 65.9561 121.478 65.9561 121.62C65.9561 121.762 66.0127 121.899 66.1134 122C66.2141 122.1 66.3507 122.157 66.4931 122.157H68.9571L64.2951 127.116C64.2452 127.166 64.2056 127.225 64.1786 127.29C64.1516 127.356 64.1377 127.425 64.1377 127.496C64.1377 127.567 64.1516 127.636 64.1786 127.702C64.2056 127.767 64.2452 127.826 64.2951 127.876C64.345 127.926 64.4042 127.965 64.4694 127.993C64.5346 128.02 64.6045 128.033 64.6751 128.033C64.7457 128.033 64.8156 128.02 64.8808 127.993C64.946 127.965 65.0052 127.926 65.0551 127.876L69.7171 122.917V125.38Z" fill="#A3A3B2"/>
<path d="M65.2132 98.1751C65.2132 98.0326 65.1566 97.896 65.0559 97.7953C64.9552 97.6946 64.8186 97.6381 64.6762 97.6381C64.5337 97.6381 64.3972 97.6946 64.2964 97.7953C64.1957 97.896 64.1392 98.0326 64.1392 98.1751V101.933C64.139 101.968 64.142 102.003 64.1482 102.038C64.1519 102.054 64.1566 102.069 64.1622 102.084L64.1792 102.138C64.187 102.156 64.1963 102.173 64.2072 102.189C64.2132 102.204 64.2206 102.218 64.2292 102.231C64.2686 102.29 64.3192 102.341 64.3782 102.38C64.391 102.388 64.4044 102.396 64.4182 102.402C64.435 102.413 64.4527 102.422 64.4712 102.43C64.4886 102.437 64.5067 102.443 64.5252 102.447C64.5402 102.447 64.5562 102.458 64.5712 102.461C64.6058 102.467 64.641 102.47 64.6762 102.47H68.4372C68.5796 102.47 68.7162 102.413 68.8169 102.313C68.9176 102.212 68.9742 102.075 68.9742 101.933C68.9742 101.791 68.9176 101.654 68.8169 101.553C68.7162 101.453 68.5796 101.396 68.4372 101.396H65.9732L70.6352 96.4371C70.6851 96.3872 70.7247 96.3279 70.7517 96.2627C70.7787 96.1975 70.7926 96.1276 70.7926 96.0571C70.7926 95.9865 70.7787 95.9166 70.7517 95.8514C70.7247 95.7862 70.6851 95.727 70.6352 95.6771C70.5853 95.6271 70.526 95.5876 70.4608 95.5606C70.3956 95.5336 70.3257 95.5197 70.2552 95.5197C70.1846 95.5197 70.1147 95.5336 70.0495 95.5606C69.9843 95.5876 69.9251 95.6271 69.8752 95.6771L65.2132 100.636V98.1751Z" fill="#A3A3B2"/>
<path d="M32.6934 83.1105C34.224 93.2645 34.9162 99.7005 32.0291 100.429C29.6727 101.024 23.7951 94.6906 20.666 86.051C17.4838 77.2584 17.8391 69.8288 22.7266 68.4187C28.7275 66.6864 31.3209 74.0262 32.6934 83.1105Z" fill="#E6E6E6"/>
<path d="M32.6934 83.1105C34.224 93.2645 34.9162 99.7005 32.0291 100.429C29.6727 101.024 23.7951 94.6906 20.666 86.051C17.4838 77.2584 17.8391 69.8288 22.7266 68.4187C28.7275 66.6864 31.3209 74.0262 32.6934 83.1105Z" stroke="#A3A3B2" stroke-miterlimit="10"/>
<path d="M41.6701 108.779L38.4161 107.836C37.5428 107.583 36.8058 106.993 36.367 106.197C35.9282 105.401 35.8236 104.463 36.0761 103.589L37.0191 100.335C37.2725 99.4615 37.8624 98.7242 38.6592 98.2854C39.456 97.8466 40.3944 97.7422 41.2681 97.9951L44.5241 98.938C44.9568 99.0631 45.3605 99.2721 45.7123 99.5533C46.0641 99.8344 46.357 100.182 46.5743 100.577C46.7917 100.971 46.9291 101.404 46.9788 101.852C47.0286 102.3 46.9896 102.753 46.8641 103.185L45.9231 106.439C45.6695 107.312 45.0795 108.05 44.2828 108.488C43.4861 108.927 42.5479 109.032 41.6741 108.779" fill="#E6E6E6"/>
<path d="M37.1374 99.9176L35.957 103.998C35.4964 105.59 36.4138 107.254 38.006 107.715L42.0865 108.895C43.6787 109.356 45.3428 108.439 45.8035 106.846L46.9838 102.766C47.4444 101.174 46.5271 99.5096 44.9348 99.049L40.8544 97.8686C39.2622 97.408 37.598 98.3254 37.1374 99.9176Z" stroke="#A3A3B2" stroke-width="1.0004" stroke-miterlimit="10"/>
<path d="M41.177 94.113C43.053 93.573 44.777 93.39 45.197 94.621C45.654 95.955 44.171 96.93 42.278 97.403C40.385 97.876 38.738 97.803 38.427 96.576C38.127 95.401 39.253 94.667 41.177 94.113Z" fill="#E6E6E6"/>
<path d="M41.1772 94.113C43.0532 93.573 44.7772 93.39 45.1972 94.621C45.6542 95.955 44.1712 96.93 42.2782 97.403C40.3852 97.876 38.7382 97.803 38.4272 96.576C38.1302 95.401 39.2532 94.667 41.1772 94.113Z" stroke="#A3A3B2" stroke-miterlimit="10"/>
</g>
<defs>
<clipPath id="clip0_7_93">
<rect width="141.264" height="141.077" fill="white"/>
</clipPath>
</defs>
</svg>
