<svg width="142" height="142" viewBox="0 0 142 142" fill="none" xmlns="http://www.w3.org/2000/svg">
<mask id="mask0_1_2883" style="mask-type:luminance" maskUnits="userSpaceOnUse" x="0" y="0" width="142" height="142">
<path d="M141.843 0H0V141.351H141.843V0Z" fill="white"/>
</mask>
<g mask="url(#mask0_1_2883)">
<path d="M45.5861 105.182C40.6221 105.216 33.5311 101.351 28.9991 95.302C19.5201 82.654 22.6781 68.19 28.0221 63.319C32.3371 59.387 37.9221 59.188 45.3611 62.17C45.3611 70.47 45.5861 105.182 45.5861 105.182Z" fill="#292938"/>
<path d="M45.5861 105.182C40.6221 105.216 33.5311 101.351 28.9991 95.302C19.5201 82.654 22.6781 68.19 28.0221 63.319C32.3371 59.387 37.9221 59.188 45.3611 62.17C45.3611 70.474 45.5861 105.182 45.5861 105.182Z" stroke="#65656E" stroke-miterlimit="10" stroke-linecap="round"/>
<path d="M24.707 56.405C45.182 60.819 54.338 52.854 58.751 36.526C63.207 20.035 56.835 5.96702 54.674 10.069C52.513 14.171 50.9 22.857 32.78 18.951C11.403 14.341 15.851 6.55102 15.58 1.92602C15.309 -2.69898 3.72402 7.06102 1.32402 23.298C-1.14998 40.029 4.39002 52.025 24.707 56.405Z" fill="#292938"/>
<path d="M24.707 56.405C45.182 60.819 54.338 52.854 58.751 36.526C63.207 20.035 56.835 5.96702 54.674 10.069C52.513 14.171 50.9 22.857 32.78 18.951C11.403 14.341 15.851 6.55102 15.58 1.92602C15.309 -2.69898 3.72402 7.06102 1.32402 23.298C-1.14998 40.029 4.39002 52.025 24.707 56.405Z" stroke="#65656E" stroke-miterlimit="10"/>
<path d="M31.6149 24.765C26.1619 23.476 22.9779 22.44 20.9249 21.844C17.4489 20.835 11.6979 18.444 9.03591 30.798C7.56291 37.632 10.5729 42.387 14.4039 44.989C16.9189 46.698 21.3179 48.198 25.6039 49.189L26.8519 49.458C31.1689 50.323 35.7939 50.769 38.7909 50.249C43.3529 49.456 48.0549 46.364 49.5289 39.53C52.1909 27.18 45.9689 26.986 42.3859 26.474C40.2699 26.174 36.9419 25.802 31.4429 24.73L31.6149 24.765Z" fill="#24242F" stroke="#65656E" stroke-miterlimit="10"/>
<path d="M24.509 42.748C24.931 42.2331 25.4809 41.8381 26.1036 41.6026C26.7263 41.3671 27.3999 41.2993 28.057 41.406C28.6948 41.5764 29.2753 41.9143 29.7385 42.3846C30.2016 42.855 30.5305 43.4407 30.691 44.081" stroke="#65656E" stroke-miterlimit="10"/>
<path d="M16.5141 35.979L21.6301 37.079C21.8689 37.13 22.1182 37.0843 22.3233 36.9517C22.5284 36.8192 22.6725 36.6107 22.7241 36.372L23.9991 30.453L22.0331 31.235C21.8626 31.3031 21.6756 31.3187 21.4961 31.28L17.6021 30.441C17.3901 30.3953 17.1685 30.4356 16.9863 30.5532C16.804 30.6708 16.6759 30.856 16.6301 31.068L15.8081 34.882C15.7822 35.0004 15.78 35.1227 15.8015 35.242C15.823 35.3613 15.8678 35.4751 15.9334 35.577C15.999 35.6789 16.084 35.7669 16.1837 35.8359C16.2833 35.9049 16.3956 35.9535 16.5141 35.979Z" stroke="#65656E" stroke-miterlimit="10"/>
<path d="M40.761 41.205L35.645 40.105C35.5269 40.0796 35.415 40.0312 35.3155 39.9625C35.2161 39.8938 35.1312 39.8062 35.0657 39.7048C35.0001 39.6033 34.9552 39.4898 34.9334 39.371C34.9117 39.2521 34.9136 39.1301 34.939 39.012L36.216 33.093L37.689 34.612C37.8166 34.7442 37.9805 34.8354 38.16 34.874L42.054 35.714C42.1591 35.7366 42.2587 35.7796 42.3471 35.8407C42.4355 35.9018 42.5109 35.9797 42.5692 36.07C42.6274 36.1602 42.6673 36.2611 42.6865 36.3668C42.7057 36.4726 42.7038 36.581 42.681 36.686L41.861 40.5C41.8355 40.6187 41.7866 40.7312 41.7174 40.831C41.6482 40.9307 41.5599 41.0158 41.4577 41.0813C41.3555 41.1469 41.2413 41.1915 41.1217 41.2127C41.0022 41.234 40.8796 41.2313 40.761 41.205Z" stroke="#65656E" stroke-miterlimit="10"/>
<path d="M45.2871 141.35V53.469C45.2874 49.0856 47.0288 44.8818 50.1283 41.7823C53.2279 38.6827 57.4317 36.9413 61.8151 36.941H124.54C128.924 36.941 133.128 38.6823 136.228 41.7819C139.327 44.8815 141.069 49.0855 141.069 53.469V141.35" fill="#24242F"/>
<path d="M45.2871 141.35V53.469C45.2874 49.0856 47.0288 44.8818 50.1283 41.7823C53.2279 38.6827 57.4317 36.9413 61.8151 36.941H124.54C128.924 36.941 133.128 38.6823 136.228 41.7819C139.327 44.8815 141.069 49.0855 141.069 53.469V141.35" stroke="#65656E" stroke-miterlimit="10"/>
<path d="M128.241 61.919H59.2399C57.4406 61.919 55.9819 63.3777 55.9819 65.177V78.491C55.9819 80.2903 57.4406 81.749 59.2399 81.749H128.241C130.04 81.749 131.499 80.2903 131.499 78.491V65.177C131.499 63.3777 130.04 61.919 128.241 61.919Z" stroke="#65656E" stroke-width="1.03" stroke-miterlimit="10"/>
<path d="M128.241 88.418H59.2399C57.4406 88.418 55.9819 89.8767 55.9819 91.676V104.99C55.9819 106.789 57.4406 108.248 59.2399 108.248H128.241C130.04 108.248 131.499 106.789 131.499 104.99V91.676C131.499 89.8767 130.04 88.418 128.241 88.418Z" stroke="#65656E" stroke-width="1.03" stroke-miterlimit="10"/>
<path d="M128.241 114.917H59.2399C57.4406 114.917 55.9819 116.376 55.9819 118.175V131.489C55.9819 133.288 57.4406 134.747 59.2399 134.747H128.241C130.04 134.747 131.499 133.288 131.499 131.489V118.175C131.499 116.376 130.04 114.917 128.241 114.917Z" stroke="#65656E" stroke-width="1.03" stroke-miterlimit="10"/>
<path d="M76.3201 71.834H113.877" stroke="#65656E" stroke-width="1.03" stroke-miterlimit="10" stroke-linecap="round"/>
<path d="M76.3201 124.832H113.877" stroke="#65656E" stroke-width="1.03" stroke-miterlimit="10" stroke-linecap="round"/>
<path d="M85.8259 50.292H104.171" stroke="#65656E" stroke-miterlimit="10" stroke-linecap="round"/>
<path d="M76.3201 99.272H113.877" stroke="#65656E" stroke-width="1.03" stroke-miterlimit="10" stroke-linecap="round"/>
<path d="M70.022 72.854C70.022 72.9965 70.0786 73.133 70.1793 73.2337C70.28 73.3345 70.4166 73.391 70.559 73.391C70.7014 73.391 70.838 73.3345 70.9387 73.2337C71.0395 73.133 71.096 72.9965 71.096 72.854V69.093C71.0962 69.0578 71.0931 69.0227 71.087 68.988C71.0833 68.9724 71.0786 68.9571 71.073 68.942L71.056 68.888C71.0482 68.8702 71.0389 68.8532 71.028 68.837C71.022 68.8224 71.0146 68.8084 71.006 68.795C70.9666 68.7361 70.9159 68.6855 70.857 68.646C70.8442 68.6378 70.8308 68.6305 70.817 68.624C70.8002 68.6132 70.7825 68.6038 70.764 68.596C70.7466 68.5888 70.7285 68.5831 70.71 68.579C70.695 68.579 70.679 68.568 70.664 68.565C70.6294 68.5589 70.5942 68.5559 70.559 68.556H66.798C66.6556 68.556 66.519 68.6126 66.4183 68.7133C66.3176 68.814 66.261 68.9506 66.261 69.093C66.261 69.2355 66.3176 69.372 66.4183 69.4728C66.519 69.5735 66.6556 69.63 66.798 69.63H69.262L64.6 74.589C64.4992 74.6898 64.4426 74.8265 64.4426 74.969C64.4426 75.1116 64.4992 75.2483 64.6 75.349C64.7008 75.4498 64.8375 75.5064 64.98 75.5064C65.1226 75.5064 65.2592 75.4498 65.36 75.349L70.022 70.39V72.854Z" fill="#65656E"/>
<path d="M70.022 125.654C70.022 125.796 70.0786 125.933 70.1793 126.034C70.28 126.134 70.4166 126.191 70.559 126.191C70.7014 126.191 70.838 126.134 70.9387 126.034C71.0395 125.933 71.096 125.796 71.096 125.654V121.894C71.0962 121.859 71.0931 121.824 71.087 121.789C71.0833 121.773 71.0786 121.758 71.073 121.743L71.056 121.689C71.0482 121.671 71.0389 121.654 71.028 121.638C71.022 121.623 71.0146 121.609 71.006 121.596C70.9666 121.537 70.9159 121.486 70.857 121.447C70.8442 121.439 70.8308 121.431 70.817 121.425C70.8002 121.414 70.7825 121.405 70.764 121.397C70.7466 121.39 70.7285 121.384 70.71 121.38C70.695 121.38 70.679 121.369 70.664 121.366C70.6294 121.36 70.5942 121.357 70.559 121.357H66.798C66.6556 121.357 66.519 121.414 66.4183 121.514C66.3176 121.615 66.261 121.752 66.261 121.894C66.261 122.036 66.3176 122.173 66.4183 122.274C66.519 122.374 66.6556 122.431 66.798 122.431H69.262L64.6 127.39C64.5501 127.44 64.5105 127.499 64.4835 127.564C64.4565 127.63 64.4426 127.699 64.4426 127.77C64.4426 127.841 64.4565 127.91 64.4835 127.976C64.5105 128.041 64.5501 128.1 64.6 128.15C64.6499 128.2 64.7092 128.239 64.7744 128.266C64.8396 128.293 64.9095 128.307 64.98 128.307C65.0506 128.307 65.1205 128.293 65.1857 128.266C65.2509 128.239 65.3101 128.2 65.36 128.15L70.022 123.191V125.654Z" fill="#65656E"/>
<path d="M65.5181 98.449C65.5181 98.3066 65.4615 98.17 65.3608 98.0693C65.2601 97.9686 65.1235 97.912 64.9811 97.912C64.8387 97.912 64.7021 97.9686 64.6014 98.0693C64.5007 98.17 64.4441 98.3066 64.4441 98.449V102.207C64.444 102.242 64.447 102.277 64.4531 102.312C64.4569 102.328 64.4615 102.343 64.4671 102.358L64.4841 102.412C64.4919 102.43 64.5013 102.447 64.5121 102.463C64.5182 102.478 64.5255 102.492 64.5341 102.505C64.5736 102.564 64.6242 102.615 64.6831 102.654C64.6959 102.662 64.7093 102.67 64.7231 102.676C64.7399 102.687 64.7576 102.696 64.7761 102.704C64.7936 102.711 64.8116 102.717 64.8301 102.721C64.8451 102.721 64.8611 102.732 64.8761 102.735C64.9108 102.741 64.9459 102.744 64.9811 102.744H68.7421C68.8845 102.744 69.0211 102.687 69.1218 102.587C69.2225 102.486 69.2791 102.349 69.2791 102.207C69.2791 102.065 69.2225 101.928 69.1218 101.827C69.0211 101.727 68.8845 101.67 68.7421 101.67H66.2781L70.9401 96.711C70.99 96.6611 71.0296 96.6019 71.0566 96.5367C71.0836 96.4715 71.0975 96.4016 71.0975 96.331C71.0975 96.2605 71.0836 96.1906 71.0566 96.1254C71.0296 96.0602 70.99 96.0009 70.9401 95.951C70.8902 95.9011 70.831 95.8616 70.7658 95.8345C70.7006 95.8075 70.6307 95.7936 70.5601 95.7936C70.4895 95.7936 70.4196 95.8075 70.3544 95.8345C70.2892 95.8616 70.23 95.9011 70.1801 95.951L65.5181 100.91V98.449Z" fill="#65656E"/>
<path d="M32.9983 83.3844C34.529 93.5385 35.2211 99.9745 32.334 100.703C29.9776 101.298 24.1 94.9646 20.9709 86.325C17.7887 77.5324 18.1441 70.1028 23.0316 68.6927C29.0324 66.9604 31.6259 74.3002 32.9983 83.3844Z" fill="#292938"/>
<path d="M32.9983 83.3844C34.529 93.5385 35.2211 99.9745 32.334 100.703C29.9776 101.298 24.1 94.9646 20.9709 86.325C17.7887 77.5324 18.1441 70.1028 23.0316 68.6927C29.0324 66.9604 31.6259 74.3002 32.9983 83.3844Z" stroke="#65656E" stroke-miterlimit="10"/>
<path d="M41.975 109.053L38.721 108.11C37.8477 107.857 37.1107 107.267 36.6719 106.471C36.2331 105.675 36.1285 104.737 36.381 103.863L37.324 100.609C37.5774 99.7354 38.1674 98.9982 38.9641 98.5594C39.7609 98.1206 40.6993 98.0162 41.573 98.269L44.829 99.212C45.2617 99.337 45.6654 99.5461 46.0172 99.8273C46.369 100.108 46.6619 100.456 46.8793 100.851C47.0966 101.245 47.234 101.678 47.2838 102.126C47.3335 102.574 47.2945 103.027 47.169 103.459L46.228 106.713C45.9744 107.586 45.3845 108.324 44.5878 108.762C43.7911 109.201 42.8528 109.306 41.979 109.053" fill="#292938"/>
<path d="M37.4424 100.192L36.262 104.272C35.8014 105.864 36.7187 107.528 38.311 107.989L42.3914 109.169C43.9836 109.63 45.6478 108.713 46.1084 107.12L47.2888 103.04C47.7494 101.448 46.832 99.7836 45.2398 99.323L41.1594 98.1426C39.5671 97.682 37.903 98.5994 37.4424 100.192Z" stroke="#65656E" stroke-width="1.0004" stroke-miterlimit="10"/>
<path d="M41.4821 94.387C43.3581 93.847 45.0821 93.664 45.5021 94.895C45.9591 96.229 44.4761 97.204 42.5831 97.677C40.6901 98.15 39.0431 98.077 38.7321 96.85C38.4321 95.675 39.5581 94.941 41.4821 94.387Z" fill="#292938"/>
<path d="M41.4821 94.387C43.3581 93.847 45.0821 93.664 45.5021 94.895C45.9591 96.229 44.4761 97.204 42.5831 97.677C40.6901 98.15 39.0431 98.077 38.7321 96.85C38.4351 95.675 39.5581 94.941 41.4821 94.387Z" stroke="#65656E" stroke-miterlimit="10"/>
</g>
</svg>
