<svg width="20" height="20" viewBox="0 0 20 20" fill="none" xmlns="http://www.w3.org/2000/svg">
<path d="M17.1343 3.26011C13.4461 -0.428016 7.44498 -0.428016 3.75685 3.2601C0.0687182 6.94823 0.0687125 12.9494 3.75684 16.6375C7.44497 20.3256 13.4461 20.3256 17.1342 16.6375C20.8224 12.9494 20.8224 6.94824 17.1343 3.26011ZM16.131 4.26342C19.2769 7.40932 19.2768 12.4883 16.1309 15.6342C12.985 18.7801 7.90605 18.7801 4.76015 15.6342C1.61424 12.4883 1.61425 7.40931 4.76015 4.26341C7.90606 1.11751 12.985 1.11751 16.131 4.26342ZM13.7618 6.57768C13.6388 6.46759 13.4813 6.40384 13.3163 6.3974L9.1359 6.23018C9.04136 6.22394 8.94654 6.23671 8.85701 6.26772C8.76749 6.29872 8.68509 6.34734 8.61466 6.41071C8.54423 6.47408 8.4872 6.55091 8.44695 6.63667C8.40669 6.72244 8.38402 6.81539 8.38027 6.91006C8.37652 7.00472 8.39176 7.09918 8.4251 7.18786C8.45845 7.27654 8.50921 7.35764 8.5744 7.42639C8.6396 7.49513 8.7179 7.55012 8.80468 7.58811C8.89147 7.62611 8.98499 7.64634 9.07972 7.64761L11.6409 7.75016L7.10119 12.2898C7.03378 12.3554 6.98006 12.4337 6.94316 12.5201C6.90626 12.6066 6.88692 12.6996 6.88626 12.7936C6.88559 12.8876 6.90362 12.9808 6.93929 13.0678C6.97496 13.1548 7.02757 13.2338 7.09405 13.3003C7.16053 13.3668 7.23956 13.4194 7.32655 13.4551C7.41354 13.4907 7.50675 13.5088 7.60077 13.5081C7.69479 13.5074 7.78773 13.4881 7.87421 13.4512C7.96068 13.4143 8.03897 13.3606 8.1045 13.2932L12.6442 8.75346L12.7467 11.3146C12.748 11.4094 12.7682 11.5029 12.8062 11.5897C12.8442 11.6765 12.8992 11.7548 12.968 11.82C13.0367 11.8851 13.1178 11.9359 13.2065 11.9693C13.2952 12.0026 13.3896 12.0178 13.4843 12.0141C13.579 12.0103 13.6719 11.9877 13.7577 11.9474C13.8434 11.9072 13.9203 11.8501 13.9836 11.7797C14.047 11.7093 14.0956 11.6269 14.1266 11.5373C14.1576 11.4478 14.1704 11.353 14.1642 11.2585L13.997 7.07802C13.9932 6.98313 13.9705 6.88995 13.9301 6.80401C13.8897 6.71806 13.8325 6.6411 13.7618 6.57768Z" fill="#CC1B1B"/>
</svg>
