<svg width="19" height="19" viewBox="0 0 19 19" fill="none" xmlns="http://www.w3.org/2000/svg">
<path d="M15.7356 2.83553C12.1721 -0.7282 6.37377 -0.728197 2.81029 2.83553C-0.753202 6.39925 -0.753205 12.198 2.81029 15.7617C6.37378 19.3254 12.1721 19.3254 15.7356 15.7617C19.2991 12.198 19.2991 6.39925 15.7356 2.83553ZM14.7662 3.80499C17.8058 6.84478 17.8058 11.7525 14.7662 14.7922C11.7266 17.832 6.81927 17.832 3.77969 14.7922C0.740096 11.7525 0.740099 6.84478 3.77969 3.80499C6.81927 0.765202 11.7266 0.7652 14.7662 3.80499ZM12.4771 6.04119C12.3583 5.93482 12.2061 5.87322 12.0467 5.86699L8.00755 5.70542C7.91621 5.69939 7.82459 5.71173 7.7381 5.74169C7.6516 5.77165 7.57198 5.81863 7.50393 5.87986C7.43588 5.94109 7.38078 6.01533 7.34189 6.0982C7.30299 6.18107 7.28109 6.27089 7.27746 6.36236C7.27384 6.45384 7.28857 6.54511 7.32078 6.6308C7.353 6.71649 7.40205 6.79485 7.46504 6.86128C7.52803 6.9277 7.60368 6.98084 7.68754 7.01755C7.77139 7.05426 7.86175 7.07381 7.95328 7.07504L10.4279 7.17413L6.04162 11.5607C5.97648 11.624 5.92458 11.6997 5.88893 11.7832C5.85327 11.8668 5.83459 11.9566 5.83394 12.0474C5.8333 12.1383 5.85072 12.2284 5.88519 12.3124C5.91965 12.3965 5.97048 12.4728 6.03471 12.5371C6.09895 12.6013 6.17531 12.6521 6.25936 12.6866C6.34341 12.7211 6.43347 12.7385 6.52431 12.7378C6.61515 12.7372 6.70495 12.7185 6.78851 12.6829C6.87206 12.6472 6.9477 12.5953 7.01102 12.5302L11.3973 8.14359L11.4964 10.6184C11.4976 10.7099 11.5172 10.8003 11.5539 10.8841C11.5906 10.968 11.6437 11.0437 11.7101 11.1066C11.7765 11.1696 11.8549 11.2187 11.9406 11.2509C12.0263 11.2831 12.1175 11.2979 12.209 11.2942C12.3005 11.2906 12.3903 11.2687 12.4732 11.2298C12.556 11.1909 12.6303 11.1358 12.6915 11.0678C12.7527 10.9997 12.7997 10.9201 12.8296 10.8336C12.8596 10.7471 12.8719 10.6554 12.8659 10.5641L12.7043 6.52466C12.7008 6.43297 12.6788 6.34294 12.6398 6.25989C12.6007 6.17684 12.5454 6.10247 12.4771 6.04119Z" fill="#CC1B1B"/>
</svg>
