<svg width="108" height="72" viewBox="0 0 108 72" fill="none" xmlns="http://www.w3.org/2000/svg">
<path d="M96.2144 32.2857H72.6429C71.601 32.2857 70.6018 31.8718 69.865 31.1351C69.1283 30.3983 68.7144 29.3991 68.7144 28.3572V16.5715C68.7144 12.4038 70.37 8.40679 73.317 5.45978C76.264 2.51278 80.261 0.857178 84.4286 0.857178C88.5963 0.857178 92.5933 2.51278 95.5403 5.45978C98.4873 8.40679 100.143 12.4038 100.143 16.5715V28.3572C100.143 29.3991 99.729 30.3983 98.9923 31.1351C98.2555 31.8718 97.2563 32.2857 96.2144 32.2857ZM76.5715 24.4286H92.2858V16.5715C92.2858 14.4876 91.458 12.4891 89.9845 11.0156C88.511 9.54213 86.5125 8.71432 84.4286 8.71432C82.3448 8.71432 80.3463 9.54213 78.8728 11.0156C77.3993 12.4891 76.5715 14.4876 76.5715 16.5715V24.4286Z" fill="#067409"/>
<path d="M73.15 64.3333C72.1289 64.3333 71.1497 63.9821 70.4276 63.357C69.7056 62.7319 69.3 61.8841 69.3 61V44.3333C69.3 43.4493 68.8944 42.6014 68.1724 41.9763C67.4503 41.3512 66.4711 41 65.45 41H11.55C8.48675 41 5.54896 42.0536 3.38292 43.9289C1.21687 45.8043 0 48.3478 0 51V61C0 63.6522 1.21687 66.1957 3.38292 68.0711C5.54896 69.9464 8.48675 71 11.55 71H73.15C74.1711 71 75.1503 70.6488 75.8724 70.0237C76.5944 69.3986 77 68.5507 77 67.6667C77 66.7826 76.5944 65.9348 75.8724 65.3096C75.1503 64.6845 74.1711 64.3333 73.15 64.3333Z" fill="#EAE9E9"/>
<path d="M96.2146 24.4286H72.6431C66.1341 24.4286 60.8574 29.7052 60.8574 36.2143V59.7857C60.8574 66.2948 66.1341 71.5714 72.6431 71.5714H96.2146C102.724 71.5714 108 66.2948 108 59.7857V36.2143C108 29.7052 102.724 24.4286 96.2146 24.4286Z" fill="#0BA70F"/>
<path d="M92.2859 44.0714C92.2942 42.6902 91.9383 41.3312 91.254 40.1314C90.5697 38.9317 89.5812 37.9335 88.3882 37.2375C87.1952 36.5415 85.8397 36.1723 84.4585 36.167C83.0773 36.1618 81.7191 36.5208 80.5209 37.2078C79.3227 37.8948 78.3267 38.8855 77.6334 40.0801C76.94 41.2747 76.5739 42.631 76.5718 44.0122C76.5697 45.3934 76.9317 46.7508 77.6214 47.9475C78.3111 49.1442 79.3041 50.1379 80.5002 50.8285V55.8571C80.5002 56.899 80.9141 57.8983 81.6509 58.635C82.3876 59.3718 83.3869 59.7857 84.4288 59.7857C85.4707 59.7857 86.47 59.3718 87.2067 58.635C87.9435 57.8983 88.3574 56.899 88.3574 55.8571V50.8285C89.5449 50.143 90.5323 49.1585 91.2215 47.9731C91.9107 46.7877 92.2776 45.4426 92.2859 44.0714Z" fill="white"/>
<circle cx="14.5" cy="55.5" r="4.5" fill="#0BA70F"/>
<circle cx="32.5" cy="55.5" r="4.5" fill="#0BA70F"/>
<circle cx="50.5" cy="55.5" r="4.5" fill="#0BA70F"/>
</svg>
