<svg width="22" height="23" viewBox="0 0 22 23" fill="none" xmlns="http://www.w3.org/2000/svg">
<path d="M11.001 1C8.92487 1 6.89536 1.61563 5.16913 2.76905C3.44289 3.92247 2.09745 5.56186 1.30295 7.47992C0.508454 9.39798 0.300577 11.5086 0.70561 13.5448C1.11064 15.581 2.11039 17.4513 3.57844 18.9194C5.04648 20.3874 6.91688 21.3871 8.95312 21.7921C10.9894 22.1972 13.1 21.9893 15.0181 21.1948C16.9361 20.4003 18.5756 19.0549 19.729 17.3287C20.8824 15.6025 21.4981 13.573 21.4981 11.4969C21.4949 8.71394 20.3879 6.04587 18.42 4.07802C16.4521 2.11016 13.784 1.00321 11.001 1ZM11.001 2.61491C12.7577 2.61491 14.475 3.13583 15.9357 4.1118C17.3963 5.08776 18.5348 6.47495 19.207 8.09792C19.8793 9.72089 20.0552 11.5068 19.7125 13.2297C19.3698 14.9526 18.5238 16.5353 17.2816 17.7774C16.0394 19.0196 14.4568 19.8655 12.7338 20.2083C11.0108 20.551 9.22494 20.3751 7.60194 19.7028C5.97894 19.0306 4.59174 17.8921 3.61576 16.4315C2.63978 14.9709 2.11885 13.2536 2.11885 11.4969C2.11736 10.3301 2.34609 9.17445 2.79193 8.09616C3.23777 7.01787 3.89197 6.03814 4.71705 5.21307C5.54213 4.388 6.52188 3.73382 7.60018 3.28798C8.67849 2.84215 9.83416 2.61342 11.001 2.61491ZM10.1935 6.65218V10.6895H6.15619V12.3044H10.1935V16.3416H11.8085V12.3044H15.8458V10.6895H11.8085V6.65218H10.1935Z" fill="#1AB51E" stroke="#1AB51E"/>
</svg>
