<svg width="23" height="23" viewBox="0 0 23 23" fill="none" xmlns="http://www.w3.org/2000/svg">
<path d="M11.5 0C5.14805 0 0 5.14805 0 11.5C0 17.852 5.14805 23 11.5 23C17.852 23 23 17.852 23 11.5C23 5.14805 17.852 0 11.5 0ZM15.8125 12.5781H12.5781V15.8125C12.5781 16.4055 12.093 16.8906 11.5404 16.8906C10.907 16.8906 10.4219 16.4055 10.4219 15.8125V12.5781H7.1875C6.59453 12.5781 6.10938 12.093 6.10938 11.5C6.10938 10.907 6.59453 10.4219 7.1875 10.4219H10.4219V7.1875C10.4219 6.59453 10.907 6.10938 11.5 6.10938C12.093 6.10938 12.5781 6.59453 12.5781 7.1875V10.4219H15.8125C16.4055 10.4219 16.8906 10.907 16.8906 11.5C16.8906 12.093 16.4055 12.5781 15.8125 12.5781Z" fill="#2979FB"/>
</svg>
