<svg width="15" height="17" viewBox="0 0 15 17" fill="none" xmlns="http://www.w3.org/2000/svg">
<path fill-rule="evenodd" clip-rule="evenodd" d="M7.50104 12.7112L12.0022 7.63123L8.16071 7.63123L8.16071 0.84613L6.84137 0.84613L6.84137 7.63123L2.99988 7.63123L7.50104 12.7112ZM2.09995 16.2814L12.6417 16.2814C13.8005 16.2814 14.7417 15.3324 14.7417 14.1638L14.7417 10.5384L13.4223 10.5384L13.4223 14.1638C13.4223 14.5984 13.0727 14.951 12.6417 14.951L2.09995 14.951C1.66897 14.951 1.31934 14.5984 1.31934 14.1638L1.31934 10.5384L-2.68989e-08 10.5384L-3.6961e-08 14.1638C-4.0204e-08 15.3324 0.941132 16.2814 2.09995 16.2814Z" fill="white"/>
</svg>
