<svg width="16" height="16" viewBox="0 0 16 16" fill="none" xmlns="http://www.w3.org/2000/svg">
<path d="M14.9333 0.533333C14.6923 0.533333 14.4256 0.610133 14.1787 0.843733L13.1488 1.8736C11.7429 0.6912 9.9376 0 8 0C3.5888 0 0 3.5888 0 8C0 12.4112 3.5888 16 8 16C10.0731 16 12.04 15.2064 13.5392 13.7648C13.9643 13.3563 13.9771 12.6811 13.5691 12.2565C13.16 11.832 12.4859 11.8197 12.0613 12.2267C10.9611 13.2843 9.51893 13.8667 8 13.8667C4.76533 13.8667 2.13333 11.2347 2.13333 8C2.13333 4.76533 4.76533 2.13333 8 2.13333C9.35573 2.13333 10.6213 2.59733 11.6299 3.39253L9.9104 5.112C9.6768 5.35893 9.6 5.6256 9.6 5.86667C9.6 6.4112 10.0315 6.93333 10.6667 6.93333H14.9333C15.4795 6.93333 16 6.50027 16 5.86667V1.6C16 0.9648 15.4779 0.533333 14.9333 0.533333Z" fill="white"/>
</svg>
