<svg width="20" height="18" viewBox="0 0 20 18" fill="none" xmlns="http://www.w3.org/2000/svg">
<path d="M12.8333 9C12.8333 7.98708 12.0129 7.16667 11 7.16667C9.98708 7.16667 9.16667 7.98708 9.16667 9C9.16667 10.0129 9.98708 10.8333 11 10.8333C12.0129 10.8333 12.8333 10.0129 12.8333 9ZM11 0.75C6.44417 0.75 2.75 4.44417 2.75 9H0L3.66667 12.6667L7.33333 9H4.58333C4.58333 5.45708 7.45708 2.58333 11 2.58333C14.5429 2.58333 17.4167 5.45708 17.4167 9C17.4167 12.5429 14.5429 15.4167 11 15.4167C9.61125 15.4167 8.3325 14.9721 7.27833 14.2204L5.98125 15.5358C7.37458 16.6083 9.11167 17.25 11 17.25C15.5558 17.25 19.25 13.5558 19.25 9C19.25 4.44417 15.5558 0.75 11 0.75Z" fill="#AEAEAE"/>
</svg>
