<svg width="20" height="19" viewBox="0 0 20 19" fill="none" xmlns="http://www.w3.org/2000/svg">
<path d="M18.0969 1L16.2908 2.78712M16.2908 2.78712L19 5.46779L15.8392 8.59525L13.13 5.91457M16.2908 2.78712L13.13 5.91457M9.41838 9.5871C9.88468 10.0423 10.2554 10.5843 10.5091 11.1819C10.7628 11.7795 10.8945 12.4208 10.8967 13.069C10.8989 13.7171 10.7715 14.3593 10.5219 14.9585C10.2722 15.5578 9.90519 16.1022 9.44199 16.5606C8.97879 17.0189 8.42854 17.382 7.82292 17.629C7.2173 17.8761 6.56828 18.0021 5.91322 18C5.25816 17.9978 4.61 17.8674 4.00607 17.6164C3.40214 17.3653 2.85436 16.9986 2.39427 16.5372C1.48951 15.6103 0.988871 14.3689 1.00019 13.0803C1.0115 11.7917 1.53387 10.5591 2.45477 9.64786C3.37568 8.73666 4.62144 8.2198 5.92375 8.2086C7.22606 8.1974 8.48071 8.69276 9.41748 9.58799L9.41838 9.5871ZM9.41838 9.5871L13.13 5.91457" stroke="#AEAEAE" stroke-width="2" stroke-linecap="round" stroke-linejoin="round"/>
</svg>
