<svg width="14" height="13" viewBox="0 0 14 13" fill="none" xmlns="http://www.w3.org/2000/svg">
<path fill-rule="evenodd" clip-rule="evenodd" d="M13.1064 1.18755C13.2051 0.914053 13.1369 0.60811 12.9313 0.402491C12.7257 0.196873 12.4197 0.128641 12.1462 0.227406L1.32393 4.13546C1.30437 4.14252 1.28512 4.15039 1.26621 4.15905C1.07809 4.24526 0.918679 4.38367 0.806917 4.55782C0.695154 4.73198 0.635742 4.93456 0.635742 5.14149C0.635742 5.34842 0.695154 5.551 0.806917 5.72516C0.915727 5.89471 1.0697 6.03038 1.25137 6.11699L5.22831 8.10546L7.21678 12.0824C7.30339 12.2641 7.43906 12.418 7.60861 12.5269C7.78277 12.6386 7.98535 12.698 8.19228 12.698C8.39922 12.698 8.6018 12.6386 8.77595 12.5269C8.95011 12.4151 9.08851 12.2557 9.17472 12.0676C9.18338 12.0487 9.19126 12.0294 9.19832 12.0098L13.1064 1.18755ZM5.77947 6.70399L2.78024 5.20437L9.82191 2.66154L5.77947 6.70399ZM6.62976 7.55425L8.1294 10.5535L10.6723 3.51174L6.62976 7.55425Z" fill="white"/>
</svg>
