<svg width="20" height="20" viewBox="0 0 20 20" fill="none" xmlns="http://www.w3.org/2000/svg">
<path fill-rule="evenodd" clip-rule="evenodd" d="M10.75 6.875C9.64543 6.875 8.75 7.77043 8.75 8.875C8.75 9.97957 9.64543 10.875 10.75 10.875C11.8546 10.875 12.75 9.97957 12.75 8.875C12.75 7.77043 11.8546 6.875 10.75 6.875ZM6.75 8.875C6.75 6.66586 8.54086 4.875 10.75 4.875C12.9591 4.875 14.75 6.66586 14.75 8.875C14.75 11.0841 12.9591 12.875 10.75 12.875C8.54086 12.875 6.75 11.0841 6.75 8.875Z" fill="white"/>
<path fill-rule="evenodd" clip-rule="evenodd" d="M0 8.125C0 7.57272 0.447715 7.125 1 7.125H3.25C3.80228 7.125 4.25 7.57272 4.25 8.125C4.25 8.67728 3.80228 9.125 3.25 9.125H1C0.447715 9.125 0 8.67728 0 8.125Z" fill="white"/>
<path fill-rule="evenodd" clip-rule="evenodd" d="M0 4.375C0 3.82272 0.447715 3.375 1 3.375H3.25C3.80228 3.375 4.25 3.82272 4.25 4.375C4.25 4.92728 3.80228 5.375 3.25 5.375H1C0.447715 5.375 0 4.92728 0 4.375Z" fill="white"/>
<path fill-rule="evenodd" clip-rule="evenodd" d="M0 11.875C0 11.3227 0.447715 10.875 1 10.875H3.25C3.80228 10.875 4.25 11.3227 4.25 11.875C4.25 12.4273 3.80228 12.875 3.25 12.875H1C0.447715 12.875 0 12.4273 0 11.875Z" fill="white"/>
<path fill-rule="evenodd" clip-rule="evenodd" d="M0 15.625C0 15.0727 0.447715 14.625 1 14.625H3.25C3.80228 14.625 4.25 15.0727 4.25 15.625C4.25 16.1773 3.80228 16.625 3.25 16.625H1C0.447715 16.625 0 16.1773 0 15.625Z" fill="white"/>
<path fill-rule="evenodd" clip-rule="evenodd" d="M17.25 2L4.25 2L4.25 18H17.25V2ZM17.5 0C18.4665 0 19.25 0.783502 19.25 1.75V18.25C19.25 19.2165 18.4665 20 17.5 20H4C3.0335 20 2.25 19.2165 2.25 18.25V1.75C2.25 0.783502 3.0335 0 4 0L17.5 0Z" fill="white"/>
<path fill-rule="evenodd" clip-rule="evenodd" d="M10.75 12.8743C10.1132 12.8743 9.48325 13.0058 8.89963 13.2606C8.316 13.5153 7.79128 13.8879 7.35834 14.3549C6.98286 14.7599 6.35014 14.7838 5.94514 14.4083C5.54013 14.0329 5.51619 13.4001 5.89167 12.9951C6.51184 12.3262 7.26346 11.7925 8.09946 11.4276C8.93546 11.0626 9.83782 10.8743 10.75 10.8743C11.6622 10.8743 12.5645 11.0626 13.4005 11.4276C14.2365 11.7925 14.9882 12.3262 15.6083 12.9951C15.9838 13.4001 15.9599 14.0329 15.5549 14.4083C15.1499 14.7838 14.5172 14.7599 14.1417 14.3549C13.7087 13.8879 13.184 13.5153 12.6004 13.2606C12.0168 13.0058 11.3868 12.8743 10.75 12.8743Z" fill="white"/>
</svg>
