<svg width="19" height="18" viewBox="0 0 19 18" fill="none" xmlns="http://www.w3.org/2000/svg">
<path fill-rule="evenodd" clip-rule="evenodd" d="M17.7785 13.142C18.8071 14.1456 18.8071 15.7139 17.7785 16.7175C16.7499 17.7212 15.1428 17.7212 14.1142 16.7175L8.64993 11.4483C8.52136 11.3228 8.39279 11.1346 8.26422 10.9464C6.20707 11.511 3.95707 10.8837 2.54279 9.19001L2.22136 8.7509C0.807074 7.05721 0.614217 4.73623 1.64279 2.91708C1.64279 2.91708 1.64279 2.97981 1.70707 2.97981L4.21422 6.11627C4.98565 7.05721 6.33565 7.18267 7.29993 6.42992C8.26422 5.67717 8.39279 4.35986 7.62136 3.41892L5.11422 0.282453L5.04993 0.219723C7.10707 -0.34484 9.35707 0.282453 10.7714 1.97614L11.0928 2.41525C12.3785 3.92075 12.6356 5.92809 11.9928 7.62178C12.1214 7.68451 12.1856 7.74724 12.3142 7.87269L17.7785 13.142ZM15.9785 15.902C16.4928 15.902 16.8785 15.5257 16.8785 15.0238C16.8785 14.522 16.4928 14.1456 15.9785 14.1456C15.4642 14.1456 15.0785 14.522 15.0785 15.0238C15.0785 15.4629 15.4642 15.902 15.9785 15.902Z" fill="white"/>
</svg>
