<svg width="17" height="19" viewBox="0 0 17 19" fill="none" xmlns="http://www.w3.org/2000/svg">
<path d="M14.6866 2.65528H11.092C10.9169 2.14941 10.5898 1.71096 10.1561 1.4007C9.72248 1.09045 9.20374 0.923767 8.67181 0.923767C8.13989 0.923767 7.62114 1.09045 7.18749 1.4007C6.75384 1.71096 6.42677 2.14941 6.25163 2.65528H2.65384C2.42807 2.65507 2.20448 2.69968 1.99584 2.78655C1.7872 2.87342 1.5976 3.00086 1.43788 3.16157C1.27817 3.32228 1.15147 3.51313 1.06502 3.72318C0.978577 3.93324 0.934083 4.1584 0.934083 4.38579V16.5057C0.933876 16.7332 0.978217 16.9586 1.06457 17.1688C1.15092 17.379 1.27759 17.5701 1.43733 17.7309C1.59706 17.8918 1.78673 18.0194 1.99547 18.1064C2.20422 18.1933 2.42794 18.238 2.65384 18.2378H14.6866C14.9125 18.238 15.1363 18.1933 15.345 18.1064C15.5537 18.0194 15.7434 17.8918 15.9032 17.7309C16.0629 17.5701 16.1896 17.379 16.2759 17.1688C16.3623 16.9586 16.4066 16.7332 16.4064 16.5057V4.38579C16.4064 4.1584 16.3619 3.93324 16.2755 3.72318C16.189 3.51313 16.0623 3.32228 15.9026 3.16157C15.7429 3.00086 15.5533 2.87342 15.3446 2.78655C15.136 2.69968 14.9124 2.65507 14.6866 2.65528ZM8.66985 2.65528C8.83976 2.65528 9.00585 2.70602 9.14713 2.8011C9.28841 2.89618 9.39852 3.03131 9.46354 3.18941C9.52856 3.34752 9.54558 3.52149 9.51243 3.68934C9.47928 3.85718 9.39746 4.01135 9.27731 4.13236C9.15717 4.25337 9.00409 4.33578 8.83745 4.36916C8.6708 4.40255 8.49806 4.38541 8.34108 4.31992C8.18411 4.25444 8.04993 4.14353 7.95554 4.00124C7.86114 3.85895 7.81075 3.69166 7.81075 3.52053C7.81075 3.29105 7.90126 3.07097 8.06238 2.90871C8.22349 2.74644 8.442 2.65528 8.66985 2.65528ZM12.1078 8.71524H9.52894V14.7752H7.81075V8.71444H5.2319V6.98314H12.1086L12.1078 8.71524Z" fill="white"/>
</svg>
