<svg width="21" height="21" viewBox="0 0 21 21" fill="none" xmlns="http://www.w3.org/2000/svg">
<path d="M10.3749 12.9319C11.787 12.9319 12.9318 11.7871 12.9318 10.3751C12.9318 8.96296 11.787 7.81824 10.3749 7.81824C8.96284 7.81824 7.81812 8.96296 7.81812 10.3751C7.81812 11.7871 8.96284 12.9319 10.3749 12.9319Z" stroke="white" stroke-width="2" stroke-linecap="round" stroke-linejoin="round"/>
<path d="M16.6818 12.9318C16.5684 13.1889 16.5345 13.474 16.5847 13.7505C16.6348 14.027 16.7666 14.2821 16.9631 14.483L17.0142 14.5341C17.1727 14.6924 17.2984 14.8804 17.3842 15.0873C17.47 15.2942 17.5141 15.5161 17.5141 15.7401C17.5141 15.9641 17.47 16.1859 17.3842 16.3928C17.2984 16.5997 17.1727 16.7877 17.0142 16.946C16.8559 17.1045 16.6679 17.2302 16.461 17.316C16.254 17.4018 16.0322 17.4459 15.8082 17.4459C15.5842 17.4459 15.3624 17.4018 15.1555 17.316C14.9486 17.2302 14.7606 17.1045 14.6023 16.946L14.5511 16.8949C14.3503 16.6984 14.0952 16.5666 13.8187 16.5165C13.5422 16.4663 13.2571 16.5002 13 16.6136C12.7479 16.7217 12.5329 16.9011 12.3815 17.1297C12.2301 17.3584 12.1488 17.6263 12.1477 17.9006V18.0455C12.1477 18.4975 11.9681 18.9311 11.6485 19.2508C11.3288 19.5704 10.8953 19.75 10.4432 19.75C9.99111 19.75 9.55755 19.5704 9.23789 19.2508C8.91822 18.9311 8.73864 18.4975 8.73864 18.0455V17.9688C8.73204 17.6867 8.64073 17.4131 8.47657 17.1836C8.31242 16.954 8.08301 16.7792 7.81818 16.6818C7.56112 16.5684 7.27597 16.5345 6.9995 16.5847C6.72303 16.6348 6.46791 16.7666 6.26705 16.9631L6.21591 17.0142C6.0576 17.1727 5.86961 17.2984 5.66268 17.3842C5.45575 17.47 5.23395 17.5141 5.00994 17.5141C4.78594 17.5141 4.56413 17.47 4.3572 17.3842C4.15028 17.2984 3.96228 17.1727 3.80398 17.0142C3.64549 16.8559 3.51977 16.6679 3.43399 16.461C3.34821 16.254 3.30406 16.0322 3.30406 15.8082C3.30406 15.5842 3.34821 15.3624 3.43399 15.1555C3.51977 14.9486 3.64549 14.7606 3.80398 14.6023L3.85511 14.5511C4.05159 14.3503 4.1834 14.0952 4.23353 13.8187C4.28366 13.5422 4.24981 13.2571 4.13636 13C4.02833 12.7479 3.84894 12.5329 3.62028 12.3815C3.39163 12.2301 3.12368 12.1488 2.84943 12.1477H2.70455C2.25247 12.1477 1.81891 11.9681 1.49925 11.6485C1.17959 11.3288 1 10.8953 1 10.4432C1 9.99111 1.17959 9.55755 1.49925 9.23789C1.81891 8.91822 2.25247 8.73864 2.70455 8.73864H2.78125C3.06335 8.73204 3.33694 8.64073 3.56645 8.47657C3.79596 8.31242 3.97078 8.08301 4.06818 7.81818C4.18163 7.56112 4.21547 7.27597 4.16534 6.9995C4.11522 6.72303 3.98341 6.46791 3.78693 6.26705L3.7358 6.21591C3.57731 6.0576 3.45159 5.86961 3.36581 5.66268C3.28003 5.45575 3.23588 5.23395 3.23588 5.00994C3.23588 4.78594 3.28003 4.56413 3.36581 4.3572C3.45159 4.15028 3.57731 3.96228 3.7358 3.80398C3.8941 3.64549 4.08209 3.51977 4.28902 3.43399C4.49595 3.34821 4.71776 3.30406 4.94176 3.30406C5.16577 3.30406 5.38757 3.34821 5.5945 3.43399C5.80143 3.51977 5.98942 3.64549 6.14773 3.80398L6.19886 3.85511C6.39973 4.05159 6.65484 4.1834 6.93132 4.23353C7.20779 4.28366 7.49294 4.24981 7.75 4.13636H7.81818C8.07026 4.02833 8.28524 3.84894 8.43667 3.62028C8.5881 3.39163 8.66936 3.12368 8.67045 2.84943V2.70455C8.67045 2.25247 8.85004 1.81891 9.1697 1.49925C9.48937 1.17959 9.92293 1 10.375 1C10.8271 1 11.2606 1.17959 11.5803 1.49925C11.9 1.81891 12.0795 2.25247 12.0795 2.70455V2.78125C12.0806 3.0555 12.1619 3.32345 12.3133 3.5521C12.4648 3.78076 12.6797 3.96015 12.9318 4.06818C13.1889 4.18163 13.474 4.21547 13.7505 4.16534C14.027 4.11522 14.2821 3.98341 14.483 3.78693L14.5341 3.7358C14.6924 3.57731 14.8804 3.45159 15.0873 3.36581C15.2942 3.28003 15.5161 3.23588 15.7401 3.23588C15.9641 3.23588 16.1859 3.28003 16.3928 3.36581C16.5997 3.45159 16.7877 3.57731 16.946 3.7358C17.1045 3.8941 17.2302 4.08209 17.316 4.28902C17.4018 4.49595 17.4459 4.71776 17.4459 4.94176C17.4459 5.16577 17.4018 5.38757 17.316 5.5945C17.2302 5.80143 17.1045 5.98942 16.946 6.14773L16.8949 6.19886C16.6984 6.39973 16.5666 6.65484 16.5165 6.93132C16.4663 7.20779 16.5002 7.49294 16.6136 7.75V7.81818C16.7217 8.07026 16.9011 8.28524 17.1297 8.43667C17.3584 8.5881 17.6263 8.66936 17.9006 8.67045H18.0455C18.4975 8.67045 18.9311 8.85004 19.2508 9.1697C19.5704 9.48937 19.75 9.92293 19.75 10.375C19.75 10.8271 19.5704 11.2606 19.2508 11.5803C18.9311 11.9 18.4975 12.0795 18.0455 12.0795H17.9688C17.6945 12.0806 17.4266 12.1619 17.1979 12.3133C16.9692 12.4648 16.7899 12.6797 16.6818 12.9318Z" stroke="white" stroke-width="2" stroke-linecap="round" stroke-linejoin="round"/>
</svg>
