<svg width="21" height="13" viewBox="0 0 21 13" fill="none" xmlns="http://www.w3.org/2000/svg">
<path d="M5.74228 0.386959C2.15221 0.6085 -0.601269 3.92193 0.11459 7.69799C0.57134 10.1086 2.51559 12.0537 4.92709 12.5105C8.20584 13.1321 11.1302 11.1364 11.9903 8.25H15.7501V9.125C15.7501 10.0919 16.5332 10.875 17.5001 10.875C18.467 10.875 19.2501 10.0919 19.2501 9.125V8.25C20.217 8.25 21.0001 7.46687 21.0001 6.5C21.0001 5.53312 20.217 4.75 19.2501 4.75H11.9869C11.3571 2.60034 9.5459 0.910509 7.32309 0.489498C6.78376 0.387232 6.25514 0.35531 5.74228 0.386959ZM6.12509 3.875C7.57496 3.875 8.75009 5.05012 8.75009 6.5C8.75009 7.94987 7.57496 9.125 6.12509 9.125C4.67521 9.125 3.50009 7.94987 3.50009 6.5C3.50009 5.05012 4.67521 3.875 6.12509 3.875Z" fill="white"/>
</svg>
