<svg width="22" height="14" viewBox="0 0 22 14" fill="none" xmlns="http://www.w3.org/2000/svg">
<path d="M7 0C6.20435 0 5.44129 0.316071 4.87868 0.87868C4.31607 1.44129 4 2.20435 4 3C4 3.79565 4.31607 4.55871 4.87868 5.12132C5.44129 5.68393 6.20435 6 7 6C7.79565 6 8.55871 5.68393 9.12132 5.12132C9.68393 4.55871 10 3.79565 10 3C10 2.20435 9.68393 1.44129 9.12132 0.87868C8.55871 0.316071 7.79565 0 7 0ZM15 0C14.2044 0 13.4413 0.316071 12.8787 0.87868C12.3161 1.44129 12 2.20435 12 3C12 3.79565 12.3161 4.55871 12.8787 5.12132C13.4413 5.68393 14.2044 6 15 6C15.7956 6 16.5587 5.68393 17.1213 5.12132C17.6839 4.55871 18 3.79565 18 3C18 2.20435 17.6839 1.44129 17.1213 0.87868C16.5587 0.316071 15.7956 0 15 0ZM7 8C4 8 0 9.464 0 11.5V13C0 13.552 0.448 14 1 14H13C13.552 14 14 13.552 14 13V11.5C14 9.464 10 8 7 8ZM15 8C14.683 8 14.3535 8.01978 14.0215 8.05078C15.2035 8.91578 16 10.059 16 11.5V14H21C21.552 14 22 13.552 22 13V11.5C22 9.464 18 8 15 8Z" fill="white"/>
</svg>
