<svg width="16" height="16" viewBox="0 0 16 16" fill="none" xmlns="http://www.w3.org/2000/svg">
<path d="M7.99215 1.32617C7.85965 1.32824 7.7334 1.38282 7.64111 1.47791C7.54883 1.573 7.49806 1.70084 7.49996 1.83333V2.83333C7.49902 2.89959 7.51126 2.96537 7.53597 3.02685C7.56068 3.08834 7.59736 3.1443 7.64388 3.19148C7.6904 3.23867 7.74584 3.27614 7.80697 3.30171C7.8681 3.32728 7.9337 3.34045 7.99996 3.34045C8.06622 3.34045 8.13182 3.32728 8.19295 3.30171C8.25408 3.27614 8.30952 3.23867 8.35604 3.19148C8.40256 3.1443 8.43924 3.08834 8.46395 3.02685C8.48866 2.96537 8.5009 2.89959 8.49996 2.83333V1.83333C8.50092 1.76641 8.48844 1.69998 8.46325 1.63797C8.43806 1.57596 8.40068 1.51964 8.35332 1.47235C8.30597 1.42505 8.2496 1.38774 8.18756 1.36263C8.12552 1.33752 8.05907 1.32513 7.99215 1.32617ZM3.63407 3.13477C3.53457 3.13479 3.43733 3.1645 3.3548 3.2201C3.27228 3.2757 3.20822 3.35465 3.17081 3.44686C3.13341 3.53907 3.12437 3.64035 3.14485 3.73772C3.16533 3.8351 3.21439 3.92415 3.28577 3.99349L3.9928 4.70052C4.08664 4.79436 4.21392 4.84709 4.34664 4.84709C4.47936 4.84709 4.60664 4.79436 4.70048 4.70052C4.79432 4.60668 4.84705 4.4794 4.84705 4.34668C4.84705 4.21396 4.79432 4.08668 4.70048 3.99284L3.99345 3.28581C3.94671 3.23785 3.89082 3.19977 3.82909 3.17382C3.76735 3.14788 3.70104 3.1346 3.63407 3.13477ZM12.3502 3.13477C12.2204 3.13855 12.0971 3.19272 12.0065 3.28581L11.2994 3.99284C11.2056 4.08668 11.1529 4.21396 11.1529 4.34668C11.1529 4.4794 11.2056 4.60668 11.2994 4.70052C11.3933 4.79436 11.5206 4.84709 11.6533 4.84709C11.786 4.84709 11.9133 4.79436 12.0071 4.70052L12.7142 3.99349C12.7866 3.92324 12.836 3.83273 12.8561 3.73385C12.8761 3.63497 12.8658 3.53234 12.8264 3.43944C12.787 3.34655 12.7205 3.26774 12.6355 3.21336C12.5505 3.15898 12.4511 3.13159 12.3502 3.13477ZM7.99996 4.33333C7.0275 4.33333 6.09487 4.71964 5.40724 5.40727C4.7196 6.09491 4.33329 7.02754 4.33329 8C4.33329 8.97246 4.7196 9.90509 5.40724 10.5927C6.09487 11.2804 7.0275 11.6667 7.99996 11.6667C8.97242 11.6667 9.90505 11.2804 10.5927 10.5927C11.2803 9.90509 11.6666 8.97246 11.6666 8C11.6666 7.02754 11.2803 6.09491 10.5927 5.40727C9.90505 4.71964 8.97242 4.33333 7.99996 4.33333ZM1.83329 7.5C1.76704 7.49906 1.70126 7.5113 1.63977 7.53601C1.57829 7.56072 1.52233 7.5974 1.47514 7.64392C1.42796 7.69044 1.39049 7.74588 1.36492 7.80701C1.33934 7.86813 1.32617 7.93374 1.32617 8C1.32617 8.06626 1.33934 8.13186 1.36492 8.19299C1.39049 8.25412 1.42796 8.30956 1.47514 8.35608C1.52233 8.4026 1.57829 8.43928 1.63977 8.46399C1.70126 8.4887 1.76704 8.50094 1.83329 8.5H2.83329C2.89955 8.50094 2.96533 8.4887 3.02681 8.46399C3.0883 8.43928 3.14426 8.4026 3.19144 8.35608C3.23863 8.30956 3.2761 8.25412 3.30167 8.19299C3.32724 8.13186 3.34041 8.06626 3.34041 8C3.34041 7.93374 3.32724 7.86813 3.30167 7.80701C3.2761 7.74588 3.23863 7.69044 3.19144 7.64392C3.14426 7.5974 3.0883 7.56072 3.02681 7.53601C2.96533 7.5113 2.89955 7.49906 2.83329 7.5H1.83329ZM13.1666 7.5C13.1004 7.49906 13.0346 7.5113 12.9731 7.53601C12.9116 7.56072 12.8557 7.5974 12.8085 7.64392C12.7613 7.69044 12.7238 7.74588 12.6982 7.80701C12.6727 7.86813 12.6595 7.93374 12.6595 8C12.6595 8.06626 12.6727 8.13186 12.6982 8.19299C12.7238 8.25412 12.7613 8.30956 12.8085 8.35608C12.8557 8.4026 12.9116 8.43928 12.9731 8.46399C13.0346 8.4887 13.1004 8.50094 13.1666 8.5H14.1666C14.2329 8.50094 14.2987 8.4887 14.3601 8.46399C14.4216 8.43928 14.4776 8.4026 14.5248 8.35608C14.572 8.30956 14.6094 8.25412 14.635 8.19299C14.6606 8.13186 14.6737 8.06626 14.6737 8C14.6737 7.93374 14.6606 7.86813 14.635 7.80701C14.6094 7.74588 14.572 7.69044 14.5248 7.64392C14.4776 7.5974 14.4216 7.56072 14.3601 7.53601C14.2987 7.5113 14.2329 7.49906 14.1666 7.5H13.1666ZM4.33655 11.1484C4.2067 11.1522 4.08341 11.2064 3.9928 11.2995L3.28577 12.0065C3.23928 12.053 3.20241 12.1081 3.17725 12.1689C3.15209 12.2296 3.13913 12.2946 3.13913 12.3604C3.13912 12.4261 3.15206 12.4912 3.17721 12.5519C3.20235 12.6126 3.23922 12.6678 3.28569 12.7143C3.33217 12.7607 3.38734 12.7976 3.44806 12.8228C3.50878 12.8479 3.57386 12.8608 3.63959 12.8608C3.70531 12.8608 3.77039 12.8479 3.8311 12.8227C3.89182 12.7976 3.94699 12.7607 3.99345 12.7142L4.70048 12.0072C4.7729 11.9369 4.82237 11.8464 4.8424 11.7475C4.86243 11.6486 4.85208 11.546 4.81272 11.4531C4.77335 11.3602 4.7068 11.2814 4.62182 11.227C4.53683 11.1727 4.43739 11.1453 4.33655 11.1484ZM11.6477 11.1484C11.5482 11.1485 11.451 11.1782 11.3685 11.2338C11.2859 11.2894 11.2219 11.3683 11.1845 11.4605C11.1471 11.5527 11.138 11.654 11.1585 11.7514C11.179 11.8488 11.2281 11.9378 11.2994 12.0072L12.0065 12.7142C12.0529 12.7607 12.1081 12.7975 12.1688 12.8227C12.2295 12.8478 12.2946 12.8608 12.3603 12.8608C12.426 12.8608 12.4911 12.8478 12.5518 12.8227C12.6125 12.7975 12.6677 12.7607 12.7142 12.7142C12.7606 12.6677 12.7975 12.6126 12.8226 12.5518C12.8478 12.4911 12.8607 12.4261 12.8607 12.3604C12.8607 12.2946 12.8478 12.2296 12.8226 12.1689C12.7975 12.1081 12.7606 12.053 12.7142 12.0065L12.0071 11.2995C11.9604 11.2515 11.9045 11.2134 11.8428 11.1875C11.781 11.1615 11.7147 11.1483 11.6477 11.1484ZM7.99215 12.6595C7.85965 12.6616 7.7334 12.7161 7.64111 12.8112C7.54883 12.9063 7.49806 13.0342 7.49996 13.1667V14.1667C7.49902 14.2329 7.51126 14.2987 7.53597 14.3602C7.56068 14.4217 7.59736 14.4776 7.64388 14.5248C7.6904 14.572 7.74584 14.6095 7.80697 14.635C7.8681 14.6606 7.9337 14.6738 7.99996 14.6738C8.06622 14.6738 8.13182 14.6606 8.19295 14.635C8.25408 14.6095 8.30952 14.572 8.35604 14.5248C8.40256 14.4776 8.43924 14.4217 8.46395 14.3602C8.48866 14.2987 8.5009 14.2329 8.49996 14.1667V13.1667C8.50092 13.0997 8.48844 13.0333 8.46325 12.9713C8.43806 12.9093 8.40068 12.853 8.35332 12.8057C8.30597 12.7584 8.2496 12.7211 8.18756 12.696C8.12552 12.6709 8.05907 12.6585 7.99215 12.6595Z" fill="white"/>
</svg>
