<svg width="22" height="22" viewBox="0 0 22 22" fill="none" xmlns="http://www.w3.org/2000/svg">
<path d="M2.67203 10.824C8.43236 8.28988 15.8867 5.20026 16.9157 4.77263C19.6148 3.65338 20.443 3.86788 20.03 6.34655C19.7335 8.12809 18.8778 14.0264 18.1958 17.6976C17.7911 19.8747 16.8831 20.1328 15.4554 19.1909C14.7688 18.7376 11.3034 16.4459 10.5512 15.9078C9.86465 15.4174 8.91773 14.8275 10.1053 13.6657C10.5279 13.2518 13.298 10.6068 15.4563 8.54792C15.7391 8.27751 15.3839 7.83338 15.0576 8.05017C12.1485 9.9793 8.11519 12.6569 7.60186 13.0057C6.82636 13.5323 6.08157 13.7738 4.74461 13.3898C3.73444 13.0996 2.74765 12.7536 2.36357 12.6216C0.884526 12.1138 1.23561 11.456 2.67203 10.824Z" fill="#41BDEE"/>
</svg>
