<svg width="19" height="19" viewBox="0 0 19 19" fill="none" xmlns="http://www.w3.org/2000/svg">
<path d="M6.79366 2.31343C6.59174 2.45575 6.53369 2.76547 6.73616 2.96794L8.00971 4.24147L2.37234 9.87878C2.28817 9.96061 2.22109 10.0584 2.17502 10.1663C2.12895 10.2743 2.1048 10.3904 2.10397 10.5077C2.10314 10.6251 2.12564 10.7415 2.17019 10.8501C2.21473 10.9587 2.28041 11.0574 2.36342 11.1404C2.44643 11.2234 2.54511 11.2891 2.65373 11.3337C2.76235 11.3782 2.87873 11.4007 2.99612 11.3999C3.11351 11.3991 3.22957 11.3749 3.33755 11.3288C3.44552 11.2828 3.54326 11.2157 3.62509 11.1315L9.26246 5.49421L10.536 6.76774C10.806 7.0377 11.267 6.84703 11.2664 6.46557L11.2664 2.66577C11.2664 2.429 11.0749 2.23758 10.8382 2.23758L7.03834 2.23758C6.94313 2.23758 6.86097 2.266 6.79366 2.31343Z" fill="white"/>
<path d="M11.5376 16.0111C11.7396 15.8688 11.7976 15.5591 11.5951 15.3566L10.3216 14.0831L15.959 8.44577C16.0431 8.36394 16.1102 8.2662 16.1563 8.15823C16.2024 8.05025 16.2265 7.9342 16.2273 7.81681C16.2282 7.69942 16.2057 7.58304 16.1611 7.47442C16.1166 7.36581 16.0509 7.26712 15.9679 7.18412C15.8849 7.10111 15.7862 7.03542 15.6776 6.99088C15.569 6.94634 15.4526 6.92383 15.3352 6.92466C15.2178 6.92549 15.1017 6.94964 14.9938 6.99572C14.8858 7.04179 14.788 7.10886 14.7062 7.19304L9.06884 12.8303L7.7953 11.5568C7.52533 11.2868 7.06431 11.4775 7.06494 11.859L7.06494 15.6588C7.06494 15.8956 7.25635 16.087 7.49312 16.087L11.293 16.087C11.3882 16.087 11.4703 16.0586 11.5376 16.0111Z" fill="white"/>
</svg>
