<?xml version="1.0" encoding="UTF-8"?>
<svg id="Layer_2" data-name="Layer 2" xmlns="http://www.w3.org/2000/svg" viewBox="0 0 476.43 409.87">
  <defs>
    <style>
      .cls-1 {
        letter-spacing: .01em;
      }

      .cls-1, .cls-2 {
        fill: #fff;
      }

      .cls-3 {
        fill: #1252af;
      }

      .cls-4, .cls-5 {
        isolation: isolate;
      }

      .cls-6, .cls-7 {
        fill: #00db09;
      }

      .cls-8 {
        fill: #2772ec;
      }

      .cls-9 {
        fill: #2978f9;
      }

      .cls-5 {
        font-family: Poppins-Bold, Poppins;
        font-size: 38px;
        font-weight: 700;
      }

      .cls-10 {
        fill: #2468d8;
      }

      .cls-11 {
        fill: #242b5b;
      }

      .cls-12 {
        fill: none;
        stroke: #fff;
        stroke-linecap: round;
        stroke-linejoin: round;
        stroke-width: .5px;
      }

      .cls-13 {
        fill: #12ce1a;
      }

      .cls-7 {
        letter-spacing: 0em;
      }
    </style>
  </defs>
  <g id="Layer_1-2" data-name="Layer 1">
    <g id="_R_G" data-name=" R G">
      <g id="_R_G_L_7_G_N_9_T_0" data-name=" R G L 7 G N 9 T 0">
        <g id="_R_G_L_7_G" data-name=" R G L 7 G">
          <path id="_R_G_L_7_G_D_0_P_0" data-name=" R G L 7 G D 0 P 0" class="cls-3" d="m374.91,145.07h-239.61c-12.1,0-21.9-11.63-21.9-25.95h0c0-14.34,9.8-25.97,21.9-25.97h219.5c11.1,0,20.12,10.68,20.12,23.83v28.09Z"/>
        </g>
      </g>
      <g id="_R_G_L_6_G_N_9_T_0" data-name=" R G L 6 G N 9 T 0">
        <g id="_R_G_L_6_G" data-name=" R G L 6 G">
          <path id="_R_G_L_6_G_D_0_P_0" data-name=" R G L 6 G D 0 P 0" class="cls-13" d="m316.64,94.66c0,36.2-29.34,65.53-65.52,65.53s-65.53-29.34-65.53-65.53,29.34-65.53,65.53-65.53,65.52,29.34,65.52,65.53Z"/>
          <path id="_R_G_L_6_G_D_1_P_0" data-name=" R G L 6 G D 1 P 0" class="cls-6" d="m308.38,94.66c0,31.62-25.64,57.26-57.26,57.26s-57.27-25.64-57.27-57.26,25.64-57.26,57.27-57.26,57.26,25.64,57.26,57.26Z"/>
          <path id="_R_G_L_6_G_D_2_P_0" data-name=" R G L 6 G D 2 P 0" class="cls-2" d="m255.26,90.27h-14.12v6.95h10.28c1.3,0,2.35,1.05,2.35,2.33v3.79h7.33v-7.22c0-3.23-2.62-5.85-5.84-5.85Z"/>
          <path id="_R_G_L_6_G_D_3_P_0" data-name=" R G L 6 G D 3 P 0" class="cls-2" d="m261.09,103.35v15.5c0,3.23-2.62,5.84-5.84,5.84h-21.84c-3.23,0-5.85-2.61-5.85-5.84v-40.48l7.33,11.91h6.24v6.95h-3.89c-1.3,0-2.35,1.05-2.35,2.33v15.17c0,1.3,1.05,2.35,2.35,2.35h14.18c1.3,0,2.35-1.05,2.35-2.35v-11.39h7.33Z"/>
          <path id="_R_G_L_6_G_D_4_P_0" data-name=" R G L 6 G D 4 P 0" class="cls-2" d="m250.91,97.22h-11.98v-6.95h11.98v6.95Z"/>
          <path id="_R_G_L_6_G_D_5_P_0" data-name=" R G L 6 G D 5 P 0" class="cls-2" d="m267.33,76.54h-20.35c-3.23,0-5.85,2.62-5.85,5.85v22.72c0,3.23,2.62,5.84,5.85,5.84h6.78v-7.6h-2.96c-1.3,0-2.35-1.05-2.35-2.35v-15.16c0-1.3,1.05-2.35,2.35-2.35h14.18c1.3,0,2.35,1.05,2.35,2.35v15.16c0,1.3-1.05,2.35-2.35,2.35h-3.89v7.6h7.73c3.22,0,5.84-2.61,5.84-5.84v-40.48l-7.33,11.91Z"/>
          <path id="_R_G_L_6_G_D_6_P_0" data-name=" R G L 6 G D 6 P 0" class="cls-2" d="m248.46,90.27l.04,11.14s.38,1.76,1.98,1.93l-3.83-.48c-1.67-.21-3.23-1.01-4.31-2.31-.74-.89-1.22-1.96-1.22-3.16v-7.12h7.33Z"/>
          <path id="_R_G_L_6_G_D_7_P_0" data-name=" R G L 6 G D 7 P 0" class="cls-2" d="m253.77,112.23v2.5l-.1,4.32c-.01,2.23-1.25,4.28-3.23,5.28-.38.18-.74.32-1.06.35h6.06c1.88-.1,3.29-.88,4.37-2.18.74-.89,1.3-2.13,1.3-3.83v-6.45h-7.33Z"/>
          <path id="_R_G_L_6_G_D_8_P_0" data-name=" R G L 6 G D 8 P 0" class="cls-2" d="m234.9,114.77v-14.98h-7.33v11.57c0,3.18,2.58,5.76,5.76,5.76h3.92c-1.3,0-2.35-1.05-2.35-2.35Z"/>
          <path id="_R_G_L_6_G_D_9_P_0" data-name=" R G L 6 G D 9 P 0" class="cls-2" d="m264.99,103.35h-3.89v7.6h0c3.44,0,6.24-2.79,6.24-6.23v-3.72c0,1.3-1.05,2.35-2.35,2.35Z"/>
          <path id="_R_G_L_6_G_D_10_P_0" data-name=" R G L 6 G D 10 P 0" class="cls-2" d="m253.77,110.95h-3.66v-7.6h3.66v7.6Z"/>
          <path id="_R_G_L_6_G_D_11_P_0" data-name=" R G L 6 G D 11 P 0" class="cls-12" d="m300.57,94.66c0,27.31-22.14,49.45-49.45,49.45s-49.46-22.14-49.46-49.45,22.14-49.45,49.46-49.45,49.45,22.14,49.45,49.45Z"/>
        </g>
      </g>
      <g id="_R_G_L_5_G_N_9_T_0" data-name=" R G L 5 G N 9 T 0">
        <g id="_R_G_L_5_G" data-name=" R G L 5 G">
          <path id="_R_G_L_5_G_D_0_P_0" data-name=" R G L 5 G D 0 P 0" class="cls-10" d="m113.48,112.12v180.6c0,12.09,9.8,21.9,21.9,21.9h239.16c11.12,0,20.12-9.01,20.12-20.13v-140.35c0-11.12-9-20.12-20.12-20.12l-227.22-1.14c-18.18.65-33.84-8.68-33.84-20.77Z"/>
          <path id="_R_G_L_5_G_D_1_P_0" data-name=" R G L 5 G D 1 P 0" class="cls-3" d="m350.84,252.04h42.61c5.12,0,9.26-4.15,9.26-9.26v-35.97c0-5.12-4.14-9.27-9.26-9.27h-42.61c-15.06,0-27.25,12.21-27.25,27.25h0c0,15.06,12.19,27.25,27.25,27.25Z"/>
          <path id="_R_G_L_5_G_D_2_P_0" data-name=" R G L 5 G D 2 P 0" class="cls-11" d="m374.62,224.76c0,11.06-8.97,20.02-20.02,20.02s-20.04-8.97-20.04-20.02,8.97-20.02,20.04-20.02,20.02,8.97,20.02,20.02Z"/>
          <path id="_R_G_L_5_G_D_3_P_0" data-name=" R G L 5 G D 3 P 0" class="cls-6" d="m366.94,224.79c0,6.8-5.51,12.31-12.31,12.31s-12.31-5.51-12.31-12.31,5.51-12.31,12.31-12.31,12.31,5.51,12.31,12.31Z"/>
        </g>
      </g>
      <g id="_R_G_L_4_G" data-name=" R G L 4 G">
        <path id="_R_G_L_4_G_D_0_P_0" data-name=" R G L 4 G D 0 P 0" class="cls-6" d="m453.27,89.76s7.81-.46,11.49-11.18c0,0,2.49,9.96,11.66,11.18,0,0-9.89,2.14-11.66,11.64,0,0-1.38-9.19-11.49-11.64Z"/>
      </g>
      <g id="_R_G_L_3_G" data-name=" R G L 3 G">
        <path id="_R_G_L_3_G_D_0_P_0" data-name=" R G L 3 G D 0 P 0" class="cls-9" d="m40.26,308.01s11.36-.67,16.7-16.25c0,0,3.62,14.47,16.95,16.25,0,0-14.38,3.11-16.95,16.92,0,0-2-13.36-16.7-16.92Z"/>
      </g>
      <g id="_R_G_L_2_G" data-name=" R G L 2 G">
        <path id="_R_G_L_2_G_D_0_P_0" data-name=" R G L 2 G D 0 P 0" class="cls-6" d="m0,232.23s8.42-.5,12.39-12.06c0,0,2.68,10.74,12.57,12.06,0,0-10.66,2.31-12.57,12.55,0,0-1.49-9.91-12.39-12.55Z"/>
      </g>
      <g id="_R_G_L_1_G" data-name=" R G L 1 G">
        <path id="_R_G_L_1_G_D_0_P_0" data-name=" R G L 1 G D 0 P 0" class="cls-8" d="m397.86,15.09s10.54-.62,15.5-15.09c0,0,3.36,13.44,15.73,15.09,0,0-13.34,2.89-15.73,15.71,0,0-1.86-12.4-15.5-15.71Z"/>
      </g>
      <g id="_R_G_L_0_G" data-name=" R G L 0 G">
        <g id="_R_G_L_0_G_X" data-name=" R G L 0 G X" class="cls-4">
          <text class="cls-5" transform="translate(107.94 386.85)"><tspan class="cls-7" x="0" y="0">BELDEX </tspan><tspan class="cls-1" x="149.79" y="0">WALLET</tspan></text>
        </g>
      </g>
    </g>
  </g>
</svg>