<svg width="16" height="16" viewBox="0 0 16 16" fill="none" xmlns="http://www.w3.org/2000/svg">
<path d="M2.18182 0C1.60408 0.00297262 1.05085 0.233796 0.642324 0.642324C0.233796 1.05085 0.00297262 1.60408 0 2.18182V13.8182C0 14.3968 0.229869 14.9518 0.63904 15.361C1.04821 15.7701 1.60316 16 2.18182 16H14.5455C14.9312 16 15.3012 15.8468 15.574 15.574C15.8468 15.3012 16 14.9312 16 14.5455V4.36364C16 3.97787 15.8468 3.6079 15.574 3.33512C15.3012 3.06234 14.9312 2.90909 14.5455 2.90909H2.18182C1.98893 2.90909 1.80395 2.83247 1.66756 2.69608C1.53117 2.55969 1.45455 2.3747 1.45455 2.18182C1.45455 1.98893 1.53117 1.80395 1.66756 1.66756C1.80395 1.53117 1.98893 1.45455 2.18182 1.45455H13.0909C13.2838 1.45455 13.4688 1.37792 13.6052 1.24153C13.7416 1.10514 13.8182 0.920158 13.8182 0.727273C13.8182 0.534388 13.7416 0.349403 13.6052 0.213013C13.4688 0.076623 13.2838 0 13.0909 0H2.18182ZM13.0909 8C13.3786 8 13.6598 8.08531 13.899 8.24514C14.1382 8.40496 14.3246 8.63213 14.4347 8.89791C14.5448 9.1637 14.5736 9.45616 14.5175 9.73831C14.4614 10.0205 14.3229 10.2796 14.1194 10.4831C13.916 10.6865 13.6568 10.825 13.3747 10.8811C13.0925 10.9373 12.8001 10.9085 12.5343 10.7984C12.2685 10.6883 12.0413 10.5018 11.8815 10.2626C11.7217 10.0234 11.6364 9.74223 11.6364 9.45455C11.6364 9.26353 11.674 9.07439 11.7471 8.89791C11.8202 8.72144 11.9273 8.56109 12.0624 8.42603C12.1975 8.29096 12.3578 8.18382 12.5343 8.11072C12.7108 8.03762 12.8999 8 13.0909 8Z" fill="white"/>
</svg>
